<svg xmlns="http://www.w3.org/2000/svg" xmlns:xlink="http://www.w3.org/1999/xlink" width="805" zoomAndPan="magnify" viewBox="0 0 603.75 315.749992" height="421" preserveAspectRatio="xMidYMid meet" version="1.0"><defs><g/><clipPath id="id1"><path d="M 75.605469 108 L 206.804688 108 L 206.804688 239.933594 L 75.605469 239.933594 Z M 75.605469 108 " clip-rule="nonzero"/></clipPath></defs><path fill="#ffbd59" d="M 142.605469 91.527344 L 139.875 91.527344 C 137.296875 91.527344 135.28125 93.199219 135.28125 95.332031 L 135.28125 112.054688 C 135.28125 112.746094 135.839844 113.300781 136.53125 113.300781 L 145.953125 113.300781 C 146.640625 113.300781 147.203125 112.746094 147.203125 112.054688 L 147.203125 95.332031 C 147.203125 93.199219 145.183594 91.527344 142.605469 91.527344 Z M 142.605469 91.527344 " fill-opacity="1" fill-rule="nonzero"/><path fill="#1f212b" d="M 145.953125 114.441406 L 136.53125 114.441406 C 135.210938 114.441406 134.136719 113.371094 134.136719 112.054688 L 134.136719 95.332031 C 134.136719 92.558594 136.660156 90.386719 139.875 90.386719 L 142.601562 90.386719 C 145.824219 90.386719 148.34375 92.558594 148.34375 95.332031 L 148.34375 112.058594 C 148.347656 113.371094 147.273438 114.441406 145.953125 114.441406 Z M 139.878906 92.667969 C 137.945312 92.667969 136.429688 93.839844 136.429688 95.332031 L 136.429688 112.054688 L 145.957031 112.160156 L 146.058594 95.332031 C 146.058594 93.839844 144.542969 92.667969 142.609375 92.667969 Z M 139.878906 92.667969 " fill-opacity="1" fill-rule="nonzero"/><path fill="#1f212b" d="M 148.042969 103.699219 C 147.632812 103.699219 147.238281 103.480469 147.03125 103.09375 C 146.734375 102.539062 146.945312 101.851562 147.503906 101.554688 C 151.699219 99.328125 154.300781 95.074219 154.300781 90.445312 C 154.300781 83.46875 148.441406 77.792969 141.242188 77.792969 C 134.039062 77.792969 128.179688 83.46875 128.179688 90.445312 C 128.179688 94.9375 130.667969 99.128906 134.679688 101.390625 C 135.226562 101.699219 135.421875 102.394531 135.109375 102.945312 C 134.796875 103.492188 134.097656 103.683594 133.546875 103.375 C 128.824219 100.710938 125.886719 95.753906 125.886719 90.445312 C 125.886719 82.210938 132.773438 75.511719 141.238281 75.511719 C 149.703125 75.511719 156.589844 82.210938 156.589844 90.445312 C 156.589844 95.917969 153.519531 100.945312 148.578125 103.566406 C 148.410156 103.65625 148.222656 103.699219 148.042969 103.699219 Z M 148.042969 103.699219 " fill-opacity="1" fill-rule="nonzero"/><path fill="#009191" d="M 106.578125 119.785156 C 106.808594 119.605469 106.964844 119.335938 107.003906 119.042969 C 107.039062 118.75 106.960938 118.457031 106.777344 118.222656 L 102.777344 113.054688 C 102.558594 112.769531 102.226562 112.621094 101.890625 112.621094 C 101.652344 112.621094 101.414062 112.695312 101.210938 112.851562 L 92.480469 119.5625 C 92.246094 119.742188 92.089844 120.011719 92.054688 120.300781 C 92.015625 120.59375 92.09375 120.890625 92.277344 121.125 L 96.277344 126.289062 C 96.644531 126.761719 97.367188 126.859375 97.847656 126.492188 Z M 106.578125 119.785156 " fill-opacity="1" fill-rule="nonzero"/><path fill="#1f212b" d="M 97.175781 127.855469 C 96.496094 127.855469 95.8125 127.558594 95.375 126.992188 L 91.371094 121.820312 C 91.003906 121.34375 90.84375 120.753906 90.917969 120.160156 C 90.996094 119.566406 91.308594 119.023438 91.78125 118.660156 L 100.511719 111.949219 C 101.460938 111.21875 102.949219 111.40625 103.683594 112.363281 L 107.683594 117.527344 C 108.054688 118.007812 108.214844 118.597656 108.136719 119.191406 C 108.0625 119.78125 107.746094 120.324219 107.277344 120.6875 C 107.277344 120.6875 107.277344 120.6875 107.273438 120.691406 L 98.542969 127.398438 C 98.144531 127.707031 97.660156 127.855469 97.175781 127.855469 Z M 101.871094 113.753906 L 93.175781 120.464844 L 97.183594 125.597656 L 105.863281 118.894531 Z M 106.578125 119.785156 L 106.601562 119.785156 Z M 106.578125 119.785156 " fill-opacity="1" fill-rule="nonzero"/><path fill="#009191" d="M 104.488281 111.457031 C 104.644531 110.25 104.320312 109.050781 103.574219 108.089844 C 102.832031 107.132812 101.753906 106.515625 100.535156 106.359375 C 100.335938 106.332031 100.132812 106.320312 99.933594 106.320312 C 98.929688 106.320312 97.960938 106.648438 97.15625 107.269531 L 88.078125 114.242188 C 86.082031 115.777344 85.707031 118.644531 87.25 120.636719 C 88.121094 121.761719 89.445312 122.40625 90.878906 122.40625 C 91.898438 122.40625 92.863281 122.078125 93.667969 121.460938 L 102.742188 114.484375 C 103.710938 113.742188 104.332031 112.667969 104.488281 111.457031 Z M 104.488281 111.457031 " fill-opacity="1" fill-rule="nonzero"/><path fill="#1f212b" d="M 90.882812 123.546875 C 89.089844 123.546875 87.4375 122.742188 86.347656 121.332031 C 84.421875 118.84375 84.886719 115.257812 87.382812 113.339844 L 96.460938 106.363281 C 97.664062 105.4375 99.140625 105.023438 100.691406 105.230469 C 102.207031 105.425781 103.554688 106.191406 104.488281 107.394531 C 105.417969 108.601562 105.820312 110.097656 105.625 111.605469 C 105.429688 113.117188 104.65625 114.460938 103.449219 115.390625 L 94.371094 122.363281 C 93.359375 123.136719 92.152344 123.546875 90.882812 123.546875 Z M 99.9375 107.460938 C 99.179688 107.460938 98.460938 107.703125 97.859375 108.167969 L 88.78125 115.144531 C 87.285156 116.296875 87.007812 118.449219 88.160156 119.9375 C 89.277344 121.378906 91.511719 121.675781 92.976562 120.558594 L 102.050781 113.582031 C 102.773438 113.027344 103.234375 112.21875 103.351562 111.3125 C 103.46875 110.40625 103.230469 109.507812 102.671875 108.789062 C 102.113281 108.070312 101.304688 107.609375 100.390625 107.492188 C 100.238281 107.472656 100.085938 107.460938 99.9375 107.460938 Z M 99.9375 107.460938 " fill-opacity="1" fill-rule="nonzero"/><path fill="#009191" d="M 190.679688 120.304688 C 190.644531 120.015625 190.488281 119.746094 190.253906 119.566406 L 181.519531 112.855469 C 181.324219 112.703125 181.085938 112.625 180.839844 112.625 C 180.792969 112.625 180.746094 112.625 180.695312 112.632812 C 180.398438 112.671875 180.136719 112.824219 179.957031 113.058594 L 175.957031 118.226562 C 175.773438 118.460938 175.695312 118.753906 175.730469 119.050781 C 175.765625 119.339844 175.925781 119.609375 176.160156 119.789062 L 184.890625 126.5 C 185.359375 126.859375 186.089844 126.765625 186.457031 126.296875 L 190.457031 121.128906 C 190.640625 120.894531 190.71875 120.601562 190.679688 120.304688 Z M 190.679688 120.304688 " fill-opacity="1" fill-rule="nonzero"/><path fill="#1f212b" d="M 185.5625 127.859375 C 185.0625 127.859375 184.574219 127.699219 184.1875 127.398438 L 175.457031 120.691406 C 174.984375 120.328125 174.671875 119.785156 174.59375 119.195312 C 174.519531 118.597656 174.679688 118.003906 175.046875 117.527344 L 179.046875 112.363281 C 179.417969 111.886719 179.953125 111.578125 180.554688 111.5 C 180.601562 111.496094 180.796875 111.484375 180.84375 111.484375 C 181.347656 111.484375 181.824219 111.644531 182.222656 111.957031 L 190.953125 118.664062 C 191.425781 119.027344 191.742188 119.570312 191.816406 120.160156 C 191.816406 120.160156 191.816406 120.164062 191.816406 120.164062 C 191.890625 120.761719 191.730469 121.351562 191.367188 121.828125 L 187.363281 126.996094 C 187.003906 127.460938 186.453125 127.769531 185.855469 127.847656 C 185.753906 127.851562 185.660156 127.859375 185.5625 127.859375 Z M 180.824219 113.761719 L 176.863281 118.921875 L 185.589844 125.59375 L 189.539062 120.457031 Z M 189.554688 120.46875 Z M 189.554688 120.46875 " fill-opacity="1" fill-rule="nonzero"/><path fill="#009191" d="M 194.652344 114.242188 L 185.574219 107.265625 C 184.769531 106.644531 183.796875 106.320312 182.792969 106.320312 C 182.59375 106.320312 182.394531 106.332031 182.195312 106.359375 C 180.980469 106.515625 179.898438 107.128906 179.160156 108.089844 C 178.410156 109.054688 178.089844 110.25 178.246094 111.460938 C 178.40625 112.671875 179.019531 113.75 179.988281 114.488281 L 189.0625 121.464844 C 189.867188 122.082031 190.832031 122.410156 191.851562 122.410156 C 193.289062 122.410156 194.613281 121.765625 195.480469 120.636719 C 197.019531 118.644531 196.648438 115.777344 194.652344 114.242188 Z M 194.652344 114.242188 " fill-opacity="1" fill-rule="nonzero"/><path fill="#1f212b" d="M 191.851562 123.546875 C 190.574219 123.546875 189.367188 123.136719 188.363281 122.363281 L 179.285156 115.390625 C 178.078125 114.46875 177.308594 113.125 177.109375 111.609375 C 176.914062 110.09375 177.320312 108.597656 178.25 107.394531 C 179.179688 106.191406 180.53125 105.421875 182.046875 105.226562 C 183.574219 105.042969 185.070312 105.4375 186.273438 106.367188 L 195.347656 113.339844 C 196.558594 114.269531 197.332031 115.613281 197.527344 117.125 C 197.726562 118.636719 197.316406 120.132812 196.386719 121.335938 C 195.296875 122.742188 193.644531 123.546875 191.851562 123.546875 Z M 182.792969 107.460938 C 182.644531 107.460938 182.492188 107.46875 182.339844 107.488281 C 181.433594 107.605469 180.625 108.066406 180.066406 108.785156 C 179.507812 109.507812 179.265625 110.40625 179.382812 111.316406 C 179.5 112.222656 179.960938 113.03125 180.683594 113.582031 L 189.761719 120.558594 C 191.214844 121.671875 193.457031 121.382812 194.574219 119.9375 C 195.132812 119.214844 195.375 118.320312 195.257812 117.414062 C 195.144531 116.507812 194.679688 115.703125 193.953125 115.144531 L 184.878906 108.167969 C 184.269531 107.707031 183.550781 107.460938 182.792969 107.460938 Z M 182.792969 107.460938 " fill-opacity="1" fill-rule="nonzero"/><path fill="#009191" d="M 141.09375 110.824219 C 106.199219 110.824219 77.8125 139.105469 77.8125 173.863281 C 77.8125 208.625 106.199219 236.910156 141.09375 236.910156 C 175.984375 236.910156 204.367188 208.628906 204.367188 173.863281 C 204.367188 139.101562 175.980469 110.824219 141.09375 110.824219 Z M 141.09375 110.824219 " fill-opacity="1" fill-rule="nonzero"/><g clip-path="url(#id1)"><path fill="#1f212b" d="M 141.09375 239.1875 C 104.9375 239.1875 75.523438 209.882812 75.523438 173.863281 C 75.523438 137.84375 104.9375 108.539062 141.09375 108.539062 C 177.246094 108.539062 206.65625 137.84375 206.65625 173.863281 C 206.65625 209.886719 177.246094 239.1875 141.09375 239.1875 Z M 141.09375 113.101562 C 107.460938 113.101562 80.101562 140.359375 80.101562 173.863281 C 80.101562 207.367188 107.464844 234.625 141.09375 234.625 C 174.722656 234.625 202.078125 207.367188 202.078125 173.863281 C 202.074219 140.359375 174.71875 113.101562 141.09375 113.101562 Z M 141.09375 113.101562 " fill-opacity="1" fill-rule="nonzero"/></g><path fill="#ffffff" d="M 193.398438 169.882812 C 194.351562 180.890625 191.847656 192.25 185.488281 202.246094 C 170.015625 226.566406 137.59375 233.574219 113.074219 217.898438 C 88.550781 202.226562 81.21875 169.804688 96.691406 145.484375 C 112.160156 121.164062 144.582031 114.15625 169.105469 129.832031 C 177.820312 135.402344 184.367188 143.089844 188.488281 151.777344 " fill-opacity="1" fill-rule="nonzero"/><path fill="#1f212b" d="M 141.480469 227.410156 C 131.292969 227.410156 121.285156 224.5 112.457031 218.855469 C 87.445312 202.871094 79.941406 169.679688 95.722656 144.875 C 103.328125 132.917969 115.164062 124.652344 129.050781 121.589844 C 143.09375 118.5 157.535156 121.078125 169.722656 128.867188 C 178.328125 134.367188 185.171875 142.121094 189.519531 151.289062 C 189.789062 151.859375 189.542969 152.535156 188.972656 152.808594 C 188.398438 153.078125 187.71875 152.832031 187.445312 152.261719 C 183.285156 143.484375 176.726562 136.054688 168.484375 130.789062 C 156.816406 123.328125 142.984375 120.855469 129.542969 123.816406 C 116.253906 126.746094 104.929688 134.65625 97.65625 146.09375 C 82.542969 169.847656 89.738281 201.628906 113.691406 216.9375 C 125.355469 224.394531 139.1875 226.867188 152.628906 223.90625 C 165.917969 220.980469 177.242188 213.070312 184.519531 201.632812 C 190.550781 192.148438 193.230469 181.203125 192.253906 169.980469 C 192.199219 169.351562 192.667969 168.796875 193.296875 168.746094 C 193.921875 168.671875 194.480469 169.15625 194.535156 169.785156 C 195.554688 181.507812 192.757812 192.941406 186.453125 202.851562 C 178.84375 214.804688 167.007812 223.074219 153.121094 226.136719 C 149.257812 226.992188 145.355469 227.410156 141.480469 227.410156 Z M 141.480469 227.410156 " fill-opacity="1" fill-rule="nonzero"/><path fill="#ffffff" d="M 191.550781 161.382812 C 191.855469 162.617188 192.113281 163.855469 192.324219 165.109375 " fill-opacity="1" fill-rule="nonzero"/><path fill="#1f212b" d="M 192.324219 166.246094 C 191.777344 166.246094 191.292969 165.851562 191.199219 165.296875 C 190.988281 164.074219 190.738281 162.859375 190.441406 161.652344 C 190.292969 161.039062 190.667969 160.425781 191.28125 160.273438 C 191.894531 160.125 192.515625 160.5 192.664062 161.109375 C 192.972656 162.371094 193.238281 163.636719 193.457031 164.914062 C 193.5625 165.535156 193.140625 166.125 192.519531 166.230469 C 192.453125 166.242188 192.386719 166.246094 192.324219 166.246094 Z M 141.480469 128.1875 C 140.847656 128.1875 140.335938 127.675781 140.335938 127.046875 L 140.335938 121.992188 C 140.335938 121.359375 140.847656 120.851562 141.480469 120.851562 C 142.109375 120.851562 142.625 121.359375 142.625 121.992188 L 142.625 127.046875 C 142.625 127.675781 142.113281 128.1875 141.480469 128.1875 Z M 141.480469 225.660156 C 140.847656 225.660156 140.335938 225.148438 140.335938 224.519531 L 140.335938 219.464844 C 140.335938 218.835938 140.847656 218.324219 141.480469 218.324219 C 142.109375 218.324219 142.625 218.835938 142.625 219.464844 L 142.625 224.519531 C 142.625 225.148438 142.113281 225.660156 141.480469 225.660156 Z M 193.59375 175.105469 L 187.148438 175.105469 C 186.515625 175.105469 186.003906 174.59375 186.003906 173.964844 C 186.003906 173.335938 186.515625 172.824219 187.148438 172.824219 L 193.59375 172.824219 C 194.226562 172.824219 194.738281 173.335938 194.738281 173.964844 C 194.738281 174.59375 194.226562 175.105469 193.59375 175.105469 Z M 93.511719 175.105469 L 88.835938 175.105469 C 88.203125 175.105469 87.691406 174.59375 87.691406 173.964844 C 87.691406 173.335938 88.203125 172.824219 88.835938 172.824219 L 93.511719 172.824219 C 94.144531 172.824219 94.65625 173.335938 94.65625 173.964844 C 94.65625 174.59375 94.144531 175.105469 93.511719 175.105469 Z M 173.027344 143.246094 C 172.738281 143.246094 172.445312 143.136719 172.21875 142.910156 C 171.773438 142.464844 171.769531 141.746094 172.214844 141.296875 L 176.484375 137.023438 C 176.929688 136.578125 177.652344 136.574219 178.101562 137.019531 C 178.550781 137.464844 178.554688 138.183594 178.109375 138.632812 L 173.839844 142.90625 C 173.617188 143.132812 173.320312 143.246094 173.027344 143.246094 Z M 104.753906 211.453125 C 104.464844 211.453125 104.171875 211.34375 103.945312 211.121094 C 103.496094 210.675781 103.496094 209.957031 103.941406 209.507812 L 108.210938 205.234375 C 108.65625 204.789062 109.382812 204.785156 109.828125 205.230469 C 110.277344 205.675781 110.28125 206.394531 109.832031 206.84375 L 105.566406 211.117188 C 105.339844 211.34375 105.046875 211.453125 104.753906 211.453125 Z M 104.753906 211.453125 " fill-opacity="1" fill-rule="nonzero"/><path fill="#1f212b" d="M 178.3125 211.644531 C 178.019531 211.644531 177.726562 211.535156 177.503906 211.3125 L 173.234375 207.035156 C 172.789062 206.589844 172.789062 205.867188 173.238281 205.421875 C 173.6875 204.976562 174.410156 204.980469 174.859375 205.425781 L 179.125 209.703125 C 179.574219 210.148438 179.570312 210.871094 179.121094 211.316406 C 178.894531 211.535156 178.605469 211.644531 178.3125 211.644531 Z M 109.21875 142.324219 C 108.925781 142.324219 108.628906 142.214844 108.40625 141.988281 L 104.136719 137.71875 C 103.691406 137.273438 103.695312 136.550781 104.144531 136.105469 C 104.589844 135.660156 105.316406 135.660156 105.761719 136.109375 L 110.03125 140.382812 C 110.476562 140.828125 110.472656 141.550781 110.023438 141.996094 C 109.800781 142.214844 109.507812 142.324219 109.21875 142.324219 Z M 109.21875 142.324219 " fill-opacity="1" fill-rule="nonzero"/><path fill="#1f212b" d="M 170.65625 176.144531 L 147.820312 176.144531 C 146.558594 176.144531 145.53125 175.125 145.53125 173.863281 C 145.53125 172.605469 146.558594 171.582031 147.820312 171.582031 L 170.65625 171.582031 C 171.917969 171.582031 172.945312 172.605469 172.945312 173.863281 C 172.945312 175.125 171.921875 176.144531 170.65625 176.144531 Z M 141.480469 169.925781 C 140.214844 169.925781 139.1875 168.90625 139.1875 167.648438 L 139.1875 134.785156 C 139.1875 133.527344 140.214844 132.503906 141.480469 132.503906 C 142.742188 132.503906 143.769531 133.527344 143.769531 134.785156 L 143.769531 167.648438 C 143.769531 168.90625 142.742188 169.925781 141.480469 169.925781 Z M 141.480469 169.925781 " fill-opacity="1" fill-rule="nonzero"/><path fill="#ffbd59" d="M 141.480469 168.910156 C 141.144531 168.910156 140.816406 168.941406 140.488281 169.007812 C 140.164062 169.070312 139.84375 169.167969 139.539062 169.296875 C 139.230469 169.421875 138.9375 169.578125 138.660156 169.761719 C 138.382812 169.945312 138.125 170.15625 137.890625 170.390625 C 137.65625 170.625 137.445312 170.882812 137.261719 171.15625 C 137.074219 171.433594 136.917969 171.722656 136.792969 172.03125 C 136.664062 172.335938 136.566406 172.652344 136.503906 172.980469 C 136.4375 173.304688 136.40625 173.632812 136.40625 173.964844 C 136.40625 174.296875 136.4375 174.625 136.503906 174.953125 C 136.566406 175.277344 136.664062 175.59375 136.792969 175.898438 C 136.917969 176.207031 137.074219 176.496094 137.261719 176.773438 C 137.445312 177.050781 137.65625 177.304688 137.890625 177.539062 C 138.125 177.773438 138.382812 177.984375 138.660156 178.167969 C 138.9375 178.351562 139.230469 178.507812 139.539062 178.636719 C 139.84375 178.761719 140.164062 178.859375 140.488281 178.921875 C 140.816406 178.988281 141.144531 179.019531 141.480469 179.019531 C 141.8125 179.019531 142.140625 178.988281 142.46875 178.921875 C 142.796875 178.859375 143.113281 178.761719 143.421875 178.636719 C 143.726562 178.507812 144.019531 178.351562 144.296875 178.167969 C 144.574219 177.984375 144.832031 177.773438 145.066406 177.539062 C 145.300781 177.304688 145.511719 177.050781 145.699219 176.773438 C 145.882812 176.496094 146.039062 176.207031 146.167969 175.898438 C 146.292969 175.59375 146.390625 175.277344 146.457031 174.953125 C 146.519531 174.625 146.554688 174.296875 146.554688 173.964844 C 146.554688 173.632812 146.519531 173.304688 146.457031 172.980469 C 146.390625 172.652344 146.292969 172.335938 146.167969 172.03125 C 146.039062 171.722656 145.882812 171.433594 145.699219 171.15625 C 145.511719 170.882812 145.300781 170.625 145.066406 170.390625 C 144.832031 170.15625 144.574219 169.945312 144.296875 169.761719 C 144.019531 169.578125 143.726562 169.421875 143.421875 169.296875 C 143.113281 169.167969 142.796875 169.070312 142.46875 169.007812 C 142.140625 168.941406 141.8125 168.910156 141.480469 168.910156 Z M 141.480469 168.910156 " fill-opacity="1" fill-rule="nonzero"/><path fill="#1f212b" d="M 141.480469 180.160156 C 138.050781 180.160156 135.261719 177.382812 135.261719 173.964844 C 135.261719 170.546875 138.050781 167.769531 141.480469 167.769531 C 144.90625 167.769531 147.699219 170.550781 147.699219 173.964844 C 147.699219 177.378906 144.910156 180.160156 141.480469 180.160156 Z M 141.480469 170.050781 C 139.3125 170.050781 137.550781 171.808594 137.550781 173.964844 C 137.550781 176.125 139.3125 177.878906 141.480469 177.878906 C 143.644531 177.878906 145.40625 176.125 145.40625 173.964844 C 145.40625 171.808594 143.644531 170.050781 141.480469 170.050781 Z M 141.480469 170.050781 " fill-opacity="1" fill-rule="nonzero"/><g fill="#009191" fill-opacity="1"><g transform="translate(232.442103, 203.942978)"><g><path d="M 60.027344 -60.8125 L 60.027344 -67.679688 L 3.335938 -67.679688 L 3.335938 -60.8125 L 27.464844 -60.8125 L 27.464844 0 L 35.898438 0 L 35.898438 -60.8125 Z M 60.027344 -60.8125 "/></g></g></g><g fill="#009191" fill-opacity="1"><g transform="translate(292.464708, 203.942978)"><g><path d="M 11.476562 -69.050781 C 8.433594 -69.050781 6.082031 -66.699219 6.082031 -63.65625 C 6.082031 -60.617188 8.433594 -58.261719 11.476562 -58.261719 C 14.515625 -58.261719 16.871094 -60.617188 16.871094 -63.65625 C 16.871094 -66.699219 14.515625 -69.050781 11.476562 -69.050781 Z M 15.695312 0 L 15.695312 -51.984375 L 7.257812 -51.984375 L 7.257812 0 Z M 15.695312 0 "/></g></g></g><g fill="#009191" fill-opacity="1"><g transform="translate(315.806832, 203.942978)"><g><path d="M 76.40625 -40.703125 C 75.230469 -47.863281 69.933594 -53.359375 60.617188 -53.359375 C 56.007812 -53.359375 52.277344 -52.476562 49.628906 -50.316406 L 45.019531 -43.648438 C 43.058594 -49.335938 37.957031 -53.359375 30.015625 -53.359375 C 25.402344 -53.359375 21.675781 -52.476562 19.027344 -50.316406 L 15.695312 -44.433594 L 15.695312 -51.984375 L 7.257812 -51.984375 L 7.257812 0 L 15.695312 0 L 15.695312 -25.699219 C 15.695312 -41.488281 20.5 -46.6875 27.070312 -46.6875 C 32.957031 -46.6875 36.683594 -43.84375 37.46875 -37.957031 C 37.761719 -35.308594 37.859375 -32.464844 37.859375 -27.855469 L 37.859375 0 L 46.296875 0 L 46.296875 -25.699219 C 46.296875 -41.488281 51.101562 -46.6875 57.671875 -46.6875 C 63.558594 -46.6875 67.285156 -43.84375 68.070312 -37.957031 C 68.363281 -35.308594 68.460938 -32.464844 68.460938 -27.855469 L 68.460938 0 L 76.898438 0 L 76.898438 -31.78125 C 76.898438 -35.996094 76.800781 -38.058594 76.40625 -40.703125 Z M 76.40625 -40.703125 "/></g></g></g><g fill="#009191" fill-opacity="1"><g transform="translate(399.661931, 203.942978)"><g><path d="M 49.925781 -27.464844 C 49.925781 -42.667969 41.980469 -53.359375 27.660156 -53.359375 C 13.4375 -53.359375 2.941406 -42.667969 2.941406 -25.796875 C 2.941406 -7.453125 13.046875 1.375 26.582031 1.375 C 37.273438 1.375 47.179688 -4.21875 49.238281 -16.773438 L 40.410156 -16.773438 C 39.234375 -9.316406 33.742188 -5.101562 26.972656 -5.101562 C 19.324219 -5.101562 12.847656 -9.710938 12.0625 -23.441406 L 49.730469 -23.441406 C 49.925781 -25.304688 49.925781 -26.679688 49.925781 -27.464844 Z M 27.464844 -46.882812 C 35.996094 -46.882812 40.605469 -40.703125 41.390625 -29.914062 L 12.164062 -29.914062 C 13.144531 -41 19.222656 -46.882812 27.464844 -46.882812 Z M 27.464844 -46.882812 "/></g></g></g><g fill="#009191" fill-opacity="1"><g transform="translate(453.505738, 203.942978)"><g><path d="M 15.300781 -72.09375 L 6.867188 -72.09375 L 6.867188 -14.613281 C 6.867188 -11.769531 6.867188 -9.515625 6.964844 -7.75 C 7.257812 -1.175781 10.886719 0.390625 15.792969 0.390625 C 17.753906 0.390625 19.910156 0.292969 21.773438 0 L 21.773438 -6.082031 C 17.164062 -5.589844 15.59375 -6.667969 15.398438 -10.003906 C 15.300781 -11.671875 15.300781 -13.339844 15.300781 -14.910156 Z M 15.300781 -72.09375 "/></g></g></g><g fill="#009191" fill-opacity="1"><g transform="translate(477.730558, 203.942978)"><g><path d="M 49.730469 -51.984375 L 40.507812 -51.984375 L 25.109375 -6.277344 L 9.613281 -51.984375 L 0.0976562 -51.984375 L 20.792969 2.648438 L 20.105469 4.511719 C 17.460938 11.378906 14.027344 13.632812 8.828125 13.632812 C 7.945312 13.632812 7.0625 13.632812 5.785156 13.535156 L 5.785156 20.402344 C 7.0625 20.597656 8.238281 20.597656 10.101562 20.597656 C 18.539062 20.597656 24.128906 15.398438 28.347656 4.414062 Z M 49.730469 -51.984375 "/></g></g></g></svg>
