<svg xmlns="http://www.w3.org/2000/svg" xmlns:xlink="http://www.w3.org/1999/xlink" width="788" zoomAndPan="magnify" viewBox="0 0 591 269.999989" height="360" preserveAspectRatio="xMidYMid meet" version="1.0"><defs><g/><clipPath id="id1"><path d="M 75.449219 75.523438 L 194.699219 75.523438 L 194.699219 194.773438 L 75.449219 194.773438 Z M 75.449219 75.523438 " clip-rule="nonzero"/></clipPath></defs><path fill="#009191" d="M 155.503906 123 L 152.082031 123 L 152.082031 106.9375 C 152.082031 101.183594 147.398438 96.503906 141.644531 96.503906 L 128.507812 96.503906 C 122.753906 96.503906 118.070312 101.183594 118.070312 106.9375 L 118.070312 123 L 114.648438 123 C 110.988281 123 108.023438 125.96875 108.023438 129.628906 L 108.023438 161.867188 C 108.023438 165.527344 110.988281 168.492188 114.648438 168.492188 L 155.503906 168.492188 C 159.160156 168.492188 162.128906 165.527344 162.128906 161.867188 L 162.128906 129.628906 C 162.128906 125.96875 159.160156 123 155.503906 123 Z M 123.371094 106.9375 C 123.371094 104.105469 125.675781 101.800781 128.507812 101.800781 L 141.644531 101.800781 C 144.476562 101.800781 146.78125 104.105469 146.78125 106.9375 L 146.78125 122.558594 L 123.371094 122.558594 Z M 138.542969 157.273438 C 138.605469 157.703125 138.273438 158.085938 137.839844 158.085938 L 132.3125 158.085938 C 131.878906 158.085938 131.546875 157.703125 131.609375 157.273438 L 132.863281 148.867188 C 131.433594 147.988281 130.550781 146.304688 130.902344 144.433594 C 131.21875 142.75 132.605469 141.371094 134.296875 141.070312 C 136.988281 140.589844 139.328125 142.648438 139.328125 145.25 C 139.328125 146.785156 138.507812 148.117188 137.289062 148.867188 Z M 138.542969 157.273438 " fill-opacity="1" fill-rule="nonzero"/><g clip-path="url(#id1)"><path fill="#009191" d="M 135.074219 75.523438 C 102.199219 75.523438 75.449219 102.269531 75.449219 135.148438 C 75.449219 168.023438 102.199219 194.773438 135.074219 194.773438 C 167.953125 194.773438 194.699219 168.023438 194.699219 135.148438 C 194.699219 102.269531 167.953125 75.523438 135.074219 75.523438 Z M 135.074219 189.472656 C 105.121094 189.472656 80.75 165.101562 80.75 135.148438 C 80.75 105.191406 105.121094 80.824219 135.074219 80.824219 C 165.03125 80.824219 189.402344 105.191406 189.402344 135.148438 C 189.402344 165.101562 165.03125 189.472656 135.074219 189.472656 Z M 135.074219 189.472656 " fill-opacity="1" fill-rule="nonzero"/></g><g fill="#009191" fill-opacity="1"><g transform="translate(213.957592, 172.011432)"><g><path d="M 61.265625 -62.066406 L 61.265625 -69.074219 L 3.402344 -69.074219 L 3.402344 -62.066406 L 28.03125 -62.066406 L 28.03125 0 L 36.640625 0 L 36.640625 -62.066406 Z M 61.265625 -62.066406 "/></g></g></g><g fill="#009191" fill-opacity="1"><g transform="translate(275.219801, 172.011432)"><g><path d="M 11.710938 -70.476562 C 8.609375 -70.476562 6.207031 -68.074219 6.207031 -64.972656 C 6.207031 -61.867188 8.609375 -59.464844 11.710938 -59.464844 C 14.816406 -59.464844 17.21875 -61.867188 17.21875 -64.972656 C 17.21875 -68.074219 14.816406 -70.476562 11.710938 -70.476562 Z M 16.019531 0 L 16.019531 -53.058594 L 7.40625 -53.058594 L 7.40625 0 Z M 16.019531 0 "/></g></g></g><g fill="#009191" fill-opacity="1"><g transform="translate(299.043995, 172.011432)"><g><path d="M 77.984375 -41.546875 C 76.785156 -48.855469 71.378906 -54.460938 61.867188 -54.460938 C 57.164062 -54.460938 53.359375 -53.558594 50.65625 -51.355469 L 45.949219 -44.550781 C 43.949219 -50.355469 38.742188 -54.460938 30.632812 -54.460938 C 25.929688 -54.460938 22.125 -53.558594 19.421875 -51.355469 L 16.019531 -45.351562 L 16.019531 -53.058594 L 7.40625 -53.058594 L 7.40625 0 L 16.019531 0 L 16.019531 -26.230469 C 16.019531 -42.347656 20.921875 -47.652344 27.628906 -47.652344 C 33.636719 -47.652344 37.441406 -44.75 38.242188 -38.742188 C 38.542969 -36.039062 38.640625 -33.136719 38.640625 -28.429688 L 38.640625 0 L 47.25 0 L 47.25 -26.230469 C 47.25 -42.347656 52.15625 -47.652344 58.863281 -47.652344 C 64.871094 -47.652344 68.675781 -44.75 69.476562 -38.742188 C 69.777344 -36.039062 69.875 -33.136719 69.875 -28.429688 L 69.875 0 L 78.484375 0 L 78.484375 -32.4375 C 78.484375 -36.742188 78.386719 -38.84375 77.984375 -41.546875 Z M 77.984375 -41.546875 "/></g></g></g><g fill="#009191" fill-opacity="1"><g transform="translate(384.630894, 172.011432)"><g><path d="M 50.957031 -28.03125 C 50.957031 -43.546875 42.847656 -54.460938 28.230469 -54.460938 C 13.714844 -54.460938 3.003906 -43.546875 3.003906 -26.328125 C 3.003906 -7.609375 13.316406 1.402344 27.128906 1.402344 C 38.042969 1.402344 48.152344 -4.304688 50.253906 -17.117188 L 41.246094 -17.117188 C 40.042969 -9.511719 34.4375 -5.207031 27.53125 -5.207031 C 19.722656 -5.207031 13.113281 -9.910156 12.3125 -23.925781 L 50.753906 -23.925781 C 50.957031 -25.828125 50.957031 -27.230469 50.957031 -28.03125 Z M 28.03125 -47.851562 C 36.742188 -47.851562 41.445312 -41.546875 42.246094 -30.535156 L 12.414062 -30.535156 C 13.414062 -41.847656 19.621094 -47.851562 28.03125 -47.851562 Z M 28.03125 -47.851562 "/></g></g></g><g fill="#009191" fill-opacity="1"><g transform="translate(439.5867, 172.011432)"><g><path d="M 15.617188 -73.582031 L 7.007812 -73.582031 L 7.007812 -14.917969 C 7.007812 -12.011719 7.007812 -9.710938 7.109375 -7.910156 C 7.40625 -1.203125 11.113281 0.402344 16.117188 0.402344 C 18.121094 0.402344 20.324219 0.300781 22.222656 0 L 22.222656 -6.207031 C 17.519531 -5.707031 15.917969 -6.808594 15.71875 -10.210938 C 15.617188 -11.914062 15.617188 -13.613281 15.617188 -15.214844 Z M 15.617188 -73.582031 "/></g></g></g><g fill="#009191" fill-opacity="1"><g transform="translate(464.311818, 172.011432)"><g><path d="M 50.753906 -53.058594 L 41.34375 -53.058594 L 25.628906 -6.40625 L 9.8125 -53.058594 L 0.101562 -53.058594 L 21.222656 2.703125 L 20.523438 4.605469 C 17.820312 11.613281 14.316406 13.914062 9.011719 13.914062 C 8.109375 13.914062 7.207031 13.914062 5.90625 13.816406 L 5.90625 20.824219 C 7.207031 21.023438 8.410156 21.023438 10.3125 21.023438 C 18.921875 21.023438 24.628906 15.71875 28.933594 4.503906 Z M 50.753906 -53.058594 "/></g></g></g></svg>
