<svg xmlns="http://www.w3.org/2000/svg" xmlns:xlink="http://www.w3.org/1999/xlink" width="796" zoomAndPan="magnify" viewBox="0 0 597 281.999989" height="376" preserveAspectRatio="xMidYMid meet" version="1.0"><defs><g/><clipPath id="id1"><path d="M 96 75.074219 L 207.320312 75.074219 L 207.320312 168 L 96 168 Z M 96 75.074219 " clip-rule="nonzero"/></clipPath><clipPath id="id2"><path d="M 75.320312 102 L 197 102 L 197 207.074219 L 75.320312 207.074219 Z M 75.320312 102 " clip-rule="nonzero"/></clipPath></defs><g clip-path="url(#id1)"><path fill="#009191" d="M 101.011719 96.34375 C 100.4375 96.855469 99.6875 97.125 98.917969 97.082031 C 98.152344 97.042969 97.429688 96.699219 96.917969 96.128906 C 96.402344 95.554688 96.136719 94.800781 96.175781 94.035156 C 96.21875 93.269531 96.5625 92.546875 97.132812 92.03125 C 103.179688 86.59375 110.179688 82.316406 117.785156 79.421875 C 125.324219 76.546875 133.328125 75.074219 141.398438 75.074219 C 147.058594 75.070312 152.695312 75.804688 158.164062 77.246094 C 163.820312 78.742188 169.253906 80.988281 174.316406 83.914062 C 179.480469 86.894531 184.21875 90.554688 188.398438 94.804688 C 192.4375 98.914062 195.921875 103.542969 198.753906 108.5625 C 201.546875 113.515625 203.691406 118.800781 205.136719 124.300781 C 206.582031 129.800781 207.316406 135.460938 207.316406 141.148438 C 207.316406 149.515625 205.714844 157.808594 202.601562 165.578125 C 202.316406 166.289062 201.757812 166.863281 201.050781 167.164062 C 200.34375 167.464844 199.546875 167.476562 198.832031 167.1875 C 198.121094 166.902344 197.546875 166.34375 197.246094 165.640625 C 196.945312 164.933594 196.9375 164.136719 197.222656 163.421875 C 200.0625 156.339844 201.519531 148.777344 201.519531 141.148438 C 201.519531 135.960938 200.847656 130.792969 199.527344 125.773438 C 198.210938 120.757812 196.253906 115.925781 193.707031 111.410156 C 191.125 106.832031 187.949219 102.617188 184.265625 98.867188 C 180.449219 94.992188 176.128906 91.652344 171.417969 88.933594 C 166.796875 86.261719 161.839844 84.21875 156.683594 82.851562 C 151.695312 81.535156 146.558594 80.867188 141.398438 80.871094 C 134.03125 80.871094 126.730469 82.214844 119.847656 84.839844 C 112.910156 87.480469 106.527344 91.378906 101.011719 96.34375 Z M 101.011719 96.34375 " fill-opacity="1" fill-rule="nonzero"/></g><g clip-path="url(#id2)"><path fill="#009191" d="M 190.734375 175.453125 C 191.175781 174.824219 191.847656 174.394531 192.601562 174.257812 C 193.359375 174.125 194.136719 174.292969 194.769531 174.734375 C 195.398438 175.175781 195.828125 175.847656 195.964844 176.601562 C 196.101562 177.359375 195.929688 178.140625 195.488281 178.769531 C 189.503906 187.351562 181.570312 194.398438 172.339844 199.332031 C 167.664062 201.832031 162.699219 203.75 157.558594 205.054688 C 152.25 206.394531 146.796875 207.074219 141.320312 207.070312 C 136.855469 207.074219 132.402344 206.621094 128.027344 205.730469 C 123.78125 204.859375 119.628906 203.570312 115.636719 201.878906 C 107.796875 198.558594 100.671875 193.753906 94.65625 187.730469 C 88.636719 181.714844 83.828125 174.589844 80.507812 166.75 C 78.820312 162.757812 77.527344 158.609375 76.65625 154.359375 C 75.765625 149.988281 75.316406 145.535156 75.316406 141.066406 C 75.3125 134.261719 76.359375 127.488281 78.429688 121 C 80.429688 114.738281 83.359375 108.804688 87.121094 103.410156 C 87.558594 102.78125 88.234375 102.351562 88.988281 102.214844 C 89.746094 102.078125 90.523438 102.25 91.15625 102.691406 C 91.785156 103.128906 92.214844 103.800781 92.351562 104.558594 C 92.484375 105.316406 92.3125 106.09375 91.875 106.722656 C 88.449219 111.644531 85.777344 117.050781 83.949219 122.761719 C 82.066406 128.683594 81.109375 134.855469 81.113281 141.066406 C 81.109375 145.140625 81.523438 149.207031 82.335938 153.199219 C 83.128906 157.070312 84.308594 160.851562 85.84375 164.492188 C 88.878906 171.644531 93.257812 178.140625 98.753906 183.632812 C 104.246094 189.128906 110.746094 193.507812 117.898438 196.542969 C 121.535156 198.082031 125.320312 199.257812 129.1875 200.050781 C 133.179688 200.867188 137.246094 201.277344 141.320312 201.273438 C 146.316406 201.277344 151.292969 200.660156 156.136719 199.433594 C 160.820312 198.246094 165.347656 196.496094 169.609375 194.21875 C 178.03125 189.71875 185.273438 183.285156 190.734375 175.453125 Z M 190.734375 175.453125 " fill-opacity="1" fill-rule="nonzero"/></g><path fill="#009191" d="M 138.421875 95.496094 C 138.421875 94.726562 138.726562 93.988281 139.269531 93.445312 C 139.8125 92.902344 140.550781 92.597656 141.320312 92.597656 C 142.089844 92.597656 142.828125 92.902344 143.371094 93.445312 C 143.914062 93.988281 144.21875 94.726562 144.21875 95.496094 L 144.21875 145.378906 L 113.792969 163.078125 C 113.128906 163.464844 112.339844 163.570312 111.597656 163.375 C 110.855469 163.179688 110.21875 162.695312 109.832031 162.03125 C 109.449219 161.367188 109.339844 160.574219 109.535156 159.832031 C 109.730469 159.089844 110.214844 158.453125 110.878906 158.066406 L 138.421875 142.042969 Z M 138.421875 95.496094 " fill-opacity="1" fill-rule="nonzero"/><g fill="#009191" fill-opacity="1"><g transform="translate(219.957591, 177.695669)"><g><path d="M 61.265625 -62.066406 L 61.265625 -69.074219 L 3.402344 -69.074219 L 3.402344 -62.066406 L 28.03125 -62.066406 L 28.03125 0 L 36.640625 0 L 36.640625 -62.066406 Z M 61.265625 -62.066406 "/></g></g></g><g fill="#009191" fill-opacity="1"><g transform="translate(281.219801, 177.695669)"><g><path d="M 11.710938 -70.476562 C 8.609375 -70.476562 6.207031 -68.074219 6.207031 -64.972656 C 6.207031 -61.867188 8.609375 -59.464844 11.710938 -59.464844 C 14.816406 -59.464844 17.21875 -61.867188 17.21875 -64.972656 C 17.21875 -68.074219 14.816406 -70.476562 11.710938 -70.476562 Z M 16.019531 0 L 16.019531 -53.058594 L 7.40625 -53.058594 L 7.40625 0 Z M 16.019531 0 "/></g></g></g><g fill="#009191" fill-opacity="1"><g transform="translate(305.043994, 177.695669)"><g><path d="M 77.984375 -41.546875 C 76.785156 -48.855469 71.378906 -54.460938 61.867188 -54.460938 C 57.164062 -54.460938 53.359375 -53.558594 50.65625 -51.355469 L 45.949219 -44.550781 C 43.949219 -50.355469 38.742188 -54.460938 30.632812 -54.460938 C 25.929688 -54.460938 22.125 -53.558594 19.421875 -51.355469 L 16.019531 -45.351562 L 16.019531 -53.058594 L 7.40625 -53.058594 L 7.40625 0 L 16.019531 0 L 16.019531 -26.230469 C 16.019531 -42.347656 20.921875 -47.652344 27.628906 -47.652344 C 33.636719 -47.652344 37.441406 -44.75 38.242188 -38.742188 C 38.542969 -36.039062 38.640625 -33.136719 38.640625 -28.429688 L 38.640625 0 L 47.25 0 L 47.25 -26.230469 C 47.25 -42.347656 52.15625 -47.652344 58.863281 -47.652344 C 64.871094 -47.652344 68.675781 -44.75 69.476562 -38.742188 C 69.777344 -36.039062 69.875 -33.136719 69.875 -28.429688 L 69.875 0 L 78.484375 0 L 78.484375 -32.4375 C 78.484375 -36.742188 78.386719 -38.84375 77.984375 -41.546875 Z M 77.984375 -41.546875 "/></g></g></g><g fill="#009191" fill-opacity="1"><g transform="translate(390.630894, 177.695669)"><g><path d="M 50.957031 -28.03125 C 50.957031 -43.546875 42.847656 -54.460938 28.230469 -54.460938 C 13.714844 -54.460938 3.003906 -43.546875 3.003906 -26.328125 C 3.003906 -7.609375 13.316406 1.402344 27.128906 1.402344 C 38.042969 1.402344 48.152344 -4.304688 50.253906 -17.117188 L 41.246094 -17.117188 C 40.042969 -9.511719 34.4375 -5.207031 27.53125 -5.207031 C 19.722656 -5.207031 13.113281 -9.910156 12.3125 -23.925781 L 50.753906 -23.925781 C 50.957031 -25.828125 50.957031 -27.230469 50.957031 -28.03125 Z M 28.03125 -47.851562 C 36.742188 -47.851562 41.445312 -41.546875 42.246094 -30.535156 L 12.414062 -30.535156 C 13.414062 -41.847656 19.621094 -47.851562 28.03125 -47.851562 Z M 28.03125 -47.851562 "/></g></g></g><g fill="#009191" fill-opacity="1"><g transform="translate(445.5867, 177.695669)"><g><path d="M 15.617188 -73.582031 L 7.007812 -73.582031 L 7.007812 -14.917969 C 7.007812 -12.011719 7.007812 -9.710938 7.109375 -7.910156 C 7.40625 -1.203125 11.113281 0.402344 16.117188 0.402344 C 18.121094 0.402344 20.324219 0.300781 22.222656 0 L 22.222656 -6.207031 C 17.519531 -5.707031 15.917969 -6.808594 15.71875 -10.210938 C 15.617188 -11.914062 15.617188 -13.613281 15.617188 -15.214844 Z M 15.617188 -73.582031 "/></g></g></g><g fill="#009191" fill-opacity="1"><g transform="translate(470.311818, 177.695669)"><g><path d="M 50.753906 -53.058594 L 41.34375 -53.058594 L 25.628906 -6.40625 L 9.8125 -53.058594 L 0.101562 -53.058594 L 21.222656 2.703125 L 20.523438 4.605469 C 17.820312 11.613281 14.316406 13.914062 9.011719 13.914062 C 8.109375 13.914062 7.207031 13.914062 5.90625 13.816406 L 5.90625 20.824219 C 7.207031 21.023438 8.410156 21.023438 10.3125 21.023438 C 18.921875 21.023438 24.628906 15.71875 28.933594 4.503906 Z M 50.753906 -53.058594 "/></g></g></g></svg>
