<svg xmlns="http://www.w3.org/2000/svg" xmlns:xlink="http://www.w3.org/1999/xlink" width="920" zoomAndPan="magnify" viewBox="0 0 690 340.49999" height="454" preserveAspectRatio="xMidYMid meet" version="1.0"><defs><g/><clipPath id="id1"><path d="M 114 176.574219 L 168 176.574219 L 168 233 L 114 233 Z M 114 176.574219 " clip-rule="nonzero"/></clipPath><clipPath id="id2"><path d="M 110.132812 216 L 172.289062 216 L 172.289062 264.945312 L 110.132812 264.945312 Z M 110.132812 216 " clip-rule="nonzero"/></clipPath><clipPath id="id3"><path d="M 80 75.429688 L 206.972656 75.429688 L 206.972656 202 L 80 202 Z M 80 75.429688 " clip-rule="nonzero"/></clipPath></defs><g clip-path="url(#id1)"><path fill="#ffbd59" d="M 141.210938 176.566406 C 126.667969 176.566406 114.957031 188.308594 114.957031 202.898438 L 114.957031 232.152344 L 122.25 232.152344 L 122.25 202.898438 C 122.25 192.363281 130.707031 183.878906 141.210938 183.878906 C 151.714844 183.878906 160.171875 192.363281 160.171875 202.898438 L 160.171875 232.152344 L 167.460938 232.152344 L 167.460938 202.898438 C 167.460938 188.308594 155.753906 176.566406 141.210938 176.566406 Z M 141.210938 176.566406 " fill-opacity="1" fill-rule="evenodd"/></g><g clip-path="url(#id2)"><path fill="#009191" d="M 110.558594 216.796875 L 171.863281 216.796875 C 171.960938 216.796875 172.046875 216.832031 172.117188 216.90625 C 172.1875 216.976562 172.222656 217.0625 172.222656 217.160156 L 172.222656 264.585938 C 172.222656 264.6875 172.1875 264.773438 172.117188 264.84375 C 172.046875 264.914062 171.960938 264.949219 171.863281 264.949219 L 110.558594 264.949219 C 110.460938 264.949219 110.375 264.914062 110.304688 264.84375 C 110.234375 264.773438 110.195312 264.6875 110.195312 264.585938 L 110.195312 217.160156 C 110.195312 217.0625 110.234375 216.976562 110.304688 216.90625 C 110.375 216.832031 110.460938 216.796875 110.558594 216.796875 " fill-opacity="1" fill-rule="evenodd"/></g><g clip-path="url(#id3)"><path fill="#009191" d="M 143.941406 75.457031 C 141.878906 75.457031 139.820312 75.558594 137.765625 75.761719 C 135.710938 75.960938 133.675781 76.265625 131.648438 76.667969 C 129.625 77.070312 127.628906 77.570312 125.652344 78.171875 C 123.679688 78.769531 121.738281 79.464844 119.832031 80.253906 C 117.925781 81.042969 116.0625 81.921875 114.242188 82.894531 C 112.421875 83.867188 110.65625 84.929688 108.9375 86.074219 C 107.222656 87.222656 105.566406 88.449219 103.972656 89.757812 C 102.378906 91.066406 100.851562 92.449219 99.390625 93.910156 C 97.933594 95.367188 96.546875 96.894531 95.238281 98.492188 C 93.929688 100.085938 92.703125 101.742188 91.554688 103.457031 C 90.410156 105.171875 89.351562 106.941406 88.378906 108.761719 C 87.40625 110.582031 86.523438 112.441406 85.734375 114.347656 C 84.945312 116.257812 84.25 118.195312 83.652344 120.171875 C 83.050781 122.144531 82.550781 124.144531 82.148438 126.167969 C 81.746094 128.191406 81.445312 130.230469 81.242188 132.285156 C 81.039062 134.335938 80.9375 136.394531 80.9375 138.460938 C 80.9375 140.523438 81.039062 142.582031 81.242188 144.636719 C 81.445312 146.6875 81.746094 148.726562 82.148438 150.75 C 82.550781 152.773438 83.050781 154.773438 83.652344 156.75 C 84.25 158.722656 84.945312 160.664062 85.734375 162.570312 C 86.523438 164.476562 87.40625 166.339844 88.378906 168.160156 C 89.351562 169.980469 90.410156 171.746094 91.554688 173.460938 C 92.703125 175.175781 93.929688 176.832031 95.238281 178.429688 C 96.546875 180.023438 97.933594 181.550781 99.390625 183.007812 C 100.851562 184.46875 102.378906 185.851562 103.972656 187.160156 C 105.566406 188.46875 107.222656 189.699219 108.9375 190.84375 C 110.652344 191.992188 112.421875 193.050781 114.242188 194.023438 C 116.0625 194.996094 117.925781 195.875 119.832031 196.667969 C 121.738281 197.457031 123.675781 198.152344 125.652344 198.75 C 127.625 199.347656 129.625 199.847656 131.648438 200.25 C 133.671875 200.652344 135.710938 200.957031 137.765625 201.160156 C 139.820312 201.359375 141.878906 201.460938 143.941406 201.460938 C 146.003906 201.460938 148.0625 201.359375 150.117188 201.160156 C 152.167969 200.957031 154.207031 200.65625 156.230469 200.25 C 158.253906 199.847656 160.253906 199.347656 162.230469 198.75 C 164.203125 198.152344 166.144531 197.457031 168.050781 196.667969 C 169.957031 195.875 171.820312 194.996094 173.640625 194.023438 C 175.460938 193.050781 177.226562 191.992188 178.941406 190.84375 C 180.660156 189.699219 182.3125 188.46875 183.910156 187.160156 C 185.503906 185.851562 187.03125 184.46875 188.488281 183.007812 C 189.949219 181.550781 191.332031 180.023438 192.640625 178.429688 C 193.953125 176.832031 195.179688 175.175781 196.324219 173.460938 C 197.472656 171.746094 198.53125 169.976562 199.503906 168.160156 C 200.476562 166.339844 201.359375 164.476562 202.148438 162.570312 C 202.9375 160.664062 203.632812 158.722656 204.230469 156.746094 C 204.828125 154.773438 205.332031 152.773438 205.734375 150.75 C 206.136719 148.726562 206.4375 146.6875 206.640625 144.632812 C 206.84375 142.582031 206.941406 140.523438 206.941406 138.460938 C 206.941406 136.394531 206.835938 134.339844 206.632812 132.285156 C 206.429688 130.234375 206.125 128.195312 205.722656 126.171875 C 205.316406 124.148438 204.816406 122.152344 204.214844 120.179688 C 203.613281 118.203125 202.917969 116.265625 202.128906 114.359375 C 201.339844 112.453125 200.457031 110.59375 199.484375 108.773438 C 198.511719 106.957031 197.449219 105.1875 196.304688 103.472656 C 195.15625 101.757812 193.929688 100.105469 192.621094 98.511719 C 191.3125 96.914062 189.929688 95.390625 188.46875 93.929688 C 187.011719 92.472656 185.484375 91.089844 183.890625 89.78125 C 182.296875 88.472656 180.640625 87.242188 178.925781 86.097656 C 177.210938 84.949219 175.445312 83.890625 173.625 82.917969 C 171.808594 81.945312 169.945312 81.0625 168.039062 80.273438 C 166.136719 79.480469 164.195312 78.785156 162.222656 78.1875 C 160.25 77.585938 158.25 77.082031 156.226562 76.679688 C 154.203125 76.277344 152.167969 75.972656 150.113281 75.765625 C 148.0625 75.5625 146.003906 75.460938 143.941406 75.457031 Z M 143.941406 195.910156 C 142.058594 195.910156 140.183594 195.816406 138.308594 195.632812 C 136.4375 195.449219 134.578125 195.171875 132.734375 194.804688 C 130.886719 194.4375 129.066406 193.980469 127.265625 193.433594 C 125.464844 192.890625 123.695312 192.257812 121.957031 191.535156 C 120.21875 190.816406 118.519531 190.011719 116.859375 189.125 C 115.199219 188.238281 113.589844 187.273438 112.023438 186.226562 C 110.460938 185.183594 108.949219 184.0625 107.496094 182.867188 C 106.042969 181.675781 104.648438 180.414062 103.316406 179.082031 C 101.988281 177.753906 100.726562 176.359375 99.53125 174.90625 C 98.339844 173.449219 97.21875 171.941406 96.171875 170.375 C 95.128906 168.8125 94.160156 167.199219 93.273438 165.542969 C 92.386719 163.882812 91.585938 162.183594 90.863281 160.445312 C 90.144531 158.707031 89.511719 156.9375 88.964844 155.136719 C 88.417969 153.335938 87.960938 151.511719 87.59375 149.667969 C 87.226562 147.820312 86.953125 145.964844 86.769531 144.089844 C 86.582031 142.21875 86.492188 140.339844 86.492188 138.460938 C 86.492188 136.578125 86.582031 134.699219 86.769531 132.828125 C 86.953125 130.957031 87.226562 129.097656 87.59375 127.25 C 87.960938 125.40625 88.417969 123.582031 88.964844 121.78125 C 89.511719 119.984375 90.144531 118.214844 90.863281 116.476562 C 91.585938 114.738281 92.386719 113.039062 93.273438 111.378906 C 94.160156 109.71875 95.128906 108.105469 96.171875 106.542969 C 97.21875 104.976562 98.339844 103.46875 99.53125 102.015625 C 100.726562 100.558594 101.988281 99.167969 103.316406 97.835938 C 104.648438 96.507812 106.039062 95.246094 107.496094 94.050781 C 108.949219 92.855469 110.460938 91.738281 112.023438 90.691406 C 113.589844 89.648438 115.199219 88.679688 116.859375 87.792969 C 118.519531 86.90625 120.21875 86.105469 121.957031 85.382812 C 123.695312 84.664062 125.464844 84.03125 127.265625 83.484375 C 129.066406 82.9375 130.886719 82.480469 132.734375 82.113281 C 134.578125 81.746094 136.4375 81.472656 138.308594 81.285156 C 140.183594 81.101562 142.058594 81.011719 143.941406 81.011719 C 145.820312 81.011719 147.699219 81.101562 149.570312 81.285156 C 151.445312 81.472656 153.304688 81.746094 155.148438 82.113281 C 156.992188 82.480469 158.816406 82.9375 160.617188 83.484375 C 162.417969 84.03125 164.1875 84.664062 165.925781 85.382812 C 167.664062 86.101562 169.363281 86.90625 171.023438 87.792969 C 172.679688 88.679688 174.292969 89.648438 175.859375 90.691406 C 177.421875 91.738281 178.933594 92.855469 180.386719 94.050781 C 181.839844 95.246094 183.234375 96.507812 184.5625 97.835938 C 185.894531 99.167969 187.15625 100.558594 188.351562 102.015625 C 189.542969 103.46875 190.664062 104.976562 191.707031 106.542969 C 192.753906 108.105469 193.71875 109.71875 194.605469 111.378906 C 195.492188 113.039062 196.296875 114.734375 197.015625 116.472656 C 197.738281 118.210938 198.371094 119.980469 198.917969 121.78125 C 199.460938 123.582031 199.917969 125.40625 200.285156 127.25 C 200.652344 129.097656 200.929688 130.957031 201.113281 132.828125 C 201.296875 134.699219 201.390625 136.578125 201.390625 138.460938 C 201.386719 140.339844 201.292969 142.214844 201.109375 144.089844 C 200.921875 145.960938 200.644531 147.816406 200.277344 149.664062 C 199.90625 151.507812 199.449219 153.328125 198.902344 155.128906 C 198.355469 156.929688 197.722656 158.695312 197 160.433594 C 196.28125 162.171875 195.476562 163.871094 194.589844 165.527344 C 193.699219 167.1875 192.734375 168.796875 191.6875 170.359375 C 190.644531 171.925781 189.523438 173.433594 188.332031 174.886719 C 187.136719 176.339844 185.875 177.734375 184.546875 179.0625 C 183.214844 180.394531 181.824219 181.65625 180.371094 182.847656 C 178.914062 184.042969 177.40625 185.160156 175.84375 186.207031 C 174.28125 187.253906 172.667969 188.21875 171.011719 189.105469 C 169.351562 189.992188 167.652344 190.796875 165.917969 191.519531 C 164.179688 192.238281 162.410156 192.875 160.609375 193.421875 C 158.8125 193.96875 156.988281 194.425781 155.144531 194.792969 C 153.300781 195.164062 151.441406 195.441406 149.570312 195.625 C 147.699219 195.8125 145.824219 195.90625 143.941406 195.910156 Z M 143.941406 195.910156 " fill-opacity="1" fill-rule="nonzero"/></g><path fill="#009191" d="M 146.71875 139.101562 L 146.71875 97.949219 C 146.71875 97.582031 146.648438 97.226562 146.507812 96.886719 C 146.367188 96.546875 146.164062 96.246094 145.90625 95.984375 C 145.644531 95.726562 145.34375 95.523438 145.003906 95.382812 C 144.664062 95.242188 144.308594 95.171875 143.941406 95.171875 C 143.574219 95.171875 143.21875 95.242188 142.878906 95.382812 C 142.539062 95.523438 142.238281 95.726562 141.976562 95.984375 C 141.71875 96.246094 141.515625 96.546875 141.375 96.886719 C 141.234375 97.226562 141.164062 97.582031 141.164062 97.949219 L 141.164062 140.25 C 141.164062 141.019531 141.4375 141.671875 141.976562 142.214844 L 165.996094 166.234375 C 166.257812 166.492188 166.558594 166.695312 166.898438 166.835938 C 167.238281 166.976562 167.59375 167.046875 167.960938 167.046875 C 168.328125 167.046875 168.683594 166.976562 169.023438 166.835938 C 169.363281 166.695312 169.664062 166.492188 169.921875 166.234375 C 170.183594 165.972656 170.382812 165.671875 170.527344 165.332031 C 170.667969 164.992188 170.738281 164.636719 170.738281 164.269531 C 170.738281 163.902344 170.667969 163.546875 170.527344 163.207031 C 170.382812 162.867188 170.183594 162.566406 169.921875 162.308594 Z M 146.71875 139.101562 " fill-opacity="1" fill-rule="nonzero"/><g fill="#009191" fill-opacity="1"><g transform="translate(242.289704, 221.8352)"><g><path d="M 75.457031 -76.445312 L 75.457031 -85.074219 L 4.191406 -85.074219 L 4.191406 -76.445312 L 34.523438 -76.445312 L 34.523438 0 L 45.125 0 L 45.125 -76.445312 Z M 75.457031 -76.445312 "/></g></g></g><g fill="#009191" fill-opacity="1"><g transform="translate(317.740998, 221.8352)"><g><path d="M 14.425781 -86.800781 C 10.605469 -86.800781 7.644531 -83.839844 7.644531 -80.019531 C 7.644531 -76.199219 10.605469 -73.238281 14.425781 -73.238281 C 18.246094 -73.238281 21.207031 -76.199219 21.207031 -80.019531 C 21.207031 -83.839844 18.246094 -86.800781 14.425781 -86.800781 Z M 19.726562 0 L 19.726562 -65.347656 L 9.125 -65.347656 L 9.125 0 Z M 19.726562 0 "/></g></g></g><g fill="#009191" fill-opacity="1"><g transform="translate(347.083169, 221.8352)"><g><path d="M 96.046875 -51.167969 C 94.570312 -60.167969 87.910156 -67.074219 76.199219 -67.074219 C 70.402344 -67.074219 65.71875 -65.964844 62.386719 -63.25 L 56.59375 -54.867188 C 54.128906 -62.019531 47.714844 -67.074219 37.730469 -67.074219 C 31.933594 -67.074219 27.25 -65.964844 23.917969 -63.25 L 19.726562 -55.851562 L 19.726562 -65.347656 L 9.125 -65.347656 L 9.125 0 L 19.726562 0 L 19.726562 -32.304688 C 19.726562 -52.15625 25.769531 -58.6875 34.03125 -58.6875 C 41.425781 -58.6875 46.113281 -55.113281 47.097656 -47.714844 C 47.46875 -44.386719 47.59375 -40.8125 47.59375 -35.015625 L 47.59375 0 L 58.195312 0 L 58.195312 -32.304688 C 58.195312 -52.15625 64.238281 -58.6875 72.5 -58.6875 C 79.894531 -58.6875 84.582031 -55.113281 85.566406 -47.714844 C 85.9375 -44.386719 86.0625 -40.8125 86.0625 -35.015625 L 86.0625 0 L 96.664062 0 L 96.664062 -39.949219 C 96.664062 -45.25 96.542969 -47.839844 96.046875 -51.167969 Z M 96.046875 -51.167969 "/></g></g></g><g fill="#009191" fill-opacity="1"><g transform="translate(452.49305, 221.8352)"><g><path d="M 62.757812 -34.523438 C 62.757812 -53.632812 52.769531 -67.074219 34.769531 -67.074219 C 16.890625 -67.074219 3.699219 -53.632812 3.699219 -32.425781 C 3.699219 -9.371094 16.398438 1.726562 33.414062 1.726562 C 46.851562 1.726562 59.304688 -5.300781 61.894531 -21.082031 L 50.796875 -21.082031 C 49.320312 -11.714844 42.414062 -6.410156 33.90625 -6.410156 C 24.289062 -6.410156 16.152344 -12.207031 15.164062 -29.46875 L 62.511719 -29.46875 C 62.757812 -31.8125 62.757812 -33.535156 62.757812 -34.523438 Z M 34.523438 -58.9375 C 45.25 -58.9375 51.042969 -51.167969 52.03125 -37.605469 L 15.289062 -37.605469 C 16.523438 -51.539062 24.167969 -58.9375 34.523438 -58.9375 Z M 34.523438 -58.9375 "/></g></g></g><g fill="#009191" fill-opacity="1"><g transform="translate(520.177299, 221.8352)"><g><path d="M 19.234375 -90.625 L 8.628906 -90.625 L 8.628906 -18.371094 C 8.628906 -14.796875 8.628906 -11.960938 8.753906 -9.742188 C 9.125 -1.480469 13.6875 0.492188 19.851562 0.492188 C 22.316406 0.492188 25.027344 0.371094 27.371094 0 L 27.371094 -7.644531 C 21.578125 -7.027344 19.605469 -8.382812 19.359375 -12.578125 C 19.234375 -14.671875 19.234375 -16.769531 19.234375 -18.742188 Z M 19.234375 -90.625 "/></g></g></g><g fill="#009191" fill-opacity="1"><g transform="translate(550.62906, 221.8352)"><g><path d="M 62.511719 -65.347656 L 50.921875 -65.347656 L 31.5625 -7.890625 L 12.082031 -65.347656 L 0.125 -65.347656 L 26.140625 3.328125 L 25.277344 5.671875 C 21.945312 14.300781 17.632812 17.136719 11.097656 17.136719 C 9.988281 17.136719 8.878906 17.136719 7.273438 17.015625 L 7.273438 25.644531 C 8.878906 25.890625 10.355469 25.890625 12.699219 25.890625 C 23.304688 25.890625 30.332031 19.359375 35.632812 5.546875 Z M 62.511719 -65.347656 "/></g></g></g></svg>
