<svg xmlns="http://www.w3.org/2000/svg" xmlns:xlink="http://www.w3.org/1999/xlink" width="776" zoomAndPan="magnify" viewBox="0 0 582 283.499996" height="378" preserveAspectRatio="xMidYMid meet" version="1.0"><defs><g/><clipPath id="id1"><path d="M 86 75.511719 L 170 75.511719 L 170 140 L 86 140 Z M 86 75.511719 " clip-rule="nonzero"/></clipPath></defs><g clip-path="url(#id1)"><path fill="#03989e" d="M 168.230469 104.644531 C 164.367188 88.941406 150.320312 75.53125 128.226562 75.53125 C 106.132812 75.53125 92.164062 88.957031 88.222656 104.644531 C 84.351562 120.058594 88.222656 139.847656 88.222656 139.847656 L 168.230469 139.847656 C 168.230469 139.847656 171.554688 118.15625 168.230469 104.644531 Z M 153.984375 128.429688 L 102.382812 128.429688 C 102.382812 128.429688 99.882812 116.605469 102.382812 107.394531 C 104.925781 98.015625 113.933594 89.996094 128.183594 89.996094 C 142.433594 89.996094 151.492188 98.007812 153.984375 107.394531 C 156.128906 115.464844 153.984375 128.429688 153.984375 128.429688 Z M 153.984375 128.429688 " fill-opacity="1" fill-rule="nonzero"/></g><path fill="#03989e" d="M 174.265625 126.890625 C 177 129.953125 176.832031 200.277344 174.265625 204.167969 C 171.699219 208.058594 93.464844 207.195312 91.089844 204.167969 C 88.714844 201.140625 88.394531 129.015625 91.089844 126.890625 C 93.785156 124.765625 171.53125 123.828125 174.265625 126.890625 Z M 174.265625 126.890625 " fill-opacity="1" fill-rule="nonzero"/><path fill="#5ce1e6" d="M 161.808594 126.890625 C 164.542969 129.953125 164.371094 200.277344 161.808594 204.167969 C 159.242188 208.058594 81.007812 207.195312 78.632812 204.167969 C 76.253906 201.140625 75.9375 129.015625 78.632812 126.890625 C 81.328125 124.765625 159.070312 123.828125 161.808594 126.890625 Z M 161.808594 126.890625 " fill-opacity="1" fill-rule="nonzero"/><path fill="#03989e" d="M 129.859375 160.96875 C 129.859375 161.65625 129.792969 162.335938 129.65625 163.011719 C 129.523438 163.683594 129.324219 164.339844 129.0625 164.972656 C 128.800781 165.609375 128.476562 166.210938 128.097656 166.78125 C 127.714844 167.355469 127.28125 167.882812 126.796875 168.367188 C 126.3125 168.855469 125.785156 169.289062 125.210938 169.671875 C 124.640625 170.050781 124.039062 170.375 123.40625 170.636719 C 122.769531 170.902344 122.117188 171.097656 121.445312 171.234375 C 120.769531 171.367188 120.089844 171.433594 119.40625 171.433594 C 118.71875 171.433594 118.039062 171.367188 117.367188 171.234375 C 116.691406 171.097656 116.039062 170.902344 115.40625 170.636719 C 114.769531 170.375 114.167969 170.050781 113.597656 169.671875 C 113.027344 169.289062 112.5 168.855469 112.015625 168.367188 C 111.527344 167.882812 111.09375 167.355469 110.714844 166.78125 C 110.332031 166.210938 110.011719 165.609375 109.75 164.972656 C 109.484375 164.339844 109.289062 163.683594 109.152344 163.011719 C 109.019531 162.335938 108.953125 161.65625 108.953125 160.96875 C 108.953125 160.28125 109.019531 159.601562 109.152344 158.925781 C 109.289062 158.253906 109.484375 157.597656 109.75 156.964844 C 110.011719 156.328125 110.332031 155.726562 110.714844 155.15625 C 111.09375 154.582031 111.527344 154.054688 112.015625 153.570312 C 112.5 153.082031 113.027344 152.648438 113.597656 152.265625 C 114.167969 151.886719 114.769531 151.5625 115.40625 151.300781 C 116.039062 151.035156 116.691406 150.839844 117.367188 150.703125 C 118.039062 150.570312 118.71875 150.503906 119.40625 150.503906 C 120.089844 150.503906 120.769531 150.570312 121.445312 150.703125 C 122.117188 150.839844 122.769531 151.035156 123.40625 151.300781 C 124.039062 151.5625 124.640625 151.886719 125.210938 152.265625 C 125.785156 152.648438 126.3125 153.082031 126.796875 153.570312 C 127.28125 154.054688 127.714844 154.582031 128.097656 155.15625 C 128.476562 155.726562 128.800781 156.328125 129.0625 156.964844 C 129.324219 157.597656 129.523438 158.253906 129.65625 158.925781 C 129.792969 159.601562 129.859375 160.28125 129.859375 160.96875 Z M 129.859375 160.96875 " fill-opacity="1" fill-rule="nonzero"/><path fill="#03989e" d="M 124.394531 185.132812 C 123.433594 186.609375 115.4375 186.515625 114.429688 185.132812 C 113.425781 183.753906 114.429688 165.851562 114.429688 165.851562 L 124.394531 165.851562 C 124.394531 165.851562 125.359375 183.660156 124.394531 185.132812 Z M 124.394531 185.132812 " fill-opacity="1" fill-rule="nonzero"/><g fill="#009191" fill-opacity="1"><g transform="translate(205.109073, 178.394483)"><g><path d="M 61.160156 -61.957031 L 61.160156 -68.953125 L 3.398438 -68.953125 L 3.398438 -61.957031 L 27.980469 -61.957031 L 27.980469 0 L 36.574219 0 L 36.574219 -61.957031 Z M 61.160156 -61.957031 "/></g></g></g><g fill="#009191" fill-opacity="1"><g transform="translate(266.263428, 178.394483)"><g><path d="M 11.691406 -70.351562 C 8.59375 -70.351562 6.195312 -67.953125 6.195312 -64.855469 C 6.195312 -61.757812 8.59375 -59.359375 11.691406 -59.359375 C 14.789062 -59.359375 17.1875 -61.757812 17.1875 -64.855469 C 17.1875 -67.953125 14.789062 -70.351562 11.691406 -70.351562 Z M 15.988281 0 L 15.988281 -52.964844 L 7.394531 -52.964844 L 7.394531 0 Z M 15.988281 0 "/></g></g></g><g fill="#009191" fill-opacity="1"><g transform="translate(290.045678, 178.394483)"><g><path d="M 77.847656 -41.472656 C 76.648438 -48.769531 71.253906 -54.363281 61.757812 -54.363281 C 57.0625 -54.363281 53.265625 -53.464844 50.566406 -51.265625 L 45.871094 -44.46875 C 43.871094 -50.265625 38.675781 -54.363281 30.578125 -54.363281 C 25.882812 -54.363281 22.085938 -53.464844 19.386719 -51.265625 L 15.988281 -45.269531 L 15.988281 -52.964844 L 7.394531 -52.964844 L 7.394531 0 L 15.988281 0 L 15.988281 -26.183594 C 15.988281 -42.273438 20.886719 -47.570312 27.582031 -47.570312 C 33.578125 -47.570312 37.375 -44.671875 38.175781 -38.675781 C 38.472656 -35.976562 38.574219 -33.078125 38.574219 -28.382812 L 38.574219 0 L 47.167969 0 L 47.167969 -26.183594 C 47.167969 -42.273438 52.066406 -47.570312 58.761719 -47.570312 C 64.757812 -47.570312 68.554688 -44.671875 69.355469 -38.675781 C 69.652344 -35.976562 69.753906 -33.078125 69.753906 -28.382812 L 69.753906 0 L 78.347656 0 L 78.347656 -32.378906 C 78.347656 -36.675781 78.25 -38.773438 77.847656 -41.472656 Z M 77.847656 -41.472656 "/></g></g></g><g fill="#009191" fill-opacity="1"><g transform="translate(375.481899, 178.394483)"><g><path d="M 50.867188 -27.980469 C 50.867188 -43.472656 42.773438 -54.363281 28.179688 -54.363281 C 13.691406 -54.363281 2.996094 -43.472656 2.996094 -26.28125 C 2.996094 -7.59375 13.292969 1.398438 27.082031 1.398438 C 37.976562 1.398438 48.066406 -4.296875 50.167969 -17.089844 L 41.171875 -17.089844 C 39.972656 -9.492188 34.378906 -5.195312 27.480469 -5.195312 C 19.6875 -5.195312 13.089844 -9.894531 12.292969 -23.882812 L 50.667969 -23.882812 C 50.867188 -25.78125 50.867188 -27.183594 50.867188 -27.980469 Z M 27.980469 -47.769531 C 36.675781 -47.769531 41.371094 -41.472656 42.171875 -30.480469 L 12.390625 -30.480469 C 13.390625 -41.773438 19.585938 -47.769531 27.980469 -47.769531 Z M 27.980469 -47.769531 "/></g></g></g><g fill="#009191" fill-opacity="1"><g transform="translate(430.340953, 178.394483)"><g><path d="M 15.589844 -73.453125 L 6.996094 -73.453125 L 6.996094 -14.890625 C 6.996094 -11.992188 6.996094 -9.695312 7.09375 -7.894531 C 7.394531 -1.199219 11.09375 0.398438 16.089844 0.398438 C 18.089844 0.398438 20.285156 0.300781 22.183594 0 L 22.183594 -6.195312 C 17.488281 -5.695312 15.890625 -6.796875 15.691406 -10.191406 C 15.589844 -11.890625 15.589844 -13.589844 15.589844 -15.191406 Z M 15.589844 -73.453125 "/></g></g></g><g fill="#009191" fill-opacity="1"><g transform="translate(455.022542, 178.394483)"><g><path d="M 50.667969 -52.964844 L 41.273438 -52.964844 L 25.582031 -6.394531 L 9.792969 -52.964844 L 0.101562 -52.964844 L 21.1875 2.699219 L 20.488281 4.597656 C 17.789062 11.59375 14.289062 13.890625 8.992188 13.890625 C 8.09375 13.890625 7.195312 13.890625 5.894531 13.789062 L 5.894531 20.785156 C 7.195312 20.984375 8.394531 20.984375 10.292969 20.984375 C 18.886719 20.984375 24.582031 15.691406 28.878906 4.496094 Z M 50.667969 -52.964844 "/></g></g></g></svg>
