<svg xmlns="http://www.w3.org/2000/svg" xmlns:xlink="http://www.w3.org/1999/xlink" width="803" zoomAndPan="magnify" viewBox="0 0 602.25 295.499996" height="394" preserveAspectRatio="xMidYMid meet" version="1.0"><defs><g/><clipPath id="id1"><path d="M 119 75.210938 L 147 75.210938 L 147 101 L 119 101 Z M 119 75.210938 " clip-rule="nonzero"/></clipPath><clipPath id="id2"><path d="M 75.523438 104 L 190 104 L 190 219.714844 L 75.523438 219.714844 Z M 75.523438 104 " clip-rule="nonzero"/></clipPath></defs><path fill="#ffbd59" d="M 134.027344 89.695312 L 131.644531 89.695312 C 129.394531 89.695312 127.632812 91.160156 127.632812 93.03125 L 127.632812 107.679688 C 127.632812 108.285156 128.121094 108.773438 128.722656 108.773438 L 136.949219 108.773438 C 137.550781 108.773438 138.042969 108.285156 138.042969 107.679688 L 138.042969 93.03125 C 138.042969 91.160156 136.277344 89.695312 134.027344 89.695312 Z M 134.027344 89.695312 " fill-opacity="1" fill-rule="nonzero"/><path fill="#1f212b" d="M 136.949219 109.769531 L 128.722656 109.769531 C 127.570312 109.769531 126.632812 108.832031 126.632812 107.679688 L 126.632812 93.03125 C 126.632812 90.597656 128.835938 88.695312 131.644531 88.695312 L 134.023438 88.695312 C 136.835938 88.695312 139.035156 90.597656 139.035156 93.03125 L 139.035156 107.683594 C 139.039062 108.832031 138.101562 109.769531 136.949219 109.769531 Z M 131.644531 90.695312 C 129.957031 90.695312 128.632812 91.71875 128.632812 93.03125 L 128.632812 107.679688 L 136.953125 107.773438 L 137.042969 93.03125 C 137.042969 91.71875 135.71875 90.695312 134.027344 90.695312 Z M 131.644531 90.695312 " fill-opacity="1" fill-rule="nonzero"/><g clip-path="url(#id1)"><path fill="#1f212b" d="M 138.773438 100.359375 C 138.417969 100.359375 138.070312 100.167969 137.890625 99.832031 C 137.632812 99.34375 137.816406 98.738281 138.304688 98.480469 C 141.964844 96.53125 144.238281 92.800781 144.238281 88.75 C 144.238281 82.636719 139.121094 77.664062 132.835938 77.664062 C 126.546875 77.664062 121.433594 82.636719 121.433594 88.75 C 121.433594 92.683594 123.605469 96.355469 127.105469 98.335938 C 127.585938 98.605469 127.753906 99.21875 127.480469 99.699219 C 127.210938 100.179688 126.601562 100.347656 126.117188 100.074219 C 121.992188 97.738281 119.429688 93.398438 119.429688 88.75 C 119.429688 81.535156 125.441406 75.664062 132.832031 75.664062 C 140.222656 75.664062 146.234375 81.535156 146.234375 88.75 C 146.234375 93.542969 143.558594 97.945312 139.242188 100.242188 C 139.09375 100.320312 138.933594 100.359375 138.773438 100.359375 Z M 138.773438 100.359375 " fill-opacity="1" fill-rule="nonzero"/></g><path fill="#009191" d="M 102.570312 114.453125 C 102.773438 114.292969 102.910156 114.058594 102.941406 113.800781 C 102.972656 113.542969 102.90625 113.289062 102.746094 113.082031 L 99.253906 108.554688 C 99.058594 108.304688 98.769531 108.175781 98.476562 108.175781 C 98.269531 108.175781 98.0625 108.242188 97.882812 108.378906 L 90.257812 114.257812 C 90.054688 114.414062 89.917969 114.648438 89.886719 114.902344 C 89.855469 115.160156 89.921875 115.417969 90.082031 115.625 L 93.578125 120.152344 C 93.894531 120.5625 94.527344 120.652344 94.945312 120.328125 Z M 102.570312 114.453125 " fill-opacity="1" fill-rule="nonzero"/><path fill="#1f212b" d="M 94.363281 121.523438 C 93.765625 121.523438 93.171875 121.261719 92.785156 120.765625 L 89.292969 116.238281 C 88.96875 115.820312 88.832031 115.300781 88.894531 114.78125 C 88.964844 114.261719 89.238281 113.785156 89.648438 113.464844 L 97.273438 107.589844 C 98.101562 106.949219 99.398438 107.113281 100.042969 107.949219 L 103.535156 112.476562 C 103.859375 112.894531 104 113.414062 103.933594 113.933594 C 103.863281 114.449219 103.589844 114.925781 103.179688 115.242188 C 103.179688 115.242188 103.179688 115.242188 103.179688 115.246094 L 95.554688 121.121094 C 95.207031 121.394531 94.78125 121.523438 94.363281 121.523438 Z M 98.460938 109.167969 L 90.871094 115.050781 L 94.367188 119.542969 L 101.945312 113.671875 Z M 102.570312 114.453125 L 102.589844 114.453125 Z M 102.570312 114.453125 " fill-opacity="1" fill-rule="nonzero"/><path fill="#009191" d="M 100.742188 107.15625 C 100.882812 106.097656 100.597656 105.046875 99.949219 104.207031 C 99.296875 103.367188 98.355469 102.828125 97.296875 102.691406 C 97.117188 102.667969 96.941406 102.65625 96.769531 102.65625 C 95.890625 102.65625 95.046875 102.941406 94.34375 103.484375 L 86.417969 109.59375 C 84.671875 110.941406 84.347656 113.453125 85.695312 115.199219 C 86.457031 116.183594 87.609375 116.75 88.863281 116.75 C 89.75 116.75 90.59375 116.460938 91.296875 115.921875 L 99.222656 109.808594 C 100.066406 109.160156 100.609375 108.21875 100.742188 107.15625 Z M 100.742188 107.15625 " fill-opacity="1" fill-rule="nonzero"/><path fill="#1f212b" d="M 88.867188 117.75 C 87.300781 117.75 85.855469 117.042969 84.90625 115.808594 C 83.222656 113.628906 83.628906 110.488281 85.808594 108.804688 L 93.734375 102.695312 C 94.789062 101.882812 96.078125 101.519531 97.429688 101.699219 C 98.753906 101.871094 99.929688 102.542969 100.742188 103.597656 C 101.558594 104.652344 101.910156 105.964844 101.738281 107.285156 C 101.566406 108.613281 100.894531 109.789062 99.839844 110.601562 L 91.914062 116.710938 C 91.03125 117.390625 89.976562 117.75 88.867188 117.75 Z M 96.773438 103.652344 C 96.113281 103.652344 95.484375 103.867188 94.957031 104.273438 L 87.03125 110.386719 C 85.722656 111.394531 85.480469 113.28125 86.488281 114.585938 C 87.460938 115.847656 89.414062 116.109375 90.695312 115.128906 L 98.617188 109.019531 C 99.25 108.53125 99.652344 107.824219 99.753906 107.027344 C 99.855469 106.234375 99.644531 105.449219 99.160156 104.820312 C 98.671875 104.1875 97.964844 103.785156 97.167969 103.683594 C 97.03125 103.664062 96.902344 103.652344 96.773438 103.652344 Z M 96.773438 103.652344 " fill-opacity="1" fill-rule="nonzero"/><path fill="#009191" d="M 176.003906 114.90625 C 175.972656 114.652344 175.835938 114.417969 175.632812 114.261719 L 168.007812 108.382812 C 167.832031 108.25 167.625 108.179688 167.410156 108.179688 C 167.371094 108.179688 167.328125 108.179688 167.285156 108.1875 C 167.027344 108.21875 166.796875 108.351562 166.636719 108.558594 L 163.144531 113.085938 C 162.988281 113.292969 162.917969 113.546875 162.949219 113.808594 C 162.980469 114.0625 163.121094 114.296875 163.324219 114.457031 L 170.945312 120.332031 C 171.359375 120.652344 171.996094 120.570312 172.316406 120.15625 L 175.808594 115.628906 C 175.96875 115.421875 176.035156 115.167969 176.003906 114.90625 Z M 176.003906 114.90625 " fill-opacity="1" fill-rule="nonzero"/><path fill="#1f212b" d="M 171.535156 121.527344 C 171.097656 121.527344 170.671875 121.382812 170.332031 121.121094 L 162.710938 115.246094 C 162.296875 114.929688 162.023438 114.453125 161.957031 113.933594 C 161.890625 113.410156 162.03125 112.894531 162.355469 112.476562 L 165.847656 107.949219 C 166.167969 107.53125 166.636719 107.261719 167.160156 107.195312 C 167.203125 107.191406 167.371094 107.179688 167.414062 107.179688 C 167.855469 107.179688 168.269531 107.320312 168.621094 107.59375 L 176.242188 113.46875 C 176.65625 113.789062 176.929688 114.265625 176.996094 114.78125 C 176.996094 114.78125 176.996094 114.785156 176.996094 114.785156 C 177.058594 115.308594 176.921875 115.824219 176.601562 116.242188 L 173.109375 120.769531 C 172.792969 121.175781 172.3125 121.445312 171.789062 121.515625 C 171.703125 121.519531 171.617188 121.527344 171.535156 121.527344 Z M 167.394531 109.171875 L 163.9375 113.695312 L 171.558594 119.542969 L 175.003906 115.039062 Z M 175.019531 115.050781 Z M 175.019531 115.050781 " fill-opacity="1" fill-rule="nonzero"/><path fill="#009191" d="M 179.46875 109.59375 L 171.542969 103.484375 C 170.839844 102.941406 169.992188 102.65625 169.117188 102.65625 C 168.945312 102.65625 168.769531 102.667969 168.59375 102.6875 C 167.535156 102.828125 166.589844 103.363281 165.941406 104.207031 C 165.289062 105.050781 165.007812 106.097656 165.148438 107.160156 C 165.285156 108.21875 165.824219 109.164062 166.667969 109.8125 L 174.589844 115.921875 C 175.292969 116.464844 176.136719 116.753906 177.027344 116.753906 C 178.28125 116.753906 179.433594 116.1875 180.195312 115.199219 C 181.539062 113.453125 181.214844 110.941406 179.46875 109.59375 Z M 179.46875 109.59375 " fill-opacity="1" fill-rule="nonzero"/><path fill="#1f212b" d="M 177.023438 117.75 C 175.910156 117.75 174.855469 117.390625 173.980469 116.710938 L 166.054688 110.601562 C 165 109.792969 164.328125 108.617188 164.152344 107.289062 C 163.984375 105.960938 164.335938 104.652344 165.152344 103.597656 C 165.960938 102.542969 167.140625 101.867188 168.464844 101.699219 C 169.800781 101.535156 171.105469 101.882812 172.15625 102.695312 L 180.078125 108.804688 C 181.136719 109.621094 181.8125 110.796875 181.984375 112.121094 C 182.15625 113.445312 181.796875 114.753906 180.984375 115.8125 C 180.035156 117.042969 178.589844 117.75 177.023438 117.75 Z M 169.117188 103.652344 C 168.984375 103.652344 168.855469 103.660156 168.722656 103.679688 C 167.929688 103.78125 167.222656 104.183594 166.734375 104.816406 C 166.246094 105.449219 166.035156 106.234375 166.136719 107.03125 C 166.242188 107.828125 166.644531 108.535156 167.273438 109.019531 L 175.199219 115.128906 C 176.46875 116.105469 178.429688 115.851562 179.402344 114.585938 C 179.890625 113.953125 180.101562 113.167969 180 112.375 C 179.898438 111.578125 179.492188 110.875 178.863281 110.386719 L 170.9375 104.273438 C 170.40625 103.871094 169.777344 103.652344 169.117188 103.652344 Z M 169.117188 103.652344 " fill-opacity="1" fill-rule="nonzero"/><path fill="#009191" d="M 132.707031 106.601562 C 102.238281 106.601562 77.453125 131.378906 77.453125 161.832031 C 77.453125 192.285156 102.238281 217.0625 132.707031 217.0625 C 163.167969 217.0625 187.953125 192.289062 187.953125 161.832031 C 187.953125 131.375 163.167969 106.601562 132.707031 106.601562 Z M 132.707031 106.601562 " fill-opacity="1" fill-rule="nonzero"/><g clip-path="url(#id2)"><path fill="#1f212b" d="M 132.707031 219.058594 C 101.136719 219.058594 75.457031 193.386719 75.457031 161.828125 C 75.457031 130.273438 101.136719 104.601562 132.707031 104.601562 C 164.269531 104.601562 189.953125 130.273438 189.953125 161.828125 C 189.953125 193.386719 164.269531 219.058594 132.707031 219.058594 Z M 132.707031 108.597656 C 103.339844 108.597656 79.453125 132.480469 79.453125 161.828125 C 79.453125 191.183594 103.34375 215.0625 132.707031 215.0625 C 162.066406 215.0625 185.953125 191.183594 185.953125 161.828125 C 185.953125 132.480469 162.066406 108.597656 132.707031 108.597656 Z M 132.707031 108.597656 " fill-opacity="1" fill-rule="nonzero"/></g><path fill="#ffffff" d="M 178.375 158.34375 C 179.210938 167.984375 177.019531 177.941406 171.46875 186.695312 C 157.960938 208 129.652344 214.140625 108.242188 200.410156 C 86.832031 186.675781 80.425781 158.273438 93.9375 136.96875 C 107.445312 115.660156 135.753906 109.519531 157.164062 123.253906 C 164.773438 128.132812 170.488281 134.867188 174.085938 142.480469 " fill-opacity="1" fill-rule="nonzero"/><path fill="#1f212b" d="M 133.046875 208.742188 C 124.152344 208.742188 115.410156 206.191406 107.703125 201.25 C 85.867188 187.242188 79.3125 158.164062 93.09375 136.433594 C 99.730469 125.960938 110.066406 118.714844 122.191406 116.03125 C 134.453125 113.324219 147.0625 115.585938 157.703125 122.410156 C 165.21875 127.226562 171.195312 134.023438 174.988281 142.050781 C 175.226562 142.550781 175.011719 143.144531 174.511719 143.382812 C 174.011719 143.621094 173.414062 143.40625 173.179688 142.90625 C 169.546875 135.214844 163.820312 128.707031 156.621094 124.09375 C 146.433594 117.558594 134.359375 115.390625 122.621094 117.984375 C 111.019531 120.550781 101.132812 127.480469 94.78125 137.5 C 81.585938 158.3125 87.867188 186.152344 108.78125 199.566406 C 118.964844 206.097656 131.042969 208.265625 142.78125 205.671875 C 154.382812 203.105469 164.269531 196.179688 170.621094 186.15625 C 175.890625 177.847656 178.226562 168.257812 177.378906 158.429688 C 177.332031 157.878906 177.738281 157.390625 178.289062 157.347656 C 178.832031 157.28125 179.320312 157.707031 179.371094 158.257812 C 180.257812 168.527344 177.816406 178.546875 172.308594 187.226562 C 165.667969 197.699219 155.335938 204.945312 143.210938 207.625 C 139.835938 208.375 136.429688 208.742188 133.046875 208.742188 Z M 133.046875 208.742188 " fill-opacity="1" fill-rule="nonzero"/><path fill="#ffffff" d="M 176.765625 150.898438 C 177.027344 151.976562 177.253906 153.0625 177.4375 154.160156 " fill-opacity="1" fill-rule="nonzero"/><path fill="#1f212b" d="M 177.4375 155.15625 C 176.960938 155.15625 176.535156 154.8125 176.453125 154.324219 C 176.273438 153.253906 176.054688 152.191406 175.792969 151.132812 C 175.664062 150.59375 175.992188 150.054688 176.527344 149.925781 C 177.0625 149.792969 177.605469 150.121094 177.734375 150.65625 C 178.007812 151.761719 178.234375 152.871094 178.425781 153.988281 C 178.519531 154.53125 178.152344 155.050781 177.609375 155.140625 C 177.550781 155.152344 177.496094 155.15625 177.4375 155.15625 Z M 133.042969 121.8125 C 132.492188 121.8125 132.042969 121.363281 132.042969 120.8125 L 132.042969 116.382812 C 132.042969 115.832031 132.492188 115.386719 133.042969 115.386719 C 133.59375 115.386719 134.042969 115.832031 134.042969 116.382812 L 134.042969 120.8125 C 134.042969 121.367188 133.597656 121.8125 133.042969 121.8125 Z M 133.042969 207.207031 C 132.492188 207.207031 132.042969 206.761719 132.042969 206.210938 L 132.042969 201.78125 C 132.042969 201.230469 132.492188 200.78125 133.042969 200.78125 C 133.59375 200.78125 134.042969 201.230469 134.042969 201.78125 L 134.042969 206.210938 C 134.042969 206.761719 133.597656 207.207031 133.042969 207.207031 Z M 178.546875 162.917969 L 172.917969 162.917969 C 172.367188 162.917969 171.917969 162.472656 171.917969 161.917969 C 171.917969 161.367188 172.367188 160.921875 172.917969 160.921875 L 178.546875 160.921875 C 179.101562 160.921875 179.546875 161.367188 179.546875 161.917969 C 179.546875 162.472656 179.101562 162.917969 178.546875 162.917969 Z M 91.160156 162.917969 L 87.078125 162.917969 C 86.527344 162.917969 86.078125 162.472656 86.078125 161.917969 C 86.078125 161.367188 86.527344 160.921875 87.078125 160.921875 L 91.160156 160.921875 C 91.714844 160.921875 92.160156 161.367188 92.160156 161.917969 C 92.160156 162.472656 91.714844 162.917969 91.160156 162.917969 Z M 160.589844 135.003906 C 160.335938 135.003906 160.082031 134.910156 159.886719 134.714844 C 159.492188 134.324219 159.492188 133.691406 159.882812 133.300781 L 163.609375 129.554688 C 163.996094 129.164062 164.628906 129.160156 165.019531 129.550781 C 165.414062 129.941406 165.414062 130.570312 165.023438 130.964844 L 161.296875 134.710938 C 161.105469 134.90625 160.847656 135.003906 160.589844 135.003906 Z M 100.976562 194.761719 C 100.722656 194.761719 100.46875 194.667969 100.273438 194.472656 C 99.878906 194.082031 99.878906 193.449219 100.269531 193.058594 L 103.996094 189.3125 C 104.382812 188.921875 105.019531 188.921875 105.40625 189.308594 C 105.800781 189.699219 105.800781 190.332031 105.410156 190.722656 L 101.683594 194.46875 C 101.488281 194.664062 101.234375 194.761719 100.976562 194.761719 Z M 100.976562 194.761719 " fill-opacity="1" fill-rule="nonzero"/><path fill="#1f212b" d="M 165.203125 194.929688 C 164.949219 194.929688 164.691406 194.832031 164.496094 194.636719 L 160.769531 190.890625 C 160.378906 190.5 160.382812 189.867188 160.773438 189.480469 C 161.164062 189.085938 161.796875 189.089844 162.1875 189.484375 L 165.914062 193.226562 C 166.304688 193.621094 166.300781 194.25 165.910156 194.640625 C 165.710938 194.835938 165.457031 194.929688 165.203125 194.929688 Z M 104.875 134.199219 C 104.617188 134.199219 104.359375 134.101562 104.167969 133.90625 L 100.441406 130.164062 C 100.050781 129.773438 100.050781 129.140625 100.445312 128.75 C 100.832031 128.359375 101.46875 128.363281 101.855469 128.753906 L 105.582031 132.496094 C 105.972656 132.886719 105.972656 133.519531 105.578125 133.910156 C 105.382812 134.101562 105.128906 134.199219 104.875 134.199219 Z M 104.875 134.199219 " fill-opacity="1" fill-rule="nonzero"/><path fill="#1f212b" d="M 158.515625 163.828125 L 138.582031 163.828125 C 137.476562 163.828125 136.582031 162.933594 136.582031 161.832031 C 136.582031 160.726562 137.476562 159.832031 138.582031 159.832031 L 158.515625 159.832031 C 159.621094 159.832031 160.515625 160.726562 160.515625 161.832031 C 160.515625 162.933594 159.625 163.828125 158.515625 163.828125 Z M 133.042969 158.382812 C 131.941406 158.382812 131.042969 157.488281 131.042969 156.382812 L 131.042969 127.59375 C 131.042969 126.492188 131.941406 125.59375 133.042969 125.59375 C 134.148438 125.59375 135.042969 126.492188 135.042969 127.59375 L 135.042969 156.382812 C 135.042969 157.488281 134.148438 158.382812 133.042969 158.382812 Z M 133.042969 158.382812 " fill-opacity="1" fill-rule="nonzero"/><path fill="#ffbd59" d="M 133.042969 157.492188 C 132.753906 157.492188 132.464844 157.519531 132.179688 157.574219 C 131.894531 157.632812 131.617188 157.714844 131.347656 157.828125 C 131.078125 157.9375 130.824219 158.074219 130.582031 158.238281 C 130.339844 158.398438 130.117188 158.582031 129.910156 158.789062 C 129.703125 158.992188 129.519531 159.21875 129.359375 159.457031 C 129.199219 159.699219 129.0625 159.957031 128.949219 160.222656 C 128.839844 160.492188 128.753906 160.769531 128.699219 161.054688 C 128.640625 161.339844 128.613281 161.628906 128.613281 161.917969 C 128.613281 162.210938 128.640625 162.496094 128.699219 162.785156 C 128.753906 163.070312 128.839844 163.34375 128.949219 163.613281 C 129.0625 163.882812 129.199219 164.136719 129.359375 164.378906 C 129.519531 164.621094 129.703125 164.84375 129.910156 165.050781 C 130.117188 165.257812 130.339844 165.441406 130.582031 165.601562 C 130.824219 165.761719 131.078125 165.898438 131.347656 166.011719 C 131.617188 166.121094 131.894531 166.207031 132.179688 166.261719 C 132.464844 166.320312 132.753906 166.347656 133.042969 166.347656 C 133.335938 166.347656 133.621094 166.320312 133.90625 166.261719 C 134.191406 166.207031 134.46875 166.121094 134.738281 166.011719 C 135.007812 165.898438 135.261719 165.761719 135.503906 165.601562 C 135.746094 165.441406 135.96875 165.257812 136.175781 165.050781 C 136.382812 164.84375 136.566406 164.621094 136.726562 164.378906 C 136.886719 164.136719 137.023438 163.882812 137.136719 163.613281 C 137.246094 163.34375 137.332031 163.070312 137.386719 162.785156 C 137.445312 162.496094 137.472656 162.210938 137.472656 161.917969 C 137.472656 161.628906 137.445312 161.339844 137.386719 161.054688 C 137.332031 160.769531 137.246094 160.492188 137.136719 160.222656 C 137.023438 159.957031 136.886719 159.699219 136.726562 159.457031 C 136.566406 159.21875 136.382812 158.992188 136.175781 158.789062 C 135.96875 158.582031 135.746094 158.398438 135.503906 158.238281 C 135.261719 158.074219 135.007812 157.9375 134.738281 157.828125 C 134.46875 157.714844 134.191406 157.632812 133.90625 157.574219 C 133.621094 157.519531 133.335938 157.492188 133.042969 157.492188 Z M 133.042969 157.492188 " fill-opacity="1" fill-rule="nonzero"/><path fill="#1f212b" d="M 133.042969 167.347656 C 130.046875 167.347656 127.613281 164.914062 127.613281 161.917969 C 127.613281 158.925781 130.050781 156.492188 133.042969 156.492188 C 136.035156 156.492188 138.472656 158.925781 138.472656 161.917969 C 138.472656 164.910156 136.039062 167.347656 133.042969 167.347656 Z M 133.042969 158.488281 C 131.152344 158.488281 129.613281 160.027344 129.613281 161.917969 C 129.613281 163.808594 131.152344 165.347656 133.042969 165.347656 C 134.933594 165.347656 136.472656 163.808594 136.472656 161.917969 C 136.472656 160.027344 134.933594 158.488281 133.042969 158.488281 Z M 133.042969 158.488281 " fill-opacity="1" fill-rule="nonzero"/><g fill="#009191" fill-opacity="1"><g transform="translate(230.660127, 190.946872)"><g><path d="M 59.949219 -60.734375 L 59.949219 -67.589844 L 3.332031 -67.589844 L 3.332031 -60.734375 L 27.425781 -60.734375 L 27.425781 0 L 35.851562 0 L 35.851562 -60.734375 Z M 59.949219 -60.734375 "/></g></g></g><g fill="#009191" fill-opacity="1"><g transform="translate(290.603967, 190.946872)"><g><path d="M 11.460938 -68.960938 C 8.425781 -68.960938 6.074219 -66.609375 6.074219 -63.574219 C 6.074219 -60.535156 8.425781 -58.1875 11.460938 -58.1875 C 14.496094 -58.1875 16.847656 -60.535156 16.847656 -63.574219 C 16.847656 -66.609375 14.496094 -68.960938 11.460938 -68.960938 Z M 15.671875 0 L 15.671875 -51.917969 L 7.25 -51.917969 L 7.25 0 Z M 15.671875 0 "/></g></g></g><g fill="#009191" fill-opacity="1"><g transform="translate(313.915461, 190.946872)"><g><path d="M 76.308594 -40.652344 C 75.132812 -47.800781 69.84375 -53.289062 60.535156 -53.289062 C 55.933594 -53.289062 52.210938 -52.40625 49.566406 -50.25 L 44.960938 -43.589844 C 43.003906 -49.273438 37.910156 -53.289062 29.972656 -53.289062 C 25.371094 -53.289062 21.648438 -52.40625 19.003906 -50.25 L 15.671875 -44.375 L 15.671875 -51.917969 L 7.25 -51.917969 L 7.25 0 L 15.671875 0 L 15.671875 -25.664062 C 15.671875 -41.433594 20.472656 -46.625 27.035156 -46.625 C 32.914062 -46.625 36.636719 -43.785156 37.417969 -37.910156 C 37.714844 -35.265625 37.8125 -32.421875 37.8125 -27.820312 L 37.8125 0 L 46.234375 0 L 46.234375 -25.664062 C 46.234375 -41.433594 51.035156 -46.625 57.597656 -46.625 C 63.476562 -46.625 67.199219 -43.785156 67.980469 -37.910156 C 68.273438 -35.265625 68.371094 -32.421875 68.371094 -27.820312 L 68.371094 0 L 76.796875 0 L 76.796875 -31.738281 C 76.796875 -35.949219 76.699219 -38.007812 76.308594 -40.652344 Z M 76.308594 -40.652344 "/></g></g></g><g fill="#009191" fill-opacity="1"><g transform="translate(397.66052, 190.946872)"><g><path d="M 49.859375 -27.425781 C 49.859375 -42.609375 41.925781 -53.289062 27.625 -53.289062 C 13.417969 -53.289062 2.9375 -42.609375 2.9375 -25.761719 C 2.9375 -7.445312 13.027344 1.371094 26.546875 1.371094 C 37.222656 1.371094 47.117188 -4.210938 49.171875 -16.75 L 40.359375 -16.75 C 39.183594 -9.304688 33.695312 -5.09375 26.9375 -5.09375 C 19.296875 -5.09375 12.832031 -9.699219 12.046875 -23.410156 L 49.664062 -23.410156 C 49.859375 -25.273438 49.859375 -26.644531 49.859375 -27.425781 Z M 27.425781 -46.824219 C 35.949219 -46.824219 40.554688 -40.652344 41.335938 -29.875 L 12.148438 -29.875 C 13.125 -40.945312 19.199219 -46.824219 27.425781 -46.824219 Z M 27.425781 -46.824219 "/></g></g></g><g fill="#009191" fill-opacity="1"><g transform="translate(451.43367, 190.946872)"><g><path d="M 15.28125 -71.996094 L 6.855469 -71.996094 L 6.855469 -14.59375 C 6.855469 -11.753906 6.855469 -9.5 6.953125 -7.738281 C 7.25 -1.175781 10.875 0.390625 15.769531 0.390625 C 17.730469 0.390625 19.886719 0.292969 21.746094 0 L 21.746094 -6.074219 C 17.140625 -5.582031 15.574219 -6.660156 15.378906 -9.992188 C 15.28125 -11.65625 15.28125 -13.320312 15.28125 -14.890625 Z M 15.28125 -71.996094 "/></g></g></g><g fill="#009191" fill-opacity="1"><g transform="translate(475.626701, 190.946872)"><g><path d="M 49.664062 -51.917969 L 40.457031 -51.917969 L 25.078125 -6.269531 L 9.601562 -51.917969 L 0.0976562 -51.917969 L 20.765625 2.644531 L 20.082031 4.507812 C 17.4375 11.363281 14.007812 13.617188 8.816406 13.617188 C 7.933594 13.617188 7.054688 13.617188 5.78125 13.519531 L 5.78125 20.375 C 7.054688 20.570312 8.226562 20.570312 10.089844 20.570312 C 18.511719 20.570312 24.097656 15.378906 28.308594 4.40625 Z M 49.664062 -51.917969 "/></g></g></g></svg>
