<svg xmlns="http://www.w3.org/2000/svg" xmlns:xlink="http://www.w3.org/1999/xlink" width="805" zoomAndPan="magnify" viewBox="0 0 603.75 297.749993" height="397" preserveAspectRatio="xMidYMid meet" version="1.0"><defs><g/><clipPath id="id1"><path d="M 75.613281 75.367188 L 197.8125 75.367188 L 197.8125 222.304688 L 75.613281 222.304688 Z M 75.613281 75.367188 " clip-rule="nonzero"/></clipPath></defs><g clip-path="url(#id1)"><path fill="#009191" d="M 188.765625 120.078125 C 188.851562 120.078125 188.9375 120.078125 189.023438 120.074219 C 189.789062 120.046875 190.519531 119.867188 191.214844 119.539062 C 191.910156 119.210938 192.511719 118.761719 193.023438 118.1875 L 195.695312 115.195312 C 197.785156 112.847656 197.542969 109.203125 195.152344 107.074219 C 195.148438 107.070312 183.609375 96.824219 183.609375 96.824219 C 181.207031 94.703125 177.550781 94.882812 175.460938 97.234375 L 172.785156 100.226562 C 170.75 102.519531 170.945312 106.023438 173.164062 108.167969 L 168.453125 113.46875 C 164.957031 111.121094 161.253906 109.164062 157.339844 107.601562 C 153.425781 106.042969 149.394531 104.910156 145.238281 104.207031 L 145.238281 95.296875 L 150.492188 95.296875 C 150.835938 95.296875 151.171875 95.261719 151.507812 95.195312 C 151.839844 95.128906 152.167969 95.03125 152.480469 94.898438 C 152.796875 94.769531 153.097656 94.609375 153.378906 94.421875 C 153.664062 94.230469 153.925781 94.015625 154.167969 93.773438 C 154.410156 93.535156 154.625 93.273438 154.8125 92.988281 C 155.003906 92.707031 155.164062 92.40625 155.292969 92.09375 C 155.425781 91.777344 155.523438 91.453125 155.589844 91.121094 C 155.65625 90.785156 155.691406 90.449219 155.691406 90.109375 L 155.691406 80.558594 C 155.691406 80.214844 155.65625 79.878906 155.589844 79.546875 C 155.523438 79.210938 155.425781 78.886719 155.292969 78.574219 C 155.164062 78.257812 155.003906 77.957031 154.8125 77.675781 C 154.625 77.394531 154.410156 77.128906 154.167969 76.890625 C 153.925781 76.648438 153.664062 76.433594 153.378906 76.246094 C 153.097656 76.054688 152.796875 75.894531 152.480469 75.765625 C 152.167969 75.632812 151.839844 75.535156 151.507812 75.46875 C 151.171875 75.402344 150.835938 75.367188 150.492188 75.367188 L 119.988281 75.367188 C 119.648438 75.367188 119.308594 75.402344 118.976562 75.46875 C 118.640625 75.535156 118.316406 75.636719 118 75.765625 C 117.683594 75.894531 117.386719 76.054688 117.101562 76.246094 C 116.820312 76.433594 116.554688 76.648438 116.316406 76.890625 C 116.074219 77.132812 115.859375 77.394531 115.667969 77.675781 C 115.480469 77.960938 115.320312 78.257812 115.1875 78.574219 C 115.058594 78.886719 114.957031 79.210938 114.890625 79.546875 C 114.824219 79.878906 114.792969 80.214844 114.789062 80.558594 L 114.789062 90.109375 C 114.792969 90.449219 114.824219 90.785156 114.890625 91.121094 C 114.957031 91.453125 115.058594 91.777344 115.1875 92.09375 C 115.320312 92.40625 115.480469 92.707031 115.667969 92.988281 C 115.859375 93.273438 116.074219 93.535156 116.316406 93.773438 C 116.554688 94.015625 116.820312 94.230469 117.101562 94.421875 C 117.386719 94.609375 117.683594 94.769531 118 94.898438 C 118.316406 95.03125 118.640625 95.128906 118.976562 95.195312 C 119.308594 95.261719 119.648438 95.296875 119.988281 95.296875 L 125.242188 95.296875 L 125.242188 104.207031 C 97.125 108.972656 75.640625 133.4375 75.640625 162.832031 C 75.640625 195.625 102.378906 222.304688 135.242188 222.304688 C 168.105469 222.304688 194.839844 195.625 194.839844 162.832031 C 194.84375 159.285156 194.527344 155.765625 193.894531 152.277344 C 193.265625 148.785156 192.324219 145.378906 191.082031 142.058594 C 189.835938 138.734375 188.304688 135.550781 186.484375 132.503906 C 184.667969 129.457031 182.59375 126.59375 180.257812 123.921875 L 184.945312 118.648438 C 186.039062 119.601562 187.3125 120.078125 188.765625 120.078125 Z M 176.671875 103.675781 L 179.347656 100.683594 C 179.445312 100.578125 179.5625 100.53125 179.707031 100.535156 C 179.875 100.535156 180.023438 100.59375 180.152344 100.707031 L 191.691406 110.949219 C 191.933594 111.167969 191.988281 111.539062 191.808594 111.746094 L 189.136719 114.738281 C 189.046875 114.835938 188.933594 114.886719 188.796875 114.886719 C 188.621094 114.890625 188.464844 114.835938 188.332031 114.71875 L 176.792969 104.472656 C 176.542969 104.253906 176.488281 103.882812 176.671875 103.675781 Z M 124.039062 82.777344 L 124.039062 90.109375 L 119.992188 90.109375 L 119.988281 80.558594 L 150.492188 80.554688 L 150.492188 90.105469 L 146.441406 90.105469 L 146.441406 82.777344 L 142.976562 82.777344 L 142.976562 90.105469 L 142.644531 90.105469 C 142.636719 90.105469 136.976562 90.105469 136.976562 90.105469 L 136.976562 82.777344 L 133.507812 82.777344 L 133.507812 90.105469 L 127.84375 90.105469 C 127.824219 90.109375 127.507812 90.109375 127.507812 90.109375 L 127.507812 82.777344 Z M 140.035156 95.296875 L 140.035156 103.5625 C 138.453125 103.4375 136.859375 103.355469 135.242188 103.355469 C 133.628906 103.355469 132.03125 103.4375 130.445312 103.566406 L 130.445312 95.296875 Z M 189.636719 162.832031 C 189.636719 192.761719 165.234375 217.113281 135.242188 217.113281 C 105.246094 217.113281 80.84375 192.761719 80.84375 162.832031 C 80.84375 136.21875 100.140625 114.03125 125.5 109.433594 C 126.476562 109.257812 127.457031 109.109375 128.441406 108.988281 C 129.425781 108.863281 130.410156 108.769531 131.398438 108.699219 C 132.390625 108.632812 133.378906 108.589844 134.371094 108.574219 C 135.363281 108.558594 136.355469 108.574219 137.347656 108.613281 C 138.335938 108.652344 139.328125 108.71875 140.3125 108.8125 C 141.300781 108.902344 142.285156 109.023438 143.265625 109.171875 C 144.246094 109.316406 145.222656 109.492188 146.195312 109.691406 C 147.164062 109.890625 148.132812 110.117188 149.089844 110.371094 C 150.050781 110.625 151 110.902344 151.945312 111.207031 C 152.886719 111.511719 153.820312 111.84375 154.746094 112.199219 C 155.671875 112.554688 156.589844 112.933594 157.492188 113.339844 C 158.398438 113.746094 159.292969 114.175781 160.171875 114.628906 C 161.054688 115.082031 161.921875 115.5625 162.777344 116.0625 C 163.632812 116.5625 164.472656 117.089844 165.300781 117.636719 C 166.125 118.183594 166.9375 118.753906 167.730469 119.34375 C 168.527344 119.9375 169.304688 120.550781 170.066406 121.183594 C 170.828125 121.816406 171.570312 122.472656 172.296875 123.144531 C 173.023438 123.820312 173.730469 124.515625 174.417969 125.226562 C 175.105469 125.941406 175.773438 126.671875 176.421875 127.421875 C 177.070312 128.171875 177.695312 128.9375 178.300781 129.722656 C 178.90625 130.503906 179.492188 131.304688 180.054688 132.121094 C 180.613281 132.9375 181.15625 133.765625 181.671875 134.613281 C 182.1875 135.457031 182.679688 136.316406 183.148438 137.1875 C 183.621094 138.058594 184.066406 138.941406 184.484375 139.839844 C 184.90625 140.734375 185.304688 141.640625 185.675781 142.558594 C 186.046875 143.476562 186.390625 144.40625 186.714844 145.339844 C 187.035156 146.277344 187.328125 147.222656 187.597656 148.175781 C 187.867188 149.128906 188.109375 150.085938 188.324219 151.054688 C 188.542969 152.019531 188.730469 152.992188 188.894531 153.96875 C 189.058594 154.941406 189.195312 155.921875 189.304688 156.90625 C 189.414062 157.890625 189.496094 158.875 189.554688 159.863281 C 189.609375 160.851562 189.636719 161.84375 189.636719 162.832031 Z M 176.671875 120.136719 C 175.382812 118.890625 174.039062 117.703125 172.644531 116.574219 L 177.019531 111.65625 L 181.035156 115.226562 Z M 135.242188 118.25 C 110.609375 118.25 90.566406 138.25 90.566406 162.832031 C 90.566406 187.410156 110.609375 207.40625 135.242188 207.40625 C 159.875 207.40625 179.914062 187.410156 179.914062 162.832031 C 179.914062 138.25 159.875 118.25 135.242188 118.25 Z M 165.816406 144.675781 C 165.933594 144.871094 166.082031 145.035156 166.261719 145.171875 C 166.445312 145.308594 166.644531 145.402344 166.867188 145.460938 C 167.085938 145.515625 167.308594 145.527344 167.535156 145.496094 C 167.757812 145.460938 167.96875 145.386719 168.164062 145.273438 L 169.976562 144.136719 C 172.707031 149.171875 174.253906 154.550781 174.621094 160.265625 L 170.757812 160.265625 C 170.417969 160.269531 170.09375 160.335938 169.78125 160.46875 C 169.46875 160.597656 169.191406 160.785156 168.953125 161.027344 C 168.710938 161.265625 168.527344 161.542969 168.398438 161.855469 C 168.269531 162.167969 168.203125 162.496094 168.203125 162.835938 C 168.203125 163.171875 168.269531 163.5 168.398438 163.8125 C 168.527344 164.125 168.710938 164.402344 168.953125 164.640625 C 169.191406 164.882812 169.46875 165.070312 169.78125 165.199219 C 170.09375 165.332031 170.417969 165.398438 170.757812 165.402344 L 174.621094 165.402344 C 174.253906 171.117188 172.703125 176.492188 169.972656 181.53125 L 168.164062 180.398438 C 167.96875 180.28125 167.761719 180.207031 167.535156 180.175781 C 167.308594 180.140625 167.089844 180.152344 166.867188 180.210938 C 166.648438 180.265625 166.445312 180.359375 166.265625 180.496094 C 166.082031 180.632812 165.933594 180.796875 165.816406 180.992188 C 165.699219 181.1875 165.625 181.398438 165.59375 181.621094 C 165.5625 181.847656 165.574219 182.066406 165.628906 182.289062 C 165.683594 182.507812 165.78125 182.707031 165.917969 182.890625 C 166.050781 183.070312 166.21875 183.222656 166.414062 183.335938 L 168.257812 184.375 C 165.175781 189.0625 161.269531 192.925781 156.542969 195.960938 L 155.523438 194.113281 C 155.410156 193.921875 155.261719 193.753906 155.078125 193.621094 C 154.898438 193.484375 154.699219 193.386719 154.480469 193.332031 C 154.261719 193.273438 154.039062 193.261719 153.816406 193.292969 C 153.59375 193.324219 153.382812 193.398438 153.1875 193.511719 C 152.992188 193.625 152.824219 193.769531 152.6875 193.949219 C 152.550781 194.128906 152.453125 194.328125 152.394531 194.546875 C 152.335938 194.765625 152.320312 194.984375 152.351562 195.207031 C 152.378906 195.433594 152.449219 195.640625 152.5625 195.835938 L 153.675781 197.640625 C 148.710938 200.269531 143.421875 201.765625 137.8125 202.121094 L 137.8125 198.28125 C 137.816406 197.9375 137.75 197.609375 137.621094 197.292969 C 137.492188 196.976562 137.308594 196.695312 137.066406 196.453125 C 136.824219 196.210938 136.546875 196.023438 136.230469 195.890625 C 135.914062 195.761719 135.582031 195.695312 135.242188 195.695312 C 134.898438 195.695312 134.570312 195.761719 134.253906 195.890625 C 133.9375 196.023438 133.65625 196.210938 133.414062 196.453125 C 133.175781 196.695312 132.988281 196.976562 132.859375 197.292969 C 132.730469 197.609375 132.667969 197.9375 132.667969 198.28125 L 132.667969 202.121094 C 127.058594 201.761719 121.769531 200.269531 116.804688 197.636719 L 117.917969 195.835938 C 118.03125 195.640625 118.101562 195.433594 118.132812 195.207031 C 118.160156 194.984375 118.148438 194.761719 118.089844 194.546875 C 118.03125 194.328125 117.933594 194.128906 117.796875 193.949219 C 117.65625 193.769531 117.492188 193.621094 117.296875 193.507812 C 117.101562 193.394531 116.890625 193.324219 116.667969 193.292969 C 116.441406 193.261719 116.222656 193.273438 116.003906 193.332031 C 115.78125 193.386719 115.582031 193.484375 115.402344 193.617188 C 115.222656 193.753906 115.074219 193.917969 114.957031 194.113281 L 113.9375 195.960938 C 109.214844 192.921875 105.308594 189.0625 102.222656 184.371094 L 104.070312 183.335938 C 104.265625 183.222656 104.429688 183.070312 104.566406 182.890625 C 104.703125 182.707031 104.800781 182.507812 104.855469 182.289062 C 104.910156 182.066406 104.921875 181.84375 104.890625 181.621094 C 104.859375 181.394531 104.785156 181.1875 104.667969 180.992188 C 104.550781 180.796875 104.402344 180.628906 104.21875 180.496094 C 104.035156 180.359375 103.835938 180.261719 103.613281 180.207031 C 103.394531 180.152344 103.171875 180.140625 102.945312 180.171875 C 102.722656 180.207031 102.511719 180.28125 102.316406 180.398438 L 100.511719 181.53125 C 97.777344 176.492188 96.226562 171.117188 95.863281 165.402344 L 99.722656 165.402344 C 100.0625 165.398438 100.386719 165.332031 100.703125 165.199219 C 101.015625 165.070312 101.289062 164.882812 101.53125 164.640625 C 101.769531 164.402344 101.953125 164.125 102.082031 163.8125 C 102.210938 163.5 102.277344 163.171875 102.277344 162.832031 C 102.277344 162.496094 102.210938 162.167969 102.082031 161.855469 C 101.953125 161.542969 101.769531 161.265625 101.53125 161.023438 C 101.289062 160.785156 101.015625 160.597656 100.703125 160.46875 C 100.386719 160.335938 100.0625 160.269531 99.722656 160.265625 L 95.863281 160.265625 C 96.226562 154.550781 97.773438 149.171875 100.507812 144.136719 L 102.316406 145.269531 C 102.511719 145.386719 102.722656 145.460938 102.945312 145.492188 C 103.171875 145.527344 103.394531 145.515625 103.613281 145.460938 C 103.835938 145.402344 104.035156 145.308594 104.21875 145.171875 C 104.402344 145.035156 104.550781 144.871094 104.664062 144.675781 C 104.78125 144.480469 104.855469 144.269531 104.890625 144.046875 C 104.921875 143.820312 104.910156 143.601562 104.855469 143.378906 C 104.796875 143.160156 104.703125 142.960938 104.566406 142.777344 C 104.429688 142.597656 104.265625 142.445312 104.070312 142.332031 L 102.21875 141.292969 C 105.300781 136.601562 109.207031 132.738281 113.933594 129.699219 L 114.960938 131.554688 C 115.074219 131.75 115.222656 131.917969 115.402344 132.054688 C 115.585938 132.191406 115.785156 132.289062 116.003906 132.34375 C 116.222656 132.402344 116.445312 132.417969 116.671875 132.386719 C 116.898438 132.355469 117.109375 132.28125 117.304688 132.167969 C 117.5 132.054688 117.667969 131.90625 117.804688 131.726562 C 117.941406 131.546875 118.039062 131.34375 118.097656 131.125 C 118.15625 130.90625 118.167969 130.683594 118.136719 130.460938 C 118.105469 130.234375 118.035156 130.023438 117.921875 129.828125 L 116.800781 128.019531 C 121.765625 125.386719 127.058594 123.890625 132.667969 123.53125 L 132.667969 127.390625 C 132.667969 127.730469 132.730469 128.058594 132.859375 128.375 C 132.988281 128.695312 133.175781 128.972656 133.414062 129.214844 C 133.65625 129.457031 133.9375 129.644531 134.253906 129.777344 C 134.570312 129.910156 134.898438 129.972656 135.242188 129.972656 C 135.582031 129.972656 135.914062 129.910156 136.230469 129.777344 C 136.546875 129.644531 136.824219 129.457031 137.066406 129.214844 C 137.308594 128.972656 137.492188 128.695312 137.621094 128.375 C 137.75 128.058594 137.816406 127.730469 137.8125 127.390625 L 137.8125 123.53125 C 143.425781 123.890625 148.714844 125.386719 153.683594 128.015625 L 152.5625 129.828125 C 152.449219 130.023438 152.378906 130.234375 152.347656 130.457031 C 152.316406 130.683594 152.332031 130.902344 152.390625 131.121094 C 152.449219 131.339844 152.546875 131.539062 152.683594 131.71875 C 152.820312 131.898438 152.988281 132.046875 153.183594 132.160156 C 153.378906 132.273438 153.589844 132.347656 153.8125 132.378906 C 154.035156 132.40625 154.257812 132.394531 154.476562 132.339844 C 154.695312 132.28125 154.898438 132.183594 155.078125 132.050781 C 155.257812 131.914062 155.40625 131.75 155.523438 131.554688 L 156.546875 129.695312 C 161.273438 132.734375 165.179688 136.601562 168.265625 141.292969 L 166.410156 142.332031 C 166.214844 142.445312 166.050781 142.59375 165.914062 142.777344 C 165.777344 142.957031 165.683594 143.160156 165.625 143.378906 C 165.570312 143.597656 165.558594 143.820312 165.59375 144.046875 C 165.625 144.269531 165.699219 144.480469 165.816406 144.675781 Z M 139.617188 162.828125 C 139.617188 163.328125 139.535156 163.816406 139.367188 164.292969 C 139.195312 164.765625 138.953125 165.195312 138.636719 165.585938 C 138.316406 165.976562 137.945312 166.300781 137.511719 166.5625 C 137.082031 166.820312 136.621094 167.003906 136.128906 167.105469 C 135.632812 167.207031 135.140625 167.222656 134.640625 167.152344 C 134.140625 167.085938 133.667969 166.933594 133.222656 166.703125 C 132.777344 166.46875 132.378906 166.167969 132.039062 165.800781 C 131.695312 165.433594 131.425781 165.019531 131.226562 164.558594 L 111.070312 164.558594 C 110.839844 164.558594 110.621094 164.511719 110.40625 164.425781 C 110.195312 164.335938 110.007812 164.210938 109.84375 164.050781 C 109.683594 163.886719 109.558594 163.703125 109.46875 163.488281 C 109.382812 163.277344 109.335938 163.054688 109.335938 162.828125 C 109.335938 162.597656 109.382812 162.378906 109.46875 162.164062 C 109.558594 161.953125 109.683594 161.765625 109.84375 161.605469 C 110.007812 161.441406 110.195312 161.316406 110.40625 161.230469 C 110.621094 161.140625 110.839844 161.097656 111.070312 161.097656 L 131.222656 161.097656 C 131.6875 160.039062 132.445312 159.277344 133.507812 158.820312 L 133.507812 140.710938 C 133.507812 140.480469 133.550781 140.261719 133.640625 140.050781 C 133.726562 139.835938 133.851562 139.652344 134.015625 139.488281 C 134.179688 139.324219 134.367188 139.199219 134.578125 139.113281 C 134.789062 139.027344 135.011719 138.980469 135.242188 138.980469 C 135.472656 138.980469 135.691406 139.027344 135.90625 139.113281 C 136.117188 139.199219 136.304688 139.324219 136.46875 139.488281 C 136.628906 139.652344 136.753906 139.835938 136.84375 140.050781 C 136.929688 140.261719 136.976562 140.480469 136.976562 140.710938 L 136.976562 158.820312 C 137.367188 158.988281 137.726562 159.210938 138.054688 159.484375 C 138.382812 159.757812 138.660156 160.074219 138.898438 160.429688 C 139.132812 160.785156 139.308594 161.167969 139.433594 161.574219 C 139.554688 161.984375 139.617188 162.402344 139.617188 162.828125 Z M 139.617188 162.828125 " fill-opacity="1" fill-rule="nonzero"/></g><g fill="#009191" fill-opacity="1"><g transform="translate(226.454407, 185.49684)"><g><path d="M 61.242188 -62.042969 L 61.242188 -69.046875 L 3.402344 -69.046875 L 3.402344 -62.042969 L 28.019531 -62.042969 L 28.019531 0 L 36.625 0 L 36.625 -62.042969 Z M 61.242188 -62.042969 "/></g></g></g><g fill="#009191" fill-opacity="1"><g transform="translate(287.690567, 185.49684)"><g><path d="M 11.707031 -70.449219 C 8.605469 -70.449219 6.203125 -68.046875 6.203125 -64.945312 C 6.203125 -61.839844 8.605469 -59.441406 11.707031 -59.441406 C 14.808594 -59.441406 17.210938 -61.839844 17.210938 -64.945312 C 17.210938 -68.046875 14.808594 -70.449219 11.707031 -70.449219 Z M 16.011719 0 L 16.011719 -53.035156 L 7.40625 -53.035156 L 7.40625 0 Z M 16.011719 0 "/></g></g></g><g fill="#009191" fill-opacity="1"><g transform="translate(311.504631, 185.49684)"><g><path d="M 77.953125 -41.527344 C 76.75 -48.832031 71.347656 -54.4375 61.839844 -54.4375 C 57.136719 -54.4375 53.335938 -53.535156 50.632812 -51.335938 L 45.929688 -44.53125 C 43.929688 -50.332031 38.726562 -54.4375 30.621094 -54.4375 C 25.917969 -54.4375 22.113281 -53.535156 19.414062 -51.335938 L 16.011719 -45.332031 L 16.011719 -53.035156 L 7.40625 -53.035156 L 7.40625 0 L 16.011719 0 L 16.011719 -26.21875 C 16.011719 -42.328125 20.914062 -47.632812 27.617188 -47.632812 C 33.621094 -47.632812 37.425781 -44.730469 38.226562 -38.726562 C 38.527344 -36.023438 38.625 -33.121094 38.625 -28.417969 L 38.625 0 L 47.230469 0 L 47.230469 -26.21875 C 47.230469 -42.328125 52.136719 -47.632812 58.839844 -47.632812 C 64.84375 -47.632812 68.644531 -44.730469 69.445312 -38.726562 C 69.746094 -36.023438 69.847656 -33.121094 69.847656 -28.417969 L 69.847656 0 L 78.453125 0 L 78.453125 -32.421875 C 78.453125 -36.726562 78.351562 -38.824219 77.953125 -41.527344 Z M 77.953125 -41.527344 "/></g></g></g><g fill="#009191" fill-opacity="1"><g transform="translate(397.055138, 185.49684)"><g><path d="M 50.933594 -28.019531 C 50.933594 -43.53125 42.828125 -54.4375 28.21875 -54.4375 C 13.710938 -54.4375 3.003906 -43.53125 3.003906 -26.316406 C 3.003906 -7.605469 13.308594 1.402344 27.117188 1.402344 C 38.027344 1.402344 48.132812 -4.304688 50.234375 -17.113281 L 41.226562 -17.113281 C 40.027344 -9.507812 34.421875 -5.203125 27.519531 -5.203125 C 19.714844 -5.203125 13.109375 -9.90625 12.308594 -23.917969 L 50.734375 -23.917969 C 50.933594 -25.816406 50.933594 -27.21875 50.933594 -28.019531 Z M 28.019531 -47.832031 C 36.726562 -47.832031 41.429688 -41.527344 42.226562 -30.519531 L 12.410156 -30.519531 C 13.410156 -41.828125 19.613281 -47.832031 28.019531 -47.832031 Z M 28.019531 -47.832031 "/></g></g></g><g fill="#009191" fill-opacity="1"><g transform="translate(451.987576, 185.49684)"><g><path d="M 15.609375 -73.550781 L 7.003906 -73.550781 L 7.003906 -14.910156 C 7.003906 -12.007812 7.003906 -9.707031 7.105469 -7.90625 C 7.40625 -1.199219 11.109375 0.398438 16.109375 0.398438 C 18.113281 0.398438 20.3125 0.300781 22.214844 0 L 22.214844 -6.203125 C 17.511719 -5.703125 15.910156 -6.804688 15.710938 -10.207031 C 15.609375 -11.90625 15.609375 -13.609375 15.609375 -15.210938 Z M 15.609375 -73.550781 "/></g></g></g><g fill="#009191" fill-opacity="1"><g transform="translate(476.702181, 185.49684)"><g><path d="M 50.734375 -53.035156 L 41.328125 -53.035156 L 25.617188 -6.40625 L 9.804688 -53.035156 L 0.101562 -53.035156 L 21.214844 2.703125 L 20.515625 4.601562 C 17.8125 11.609375 14.308594 13.910156 9.007812 13.910156 C 8.105469 13.910156 7.203125 13.910156 5.902344 13.808594 L 5.902344 20.8125 C 7.203125 21.015625 8.40625 21.015625 10.308594 21.015625 C 18.914062 21.015625 24.617188 15.710938 28.917969 4.503906 Z M 50.734375 -53.035156 "/></g></g></g></svg>
