<svg xmlns="http://www.w3.org/2000/svg" xmlns:xlink="http://www.w3.org/1999/xlink" width="901" zoomAndPan="magnify" viewBox="0 0 675.75 297.749993" height="397" preserveAspectRatio="xMidYMid meet" version="1.0"><defs><g/><clipPath id="id1"><path d="M 80 91.535156 L 206.792969 91.535156 L 206.792969 218 L 80 218 Z M 80 91.535156 " clip-rule="nonzero"/></clipPath></defs><g clip-path="url(#id1)"><path fill="#009191" d="M 143.699219 91.5625 C 141.632812 91.5625 139.574219 91.664062 137.515625 91.867188 C 135.460938 92.070312 133.421875 92.371094 131.394531 92.777344 C 129.371094 93.179688 127.367188 93.679688 125.390625 94.277344 C 123.414062 94.878906 121.472656 95.574219 119.566406 96.363281 C 117.65625 97.15625 115.792969 98.035156 113.96875 99.011719 C 112.148438 99.984375 110.378906 101.042969 108.660156 102.191406 C 106.945312 103.339844 105.285156 104.570312 103.691406 105.878906 C 102.09375 107.1875 100.566406 108.574219 99.105469 110.035156 C 97.644531 111.496094 96.257812 113.023438 94.949219 114.621094 C 93.636719 116.21875 92.410156 117.875 91.261719 119.589844 C 90.113281 121.308594 89.054688 123.078125 88.078125 124.898438 C 87.105469 126.722656 86.222656 128.585938 85.433594 130.496094 C 84.644531 132.402344 83.949219 134.34375 83.347656 136.320312 C 82.75 138.296875 82.246094 140.300781 81.84375 142.324219 C 81.441406 144.351562 81.140625 146.390625 80.9375 148.449219 C 80.734375 150.503906 80.632812 152.5625 80.632812 154.628906 C 80.632812 156.695312 80.734375 158.753906 80.9375 160.8125 C 81.140625 162.867188 81.441406 164.90625 81.84375 166.933594 C 82.246094 168.957031 82.75 170.960938 83.347656 172.9375 C 83.949219 174.914062 84.644531 176.855469 85.433594 178.761719 C 86.222656 180.671875 87.105469 182.535156 88.078125 184.359375 C 89.054688 186.179688 90.113281 187.949219 91.261719 189.667969 C 92.410156 191.382812 93.636719 193.039062 94.949219 194.636719 C 96.257812 196.234375 97.644531 197.761719 99.105469 199.222656 C 100.5625 200.683594 102.09375 202.070312 103.691406 203.378906 C 105.285156 204.691406 106.941406 205.917969 108.660156 207.066406 C 110.378906 208.214844 112.148438 209.273438 113.96875 210.246094 C 115.789062 211.222656 117.65625 212.105469 119.5625 212.894531 C 121.472656 213.683594 123.414062 214.378906 125.390625 214.980469 C 127.367188 215.578125 129.367188 216.078125 131.394531 216.484375 C 133.421875 216.886719 135.460938 217.1875 137.515625 217.390625 C 139.570312 217.59375 141.632812 217.695312 143.699219 217.695312 C 145.761719 217.695312 147.824219 217.59375 149.878906 217.390625 C 151.933594 217.1875 153.976562 216.886719 156 216.484375 C 158.027344 216.078125 160.027344 215.578125 162.003906 214.980469 C 163.980469 214.378906 165.925781 213.683594 167.832031 212.894531 C 169.742188 212.105469 171.605469 211.222656 173.425781 210.246094 C 175.25 209.273438 177.019531 208.214844 178.734375 207.066406 C 180.453125 205.917969 182.109375 204.691406 183.707031 203.378906 C 185.304688 202.070312 186.832031 200.683594 188.292969 199.222656 C 189.753906 197.761719 191.136719 196.234375 192.449219 194.636719 C 193.757812 193.039062 194.988281 191.382812 196.136719 189.667969 C 197.28125 187.949219 198.34375 186.179688 199.316406 184.359375 C 200.289062 182.535156 201.171875 180.671875 201.964844 178.761719 C 202.753906 176.855469 203.449219 174.914062 204.046875 172.9375 C 204.648438 170.960938 205.148438 168.957031 205.550781 166.933594 C 205.953125 164.90625 206.257812 162.867188 206.460938 160.808594 C 206.664062 158.753906 206.761719 156.695312 206.761719 154.628906 C 206.761719 152.5625 206.65625 150.503906 206.453125 148.449219 C 206.25 146.394531 205.945312 144.355469 205.539062 142.332031 C 205.136719 140.304688 204.632812 138.304688 204.03125 136.328125 C 203.429688 134.355469 202.734375 132.414062 201.945312 130.503906 C 201.152344 128.597656 200.269531 126.734375 199.296875 124.914062 C 198.320312 123.09375 197.261719 121.324219 196.113281 119.609375 C 194.964844 117.890625 193.738281 116.234375 192.425781 114.640625 C 191.117188 113.042969 189.730469 111.515625 188.269531 110.054688 C 186.8125 108.597656 185.285156 107.210938 183.6875 105.902344 C 182.089844 104.589844 180.433594 103.363281 178.71875 102.214844 C 177.003906 101.066406 175.234375 100.003906 173.414062 99.03125 C 171.59375 98.058594 169.730469 97.175781 167.820312 96.382812 C 165.914062 95.59375 163.972656 94.894531 161.996094 94.296875 C 160.023438 93.695312 158.023438 93.191406 155.996094 92.789062 C 153.972656 92.382812 151.933594 92.078125 149.878906 91.875 C 147.824219 91.667969 145.761719 91.566406 143.699219 91.5625 Z M 143.699219 212.136719 C 141.816406 212.136719 139.9375 212.042969 138.0625 211.859375 C 136.1875 211.675781 134.328125 211.398438 132.480469 211.03125 C 130.632812 210.664062 128.808594 210.207031 127.003906 209.660156 C 125.203125 209.113281 123.433594 208.480469 121.691406 207.757812 C 119.953125 207.039062 118.25 206.234375 116.589844 205.34375 C 114.929688 204.457031 113.316406 203.492188 111.75 202.445312 C 110.183594 201.398438 108.671875 200.277344 107.214844 199.082031 C 105.761719 197.886719 104.367188 196.625 103.035156 195.292969 C 101.703125 193.960938 100.441406 192.566406 99.246094 191.109375 C 98.050781 189.65625 96.929688 188.144531 95.882812 186.578125 C 94.835938 185.011719 93.871094 183.398438 92.980469 181.738281 C 92.09375 180.078125 91.289062 178.375 90.570312 176.636719 C 89.847656 174.894531 89.214844 173.125 88.667969 171.324219 C 88.121094 169.519531 87.664062 167.695312 87.296875 165.847656 C 86.929688 164 86.652344 162.140625 86.46875 160.265625 C 86.285156 158.390625 86.191406 156.511719 86.191406 154.628906 C 86.191406 152.746094 86.285156 150.867188 86.46875 148.992188 C 86.652344 147.117188 86.929688 145.257812 87.296875 143.410156 C 87.664062 141.5625 88.121094 139.738281 88.667969 137.9375 C 89.214844 136.132812 89.847656 134.363281 90.570312 132.621094 C 91.289062 130.882812 92.09375 129.183594 92.980469 127.519531 C 93.871094 125.859375 94.835938 124.246094 95.882812 122.679688 C 96.929688 121.113281 98.050781 119.601562 99.246094 118.148438 C 100.441406 116.691406 101.703125 115.296875 103.035156 113.964844 C 104.367188 112.632812 105.761719 111.371094 107.214844 110.175781 C 108.671875 108.980469 110.183594 107.859375 111.75 106.8125 C 113.316406 105.769531 114.929688 104.800781 116.589844 103.914062 C 118.25 103.023438 119.953125 102.21875 121.691406 101.5 C 123.429688 100.777344 125.203125 100.144531 127.003906 99.597656 C 128.808594 99.050781 130.632812 98.59375 132.480469 98.226562 C 134.328125 97.859375 136.1875 97.585938 138.0625 97.398438 C 139.9375 97.214844 141.816406 97.121094 143.699219 97.121094 C 145.582031 97.121094 147.460938 97.214844 149.335938 97.398438 C 151.210938 97.585938 153.070312 97.859375 154.917969 98.226562 C 156.765625 98.59375 158.589844 99.050781 160.390625 99.597656 C 162.195312 100.144531 163.964844 100.777344 165.703125 101.5 C 167.445312 102.21875 169.144531 103.023438 170.804688 103.914062 C 172.46875 104.800781 174.082031 105.769531 175.648438 106.8125 C 177.214844 107.859375 178.722656 108.980469 180.179688 110.175781 C 181.636719 111.371094 183.03125 112.632812 184.363281 113.964844 C 185.691406 115.296875 186.957031 116.691406 188.152344 118.148438 C 189.347656 119.601562 190.464844 121.113281 191.511719 122.679688 C 192.558594 124.246094 193.527344 125.859375 194.414062 127.519531 C 195.300781 129.179688 196.105469 130.882812 196.828125 132.621094 C 197.546875 134.363281 198.183594 136.132812 198.730469 137.933594 C 199.273438 139.738281 199.730469 141.5625 200.101562 143.410156 C 200.46875 145.257812 200.742188 147.117188 200.929688 148.992188 C 201.113281 150.867188 201.203125 152.746094 201.203125 154.628906 C 201.203125 156.511719 201.109375 158.390625 200.921875 160.261719 C 200.734375 162.136719 200.457031 163.996094 200.089844 165.84375 C 199.71875 167.6875 199.261719 169.511719 198.714844 171.316406 C 198.167969 173.117188 197.53125 174.886719 196.808594 176.625 C 196.089844 178.363281 195.285156 180.0625 194.394531 181.722656 C 193.507812 183.382812 192.539062 184.996094 191.492188 186.5625 C 190.449219 188.128906 189.328125 189.636719 188.132812 191.09375 C 186.9375 192.546875 185.675781 193.941406 184.34375 195.273438 C 183.011719 196.605469 181.617188 197.867188 180.164062 199.0625 C 178.707031 200.257812 177.199219 201.378906 175.632812 202.425781 C 174.066406 203.46875 172.453125 204.4375 170.792969 205.328125 C 169.132812 206.214844 167.433594 207.019531 165.695312 207.742188 C 163.957031 208.460938 162.1875 209.097656 160.386719 209.644531 C 158.582031 210.191406 156.757812 210.652344 154.914062 211.019531 C 153.066406 211.390625 151.207031 211.667969 149.332031 211.851562 C 147.460938 212.039062 145.582031 212.132812 143.699219 212.136719 Z M 143.699219 212.136719 " fill-opacity="1" fill-rule="nonzero"/></g><path fill="#009191" d="M 146.476562 155.273438 L 146.476562 114.078125 C 146.476562 113.710938 146.40625 113.355469 146.265625 113.015625 C 146.125 112.675781 145.925781 112.375 145.664062 112.113281 C 145.402344 111.851562 145.101562 111.652344 144.761719 111.511719 C 144.421875 111.371094 144.066406 111.300781 143.699219 111.300781 C 143.332031 111.300781 142.976562 111.371094 142.636719 111.511719 C 142.292969 111.652344 141.992188 111.851562 141.734375 112.113281 C 141.472656 112.375 141.273438 112.675781 141.132812 113.015625 C 140.988281 113.355469 140.917969 113.710938 140.917969 114.078125 L 140.917969 156.421875 C 140.917969 157.191406 141.191406 157.84375 141.734375 158.386719 L 165.777344 182.429688 C 166.039062 182.691406 166.339844 182.890625 166.679688 183.03125 C 167.019531 183.175781 167.375 183.246094 167.742188 183.246094 C 168.109375 183.246094 168.464844 183.175781 168.804688 183.03125 C 169.144531 182.890625 169.445312 182.691406 169.707031 182.429688 C 169.96875 182.171875 170.167969 181.871094 170.308594 181.527344 C 170.449219 181.1875 170.519531 180.835938 170.519531 180.464844 C 170.519531 180.097656 170.449219 179.742188 170.308594 179.402344 C 170.167969 179.0625 169.96875 178.761719 169.707031 178.5 Z M 146.476562 155.273438 " fill-opacity="1" fill-rule="nonzero"/><g fill="#009191" fill-opacity="1"><g transform="translate(239.554866, 190.451887)"><g><path d="M 73.265625 -74.222656 L 73.265625 -82.601562 L 4.070312 -82.601562 L 4.070312 -74.222656 L 33.519531 -74.222656 L 33.519531 0 L 43.816406 0 L 43.816406 -74.222656 Z M 73.265625 -74.222656 "/></g></g></g><g fill="#009191" fill-opacity="1"><g transform="translate(312.814021, 190.451887)"><g><path d="M 14.007812 -84.277344 C 10.296875 -84.277344 7.421875 -81.40625 7.421875 -77.695312 C 7.421875 -73.984375 10.296875 -71.109375 14.007812 -71.109375 C 17.71875 -71.109375 20.589844 -73.984375 20.589844 -77.695312 C 20.589844 -81.40625 17.71875 -84.277344 14.007812 -84.277344 Z M 19.15625 0 L 19.15625 -63.449219 L 8.859375 -63.449219 L 8.859375 0 Z M 19.15625 0 "/></g></g></g><g fill="#009191" fill-opacity="1"><g transform="translate(341.303694, 190.451887)"><g><path d="M 93.257812 -49.679688 C 91.820312 -58.421875 85.355469 -65.125 73.984375 -65.125 C 68.355469 -65.125 63.808594 -64.046875 60.574219 -61.414062 L 54.949219 -53.273438 C 52.554688 -60.214844 46.328125 -65.125 36.632812 -65.125 C 31.007812 -65.125 26.457031 -64.046875 23.222656 -61.414062 L 19.15625 -54.230469 L 19.15625 -63.449219 L 8.859375 -63.449219 L 8.859375 0 L 19.15625 0 L 19.15625 -31.363281 C 19.15625 -50.640625 25.019531 -56.984375 33.042969 -56.984375 C 40.222656 -56.984375 44.773438 -53.511719 45.730469 -46.328125 C 46.089844 -43.097656 46.210938 -39.625 46.210938 -34 L 46.210938 0 L 56.503906 0 L 56.503906 -31.363281 C 56.503906 -50.640625 62.371094 -56.984375 70.390625 -56.984375 C 77.574219 -56.984375 82.125 -53.511719 83.082031 -46.328125 C 83.441406 -43.097656 83.5625 -39.625 83.5625 -34 L 83.5625 0 L 93.855469 0 L 93.855469 -38.789062 C 93.855469 -43.933594 93.738281 -46.449219 93.257812 -49.679688 Z M 93.257812 -49.679688 "/></g></g></g><g fill="#009191" fill-opacity="1"><g transform="translate(443.65103, 190.451887)"><g><path d="M 60.933594 -33.519531 C 60.933594 -52.074219 51.238281 -65.125 33.757812 -65.125 C 16.402344 -65.125 3.589844 -52.074219 3.589844 -31.484375 C 3.589844 -9.097656 15.921875 1.675781 32.441406 1.675781 C 45.492188 1.675781 57.582031 -5.148438 60.097656 -20.472656 L 49.324219 -20.472656 C 47.886719 -11.371094 41.183594 -6.226562 32.921875 -6.226562 C 23.582031 -6.226562 15.683594 -11.851562 14.726562 -28.613281 L 60.695312 -28.613281 C 60.933594 -30.886719 60.933594 -32.5625 60.933594 -33.519531 Z M 33.519531 -57.222656 C 43.933594 -57.222656 49.5625 -49.679688 50.519531 -36.511719 L 14.84375 -36.511719 C 16.042969 -50.039062 23.464844 -57.222656 33.519531 -57.222656 Z M 33.519531 -57.222656 "/></g></g></g><g fill="#009191" fill-opacity="1"><g transform="translate(509.368803, 190.451887)"><g><path d="M 18.675781 -87.988281 L 8.378906 -87.988281 L 8.378906 -17.835938 C 8.378906 -14.367188 8.378906 -11.613281 8.5 -9.457031 C 8.859375 -1.4375 13.289062 0.480469 19.273438 0.480469 C 21.667969 0.480469 24.300781 0.359375 26.578125 0 L 26.578125 -7.421875 C 20.949219 -6.824219 19.035156 -8.140625 18.796875 -12.210938 C 18.675781 -14.246094 18.675781 -16.28125 18.675781 -18.195312 Z M 18.675781 -87.988281 "/></g></g></g><g fill="#009191" fill-opacity="1"><g transform="translate(538.935828, 190.451887)"><g><path d="M 60.695312 -63.449219 L 49.441406 -63.449219 L 30.648438 -7.660156 L 11.730469 -63.449219 L 0.121094 -63.449219 L 25.378906 3.230469 L 24.542969 5.507812 C 21.308594 13.886719 17.121094 16.640625 10.773438 16.640625 C 9.695312 16.640625 8.621094 16.640625 7.0625 16.519531 L 7.0625 24.902344 C 8.621094 25.140625 10.054688 25.140625 12.332031 25.140625 C 22.625 25.140625 29.449219 18.796875 34.597656 5.386719 Z M 60.695312 -63.449219 "/></g></g></g></svg>
