<svg xmlns="http://www.w3.org/2000/svg" xmlns:xlink="http://www.w3.org/1999/xlink" width="796" zoomAndPan="magnify" viewBox="0 0 597 274.499992" height="366" preserveAspectRatio="xMidYMid meet" version="1.0"><defs><g/><clipPath id="id1"><path d="M 75.726562 106 L 192 106 L 192 194 L 75.726562 194 Z M 75.726562 106 " clip-rule="nonzero"/></clipPath><clipPath id="id2"><path d="M 150 75.171875 L 162 75.171875 L 162 81 L 150 81 Z M 150 75.171875 " clip-rule="nonzero"/></clipPath><clipPath id="id3"><path d="M 203 129 L 207.484375 129 L 207.484375 142 L 203 142 Z M 203 129 " clip-rule="nonzero"/></clipPath></defs><path fill="#009191" d="M 149.078125 136.558594 C 149.078125 136.714844 149.046875 136.871094 148.984375 137.015625 C 148.921875 137.164062 148.835938 137.292969 148.722656 137.40625 C 148.609375 137.519531 148.480469 137.605469 148.332031 137.667969 C 148.183594 137.730469 148.027344 137.757812 147.867188 137.757812 C 147.707031 137.757812 147.554688 137.730469 147.40625 137.667969 C 147.257812 137.605469 147.128906 137.519531 147.015625 137.40625 C 146.902344 137.292969 146.816406 137.164062 146.753906 137.015625 C 146.691406 136.871094 146.660156 136.714844 146.660156 136.558594 C 146.660156 136.398438 146.691406 136.246094 146.753906 136.097656 C 146.816406 135.949219 146.902344 135.820312 147.015625 135.707031 C 147.128906 135.59375 147.257812 135.507812 147.40625 135.445312 C 147.554688 135.386719 147.707031 135.355469 147.867188 135.355469 C 148.027344 135.355469 148.183594 135.386719 148.332031 135.445312 C 148.480469 135.507812 148.609375 135.59375 148.722656 135.707031 C 148.835938 135.820312 148.921875 135.949219 148.984375 136.097656 C 149.046875 136.246094 149.078125 136.398438 149.078125 136.558594 Z M 149.078125 136.558594 " fill-opacity="1" fill-rule="nonzero"/><g clip-path="url(#id1)"><path fill="#009191" d="M 188.316406 172.914062 C 172.167969 189.742188 147.265625 194.699219 125.832031 185.234375 C 98.816406 173.363281 85.835938 142.417969 96.402344 115.074219 L 100.628906 132.953125 C 100.78125 134.003906 101.835938 134.753906 102.890625 134.453125 C 103.949219 134.152344 104.554688 133.253906 104.25 132.199219 C 104.25 132.199219 98.363281 107.410156 98.363281 107.410156 C 98.214844 106.8125 97.761719 106.210938 97.007812 106.058594 C 96.402344 105.910156 95.648438 106.058594 95.195312 106.511719 L 76.480469 125.441406 C 75.726562 126.191406 75.726562 127.394531 76.480469 128.144531 C 77.234375 128.894531 78.441406 128.894531 79.195312 128.144531 L 92.628906 114.621094 C 81.460938 145.269531 97.308594 179.074219 128.097656 190.191406 C 150.132812 198.152344 174.886719 192.445312 191.183594 175.617188 C 191.941406 174.867188 191.941406 173.664062 191.335938 172.914062 C 189.828125 171.710938 188.621094 172.765625 188.316406 172.914062 Z M 188.316406 172.914062 " fill-opacity="1" fill-rule="nonzero"/></g><path fill="#009191" d="M 174.582031 86.226562 C 175.488281 86.679688 176.546875 86.378906 177.148438 85.476562 C 177.601562 84.574219 177.300781 83.375 176.394531 82.921875 C 176.394531 82.921875 170.207031 80.070312 169.300781 79.769531 C 168.394531 79.316406 167.1875 79.769531 166.734375 80.667969 C 166.28125 81.570312 166.734375 82.773438 167.640625 83.222656 C 167.792969 83.074219 173.375 85.476562 174.582031 86.226562 Z M 174.582031 86.226562 " fill-opacity="1" fill-rule="nonzero"/><path fill="#009191" d="M 135.945312 80.820312 C 136.097656 80.820312 141.078125 79.917969 143.492188 79.769531 C 144.546875 79.617188 145.304688 78.714844 145.152344 77.816406 C 145.152344 76.761719 144.097656 76.011719 143.039062 76.011719 C 143.039062 76.011719 137.90625 76.613281 135.34375 77.214844 C 134.285156 77.515625 133.683594 78.417969 133.984375 79.46875 C 134.285156 80.21875 135.039062 80.820312 135.945312 80.820312 Z M 135.945312 80.820312 " fill-opacity="1" fill-rule="nonzero"/><path fill="#009191" d="M 187.414062 95.691406 C 187.714844 95.992188 188.921875 96.746094 190.128906 95.691406 C 190.882812 94.941406 190.882812 93.738281 190.128906 92.988281 C 188.316406 91.1875 186.355469 89.535156 184.242188 87.882812 C 183.335938 87.28125 182.28125 87.429688 181.527344 88.179688 C 180.921875 89.082031 181.074219 90.132812 181.828125 90.886719 C 183.941406 92.386719 185.75 94.039062 187.414062 95.691406 Z M 187.414062 95.691406 " fill-opacity="1" fill-rule="nonzero"/><g clip-path="url(#id2)"><path fill="#009191" d="M 159.640625 80.667969 C 159.640625 80.667969 161.453125 81.121094 161.90625 79.167969 C 162.207031 77.816406 161.300781 77.0625 160.546875 76.914062 C 157.980469 76.464844 155.414062 76.011719 152.851562 75.863281 C 151.792969 75.710938 150.886719 76.464844 150.738281 77.515625 C 150.585938 78.566406 151.339844 79.46875 152.398438 79.617188 C 152.246094 79.617188 157.226562 80.21875 159.640625 80.667969 Z M 159.640625 80.667969 " fill-opacity="1" fill-rule="nonzero"/></g><path fill="#009191" d="M 121.457031 86.378906 C 123.570312 85.175781 125.832031 84.273438 128.097656 83.375 C 129.003906 82.921875 129.605469 81.871094 129.152344 80.96875 C 128.703125 80.070312 127.644531 79.46875 126.738281 79.917969 C 124.324219 80.820312 121.910156 82.023438 119.644531 83.222656 C 118.738281 83.675781 118.289062 84.875 118.890625 85.777344 C 119.796875 87.128906 121.15625 86.527344 121.457031 86.378906 Z M 121.457031 86.378906 " fill-opacity="1" fill-rule="nonzero"/><path fill="#009191" d="M 202.503906 123.335938 C 202.65625 124.238281 203.410156 125.140625 204.769531 124.839844 C 205.824219 124.6875 206.429688 123.636719 206.277344 122.585938 C 206.277344 122.585938 205.070312 117.476562 204.164062 115.074219 C 203.863281 114.023438 202.808594 113.570312 201.75 113.871094 C 200.84375 114.171875 200.242188 115.222656 200.542969 116.125 C 200.542969 116.277344 202.050781 120.933594 202.503906 123.335938 Z M 202.503906 123.335938 " fill-opacity="1" fill-rule="nonzero"/><path fill="#009191" d="M 204.46875 146.472656 C 203.410156 146.171875 202.503906 146.773438 202.203125 147.824219 C 201.597656 150.230469 200.84375 152.480469 200.089844 154.734375 C 199.789062 155.636719 200.242188 156.839844 201.148438 157.140625 C 202.355469 157.589844 203.257812 156.839844 203.5625 156.089844 C 204.46875 153.683594 205.222656 151.128906 205.824219 148.726562 C 206.128906 147.675781 205.523438 146.773438 204.46875 146.472656 Z M 204.46875 146.472656 " fill-opacity="1" fill-rule="nonzero"/><path fill="#009191" d="M 198.730469 161.945312 C 197.824219 161.496094 196.617188 161.796875 196.164062 162.546875 C 194.957031 164.652344 193.601562 166.605469 192.089844 168.558594 C 191.488281 169.457031 191.636719 170.511719 192.394531 171.261719 C 193.148438 172.011719 194.355469 171.710938 195.109375 170.960938 C 196.769531 168.859375 198.128906 166.753906 199.488281 164.5 C 199.9375 163.601562 199.636719 162.398438 198.730469 161.945312 Z M 198.730469 161.945312 " fill-opacity="1" fill-rule="nonzero"/><g clip-path="url(#id3)"><path fill="#009191" d="M 207.484375 131.75 C 207.484375 130.699219 206.578125 129.945312 205.523438 129.945312 C 204.46875 129.945312 203.710938 130.847656 203.710938 131.898438 C 203.710938 132.800781 203.710938 137.757812 203.5625 139.261719 C 203.410156 140.3125 204.316406 141.214844 205.222656 141.214844 C 205.222656 141.214844 207.183594 141.515625 207.335938 139.410156 C 207.484375 138.058594 207.484375 132.800781 207.484375 131.75 Z M 207.484375 131.75 " fill-opacity="1" fill-rule="nonzero"/></g><path fill="#009191" d="M 197.070312 108.464844 C 197.375 109.0625 198.582031 109.664062 199.636719 109.214844 C 201.296875 108.464844 200.542969 106.960938 200.390625 106.660156 C 199.183594 104.40625 197.824219 102.152344 196.164062 100.050781 C 195.5625 99.148438 194.203125 99 193.449219 99.75 C 192.695312 100.351562 192.542969 101.402344 193.148438 102.304688 C 193.148438 102.304688 195.863281 106.359375 197.070312 108.464844 Z M 197.070312 108.464844 " fill-opacity="1" fill-rule="nonzero"/><path fill="#009191" d="M 168.246094 104.257812 C 168.847656 104.257812 169.453125 103.957031 169.90625 103.355469 L 171.414062 100.800781 C 171.867188 99.898438 171.414062 98.699219 170.507812 98.246094 C 169.753906 97.796875 168.695312 98.097656 168.09375 98.847656 L 166.585938 101.402344 C 165.679688 102.605469 166.585938 104.105469 168.246094 104.257812 Z M 168.246094 104.257812 " fill-opacity="1" fill-rule="nonzero"/><path fill="#009191" d="M 149.078125 98.699219 C 150.132812 98.699219 150.886719 97.945312 150.886719 96.894531 L 150.886719 93.890625 C 150.886719 92.839844 149.980469 92.085938 149.078125 92.085938 C 148.171875 92.085938 147.265625 92.988281 147.265625 93.890625 L 147.265625 96.894531 C 147.265625 97.796875 148.019531 98.699219 149.078125 98.699219 Z M 149.078125 98.699219 " fill-opacity="1" fill-rule="nonzero"/><path fill="#009191" d="M 127.34375 97.347656 C 126.4375 97.796875 126.136719 99 126.589844 99.898438 L 128.097656 102.453125 C 128.398438 103.054688 129.457031 103.804688 130.664062 103.203125 C 131.570312 102.753906 131.871094 101.550781 131.417969 100.652344 C 131.417969 100.652344 129.910156 98.097656 129.910156 98.097656 C 129.152344 96.59375 127.644531 97.195312 127.34375 97.347656 Z M 127.34375 97.347656 " fill-opacity="1" fill-rule="nonzero"/><path fill="#009191" d="M 113.003906 156.539062 L 115.570312 155.035156 C 116.476562 154.585938 116.777344 153.382812 116.324219 152.480469 C 115.871094 151.582031 114.664062 151.28125 113.757812 151.730469 L 111.195312 153.234375 C 110.289062 153.683594 109.984375 154.886719 110.4375 155.789062 C 110.742188 156.539062 111.644531 157.289062 113.003906 156.539062 Z M 113.003906 156.539062 " fill-opacity="1" fill-rule="nonzero"/><path fill="#009191" d="M 125.378906 169.308594 C 124.777344 170.210938 125.230469 172.011719 127.039062 172.164062 C 127.644531 172.164062 128.25 171.863281 128.703125 171.261719 L 130.210938 168.707031 C 130.8125 167.804688 130.511719 166.605469 129.605469 166.152344 C 128.703125 165.554688 127.644531 165.851562 127.039062 166.753906 C 126.890625 166.753906 125.378906 169.308594 125.378906 169.308594 Z M 125.378906 169.308594 " fill-opacity="1" fill-rule="nonzero"/><path fill="#009191" d="M 145.757812 173.214844 L 145.757812 176.21875 C 145.757812 177.269531 146.511719 178.171875 147.566406 178.171875 C 148.625 178.171875 149.378906 177.421875 149.378906 176.371094 L 149.378906 173.363281 C 149.527344 170.660156 145.757812 170.511719 145.757812 173.214844 Z M 145.757812 173.214844 " fill-opacity="1" fill-rule="nonzero"/><path fill="#009191" d="M 165.980469 166.90625 C 165.074219 167.355469 164.773438 168.558594 165.226562 169.457031 L 166.734375 172.011719 C 167.035156 172.613281 167.640625 173.066406 168.394531 173.066406 C 168.695312 173.066406 169 172.914062 169.300781 172.765625 C 170.207031 172.3125 170.507812 171.113281 170.054688 170.210938 L 168.546875 167.65625 C 168.09375 166.753906 166.886719 166.453125 165.980469 166.90625 Z M 165.980469 166.90625 " fill-opacity="1" fill-rule="nonzero"/><path fill="#009191" d="M 184.695312 154.734375 L 182.128906 153.234375 C 181.222656 152.632812 180.015625 152.933594 179.5625 153.835938 C 179.109375 154.734375 179.261719 155.789062 180.167969 156.386719 C 180.167969 156.386719 180.167969 156.386719 180.320312 156.386719 L 182.882812 157.890625 C 183.789062 158.492188 184.996094 158.191406 185.449219 157.289062 C 185.449219 157.289062 185.449219 157.289062 185.449219 157.140625 C 185.902344 156.386719 185.601562 155.1875 184.695312 154.734375 Z M 184.695312 154.734375 " fill-opacity="1" fill-rule="nonzero"/><path fill="#009191" d="M 186.808594 133.851562 C 185.75 133.851562 184.996094 134.605469 184.847656 135.65625 C 184.847656 136.707031 185.601562 137.609375 186.65625 137.609375 L 189.675781 137.609375 C 190.734375 137.609375 191.488281 136.707031 191.488281 135.804688 C 191.488281 134.90625 190.582031 134.003906 189.675781 134.003906 L 186.808594 134.003906 Z M 186.808594 133.851562 " fill-opacity="1" fill-rule="nonzero"/><path fill="#009191" d="M 181.980469 118.527344 C 182.28125 118.527344 182.582031 118.378906 182.882812 118.230469 L 185.449219 116.726562 C 186.355469 116.277344 186.65625 115.074219 186.203125 114.171875 C 185.75 113.269531 184.542969 112.96875 183.640625 113.421875 L 181.074219 114.921875 C 180.167969 115.375 179.867188 116.574219 180.320312 117.476562 C 180.621094 118.078125 181.222656 118.378906 181.980469 118.527344 Z M 181.980469 118.527344 " fill-opacity="1" fill-rule="nonzero"/><path fill="#009191" d="M 148.625 137.007812 C 148.773438 136.859375 148.773438 136.558594 148.773438 136.40625 C 148.773438 136.257812 148.625 135.957031 148.472656 135.804688 C 148.320312 135.65625 148.019531 135.65625 147.867188 135.65625 C 147.71875 135.65625 147.417969 135.804688 147.265625 135.957031 C 146.964844 136.257812 146.964844 136.859375 147.265625 137.160156 C 147.71875 137.457031 148.171875 137.457031 148.625 137.007812 Z M 148.625 137.007812 " fill-opacity="1" fill-rule="nonzero"/><path fill="#009191" d="M 148.171875 169.007812 C 167.1875 169.007812 182.429688 153.683594 182.429688 134.90625 C 182.429688 116.125 167.1875 100.800781 148.171875 100.800781 C 129.152344 100.800781 113.910156 115.976562 113.910156 134.90625 C 113.910156 153.683594 129.304688 169.007812 148.171875 169.007812 Z M 126.589844 117.476562 C 127.34375 116.726562 128.550781 116.574219 129.304688 117.328125 L 146.058594 132.199219 C 146.511719 131.898438 147.113281 131.898438 147.71875 131.75 C 148.320312 131.75 148.773438 131.75 149.378906 131.898438 L 167.339844 111.917969 C 167.941406 111.167969 169.148438 110.867188 170.054688 111.617188 C 170.808594 112.21875 171.113281 113.421875 170.355469 114.324219 C 170.355469 114.324219 152.09375 134.605469 152.09375 134.605469 C 152.398438 135.054688 152.398438 135.65625 152.546875 136.257812 C 152.546875 138.8125 150.585938 140.914062 148.019531 140.914062 C 145.453125 140.914062 143.339844 138.960938 143.339844 136.40625 C 143.339844 135.957031 143.339844 135.503906 143.492188 135.054688 L 126.738281 120.03125 C 125.984375 119.429688 125.984375 118.230469 126.589844 117.476562 Z M 126.589844 117.476562 " fill-opacity="1" fill-rule="nonzero"/><g fill="#009191" fill-opacity="1"><g transform="translate(220.100395, 172.232146)"><g><path d="M 61.15625 -61.957031 L 61.15625 -68.949219 L 3.398438 -68.949219 L 3.398438 -61.957031 L 27.980469 -61.957031 L 27.980469 0 L 36.574219 0 L 36.574219 -61.957031 Z M 61.15625 -61.957031 "/></g></g></g><g fill="#009191" fill-opacity="1"><g transform="translate(281.251219, 172.232146)"><g><path d="M 11.691406 -70.347656 C 8.59375 -70.347656 6.195312 -67.949219 6.195312 -64.851562 C 6.195312 -61.753906 8.59375 -59.355469 11.691406 -59.355469 C 14.789062 -59.355469 17.1875 -61.753906 17.1875 -64.851562 C 17.1875 -67.949219 14.789062 -70.347656 11.691406 -70.347656 Z M 15.988281 0 L 15.988281 -52.960938 L 7.394531 -52.960938 L 7.394531 0 Z M 15.988281 0 "/></g></g></g><g fill="#009191" fill-opacity="1"><g transform="translate(305.032096, 172.232146)"><g><path d="M 77.84375 -41.46875 C 76.644531 -48.765625 71.25 -54.359375 61.753906 -54.359375 C 57.058594 -54.359375 53.261719 -53.460938 50.5625 -51.261719 L 45.867188 -44.46875 C 43.867188 -50.265625 38.671875 -54.359375 30.578125 -54.359375 C 25.882812 -54.359375 22.085938 -53.460938 19.386719 -51.261719 L 15.988281 -45.265625 L 15.988281 -52.960938 L 7.394531 -52.960938 L 7.394531 0 L 15.988281 0 L 15.988281 -26.179688 C 15.988281 -42.269531 20.886719 -47.566406 27.582031 -47.566406 C 33.574219 -47.566406 37.375 -44.667969 38.171875 -38.671875 C 38.472656 -35.972656 38.570312 -33.074219 38.570312 -28.378906 L 38.570312 0 L 47.164062 0 L 47.164062 -26.179688 C 47.164062 -42.269531 52.0625 -47.566406 58.757812 -47.566406 C 64.753906 -47.566406 68.550781 -44.667969 69.351562 -38.671875 C 69.648438 -35.972656 69.75 -33.074219 69.75 -28.378906 L 69.75 0 L 78.34375 0 L 78.34375 -32.375 C 78.34375 -36.671875 78.242188 -38.773438 77.84375 -41.46875 Z M 77.84375 -41.46875 "/></g></g></g><g fill="#009191" fill-opacity="1"><g transform="translate(390.463384, 172.232146)"><g><path d="M 50.863281 -27.980469 C 50.863281 -43.46875 42.769531 -54.359375 28.179688 -54.359375 C 13.691406 -54.359375 2.996094 -43.46875 2.996094 -26.28125 C 2.996094 -7.59375 13.289062 1.398438 27.082031 1.398438 C 37.972656 1.398438 48.066406 -4.296875 50.164062 -17.085938 L 41.171875 -17.085938 C 39.972656 -9.492188 34.375 -5.195312 27.480469 -5.195312 C 19.6875 -5.195312 13.089844 -9.894531 12.292969 -23.882812 L 50.664062 -23.882812 C 50.863281 -25.78125 50.863281 -27.179688 50.863281 -27.980469 Z M 27.980469 -47.765625 C 36.671875 -47.765625 41.371094 -41.46875 42.167969 -30.476562 L 12.390625 -30.476562 C 13.390625 -41.769531 19.585938 -47.765625 27.980469 -47.765625 Z M 27.980469 -47.765625 "/></g></g></g><g fill="#009191" fill-opacity="1"><g transform="translate(445.319271, 172.232146)"><g><path d="M 15.589844 -73.445312 L 6.996094 -73.445312 L 6.996094 -14.890625 C 6.996094 -11.992188 6.996094 -9.691406 7.09375 -7.894531 C 7.394531 -1.199219 11.09375 0.398438 16.089844 0.398438 C 18.085938 0.398438 20.285156 0.300781 22.183594 0 L 22.183594 -6.195312 C 17.488281 -5.695312 15.886719 -6.796875 15.6875 -10.191406 C 15.589844 -11.890625 15.589844 -13.589844 15.589844 -15.1875 Z M 15.589844 -73.445312 "/></g></g></g><g fill="#009191" fill-opacity="1"><g transform="translate(469.999435, 172.232146)"><g><path d="M 50.664062 -52.960938 L 41.269531 -52.960938 L 25.582031 -6.394531 L 9.792969 -52.960938 L 0.101562 -52.960938 L 21.183594 2.699219 L 20.484375 4.597656 C 17.789062 11.589844 14.289062 13.890625 8.992188 13.890625 C 8.09375 13.890625 7.195312 13.890625 5.894531 13.789062 L 5.894531 20.785156 C 7.195312 20.984375 8.394531 20.984375 10.292969 20.984375 C 18.886719 20.984375 24.582031 15.6875 28.878906 4.496094 Z M 50.664062 -52.960938 "/></g></g></g></svg>
