<svg version="1.1" xmlns="http://www.w3.org/2000/svg" viewBox="0 0 1560 1080" width="1560" height="1080">
    <!-- svg-source:excalidraw -->

    <defs>
        <style>
            @font-face {
            font-family: "Virgil";
            src: url("https://excalidraw.com/Virgil.woff2");
            }
            @font-face {
            font-family: "Cascadia";
            src: url("https://excalidraw.com/Cascadia.woff2");
            }
        </style>
    </defs>
    <rect x="0" y="0" width="1560" height="1080" fill="#ffffff"></rect><g stroke-linecap="round" transform="translate(330 510) rotate(0 137 40)"><path d="M20 0 M20 0 C68.14 0, 116.28 0, 254 0 M20 0 C108.82 0, 197.63 0, 254 0 M254 0 C267.33 0, 274 6.67, 274 20 M254 0 C267.33 0, 274 6.67, 274 20 M274 20 C274 29.31, 274 38.62, 274 60 M274 20 C274 33.17, 274 46.35, 274 60 M274 60 C274 73.33, 267.33 80, 254 80 M274 60 C274 73.33, 267.33 80, 254 80 M254 80 C192.08 80, 130.16 80, 20 80 M254 80 C189.35 80, 124.7 80, 20 80 M20 80 C6.67 80, 0 73.33, 0 60 M20 80 C6.67 80, 0 73.33, 0 60 M0 60 C0 45.24, 0 30.47, 0 20 M0 60 C0 48.74, 0 37.48, 0 20 M0 20 C0 6.67, 6.67 0, 20 0 M0 20 C0 6.67, 6.67 0, 20 0" stroke="#343a40" stroke-width="4" fill="none"></path></g><g transform="translate(335 528.5) rotate(0 132 21.5)"><text x="132" y="35" font-family="Cascadia, Segoe UI Emoji" font-size="36px" fill="#343a40" text-anchor="middle" style="white-space: pre;" direction="ltr">Call script</text></g><g stroke-linecap="round"><g transform="translate(170 550) rotate(0 69.53829499401354 0.854618421010855)"><path d="M0 0 C23.18 0.28, 115.9 1.42, 139.08 1.71 M0 0 C23.18 0.28, 115.9 1.42, 139.08 1.71" stroke="#000000" stroke-width="4" fill="none"></path></g><g transform="translate(170 550) rotate(0 69.53829499401354 0.854618421010855)"><path d="M110.76 11.62 C121.23 7.96, 131.7 4.29, 139.08 1.71 M110.76 11.62 C121.65 7.81, 132.53 4, 139.08 1.71" stroke="#000000" stroke-width="4" fill="none"></path></g><g transform="translate(170 550) rotate(0 69.53829499401354 0.854618421010855)"><path d="M111.01 -8.9 C121.39 -4.98, 131.76 -1.05, 139.08 1.71 M111.01 -8.9 C121.8 -4.82, 132.59 -0.74, 139.08 1.71" stroke="#000000" stroke-width="4" fill="none"></path></g></g><g stroke-linecap="round"><g transform="translate(1090 550) rotate(0 69.53829499401354 0.854618421010855)"><path d="M0 0 C23.18 0.28, 115.9 1.42, 139.08 1.71 M0 0 C23.18 0.28, 115.9 1.42, 139.08 1.71" stroke="#000000" stroke-width="4" fill="none"></path></g><g transform="translate(1090 550) rotate(0 69.53829499401354 0.854618421010855)"><path d="M110.76 11.62 C121.59 7.83, 132.42 4.04, 139.08 1.71 M110.76 11.62 C117.52 9.26, 124.27 6.89, 139.08 1.71" stroke="#000000" stroke-width="4" fill="none"></path></g><g transform="translate(1090 550) rotate(0 69.53829499401354 0.854618421010855)"><path d="M111.01 -8.9 C121.75 -4.84, 132.48 -0.78, 139.08 1.71 M111.01 -8.9 C117.71 -6.37, 124.41 -3.84, 139.08 1.71" stroke="#000000" stroke-width="4" fill="none"></path></g></g><g transform="translate(1250 530) rotate(0 64 21.5)"><text x="64" y="35" font-family="Cascadia, Segoe UI Emoji" font-size="36px" fill="#2b8a3e" text-anchor="middle" style="white-space: pre;" direction="ltr">return</text></g><g transform="translate(10 530) rotate(0 64 21.5)"><text x="0" y="35" font-family="Cascadia, Segoe UI Emoji" font-size="36px" fill="#000000" text-anchor="start" style="white-space: pre;" direction="ltr">aenter</text></g><g stroke-linecap="round"><g transform="translate(170 710) rotate(0 69.53829499401354 0.854618421010855)"><path d="M0 0 C23.18 0.28, 115.9 1.42, 139.08 1.71 M0 0 C23.18 0.28, 115.9 1.42, 139.08 1.71" stroke="#000000" stroke-width="4" fill="none"></path></g><g transform="translate(170 710) rotate(0 69.53829499401354 0.854618421010855)"><path d="M110.76 11.62 C121.47 7.87, 132.19 4.12, 139.08 1.71 M110.76 11.62 C116.96 9.45, 123.15 7.29, 139.08 1.71" stroke="#000000" stroke-width="4" fill="none"></path></g><g transform="translate(170 710) rotate(0 69.53829499401354 0.854618421010855)"><path d="M111.01 -8.9 C121.63 -4.88, 132.25 -0.87, 139.08 1.71 M111.01 -8.9 C117.15 -6.58, 123.29 -4.26, 139.08 1.71" stroke="#000000" stroke-width="4" fill="none"></path></g></g><g transform="translate(30 690) rotate(0 53 21.5)"><text x="0" y="35" font-family="Cascadia, Segoe UI Emoji" font-size="36px" fill="#000000" text-anchor="start" style="white-space: pre;" direction="ltr">aexit</text></g><g stroke-linecap="round" transform="translate(790 510) rotate(0 137 48)"><path d="M24 0 M24 0 C105.99 0, 187.97 0, 250 0 M24 0 C111.5 0, 199 0, 250 0 M250 0 C266 0, 274 8, 274 24 M250 0 C266 0, 274 8, 274 24 M274 24 C274 41.21, 274 58.42, 274 72 M274 24 C274 39.3, 274 54.6, 274 72 M274 72 C274 88, 266 96, 250 96 M274 72 C274 88, 266 96, 250 96 M250 96 C184.12 96, 118.23 96, 24 96 M250 96 C191.33 96, 132.67 96, 24 96 M24 96 C8 96, 0 88, 0 72 M24 96 C8 96, 0 88, 0 72 M0 72 C0 53.56, 0 35.12, 0 24 M0 72 C0 60.42, 0 48.85, 0 24 M0 24 C0 8, 8 0, 24 0 M0 24 C0 8, 8 0, 24 0" stroke="#343a40" stroke-width="4" fill="none"></path></g><g transform="translate(795 515) rotate(0 132 43)"><text x="132" y="35" font-family="Cascadia, Segoe UI Emoji" font-size="36px" fill="#343a40" text-anchor="middle" style="white-space: pre;" direction="ltr">Wait for </text><text x="132" y="78" font-family="Cascadia, Segoe UI Emoji" font-size="36px" fill="#343a40" text-anchor="middle" style="white-space: pre;" direction="ltr">semaphore</text></g><g stroke-linecap="round"><g transform="translate(630 550) rotate(0 69.53829499401354 0.854618421010855)"><path d="M0 0 C23.18 0.28, 115.9 1.42, 139.08 1.71 M0 0 C23.18 0.28, 115.9 1.42, 139.08 1.71" stroke="#000000" stroke-width="4" fill="none"></path></g><g transform="translate(630 550) rotate(0 69.53829499401354 0.854618421010855)"><path d="M110.76 11.62 C117.78 9.16, 124.8 6.71, 139.08 1.71 M110.76 11.62 C121.46 7.88, 132.17 4.13, 139.08 1.71" stroke="#000000" stroke-width="4" fill="none"></path></g><g transform="translate(630 550) rotate(0 69.53829499401354 0.854618421010855)"><path d="M111.01 -8.9 C117.97 -6.27, 124.93 -3.64, 139.08 1.71 M111.01 -8.9 C121.62 -4.89, 132.23 -0.88, 139.08 1.71" stroke="#000000" stroke-width="4" fill="none"></path></g></g><g stroke-linecap="round"><g transform="translate(470 490) rotate(0 0 -50)"><path d="M0 0 C0 -16.67, 0 -83.33, 0 -100 M0 0 C0 -16.67, 0 -83.33, 0 -100" stroke="#000000" stroke-width="4" fill="none"></path></g><g transform="translate(470 490) rotate(0 0 -50)"><path d="M10.26 -71.81 C6.28 -82.75, 2.3 -93.69, 0 -100 M10.26 -71.81 C6.26 -82.8, 2.26 -93.79, 0 -100" stroke="#000000" stroke-width="4" fill="none"></path></g><g transform="translate(470 490) rotate(0 0 -50)"><path d="M-10.26 -71.81 C-6.28 -82.75, -2.3 -93.69, 0 -100 M-10.26 -71.81 C-6.26 -82.8, -2.26 -93.79, 0 -100" stroke="#000000" stroke-width="4" fill="none"></path></g></g><g stroke-linecap="round" transform="translate(290 290) rotate(0 180 50)"><path d="M25 0 M25 0 C132.15 0, 239.3 0, 335 0 M25 0 C117.49 0, 209.97 0, 335 0 M335 0 C351.67 0, 360 8.33, 360 25 M335 0 C351.67 0, 360 8.33, 360 25 M360 25 C360 35.42, 360 45.84, 360 75 M360 25 C360 36, 360 47, 360 75 M360 75 C360 91.67, 351.67 100, 335 100 M360 75 C360 91.67, 351.67 100, 335 100 M335 100 C218.99 100, 102.98 100, 25 100 M335 100 C256.74 100, 178.48 100, 25 100 M25 100 C8.33 100, 0 91.67, 0 75 M25 100 C8.33 100, 0 91.67, 0 75 M0 75 C0 56.46, 0 37.91, 0 25 M0 75 C0 56.44, 0 37.87, 0 25 M0 25 C0 8.33, 8.33 0, 25 0 M0 25 C0 8.33, 8.33 0, 25 0" stroke="#343a40" stroke-width="4" fill="none"></path></g><g transform="translate(295 297) rotate(0 175 43)"><text x="175" y="35" font-family="Cascadia, Segoe UI Emoji" font-size="36px" fill="#343a40" text-anchor="middle" style="white-space: pre;" direction="ltr">Create queue if </text><text x="175" y="78" font-family="Cascadia, Segoe UI Emoji" font-size="36px" fill="#343a40" text-anchor="middle" style="white-space: pre;" direction="ltr">not exists</text></g><g stroke-linecap="round" transform="translate(830 290) rotate(0 137 48)"><path d="M24 0 M24 0 C80.9 0, 137.8 0, 250 0 M24 0 C69.94 0, 115.88 0, 250 0 M250 0 C266 0, 274 8, 274 24 M250 0 C266 0, 274 8, 274 24 M274 24 C274 34.76, 274 45.52, 274 72 M274 24 C274 39.77, 274 55.53, 274 72 M274 72 C274 88, 266 96, 250 96 M274 72 C274 88, 266 96, 250 96 M250 96 C200.78 96, 151.56 96, 24 96 M250 96 C180.91 96, 111.82 96, 24 96 M24 96 C8 96, 0 88, 0 72 M24 96 C8 96, 0 88, 0 72 M0 72 C0 54.4, 0 36.8, 0 24 M0 72 C0 62.2, 0 52.39, 0 24 M0 24 C0 8, 8 0, 24 0 M0 24 C0 8, 8 0, 24 0" stroke="#343a40" stroke-width="4" fill="none"></path></g><g transform="translate(835 295) rotate(0 132 43)"><text x="132" y="35" font-family="Cascadia, Segoe UI Emoji" font-size="36px" fill="#343a40" text-anchor="middle" style="white-space: pre;" direction="ltr">Add initial </text><text x="132" y="78" font-family="Cascadia, Segoe UI Emoji" font-size="36px" fill="#343a40" text-anchor="middle" style="white-space: pre;" direction="ltr">capacity</text></g><g stroke-linecap="round"><g transform="translate(472.46457285338556 275.6115107913665) rotate(0 -1.2322864266927809 -52.80575539568326)"><path d="M0 0 C-0.41 -17.6, -2.05 -88.01, -2.46 -105.61 M0 0 C-0.41 -17.6, -2.05 -88.01, -2.46 -105.61" stroke="#000000" stroke-width="4" fill="none"></path></g><g transform="translate(472.46457285338556 275.6115107913665) rotate(0 -1.2322864266927809 -52.80575539568326)"><path d="M8.45 -77.67 C5.97 -84.01, 3.5 -90.35, -2.46 -105.61 M8.45 -77.67 C5.16 -86.08, 1.88 -94.5, -2.46 -105.61" stroke="#000000" stroke-width="4" fill="none"></path></g><g transform="translate(472.46457285338556 275.6115107913665) rotate(0 -1.2322864266927809 -52.80575539568326)"><path d="M-12.06 -77.19 C-9.89 -83.64, -7.71 -90.09, -2.46 -105.61 M-12.06 -77.19 C-9.17 -85.75, -6.28 -94.31, -2.46 -105.61" stroke="#000000" stroke-width="4" fill="none"></path></g></g><g transform="translate(490 210) rotate(0 123.5 17)"><text x="123.5" y="27" font-family="Cascadia, Segoe UI Emoji" font-size="28px" fill="#1864ab" text-anchor="middle" style="white-space: pre;" direction="ltr">already existed</text></g><g transform="translate(410 90) rotate(0 64 21.5)"><text x="64" y="35" font-family="Cascadia, Segoe UI Emoji" font-size="36px" fill="#2b8a3e" text-anchor="middle" style="white-space: pre;" direction="ltr">return</text></g><g transform="translate(670 350) rotate(0 58 17)"><text x="58" y="27" font-family="Cascadia, Segoe UI Emoji" font-size="28px" fill="#1864ab" text-anchor="middle" style="white-space: pre;" direction="ltr">was set</text></g><g stroke-linecap="round"><g transform="translate(1130 330) rotate(0 69.53829499401354 0.854618421010855)"><path d="M0 0 C23.18 0.28, 115.9 1.42, 139.08 1.71 M0 0 C23.18 0.28, 115.9 1.42, 139.08 1.71" stroke="#000000" stroke-width="4" fill="none"></path></g><g transform="translate(1130 330) rotate(0 69.53829499401354 0.854618421010855)"><path d="M110.76 11.62 C118.25 9, 125.74 6.38, 139.08 1.71 M110.76 11.62 C119.11 8.7, 127.45 5.78, 139.08 1.71" stroke="#000000" stroke-width="4" fill="none"></path></g><g transform="translate(1130 330) rotate(0 69.53829499401354 0.854618421010855)"><path d="M111.01 -8.9 C118.44 -6.09, 125.86 -3.29, 139.08 1.71 M111.01 -8.9 C119.28 -5.77, 127.55 -2.65, 139.08 1.71" stroke="#000000" stroke-width="4" fill="none"></path></g></g><g transform="translate(1290 310) rotate(0 64 21.5)"><text x="64" y="35" font-family="Cascadia, Segoe UI Emoji" font-size="36px" fill="#2b8a3e" text-anchor="middle" style="white-space: pre;" direction="ltr">return</text></g><g stroke-linecap="round" transform="translate(230 70) rotate(0 620 179.99999999999955)"><path d="M0 0 C350.18 0, 700.36 0, 1240 0 M1240 0 C1240 107.45, 1240 214.9, 1240 360 M1240 360 C931.72 360, 623.44 360, 0 360 M0 360 C0 279.64, 0 199.27, 0 0" stroke="#000000" stroke-width="4.5" fill="none" stroke-dasharray="1.5 10"></path></g><g transform="translate(750 10) rotate(0 106 21.5)"><text x="106" y="35" font-family="Cascadia, Segoe UI Emoji" font-size="36px" fill="#000000" text-anchor="middle" style="white-space: pre;" direction="ltr">Lua script</text></g><g stroke-linecap="round" transform="translate(330 670) rotate(0 137 40)"><path d="M20 0 M20 0 C86.53 0, 153.05 0, 254 0 M20 0 C76.84 0, 133.68 0, 254 0 M254 0 C267.33 0, 274 6.67, 274 20 M254 0 C267.33 0, 274 6.67, 274 20 M274 20 C274 30.53, 274 41.05, 274 60 M274 20 C274 28.18, 274 36.35, 274 60 M274 60 C274 73.33, 267.33 80, 254 80 M274 60 C274 73.33, 267.33 80, 254 80 M254 80 C175.47 80, 96.95 80, 20 80 M254 80 C186.29 80, 118.58 80, 20 80 M20 80 C6.67 80, 0 73.33, 0 60 M20 80 C6.67 80, 0 73.33, 0 60 M0 60 C0 44.08, 0 28.16, 0 20 M0 60 C0 51.81, 0 43.63, 0 20 M0 20 C0 6.67, 6.67 0, 20 0 M0 20 C0 6.67, 6.67 0, 20 0" stroke="#343a40" stroke-width="4" fill="none"></path></g><g transform="translate(335 688.5) rotate(0 132 21.5)"><text x="132" y="35" font-family="Cascadia, Segoe UI Emoji" font-size="36px" fill="#343a40" text-anchor="middle" style="white-space: pre;" direction="ltr">Call script</text></g><g stroke-linecap="round"><g transform="translate(630 710) rotate(0 69.53829499401354 0.854618421010855)"><path d="M0 0 C23.18 0.28, 115.9 1.42, 139.08 1.71 M0 0 C23.18 0.28, 115.9 1.42, 139.08 1.71" stroke="#000000" stroke-width="4" fill="none"></path></g><g transform="translate(630 710) rotate(0 69.53829499401354 0.854618421010855)"><path d="M110.76 11.62 C119.93 8.41, 129.1 5.2, 139.08 1.71 M110.76 11.62 C121.8 7.76, 132.84 3.89, 139.08 1.71" stroke="#000000" stroke-width="4" fill="none"></path></g><g transform="translate(630 710) rotate(0 69.53829499401354 0.854618421010855)"><path d="M111.01 -8.9 C120.1 -5.46, 129.19 -2.03, 139.08 1.71 M111.01 -8.9 C121.96 -4.76, 132.9 -0.63, 139.08 1.71" stroke="#000000" stroke-width="4" fill="none"></path></g></g><g transform="translate(790 690) rotate(0 64 21.5)"><text x="64" y="35" font-family="Cascadia, Segoe UI Emoji" font-size="36px" fill="#2b8a3e" text-anchor="middle" style="white-space: pre;" direction="ltr">return</text></g><g stroke-linecap="round"><g transform="translate(470 770) rotate(0 0 40)"><path d="M0 0 C0 13.33, 0 66.67, 0 80 M0 0 C0 13.33, 0 66.67, 0 80" stroke="#000000" stroke-width="4" fill="none"></path></g><g transform="translate(470 770) rotate(0 0 40)"><path d="M-10.26 51.81 C-7.52 59.34, -4.78 66.88, 0 80 M-10.26 51.81 C-7.04 60.66, -3.82 69.51, 0 80" stroke="#000000" stroke-width="4" fill="none"></path></g><g transform="translate(470 770) rotate(0 0 40)"><path d="M10.26 51.81 C7.52 59.34, 4.78 66.88, 0 80 M10.26 51.81 C7.04 60.66, 3.82 69.51, 0 80" stroke="#000000" stroke-width="4" fill="none"></path></g></g><g stroke-linecap="round" transform="translate(290 870) rotate(0 630 100)"><path d="M0 0 C279.36 0, 558.72 0, 1260 0 M1260 0 C1260 46.54, 1260 93.08, 1260 200 M1260 200 C988.18 200, 716.36 200, 0 200 M0 200 C0 146.43, 0 92.86, 0 0" stroke="#000000" stroke-width="4.5" fill="none" stroke-dasharray="1.5 10"></path></g><g stroke-linecap="round" transform="translate(330 910) rotate(0 190 60)"><path d="M30 0 M30 0 C147.71 0, 265.43 0, 350 0 M30 0 C110.14 0, 190.28 0, 350 0 M350 0 C370 0, 380 10, 380 30 M350 0 C370 0, 380 10, 380 30 M380 30 C380 48.47, 380 66.93, 380 90 M380 30 C380 44.42, 380 58.85, 380 90 M380 90 C380 110, 370 120, 350 120 M380 90 C380 110, 370 120, 350 120 M350 120 C228.88 120, 107.76 120, 30 120 M350 120 C229.7 120, 109.41 120, 30 120 M30 120 C10 120, 0 110, 0 90 M30 120 C10 120, 0 110, 0 90 M0 90 C0 69.98, 0 49.96, 0 30 M0 90 C0 69.54, 0 49.08, 0 30 M0 30 C0 10, 10 0, 30 0 M0 30 C0 10, 10 0, 30 0" stroke="#343a40" stroke-width="4" fill="none"></path></g><g transform="translate(335 927) rotate(0 185 43)"><text x="185" y="35" font-family="Cascadia, Segoe UI Emoji" font-size="36px" fill="#343a40" text-anchor="middle" style="white-space: pre;" direction="ltr">Add capacity back</text><text x="185" y="78" font-family="Cascadia, Segoe UI Emoji" font-size="36px" fill="#343a40" text-anchor="middle" style="white-space: pre;" direction="ltr">to semaphore</text></g><g stroke-linecap="round" transform="translate(890 930) rotate(0 137 40)"><path d="M20 0 M20 0 C91.98 0, 163.96 0, 254 0 M20 0 C68.33 0, 116.66 0, 254 0 M254 0 C267.33 0, 274 6.67, 274 20 M254 0 C267.33 0, 274 6.67, 274 20 M274 20 C274 32.73, 274 45.45, 274 60 M274 20 C274 34.89, 274 49.77, 274 60 M274 60 C274 73.33, 267.33 80, 254 80 M274 60 C274 73.33, 267.33 80, 254 80 M254 80 C162.83 80, 71.65 80, 20 80 M254 80 C175.17 80, 96.34 80, 20 80 M20 80 C6.67 80, 0 73.33, 0 60 M20 80 C6.67 80, 0 73.33, 0 60 M0 60 C0 44.81, 0 29.63, 0 20 M0 60 C0 49.97, 0 39.94, 0 20 M0 20 C0 6.67, 6.67 0, 20 0 M0 20 C0 6.67, 6.67 0, 20 0" stroke="#343a40" stroke-width="4" fill="none"></path></g><g transform="translate(895 948.5) rotate(0 132 21.5)"><text x="132" y="35" font-family="Cascadia, Segoe UI Emoji" font-size="36px" fill="#343a40" text-anchor="middle" style="white-space: pre;" direction="ltr">Set expiry</text></g><g transform="translate(790 810) rotate(0 106 21.5)"><text x="106" y="35" font-family="Cascadia, Segoe UI Emoji" font-size="36px" fill="#000000" text-anchor="middle" style="white-space: pre;" direction="ltr">Lua script</text></g><g stroke-linecap="round"><g transform="translate(730 970) rotate(0 69.53829499401354 0.854618421010855)"><path d="M0 0 C23.18 0.28, 115.9 1.42, 139.08 1.71 M0 0 C23.18 0.28, 115.9 1.42, 139.08 1.71" stroke="#000000" stroke-width="4" fill="none"></path></g><g transform="translate(730 970) rotate(0 69.53829499401354 0.854618421010855)"><path d="M110.76 11.62 C121.65 7.81, 132.54 4, 139.08 1.71 M110.76 11.62 C120.57 8.19, 130.38 4.75, 139.08 1.71" stroke="#000000" stroke-width="4" fill="none"></path></g><g transform="translate(730 970) rotate(0 69.53829499401354 0.854618421010855)"><path d="M111.01 -8.9 C121.8 -4.82, 132.59 -0.74, 139.08 1.71 M111.01 -8.9 C120.73 -5.22, 130.45 -1.55, 139.08 1.71" stroke="#000000" stroke-width="4" fill="none"></path></g></g><g stroke-linecap="round"><g transform="translate(1190 970) rotate(0 69.53829499401354 0.854618421010855)"><path d="M0 0 C23.18 0.28, 115.9 1.42, 139.08 1.71 M0 0 C23.18 0.28, 115.9 1.42, 139.08 1.71" stroke="#000000" stroke-width="4" fill="none"></path></g><g transform="translate(1190 970) rotate(0 69.53829499401354 0.854618421010855)"><path d="M110.76 11.62 C118.82 8.8, 126.88 5.98, 139.08 1.71 M110.76 11.62 C121.77 7.77, 132.79 3.91, 139.08 1.71" stroke="#000000" stroke-width="4" fill="none"></path></g><g transform="translate(1190 970) rotate(0 69.53829499401354 0.854618421010855)"><path d="M111.01 -8.9 C119 -5.88, 126.99 -2.86, 139.08 1.71 M111.01 -8.9 C121.93 -4.77, 132.84 -0.65, 139.08 1.71" stroke="#000000" stroke-width="4" fill="none"></path></g></g><g transform="translate(1390 950) rotate(0 64 21.5)"><text x="64" y="35" font-family="Cascadia, Segoe UI Emoji" font-size="36px" fill="#2b8a3e" text-anchor="middle" style="white-space: pre;" direction="ltr">return</text></g><g stroke-linecap="round"><g transform="translate(670 330) rotate(0 69.53829499401354 0.854618421010855)"><path d="M0 0 C23.18 0.28, 115.9 1.42, 139.08 1.71 M0 0 C23.18 0.28, 115.9 1.42, 139.08 1.71" stroke="#000000" stroke-width="4" fill="none"></path></g><g transform="translate(670 330) rotate(0 69.53829499401354 0.854618421010855)"><path d="M110.76 11.62 C120.55 8.2, 130.34 4.77, 139.08 1.71 M110.76 11.62 C118.3 8.98, 125.84 6.34, 139.08 1.71" stroke="#000000" stroke-width="4" fill="none"></path></g><g transform="translate(670 330) rotate(0 69.53829499401354 0.854618421010855)"><path d="M111.01 -8.9 C120.71 -5.23, 130.41 -1.56, 139.08 1.71 M111.01 -8.9 C118.49 -6.07, 125.96 -3.25, 139.08 1.71" stroke="#000000" stroke-width="4" fill="none"></path></g></g></svg>