<svg version="1.1" xmlns="http://www.w3.org/2000/svg" viewBox="0 0 1875.3896523901315 1140.0833333333335" width="1875.3896523901315" height="1140.0833333333335">
  <!-- svg-source:excalidraw -->

  <defs>
    <style>
      @font-face {
        font-family: "Virgil";
        src: url("https://excalidraw.com/Virgil.woff2");
      }
      @font-face {
        font-family: "Cascadia";
        src: url("https://excalidraw.com/Cascadia.woff2");
      }
    </style>
  </defs>
  <rect x="0" y="0" width="1875.3896523901315" height="1140.0833333333335" fill="#ffffff"></rect><g stroke-linecap="round"><g transform="translate(10 527.6330942520958) rotate(0 125.2359587362779 -0.13202331652246357)"><path d="M0 0 C29.68 -0.02, 136.35 -0.09, 178.09 -0.13 C219.84 -0.18, 238.41 -0.24, 250.47 -0.26 M0 0 C29.68 -0.02, 136.35 -0.09, 178.09 -0.13 C219.84 -0.18, 238.41 -0.24, 250.47 -0.26" stroke="#343a40" stroke-width="4" fill="none"></path></g><g transform="translate(10 527.6330942520958) rotate(0 125.2359587362779 -0.13202331652246357)"><path d="M222.3 10.06 C231.04 6.86, 239.77 3.66, 250.47 -0.26 M222.3 10.06 C232.69 6.25, 243.08 2.45, 250.47 -0.26" stroke="#343a40" stroke-width="4" fill="none"></path></g><g transform="translate(10 527.6330942520958) rotate(0 125.2359587362779 -0.13202331652246357)"><path d="M222.26 -10.46 C231.01 -7.3, 239.75 -4.14, 250.47 -0.26 M222.26 -10.46 C232.66 -6.7, 243.07 -2.94, 250.47 -0.26" stroke="#343a40" stroke-width="4" fill="none"></path></g></g><g transform="translate(64.80525080588859 466.5833333333362) rotate(0 64 21.5)"><text x="0" y="35" font-family="Cascadia, Segoe UI Emoji" font-size="36px" fill="#000000" text-anchor="start" style="white-space: pre;" direction="ltr">aenter</text></g><g stroke-linecap="round" transform="translate(330.7576317582698 480.91666666666833) rotate(0 409.9999999999999 48)"><path d="M24 0 M24 0 C278.9 0, 533.81 0, 796 0 M24 0 C198.45 0, 372.89 0, 796 0 M796 0 C812 0, 820 8, 820 24 M796 0 C812 0, 820 8, 820 24 M820 24 C820 34.24, 820 44.48, 820 72 M820 24 C820 37.16, 820 50.33, 820 72 M820 72 C820 88, 812 96, 796 96 M820 72 C820 88, 812 96, 796 96 M796 96 C635.11 96, 474.23 96, 24 96 M796 96 C592.71 96, 389.42 96, 24 96 M24 96 C8 96, 0 88, 0 72 M24 96 C8 96, 0 88, 0 72 M0 72 C0 58.83, 0 45.66, 0 24 M0 72 C0 59.24, 0 46.47, 0 24 M0 24 C0 8, 8 0, 24 0 M0 24 C0 8, 8 0, 24 0" stroke="#343a40" stroke-width="4" fill="none"></path></g><g transform="translate(335.7576317582698 507.41666666666833) rotate(0 404.9999999999999 21.5)"><text x="405" y="35" font-family="Cascadia, Segoe UI Emoji" font-size="36px" fill="#343a40" text-anchor="middle" style="white-space: pre;" direction="ltr">Enter queue or check position</text></g><g stroke-linecap="round"><g transform="translate(727.7576317582702 600.1547619047628) rotate(0 0.16666666666662877 139.5)"><path d="M0 0 C0.06 46.5, 0.28 232.5, 0.33 279 M0 0 C0.06 46.5, 0.28 232.5, 0.33 279" stroke="#343a40" stroke-width="4" fill="none"></path></g><g transform="translate(727.7576317582702 600.1547619047628) rotate(0 0.16666666666662877 139.5)"><path d="M-9.96 250.82 C-6.29 260.87, -2.62 270.93, 0.33 279 M-9.96 250.82 C-7.33 258.04, -4.69 265.25, 0.33 279" stroke="#343a40" stroke-width="4" fill="none"></path></g><g transform="translate(727.7576317582702 600.1547619047628) rotate(0 0.16666666666662877 139.5)"><path d="M10.56 250.8 C6.91 260.86, 3.26 270.92, 0.33 279 M10.56 250.8 C7.94 258.02, 5.32 265.24, 0.33 279" stroke="#343a40" stroke-width="4" fill="none"></path></g></g><g stroke-linecap="round" transform="translate(501.75763175827024 36.65476190476238) rotate(0 220.0000000000001 42.50000000000023)"><path d="M21.25 0 M21.25 0 C142.13 0, 263 0, 418.75 0 M21.25 0 C154.3 0, 287.35 0, 418.75 0 M418.75 0 C432.92 0, 440 7.08, 440 21.25 M418.75 0 C432.92 0, 440 7.08, 440 21.25 M440 21.25 C440 35.27, 440 49.3, 440 63.75 M440 21.25 C440 31.92, 440 42.58, 440 63.75 M440 63.75 C440 77.92, 432.92 85, 418.75 85 M440 63.75 C440 77.92, 432.92 85, 418.75 85 M418.75 85 C286.51 85, 154.27 85, 21.25 85 M418.75 85 C309.43 85, 200.12 85, 21.25 85 M21.25 85 C7.08 85, 0 77.92, 0 63.75 M21.25 85 C7.08 85, 0 77.92, 0 63.75 M0 63.75 C0 52.93, 0 42.1, 0 21.25 M0 63.75 C0 49.54, 0 35.34, 0 21.25 M0 21.25 C0 7.08, 7.08 0, 21.25 0 M0 21.25 C0 7.08, 7.08 0, 21.25 0" stroke="#343a40" stroke-width="4" fill="none"></path></g><g transform="translate(506.75763175827024 57.65476190476238) rotate(0 215.0000000000001 21.5)"><text x="215" y="35" font-family="Cascadia, Segoe UI Emoji" font-size="36px" fill="#343a40" text-anchor="middle" style="white-space: pre;" direction="ltr">Sleep</text></g><g transform="translate(1221.5909650916044 428.654761904761) rotate(0 74.5 21.5)"><text x="74.5" y="35" font-family="Cascadia, Segoe UI Emoji" font-size="36px" fill="#343a40" text-anchor="middle" style="white-space: pre;" direction="ltr">p &gt; max</text></g><g transform="translate(1437.9242984249365 498.321428571428) rotate(0 116.5 21.5)"><text x="116.5" y="35" font-family="Cascadia, Segoe UI Emoji" font-size="36px" fill="#a61e4d" text-anchor="middle" style="white-space: pre;" direction="ltr">raise error</text></g><g stroke-linecap="round"><g transform="translate(1202.139652390131 520.6201185546174) rotate(0 91.06929206961104 -0.13202331652246357)"><path d="M0 0 C14.4 -0.02, 56.07 -0.09, 86.43 -0.13 C116.78 -0.18, 166.19 -0.24, 182.14 -0.26 M0 0 C14.4 -0.02, 56.07 -0.09, 86.43 -0.13 C116.78 -0.18, 166.19 -0.24, 182.14 -0.26" stroke="#343a40" stroke-width="4" fill="none"></path></g><g transform="translate(1202.139652390131 520.6201185546174) rotate(0 91.06929206961104 -0.13202331652246357)"><path d="M153.96 10.03 C159.96 7.84, 165.96 5.65, 182.14 -0.26 M153.96 10.03 C163.26 6.64, 172.56 3.24, 182.14 -0.26" stroke="#343a40" stroke-width="4" fill="none"></path></g><g transform="translate(1202.139652390131 520.6201185546174) rotate(0 91.06929206961104 -0.13202331652246357)"><path d="M153.93 -10.49 C159.94 -8.31, 165.95 -6.13, 182.14 -0.26 M153.93 -10.49 C163.24 -7.11, 172.55 -3.74, 182.14 -0.26" stroke="#343a40" stroke-width="4" fill="none"></path></g></g><g transform="translate(359.4242984249372 508.98809523809587) rotate(0 11 21.5)"><text x="0" y="35" font-family="Cascadia, Segoe UI Emoji" font-size="36px" fill="#2b8a3e" text-anchor="start" style="white-space: pre;" direction="ltr">1</text></g><g transform="translate(527.7576317582702 55.32142857142935) rotate(0 11 21.5)"><text x="0" y="35" font-family="Cascadia, Segoe UI Emoji" font-size="36px" fill="#2b8a3e" text-anchor="start" style="white-space: pre;" direction="ltr">2</text></g><g transform="translate(1087.7576317582714 507.3214285714271) rotate(0 11 21.5)"><text x="0" y="35" font-family="Cascadia, Segoe UI Emoji" font-size="36px" fill="#087f5b" text-anchor="start" style="white-space: pre;" direction="ltr">3</text></g><g stroke-linecap="round"><g transform="translate(701.7954825458014 445.0714285714289) rotate(0 0.6666666666667425 -139.33333333333348)"><path d="M0 0 C0.22 -46.44, 1.11 -232.22, 1.33 -278.67 M0 0 C0.22 -46.44, 1.11 -232.22, 1.33 -278.67" stroke="#343a40" stroke-width="4" fill="none"></path></g><g transform="translate(701.7954825458014 445.0714285714289) rotate(0 0.6666666666667425 -139.33333333333348)"><path d="M11.46 -250.43 C8.37 -259.05, 5.27 -267.68, 1.33 -278.67 M11.46 -250.43 C7.67 -261, 3.88 -271.56, 1.33 -278.67" stroke="#343a40" stroke-width="4" fill="none"></path></g><g transform="translate(701.7954825458014 445.0714285714289) rotate(0 0.6666666666667425 -139.33333333333348)"><path d="M-9.06 -250.53 C-5.89 -259.12, -2.71 -267.71, 1.33 -278.67 M-9.06 -250.53 C-5.17 -261.06, -1.28 -271.59, 1.33 -278.67" stroke="#343a40" stroke-width="4" fill="none"></path></g></g><g transform="translate(532.4621492124684 285.2380952380954) rotate(0 53 21.5)"><text x="53" y="35" font-family="Cascadia, Segoe UI Emoji" font-size="36px" fill="#343a40" text-anchor="middle" style="white-space: pre;" direction="ltr">p &gt; c</text></g><g transform="translate(563.4621492124684 697.238095238095) rotate(0 64 21.5)"><text x="64" y="35" font-family="Cascadia, Segoe UI Emoji" font-size="36px" fill="#343a40" text-anchor="middle" style="white-space: pre;" direction="ltr">p &lt;= c</text></g><g stroke-linecap="round"><g transform="translate(749.7954825458016 169.07142857143026) rotate(0 0.6666666666667425 139.6666666666663)"><path d="M0 0 C0.22 46.56, 1.11 232.78, 1.33 279.33 M0 0 C0.22 46.56, 1.11 232.78, 1.33 279.33" stroke="#343a40" stroke-width="4" fill="none"></path></g><g transform="translate(749.7954825458016 169.07142857143026) rotate(0 0.6666666666667425 139.6666666666663)"><path d="M-9.06 251.19 C-6.7 257.58, -4.34 263.98, 1.33 279.33 M-9.06 251.19 C-6.45 258.26, -3.84 265.32, 1.33 279.33" stroke="#343a40" stroke-width="4" fill="none"></path></g><g transform="translate(749.7954825458016 169.07142857143026) rotate(0 0.6666666666667425 139.6666666666663)"><path d="M11.46 251.09 C9.16 257.51, 6.86 263.92, 1.33 279.33 M11.46 251.09 C8.92 258.18, 6.38 265.27, 1.33 279.33" stroke="#343a40" stroke-width="4" fill="none"></path></g></g><g transform="translate(667.2716730219922 930.3333333333335) rotate(0 64 21.5)"><text x="64" y="35" font-family="Cascadia, Segoe UI Emoji" font-size="36px" fill="#2b8a3e" text-anchor="middle" style="white-space: pre;" direction="ltr">return</text></g><g stroke-linecap="round"><g transform="translate(887.6536936538535 943.2748804593798) rotate(0 215.3192920696108 -0.13202331652291832)"><path d="M0 0 C29.68 -0.02, 106.32 -0.09, 178.09 -0.13 C249.87 -0.18, 388.55 -0.24, 430.64 -0.26 M0 0 C29.68 -0.02, 106.32 -0.09, 178.09 -0.13 C249.87 -0.18, 388.55 -0.24, 430.64 -0.26" stroke="#343a40" stroke-width="4" fill="none"></path></g><g transform="translate(887.6536936538535 943.2748804593798) rotate(0 215.3192920696108 -0.13202331652291832)"><path d="M402.45 10.01 C409.47 7.45, 416.48 4.9, 430.64 -0.26 M402.45 10.01 C409.13 7.58, 415.81 5.14, 430.64 -0.26" stroke="#343a40" stroke-width="4" fill="none"></path></g><g transform="translate(887.6536936538535 943.2748804593798) rotate(0 215.3192920696108 -0.13202331652291832)"><path d="M402.44 -10.51 C409.46 -7.96, 416.48 -5.41, 430.64 -0.26 M402.44 -10.51 C409.12 -8.08, 415.81 -5.65, 430.64 -0.26" stroke="#343a40" stroke-width="4" fill="none"></path></g></g><g transform="translate(1056.1256111264086 882.8917862072872) rotate(0 53 21.5)"><text x="0" y="35" font-family="Cascadia, Segoe UI Emoji" font-size="36px" fill="#000000" text-anchor="start" style="white-space: pre;" direction="ltr">aexit</text></g><g stroke-linecap="round" transform="translate(1384.722985723464 788.5833333333326) rotate(0 220 72.5)"><path d="M36.25 0 M36.25 0 C126.6 0, 216.94 0, 403.75 0 M36.25 0 C148.93 0, 261.61 0, 403.75 0 M403.75 0 C427.92 0, 440 12.08, 440 36.25 M403.75 0 C427.92 0, 440 12.08, 440 36.25 M440 36.25 C440 54.2, 440 72.15, 440 108.75 M440 36.25 C440 52.93, 440 69.6, 440 108.75 M440 108.75 C440 132.92, 427.92 145, 403.75 145 M440 108.75 C440 132.92, 427.92 145, 403.75 145 M403.75 145 C286.43 145, 169.12 145, 36.25 145 M403.75 145 C329.87 145, 256 145, 36.25 145 M36.25 145 C12.08 145, 0 132.92, 0 108.75 M36.25 145 C12.08 145, 0 132.92, 0 108.75 M0 108.75 C0 92.63, 0 76.52, 0 36.25 M0 108.75 C0 79.81, 0 50.88, 0 36.25 M0 36.25 C0 12.08, 12.08 0, 36.25 0 M0 36.25 C0 12.08, 12.08 0, 36.25 0" stroke="#343a40" stroke-width="4" fill="none"></path></g><g transform="translate(1389.722985723464 818.0833333333326) rotate(0 215 43)"><text x="215" y="35" font-family="Cascadia, Segoe UI Emoji" font-size="36px" fill="#343a40" text-anchor="middle" style="white-space: pre;" direction="ltr">Pop first item</text><text x="215" y="78" font-family="Cascadia, Segoe UI Emoji" font-size="36px" fill="#343a40" text-anchor="middle" style="white-space: pre;" direction="ltr"> from the queue</text></g><g stroke-linecap="round" transform="translate(1387.056319056797 952.5833333333326) rotate(0 220 72.5)"><path d="M36.25 0 M36.25 0 C122.7 0, 209.15 0, 403.75 0 M36.25 0 C123.34 0, 210.44 0, 403.75 0 M403.75 0 C427.92 0, 440 12.08, 440 36.25 M403.75 0 C427.92 0, 440 12.08, 440 36.25 M440 36.25 C440 58.76, 440 81.28, 440 108.75 M440 36.25 C440 55.03, 440 73.82, 440 108.75 M440 108.75 C440 132.92, 427.92 145, 403.75 145 M440 108.75 C440 132.92, 427.92 145, 403.75 145 M403.75 145 C278.34 145, 152.94 145, 36.25 145 M403.75 145 C310.38 145, 217.01 145, 36.25 145 M36.25 145 C12.08 145, 0 132.92, 0 108.75 M36.25 145 C12.08 145, 0 132.92, 0 108.75 M0 108.75 C0 92.04, 0 75.32, 0 36.25 M0 108.75 C0 83.79, 0 58.84, 0 36.25 M0 36.25 C0 12.08, 12.08 0, 36.25 0 M0 36.25 C0 12.08, 12.08 0, 36.25 0" stroke="#343a40" stroke-width="4" fill="none"></path></g><g transform="translate(1392.056319056797 1003.5833333333326) rotate(0 215 21.5)"><text x="215" y="35" font-family="Cascadia, Segoe UI Emoji" font-size="36px" fill="#343a40" text-anchor="middle" style="white-space: pre;" direction="ltr">Set queue expiry</text></g><g stroke-linecap="round" transform="translate(1362.056319056798 756.7499999999995) rotate(0 251.66666666666674 186.66666666666697)"><path d="M0 0 C105.23 0, 210.47 0, 503.33 0 M503.33 0 C503.33 135.91, 503.33 271.82, 503.33 373.33 M503.33 373.33 C343.82 373.33, 184.31 373.33, 0 373.33 M0 373.33 C0 254.09, 0 134.84, 0 0" stroke="#000000" stroke-width="4.5" fill="none" stroke-dasharray="1.5 10"></path></g><g transform="translate(1486.38965239013 697.5833333333335) rotate(0 127 21.5)"><text x="0" y="35" font-family="Cascadia, Segoe UI Emoji" font-size="36px" fill="#495057" text-anchor="start" style="white-space: pre;" direction="ltr">concurrently</text></g><g transform="translate(1312.0563190567962 810.2500000000005) rotate(0 11 21.5)"><text x="0" y="35" font-family="Cascadia, Segoe UI Emoji" font-size="36px" fill="#087f5b" text-anchor="start" style="white-space: pre;" direction="ltr">4</text></g><g stroke-linecap="round" transform="translate(1538.938339688659 10) rotate(0 160.8333333333328 83.33333333333326)"><path d="M0 0 C0 0, 0 0, 0 0 M0 0 C0 0, 0 0, 0 0 M-0.26 6.4 C1.29 4.62, 2.84 2.84, 4.99 0.36 M-0.26 6.4 C1.3 4.6, 2.86 2.8, 4.99 0.36 M0.13 12.04 C3.59 8.07, 7.04 4.09, 10.63 -0.03 M0.13 12.04 C2.95 8.8, 5.77 5.56, 10.63 -0.03 M-0.13 18.44 C5.54 11.92, 11.2 5.41, 15.62 0.33 M-0.13 18.44 C4.35 13.29, 8.83 8.13, 15.62 0.33 M0.27 24.08 C4.53 19.18, 8.8 14.27, 21.26 -0.07 M0.27 24.08 C8.06 15.11, 15.86 6.14, 21.26 -0.07 M0 30.48 C7.77 21.55, 15.54 12.61, 26.25 0.29 M0 30.48 C9.21 19.89, 18.41 9.31, 26.25 0.29 M-0.26 36.88 C6.61 28.98, 13.47 21.08, 31.89 -0.1 M-0.26 36.88 C6.82 28.73, 13.91 20.58, 31.89 -0.1 M0.14 42.52 C14.44 26.07, 28.73 9.63, 36.88 0.26 M0.14 42.52 C12.5 28.3, 24.86 14.08, 36.88 0.26 M-0.12 48.92 C9.77 37.53, 19.67 26.14, 42.52 -0.14 M-0.12 48.92 C16.7 29.57, 33.52 10.22, 42.52 -0.14 M0.27 54.56 C11.94 41.14, 23.61 27.72, 47.51 0.22 M0.27 54.56 C10.2 43.14, 20.12 31.72, 47.51 0.22 M0.01 60.96 C18.73 39.42, 37.45 17.89, 53.15 -0.17 M0.01 60.96 C16.01 42.55, 32.01 24.14, 53.15 -0.17 M-0.25 67.36 C23.04 40.56, 46.34 13.76, 58.14 0.19 M-0.25 67.36 C15.4 49.35, 31.05 31.35, 58.14 0.19 M0.14 73 C18.57 51.81, 36.99 30.61, 63.78 -0.21 M0.14 73 C24.05 45.5, 47.96 17.99, 63.78 -0.21 M-0.12 79.4 C20.3 55.91, 40.71 32.43, 68.77 0.15 M-0.12 79.4 C22.93 52.89, 45.97 26.38, 68.77 0.15 M0.28 85.04 C28.52 52.55, 56.76 20.06, 74.41 -0.24 M0.28 85.04 C21.16 61.02, 42.04 36.99, 74.41 -0.24 M0.01 91.44 C24.81 62.92, 49.6 34.39, 79.4 0.12 M0.01 91.44 C28.78 58.35, 57.54 25.26, 79.4 0.12 M-0.25 97.84 C32.66 59.98, 65.57 22.13, 85.04 -0.28 M-0.25 97.84 C26.26 67.34, 52.77 36.85, 85.04 -0.28 M0.15 103.48 C30.88 68.12, 61.62 32.76, 90.03 0.08 M0.15 103.48 C21 79.49, 41.86 55.49, 90.03 0.08 M-0.11 109.88 C27.2 78.46, 54.51 47.04, 95.67 -0.31 M-0.11 109.88 C36.55 67.7, 73.21 25.53, 95.67 -0.31 M0.28 115.52 C20.58 92.17, 40.88 68.81, 100.66 0.05 M0.28 115.52 C35.67 74.81, 71.06 34.1, 100.66 0.05 M0.02 121.92 C29.96 87.48, 59.9 53.04, 106.3 -0.34 M0.02 121.92 C26.11 91.91, 52.2 61.9, 106.3 -0.34 M-0.24 128.32 C25.63 98.56, 51.49 68.8, 111.29 0.02 M-0.24 128.32 C28.85 94.85, 57.95 61.38, 111.29 0.02 M0.15 133.96 C23.41 107.2, 46.67 80.44, 116.27 0.38 M0.15 133.96 C32.08 97.23, 64.01 60.5, 116.27 0.38 M-0.11 140.36 C35.49 99.4, 71.1 58.45, 121.92 -0.02 M-0.11 140.36 C26.98 109.19, 54.07 78.03, 121.92 -0.02 M0.29 146 C36.7 104.11, 73.12 62.22, 126.91 0.34 M0.29 146 C35.16 105.89, 70.03 65.77, 126.91 0.34 M0.02 152.4 C48.3 96.86, 96.57 41.33, 132.55 -0.05 M0.02 152.4 C30.4 117.46, 60.77 82.52, 132.55 -0.05 M-0.24 158.8 C28.98 125.18, 58.2 91.57, 137.54 0.31 M-0.24 158.8 C38.21 114.57, 76.65 70.34, 137.54 0.31 M0.16 164.44 C50.78 106.21, 101.39 47.98, 143.18 -0.09 M0.16 164.44 C29.3 130.91, 58.44 97.39, 143.18 -0.09 M1.86 168.57 C40.5 124.12, 79.14 79.67, 148.17 0.27 M1.86 168.57 C52.53 110.29, 103.19 52, 148.17 0.27 M7.51 168.18 C49.5 119.87, 91.49 71.56, 153.81 -0.12 M7.51 168.18 C65.33 101.67, 123.14 35.15, 153.81 -0.12 M12.49 168.54 C64.57 108.63, 116.65 48.72, 158.8 0.24 M12.49 168.54 C66 106.99, 119.5 45.44, 158.8 0.24 M18.14 168.14 C63.75 115.67, 109.37 63.19, 164.44 -0.16 M18.14 168.14 C73.89 104.01, 129.64 39.87, 164.44 -0.16 M23.12 168.5 C55.57 131.18, 88.01 93.86, 169.43 0.2 M23.12 168.5 C60.27 125.77, 97.41 83.04, 169.43 0.2 M28.77 168.11 C72.4 117.91, 116.04 67.71, 175.07 -0.19 M28.77 168.11 C67.85 123.15, 106.93 78.19, 175.07 -0.19 M33.75 168.47 C65.58 131.86, 97.4 95.25, 180.06 0.17 M33.75 168.47 C85.78 108.62, 137.81 48.76, 180.06 0.17 M39.4 168.07 C74.28 127.95, 109.15 87.83, 185.7 -0.23 M39.4 168.07 C81.41 119.74, 123.43 71.41, 185.7 -0.23 M44.38 168.43 C91.36 114.39, 138.35 60.34, 190.69 0.13 M44.38 168.43 C80.06 127.4, 115.73 86.36, 190.69 0.13 M50.03 168.04 C86.02 126.63, 122.01 85.23, 196.33 -0.26 M50.03 168.04 C79.75 133.84, 109.48 99.65, 196.33 -0.26 M55.01 168.4 C103.63 112.47, 152.25 56.54, 201.32 0.1 M55.01 168.4 C101.76 114.62, 148.51 60.84, 201.32 0.1 M60 168.76 C112.44 108.44, 164.87 48.12, 206.96 -0.3 M60 168.76 C104.86 117.16, 149.72 65.56, 206.96 -0.3 M65.64 168.37 C105.54 122.47, 145.44 76.57, 211.95 0.06 M65.64 168.37 C96.64 132.71, 127.64 97.05, 211.95 0.06 M70.63 168.73 C118.88 113.22, 167.14 57.71, 217.59 -0.33 M70.63 168.73 C101.72 132.96, 132.81 97.2, 217.59 -0.33 M76.27 168.33 C132.73 103.39, 189.18 38.45, 222.58 0.03 M76.27 168.33 C131.6 104.69, 186.92 41.05, 222.58 0.03 M81.26 168.69 C116.54 128.11, 151.82 87.52, 228.22 -0.36 M81.26 168.69 C120.71 123.31, 160.17 77.92, 228.22 -0.36 M86.9 168.3 C136.22 111.56, 185.54 54.83, 233.21 0 M86.9 168.3 C131.34 117.18, 175.77 66.07, 233.21 0 M91.89 168.66 C134.8 119.3, 177.71 69.94, 238.19 0.36 M91.89 168.66 C143.16 109.68, 194.43 50.7, 238.19 0.36 M97.53 168.26 C128.8 132.29, 160.07 96.32, 243.84 -0.04 M97.53 168.26 C141.73 117.42, 185.93 66.58, 243.84 -0.04 M102.52 168.62 C133.42 133.08, 164.32 97.53, 248.82 0.32 M102.52 168.62 C140.57 124.85, 178.62 81.08, 248.82 0.32 M108.16 168.23 C155.69 113.56, 203.21 58.89, 254.47 -0.07 M108.16 168.23 C154.25 115.21, 200.33 62.2, 254.47 -0.07 M113.15 168.59 C148.1 128.38, 183.05 88.18, 259.45 0.29 M113.15 168.59 C161.15 113.38, 209.14 58.16, 259.45 0.29 M118.8 168.19 C148.27 134.29, 177.74 100.39, 265.1 -0.11 M118.8 168.19 C164.46 115.66, 210.13 63.12, 265.1 -0.11 M123.78 168.55 C174 110.78, 224.22 53.01, 270.08 0.25 M123.78 168.55 C154.98 132.66, 186.18 96.78, 270.08 0.25 M129.43 168.16 C187.42 101.44, 245.42 34.72, 275.73 -0.14 M129.43 168.16 C172.07 119.1, 214.71 70.04, 275.73 -0.14 M134.41 168.52 C165.6 132.64, 196.79 96.76, 280.71 0.22 M134.41 168.52 C178.68 117.59, 222.95 66.67, 280.71 0.22 M140.06 168.12 C181.69 120.23, 223.32 72.34, 286.36 -0.18 M140.06 168.12 C180.87 121.17, 221.69 74.21, 286.36 -0.18 M145.04 168.48 C182.98 124.84, 220.92 81.2, 291.34 0.18 M145.04 168.48 C190.57 116.11, 236.1 63.74, 291.34 0.18 M150.69 168.09 C189.09 123.91, 227.49 79.74, 296.99 -0.21 M150.69 168.09 C198.8 112.74, 246.91 57.39, 296.99 -0.21 M155.67 168.45 C187.02 132.39, 218.36 96.33, 301.97 0.15 M155.67 168.45 C196.97 120.95, 238.26 73.44, 301.97 0.15 M161.32 168.05 C212.32 109.38, 263.33 50.7, 307.62 -0.25 M161.32 168.05 C208.62 113.64, 255.93 59.22, 307.62 -0.25 M166.3 168.41 C214.93 112.47, 263.56 56.53, 312.6 0.11 M166.3 168.41 C222.94 103.26, 279.58 38.11, 312.6 0.11 M171.29 168.77 C227.65 103.94, 284 39.11, 318.25 -0.28 M171.29 168.77 C226.08 105.74, 280.87 42.71, 318.25 -0.28 M176.93 168.38 C233.75 103.02, 290.57 37.66, 322.58 0.83 M176.93 168.38 C224.3 113.88, 271.68 59.39, 322.58 0.83 M181.92 168.74 C214.1 131.72, 246.29 94.69, 322.32 7.23 M181.92 168.74 C212.23 133.87, 242.54 99.01, 322.32 7.23 M187.56 168.35 C226.15 123.95, 264.75 79.56, 322.71 12.88 M187.56 168.35 C231.38 117.94, 275.21 67.52, 322.71 12.88 M192.55 168.71 C240.62 113.41, 288.68 58.11, 322.45 19.27 M192.55 168.71 C221.01 135.96, 249.48 103.22, 322.45 19.27 M198.19 168.31 C227.96 134.07, 257.73 99.82, 322.84 24.92 M198.19 168.31 C240.55 119.59, 282.91 70.86, 322.84 24.92 M203.18 168.67 C240.42 125.83, 277.66 82.99, 322.58 31.31 M203.18 168.67 C248.23 116.84, 293.29 65.02, 322.58 31.31 M208.82 168.28 C253.29 117.12, 297.77 65.96, 322.32 37.71 M208.82 168.28 C237.85 134.88, 266.88 101.49, 322.32 37.71 M213.81 168.64 C255.48 120.7, 297.16 72.76, 322.72 43.36 M213.81 168.64 C247.94 129.37, 282.07 90.11, 322.72 43.36 M219.45 168.24 C240.92 143.55, 262.39 118.85, 322.45 49.75 M219.45 168.24 C248.71 134.58, 277.97 100.92, 322.45 49.75 M224.44 168.6 C257.12 131.01, 289.8 93.41, 322.85 55.4 M224.44 168.6 C251.83 137.09, 279.23 105.58, 322.85 55.4 M230.08 168.21 C255.45 139.02, 280.83 109.83, 322.59 61.79 M230.08 168.21 C263.83 129.38, 297.58 90.56, 322.59 61.79 M235.07 168.57 C264.03 135.26, 292.99 101.94, 322.33 68.19 M235.07 168.57 C265.73 133.3, 296.39 98.03, 322.33 68.19 M240.71 168.17 C265.07 140.16, 289.42 112.14, 322.72 73.83 M240.71 168.17 C270.75 133.62, 300.79 99.06, 322.72 73.83 M245.7 168.53 C274.52 135.38, 303.34 102.22, 322.46 80.23 M245.7 168.53 C264.1 147.37, 282.5 126.2, 322.46 80.23 M251.34 168.14 C273.22 142.97, 295.1 117.8, 322.85 85.88 M251.34 168.14 C271.71 144.71, 292.07 121.29, 322.85 85.88 M256.33 168.5 C274.77 147.29, 293.21 126.08, 322.59 92.27 M256.33 168.5 C274.8 147.25, 293.27 126, 322.59 92.27 M261.97 168.1 C277.21 150.57, 292.45 133.04, 322.33 98.67 M261.97 168.1 C276.74 151.12, 291.51 134.13, 322.33 98.67 M266.96 168.46 C282.44 150.66, 297.91 132.86, 322.73 104.31 M266.96 168.46 C279.9 153.58, 292.84 138.69, 322.73 104.31 M272.6 168.07 C283.07 156.03, 293.53 144, 322.46 110.71 M272.6 168.07 C287.49 150.94, 302.38 133.81, 322.46 110.71 M277.59 168.43 C288.11 156.33, 298.63 144.23, 322.86 116.35 M277.59 168.43 C290.78 153.26, 303.96 138.09, 322.86 116.35 M283.23 168.04 C297.92 151.14, 312.6 134.25, 322.6 122.75 M283.23 168.04 C292.18 157.74, 301.13 147.44, 322.6 122.75 M288.22 168.4 C295.86 159.61, 303.49 150.83, 322.34 129.15 M288.22 168.4 C297.64 157.56, 307.06 146.72, 322.34 129.15 M293.21 168.76 C300.86 159.96, 308.51 151.16, 322.73 134.79 M293.21 168.76 C303.24 157.22, 313.27 145.68, 322.73 134.79 M298.85 168.36 C307.23 158.72, 315.61 149.08, 322.47 141.19 M298.85 168.36 C304.39 161.99, 309.93 155.61, 322.47 141.19 M303.84 168.72 C309.67 162.01, 315.51 155.29, 322.86 146.83 M303.84 168.72 C309.02 162.75, 314.21 156.79, 322.86 146.83 M309.48 168.33 C314.07 163.04, 318.66 157.76, 322.6 153.23 M309.48 168.33 C312.66 164.66, 315.85 161, 322.6 153.23 M314.47 168.69 C316.65 166.18, 318.82 163.67, 322.34 159.63 M314.47 168.69 C317.55 165.14, 320.63 161.6, 322.34 159.63 M320.11 168.29 C321.04 167.22, 321.98 166.14, 322.73 165.27 M320.11 168.29 C320.65 167.67, 321.18 167.06, 322.73 165.27" stroke="#ced4da" stroke-width="0.5" fill="none"></path><path d="M0 0 C108.81 0, 217.62 0, 321.67 0 M0 0 C85.83 0, 171.67 0, 321.67 0 M321.67 0 C321.67 41.04, 321.67 82.09, 321.67 166.67 M321.67 0 C321.67 40.58, 321.67 81.15, 321.67 166.67 M321.67 166.67 C252.92 166.67, 184.16 166.67, 0 166.67 M321.67 166.67 C217.1 166.67, 112.52 166.67, 0 166.67 M0 166.67 C0 110.36, 0 54.06, 0 0 M0 166.67 C0 120.21, 0 73.75, 0 0" stroke="#343a40" stroke-width="1" fill="none"></path></g><g transform="translate(1573.605006355325 36.16666666666697) rotate(0 127 21.5)"><text x="127" y="35" font-family="Cascadia, Segoe UI Emoji" font-size="36px" fill="#000000" text-anchor="middle" style="white-space: pre;" direction="ltr">p = position</text></g><g transform="translate(1571.4383396886572 108.83333333333394) rotate(0 137.5 21.5)"><text x="137.5" y="35" font-family="Cascadia, Segoe UI Emoji" font-size="36px" fill="#000000" text-anchor="middle" style="white-space: pre;" direction="ltr">c = capacity </text></g></svg>
