<svg version="1.1" xmlns="http://www.w3.org/2000/svg" viewBox="0 0 2640 683" width="2640" height="683">
    <!-- svg-source:excalidraw -->

    <defs>
        <style>
            @font-face {
            font-family: "Virgil";
            src: url("https://excalidraw.com/Virgil.woff2");
            }
            @font-face {
            font-family: "Cascadia";
            src: url("https://excalidraw.com/Cascadia.woff2");
            }
        </style>
    </defs>
    <rect x="0" y="0" width="2640" height="683" fill="#ffffff"></rect><g stroke-linecap="round" transform="translate(330 390) rotate(0 817.5 100)"><path d="M0 0 C0 0, 0 0, 0 0 M0 0 C0 0, 0 0, 0 0 M0.57 20.41 C3.32 18.23, 12.04 7.98, 17.43 2.39 M-1.13 24.83 C8.06 15.96, 15.43 4.74, 22.89 0.05 M0.34 52.41 C9.76 33.42, 21.45 21.42, 45.21 -0.97 M0.52 47.14 C13 32.45, 25.41 19.83, 41.86 0.41 M-2.23 74.05 C19.74 51.61, 39.3 27.88, 61.38 1.38 M-0.79 72.38 C22.02 50.39, 42.11 27.27, 64.66 1.4 M-0.68 95.74 C21 70.28, 40.82 46.41, 85.99 -3.86 M-0.53 98.88 C28.54 65.51, 57.89 33.95, 85.65 -0.76 M-0.45 124.48 C28.74 91.18, 49.76 64.05, 107.87 -1.62 M-1.14 121.96 C33.14 83.47, 69.97 43.87, 107.99 -2.21 M-2.18 143.91 C45.99 87.84, 100.81 27.47, 129.21 3.05 M-1.21 145.81 C40.97 96.44, 87.45 46.61, 126.37 -0.08 M-2.16 174.21 C50.11 108.89, 101.02 49.71, 149.24 -2.81 M1.58 171.76 C29.88 130.48, 63.5 94.66, 148.89 -0.71 M-2.25 192.12 C64.91 112.86, 133.94 37.88, 167.01 0.58 M1 195.26 C41.84 148.01, 85.49 101.37, 169.15 -1.06 M9.26 210.07 C67.58 141.44, 119.71 79.9, 192.16 2.43 M9.2 209.15 C47.92 161.43, 87.44 119.77, 190.73 -0.68 M28.36 208.82 C76.88 148.58, 130.73 90.05, 211.44 -1.45 M31.1 207.45 C66.33 163.38, 104.55 118.48, 211.84 1.44 M49.97 211.32 C97.26 158.2, 144.52 103.03, 230.84 0.54 M53.12 206.79 C108.61 143.57, 164.6 80.12, 234.74 -0.24 M73.15 207.38 C113.32 165.87, 149.91 123.9, 254.32 -1.92 M71.99 209.01 C133.86 139.21, 193.24 69.17, 255.81 -0.51 M93.52 209.72 C162.64 127.94, 229.26 53.44, 275.63 1.2 M94.86 207.4 C159.06 136.3, 220.08 65.77, 274.36 0.17 M113.46 209.69 C174.05 142.05, 234.92 77.34, 294.67 2.29 M117.11 207.37 C155.66 168, 193.55 121.46, 298.39 0.76 M139.99 207.25 C183.44 156.33, 234.15 96.47, 315.43 -0.23 M137.38 206.79 C191.73 137.85, 252.36 70.28, 319.28 -1.45 M157.26 210.72 C209.09 153.62, 258.97 96.39, 337.66 -2.77 M156.37 208.05 C221.99 138.67, 282.88 68.53, 339.21 0.53 M176.51 208.11 C221.01 168.88, 256.49 122.85, 360.24 3.1 M179.05 207.79 C230.14 147.19, 280.75 88.85, 360.7 1.4 M199.11 207.72 C255.84 143.31, 314.9 77.15, 381.74 2.06 M200.91 209.68 C256.46 145.55, 316.45 76.76, 382.59 1.11 M223.21 209.49 C285.26 137.42, 342.29 67.41, 400.48 1.76 M222.49 207.91 C264.78 156.59, 309.09 107.74, 401.79 -0.9 M240.98 210.91 C311.7 125.14, 383.02 47.68, 421.24 -1.97 M242.07 208.59 C289.83 155.86, 335.08 102.3, 424.72 -0.54 M261.23 206.1 C333.48 122.38, 405.51 42.66, 446.32 -0.69 M264.45 206.98 C309.21 158.63, 350.95 108.28, 444.49 1.36 M282.51 209.56 C357.66 124.97, 432.33 44.39, 467.18 1.03 M284.97 208.11 C346.85 135.48, 411.55 62.45, 465.19 1.07 M309.59 205.73 C380.29 125.09, 446.69 41.29, 487.07 -3.08 M307.67 207.19 C361.69 148.19, 415.99 84.25, 489.02 0.18 M326.53 209.87 C365.27 161.11, 403.68 116.24, 506.56 2.89 M329.24 207.01 C385.39 145.39, 444.93 80.59, 509.61 -1.67 M350.28 205.25 C387.98 167.99, 426.5 124.46, 527.56 0.29 M347.91 207.71 C396.7 151.2, 443.62 99.94, 530.13 -1.6 M372.85 210.2 C411.8 156.64, 458.12 100, 551.24 -3.11 M369.07 208.72 C436.18 129.93, 502.96 54.04, 550.4 -0.84 M389.48 209.9 C447.48 144.16, 511.42 73.52, 569.68 1.11 M391.81 208.51 C460.76 134.86, 526.22 59.67, 572.6 0.48 M411.47 208.02 C455.36 152.45, 503.81 101.7, 593.98 3.29 M411.06 209.76 C453.14 160.65, 491.18 115.45, 593.95 -0.11 M435.43 205.57 C491.29 138.78, 545.32 76.89, 611.59 2.57 M434.79 207.35 C479.63 155.99, 524.89 102.91, 615.05 0.87 M456.09 209.27 C518.79 139.2, 579.56 70.89, 635.76 -1.82 M455.25 209.05 C507.47 148.54, 558.21 88.93, 635.44 0.84 M475.94 206.6 C543.21 138.24, 603.42 66.35, 656.68 -2.26 M475.66 207.37 C542.28 129.53, 609.2 50.55, 655.75 -0.5 M496.89 208.13 C551.92 139.68, 614.6 76.01, 675.71 -1.47 M497.34 209.4 C555.73 146.97, 610.28 81.46, 679.64 1.54 M518.14 209.46 C568.95 149.84, 622.62 84.59, 697.16 -1.11 M519.26 207.94 C586.35 131.76, 653.73 53.49, 700.96 0.19 M540.27 208.77 C582.29 167.31, 620.82 117.67, 719.89 -2.76 M540.6 208.25 C591.84 147.29, 644.35 88.79, 721.84 0.82 M563.06 205.89 C604.27 158.22, 645.48 109.22, 741.45 -2.68 M560.32 208.46 C615.25 145.33, 670.48 83.2, 742.9 -1.69 M583.44 207.52 C650.02 134.78, 713.33 57.56, 762.07 1.02 M582.83 207.74 C645.01 131.7, 712.86 55.94, 762.75 0.64 M604.99 208.41 C661.91 139.19, 721.92 71.23, 782.61 1.24 M604.47 209.14 C647.64 159.64, 688.97 112.41, 783.75 0.09 M626.16 206.01 C665 156.78, 713.41 109.01, 808.52 -0.52 M624.98 209.26 C691.43 129.81, 763.28 50.78, 805.3 -0.07 M646.49 210.13 C703.74 134.52, 764.52 69.88, 828.61 -0.56 M646.12 207.97 C717.35 124.49, 788.54 43.48, 825.79 1.78 M667.15 208.13 C723.01 148.78, 777.43 86.58, 846.38 3.02 M667.64 207.36 C714.68 157.26, 760.44 102.28, 847.87 1.51 M688.19 207.91 C736.33 147.52, 792.01 85.3, 867.84 1.53 M689.25 208.36 C740.96 149.44, 789.43 92.67, 867.8 -1.09 M706.35 206.06 C762.44 140.03, 814.85 81.37, 889.59 2.62 M710.12 209.69 C750.82 158.36, 791.9 110.93, 889.99 -0.21 M731.54 205.46 C780.31 148.85, 835.55 83.96, 914.63 -0.83 M731.5 209.89 C790.17 145.52, 846.5 77.15, 910.4 0.18 M753.74 208.11 C822.63 128.6, 895.18 47.74, 931.65 -0.8 M753.13 209.32 C795.07 157.03, 841.93 105.89, 931.5 0.77 M771.86 207.97 C822.99 156.87, 868.55 102.47, 956.24 0.21 M772.77 209.13 C808.01 164.71, 846.41 122.42, 955.61 -0.35 M791.56 208.58 C841.46 154.16, 882.93 109.9, 973.04 0.54 M794.99 207.08 C859.35 135.44, 925.79 60.56, 975.14 0.49 M816.95 209.69 C883.12 134.53, 943.65 61.25, 995.5 -1.55 M815.23 208.87 C852.1 166.26, 888.8 124.79, 996.86 -0.83 M835.49 207.07 C879.66 154.23, 928.72 100.12, 1020.47 -2.68 M837.2 209.24 C889.41 143.15, 946.7 81.94, 1016.67 1.2 M855.51 207.08 C892.03 165.42, 929.15 119.6, 1038.43 -1.54 M856.5 209.59 C930.87 127.2, 1002.67 46.8, 1037.64 -0.92 M881.65 211.64 C918.66 158.93, 963.26 114.11, 1061.6 0.97 M877.78 209.03 C937.01 135.87, 999.62 68.52, 1059.63 -0.23 M903 208.14 C954.24 148.8, 1003.88 92.09, 1081.19 -2.31 M898.42 209.6 C941.19 157.09, 985.51 107.49, 1081.44 -1 M921.2 206.24 C970.02 152.07, 1020.49 99.99, 1104.63 -2.62 M919.66 209.74 C960.74 164.4, 999.04 120.59, 1102.54 0.15 M942.14 206.06 C999.26 143.68, 1051.56 81.21, 1125.12 2.1 M943.13 209.47 C983.08 161.4, 1025.79 112.6, 1122.14 0.94 M961.49 209.53 C1005.62 163, 1045.08 120.43, 1143.58 0.88 M964.09 209.28 C1031.24 133.18, 1099.64 57.42, 1144.22 -0.71 M987.29 207.07 C1020.35 161.82, 1060.74 119.19, 1166.58 -0.33 M986.45 209.1 C1031.31 157.22, 1076.07 106.6, 1164.7 1.52 M1006.9 207.58 C1060.84 144.33, 1117.47 79.62, 1185.57 1.78 M1006.83 207.2 C1076.94 128.22, 1150.1 46.26, 1186.4 -0.34 M1028.18 206.49 C1074.01 158.81, 1112.59 108.89, 1205.78 0.76 M1026.43 208.43 C1093.83 132.65, 1163.78 54.6, 1209.29 1.29 M1046.42 209.59 C1101.12 147.06, 1156.79 83.77, 1231.64 -2.01 M1047.47 207.69 C1111.82 141.26, 1171.1 72.39, 1230.01 0.66 M1066.35 208.03 C1108.91 163.03, 1150.63 108.61, 1252.32 1.69 M1068.95 208.19 C1127.65 142.23, 1182.89 78.31, 1250.64 -0.73 M1090.16 211.48 C1142.13 151.75, 1192.33 93.14, 1270.55 1.26 M1091.86 208.06 C1156.35 131.85, 1222.67 56.25, 1272.05 -1.36 M1111.57 208.39 C1163.4 150.34, 1218.21 95.04, 1293.58 -2.07 M1111.74 210.01 C1174.09 141.39, 1234.04 71, 1292.78 -0.03 M1134.79 211.46 C1184.17 142.58, 1243.13 80.39, 1315.23 0.81 M1133.09 208 C1194.9 135.01, 1257.03 61.34, 1314.23 0.06 M1153.22 207.99 C1221.72 136.88, 1280.78 63.44, 1334.46 -0.46 M1152.85 208.54 C1220.16 136.13, 1285.15 62.45, 1336.29 1 M1178.24 208.36 C1242.84 127.12, 1307.14 54.49, 1355.95 -2.61 M1175.34 208 C1218.22 155.01, 1266.75 101.95, 1356.33 -0.14 M1199.97 207.96 C1234.58 163.13, 1275.99 112.39, 1374.91 -1.31 M1196.33 207 C1242.94 152.53, 1292.45 98.1, 1377.4 0.76 M1216.08 210.97 C1256.1 160.31, 1298.37 116.06, 1399.67 1.68 M1218.02 209.36 C1284.91 131.96, 1352.31 52.22, 1398.42 1.48 M1242.02 210.85 C1301.32 140.68, 1360.99 67.38, 1418.7 -2.48 M1239.25 208.65 C1307.94 129.21, 1372.2 53.33, 1419.9 -1.5 M1259.43 207.9 C1322.62 135.23, 1386.67 63.54, 1441.72 0.29 M1261.25 208.81 C1306.62 155.21, 1355.21 97.45, 1440.39 -1.61 M1282.05 208.31 C1317.08 162.69, 1356.37 124.75, 1460.46 2.69 M1280.93 207.55 C1343.15 132.85, 1409.04 57.44, 1462.13 1.23 M1303.43 211.59 C1373.55 128.89, 1448.05 41.25, 1483.71 -0.15 M1302.13 208.51 C1344.6 163.22, 1386.25 114.55, 1484.43 -0.43 M1322.19 206.57 C1385.11 139.98, 1446.57 70.84, 1504.17 0.68 M1322.31 207.82 C1389.88 133.59, 1457.1 57.37, 1506.25 -0.99 M1342.14 205.86 C1409.93 138.9, 1468.55 70.85, 1526.69 3 M1343.54 209.97 C1392.87 160.24, 1436.22 107.27, 1525.06 -0.68 M1366.6 211.01 C1430.8 139.52, 1486.35 69.44, 1550.14 1.82 M1365.46 208.27 C1422.03 148.78, 1474.28 87.87, 1548.28 -0.31 M1389.43 206.05 C1440.22 139.68, 1497.53 78.27, 1567.6 -0.8 M1387.14 209.26 C1457.27 127.16, 1528.84 47.32, 1567.2 -0.97 M1411.43 206.03 C1447.33 164.4, 1489.82 116.47, 1591.51 0.16 M1409.71 206.93 C1452.35 152.79, 1500.13 101.37, 1590.05 1.21 M1432.07 206.57 C1500.71 127.9, 1567.59 45.57, 1613.87 0.17 M1429.74 209.48 C1480.35 154.43, 1529.36 97.03, 1609.92 -0.72 M1453.54 207.63 C1503.67 150.13, 1550.43 93.03, 1634.98 2.73 M1451.08 207.32 C1512.12 137.7, 1578.46 63.82, 1632.13 -0.85 M1472.41 206.31 C1506.7 166.49, 1540.86 126.33, 1647.3 8.85 M1472 209.17 C1537.44 132.7, 1601.11 57.15, 1647.36 9.02 M1496.31 208.54 C1524.9 170.83, 1558.21 138.1, 1642.78 35.97 M1494.09 206.69 C1547.25 153.75, 1596.99 94.47, 1647.12 33.13 M1516.22 209.13 C1559.5 158.13, 1598.43 105.65, 1642.18 57.63 M1515.39 208.44 C1555.09 163.95, 1591.15 119.42, 1644.02 59.51 M1535.46 210.05 C1558.35 186.9, 1581.84 154.21, 1645.92 83.63 M1535.45 210.08 C1569.88 172.56, 1605.4 131.41, 1644.1 82.43 M1558.88 211.14 C1575.75 178.7, 1602.51 158.06, 1643.75 110.45 M1558.37 209.83 C1587.2 175.31, 1619.06 140.32, 1645.53 106.44 M1575.95 212.56 C1596.08 186.73, 1612.11 162.66, 1642.22 131.28 M1579.96 209.22 C1590.43 192.78, 1606.09 177.46, 1644.26 130.82 M1601.04 210.59 C1615.13 188.95, 1623.73 175.07, 1647.36 156.97 M1597.74 208.36 C1612.78 191.16, 1626.64 175.1, 1643.68 153.88 M1622.04 205.1 C1625.02 203.67, 1638.13 192.64, 1647.94 180.44 M1621.65 209.39 C1628.76 197.31, 1637.67 188.22, 1643.94 181.28" stroke="#eeeeee" stroke-width="2" fill="none"></path><path d="M-0.14 1.54 C582.86 -2.32, 1161.64 -2.48, 1634.34 0.54 M-0.22 0.6 C448.58 12.05, 896.24 11.6, 1634.81 -0.58 M1632.9 -1.48 C1637.57 72.4, 1634.28 145.52, 1635.9 201.47 M1633.2 0.41 C1632.53 69.54, 1634.65 143.24, 1636.2 200.04 M1635.33 200.31 C1123.56 186.6, 608.07 186.44, -0.28 199.75 M1634.28 199.67 C984.54 190.76, 333.99 190.3, 0.48 199.83 M0.09 202.88 C-0.53 154.36, -5.71 111.91, 0.24 -2.94 M0.28 201.67 C0.22 133.02, -0.1 65.2, 0.07 -1.26" stroke="#000000" stroke-width="4" fill="none"></path></g><g stroke-linecap="round" transform="translate(350 90) rotate(0 1140 95)"><path d="M0 0 C0 0, 0 0, 0 0 M0 0 C0 0, 0 0, 0 0 M2.46 20.84 C5.8 21.24, 9.85 9.61, 21.54 -3.04 M0.37 25.27 C8.07 15.2, 15.12 6.35, 21.58 1.15 M2.19 49.08 C13.12 35.33, 26.67 18.04, 42.21 3.81 M0.16 48.84 C11.8 39.72, 21.12 27.2, 40.8 -0.31 M-1.88 76.84 C17.6 53.31, 29.7 32.77, 62.54 -0.91 M-0.82 71.4 C11.71 59.52, 24.67 41.86, 63.06 0.14 M-2.93 98.3 C26.2 69.55, 57.78 32.8, 86.69 3.29 M-2.24 95.97 C25.55 67.94, 54.08 37.61, 86.31 0.79 M0.33 125.63 C41.2 79.12, 81.38 29.6, 107.47 1.17 M0.72 123.19 C37.38 79.87, 74.1 38.44, 105.97 -1.06 M-2.14 143.52 C45.77 92.63, 89.55 37.9, 128.38 3.73 M-0.54 144.05 C37.77 101.96, 75.32 61.66, 124.95 -0.87 M0.81 168.55 C37.01 130.72, 74.43 85.25, 148.89 2.17 M0.37 169.25 C38.68 125.1, 80.59 79.94, 147.06 1.24 M5.14 191.38 C36.15 157.76, 67.32 116.94, 168.14 2.64 M4.22 190.31 C33.92 150.91, 67.79 112.62, 170.53 1.06 M22.44 193.3 C73.76 145.11, 115.72 91.47, 191.46 -3.07 M24.13 192.14 C63.03 148.47, 99.4 101.89, 192.07 1.68 M43.84 194.25 C92.17 132.47, 144.95 77.14, 210.01 1.78 M44.53 193.63 C75.02 155.92, 110.5 114.02, 210.38 -0.83 M68.16 194.34 C114.43 135.78, 167.06 74.51, 232.06 -1.8 M65.05 190.99 C133.43 120.26, 195.06 45.62, 231.6 -1.14 M85.1 190.87 C139.8 136.78, 183.72 83.48, 256.11 0.4 M86.78 192.61 C128.43 144.78, 172.99 94.51, 255.28 -1.51 M109.14 192.52 C160.42 137.92, 210.1 81.79, 276.27 1.74 M107.35 192.95 C148.59 144.56, 192.61 98.07, 276.56 0.74 M132.64 192.03 C174.21 143.47, 218.22 96.67, 294.24 -1.55 M128.83 192.17 C191.53 117.41, 253.69 47.22, 297.93 -0.27 M150.68 189.79 C208.63 122.28, 274.35 52.25, 318.28 0.29 M150.15 192.41 C202.54 133.37, 254.94 72.46, 318.46 -0.07 M172.99 191.68 C207.14 148.8, 241.3 109.97, 336.33 2.48 M172.48 190.79 C207.8 150.35, 246.08 108.39, 339.14 -0.49 M190.57 193.88 C233.96 140.5, 277.99 92.21, 359.61 -2.85 M194.87 191.85 C251.91 129.01, 309.21 62.71, 361.12 0.24 M213.56 193.59 C253.94 147.73, 295.56 98.91, 378.98 0.48 M213.12 190.9 C269.9 135.25, 322.9 74.7, 380.74 0.8 M237.82 193.25 C287.68 135.71, 333.05 79.6, 405.26 3.18 M234.89 192.89 C294.22 123.68, 353.57 59.32, 403.92 0.74 M256.86 191.9 C321.56 117.81, 383.24 43.05, 425.55 -2.33 M255.89 192.5 C291.49 155.64, 324.04 115.75, 424.97 0.23 M279.63 190.14 C307.11 152.38, 340.8 112.11, 446.85 2.45 M277.57 193.81 C347.43 112.34, 412.91 35.88, 444.31 0.29 M299.74 191.35 C359.34 128.97, 415.52 61.68, 469.21 1.66 M298.86 193.83 C352.9 137.42, 401.86 79.69, 467.28 -0.93 M322.89 191.09 C376.84 130.72, 434.02 64.35, 484.65 1.07 M320.93 193 C382.12 122.37, 443.03 49.28, 486.93 1 M342.57 191.24 C396.13 125.02, 450.22 61.91, 508.55 -0.01 M342.11 191.65 C380.79 141.09, 424.22 92.58, 508.7 0.19 M364.31 192.08 C408.28 141.58, 449.29 97.53, 533.35 1.98 M362.71 193.5 C404.82 144.16, 446.33 98.42, 529.99 -0.75 M385.25 190.04 C428.6 142.76, 473.84 90.23, 553.39 -0.31 M383.81 192.2 C444.43 120.23, 505.3 47.07, 551.92 -0.85 M406.03 194.9 C448.19 142.31, 489.47 95.29, 570.38 -1.47 M406.21 193.48 C467.78 118.66, 533.6 45.28, 571.77 -1.34 M429.86 195.24 C492.26 118.38, 552.25 50.97, 591.75 2.22 M426.05 192.01 C490.94 116.78, 552.29 45.63, 594.17 1.1 M448.46 194.97 C501.68 126.4, 558.89 63.76, 612.82 1.1 M446.68 193.51 C492.99 138.87, 540.82 82.81, 613.16 1.12 M467.03 191.79 C533.22 115.23, 595.7 41.24, 637.79 0.34 M467.78 191.62 C520.44 137.75, 565.87 83.08, 636.31 1.61 M490.27 194.28 C522.79 151.99, 555.89 113.98, 655.37 1.73 M490.77 193.28 C551.82 118.79, 613.91 47.04, 657.07 0.55 M514.19 194.63 C566.21 129.94, 623.62 69.28, 676.09 2.19 M510.54 193.07 C568.16 130.81, 620.8 69.27, 678.91 0.88 M534.27 189.21 C577.55 140.57, 620.17 88.97, 698.75 -1.94 M533.16 192.38 C572.11 146.74, 610.76 98.07, 698.03 0.36 M553.38 193.87 C606.5 127.95, 656.49 70.22, 722.52 2.26 M554.66 193.68 C613.81 120.81, 675.45 48.05, 721.63 0.73 M577.01 193.38 C615.56 143.01, 652.45 98.6, 739.37 -3.21 M575.45 193.77 C610.81 144.83, 650.67 101.47, 740.97 0.73 M598.56 191.72 C629.82 151.57, 668.41 109.09, 765.38 1.64 M595.34 193.76 C660.35 117.25, 724.67 43.12, 762.56 -1.12 M617.84 190.44 C670.68 136.07, 721.7 71.55, 781.62 1.47 M618.9 192.08 C657.56 151.31, 692.86 107.47, 784.43 -0.63 M639.98 192.93 C691.45 131.8, 748.43 65.72, 804.16 1.52 M638.16 193.65 C692.85 128.16, 744.97 66.32, 804.7 -1.32 M661.53 189.24 C692.15 152.53, 729.41 104.79, 824.3 0.34 M660.64 193.27 C695.16 149.44, 734.88 104.47, 826.3 -1.28 M682.35 192.69 C735.26 129.71, 786.54 74.65, 848.93 -2.55 M682.31 191.21 C717.52 151.16, 753.02 108.62, 848.8 0.12 M704.63 192.3 C762.12 122.2, 820.93 53.23, 869.7 2.13 M702.7 192.75 C744.97 141.41, 786.63 95, 869.77 -0.27 M724.74 190.24 C777.51 127.7, 826.84 64.83, 890.57 2.27 M723.11 192.26 C783.67 125.12, 842.39 58.88, 889.58 0.08 M741.34 190.02 C790.31 134.86, 839.19 81.78, 913.16 1.74 M744.9 192.29 C805.18 116.78, 870.46 42.59, 912.84 -0.1 M763.3 192.38 C797.33 155.85, 835.12 120.05, 935.74 -1.21 M764.4 191.44 C804.77 149.37, 845.58 104.29, 934.36 0.08 M785.51 190.05 C854.38 116.4, 918.84 47.57, 952.22 -3.32 M787.44 193.77 C837.04 133.82, 890.74 71.98, 954.23 -0.05 M806.6 192.11 C857.85 140.1, 904.12 80.07, 977.04 1.54 M808.08 192.86 C845.47 148.37, 883.63 101.63, 976.65 0.01 M827.9 189.49 C865.42 151.12, 898.73 102.39, 998.85 0.7 M830.23 190.76 C869.88 143.45, 913.56 93.1, 995.96 -1.84 M852.48 191.48 C892.56 143.27, 935.12 97.93, 1018.33 -0.71 M850.3 190.95 C909.8 123.2, 972.34 50.76, 1018.08 -1.08 M871.15 191.23 C934.22 119.65, 1001.1 43.64, 1040.69 -1.43 M872.28 191.41 C931.06 121.99, 995.57 53.33, 1040.07 0 M893.82 189.38 C932.33 145.53, 975.22 98.89, 1061.08 1.03 M893.71 190.57 C941.5 132.88, 993.38 76.08, 1061.27 -1.02 M916.16 191.82 C952.76 147.66, 993.49 95.77, 1079.14 -1.46 M914.25 193.29 C974.84 126.18, 1032.98 56.6, 1081.55 -0.46 M937.96 194.54 C985.45 132.33, 1036.4 67.2, 1100.53 0.67 M934.56 190.91 C988.06 125.89, 1042.54 64.7, 1102.8 -0.75 M955 195.1 C986.66 155.4, 1021.06 119.62, 1125.59 -3 M957.81 193.88 C1004.29 136.6, 1050.82 80.65, 1123.88 -0.97 M980.13 193.87 C1016.17 151.46, 1053 103.52, 1147.67 0.98 M978.2 192.64 C1014.37 148.05, 1051.54 106.23, 1145.41 0.16 M999.41 189.84 C1036.19 144.31, 1080.09 99.08, 1165.08 2.41 M998.59 193.99 C1057.02 122.74, 1113.98 54.15, 1165.36 0.52 M1019.1 194.8 C1068.02 143.69, 1112.45 89.12, 1186.53 -2.43 M1019.05 191.7 C1081.02 119.6, 1140.91 48.89, 1187.69 0.57 M1038.03 193.04 C1101.11 122.71, 1164.32 59.17, 1210.7 -0.08 M1041.59 192.61 C1093.75 133.32, 1143.75 72.78, 1208.27 -0.41 M1059.6 190.9 C1127.24 118.15, 1192.71 39.78, 1231.76 -0.9 M1062.56 193.52 C1098.49 146.26, 1133.64 104.21, 1229.92 -1.55 M1084.28 195.15 C1142.34 130.31, 1198.75 65.29, 1251.2 -2.55 M1084.46 193.58 C1124.18 140.7, 1169.74 90.93, 1251.66 -0.95 M1102.11 191.31 C1149.96 135.21, 1194.96 83.08, 1270.44 1.39 M1105.16 190.6 C1151.31 135.61, 1200.03 79.49, 1270.78 0.63 M1124.04 193.23 C1193.76 117.14, 1258.25 38.5, 1295.57 0.51 M1126.48 193.43 C1164.81 143.33, 1204.81 97.9, 1294.03 -0.02 M1148.6 189.07 C1196.75 132.04, 1245.51 78.62, 1313.12 1.14 M1146.6 192.37 C1196.52 137.71, 1245.42 80.97, 1313.22 0.89 M1167.31 190.87 C1224.77 131.88, 1277.92 70.73, 1336.88 2.78 M1168.64 191.03 C1210.73 143.43, 1249.78 98.07, 1335.84 -1.27 M1188.96 194.25 C1245.33 129.46, 1302.21 67.59, 1357.71 -0.67 M1189.23 193.6 C1230.54 145.83, 1267.9 101.67, 1357.35 -0.4 M1208.8 192.56 C1263.36 131.58, 1321.42 69.28, 1380.71 -2.97 M1209.68 191.65 C1274.67 115.57, 1342.49 38.64, 1378.91 1.14 M1229.52 192.13 C1285.47 127.48, 1347.85 61.61, 1398.38 -0.7 M1230.97 194.02 C1290.38 123.72, 1347.92 57.24, 1399.74 -1.48 M1256.38 194.1 C1286.18 146.06, 1324.74 107.1, 1421.86 -1.95 M1251.99 190.95 C1316.99 112.63, 1384.23 37.52, 1419.28 0.1 M1276.14 192.97 C1314.34 145.13, 1360.41 99.33, 1441.2 -2.7 M1274.27 193.14 C1327.45 130.59, 1377.27 72.47, 1442.53 1.04 M1294.85 193.72 C1329.49 146.97, 1367.68 110.98, 1463.11 -1.93 M1294.41 192.46 C1338.67 137.07, 1386.7 83.59, 1462.75 -1.02 M1317.46 190.23 C1349.11 151.16, 1385.13 107.78, 1484.06 2.58 M1315.85 193.73 C1359.92 145.08, 1403.56 94.46, 1483.04 -0.01 M1340.3 188.94 C1390.91 132.03, 1442.09 75.17, 1508.75 -0.87 M1338.11 191.64 C1375.37 152.28, 1409.43 113.15, 1505.46 -1.34 M1356.56 193.64 C1415.37 130.06, 1468.97 64.8, 1528.95 -0.59 M1358.91 192.83 C1421.93 118.22, 1483.48 48.53, 1526.09 1.02 M1381.19 190.35 C1440.67 124.69, 1495.42 61.01, 1544.54 0.91 M1379.48 192.78 C1434.72 131.63, 1489.33 71.59, 1546.18 1.56 M1404.53 190.37 C1437.56 156.73, 1472.11 110.78, 1571.6 2.2 M1403.5 191.47 C1444.41 143.86, 1490.07 90.54, 1567.19 0.21 M1423.05 189.99 C1471.11 127.96, 1528.91 66.03, 1592.08 -2.34 M1422.35 193.62 C1470.58 141.43, 1516.78 88.37, 1588.95 -1.16 M1440.94 191.12 C1502.68 128.55, 1557.94 64.79, 1610.55 1.88 M1442.56 192.22 C1482.47 154.7, 1516.66 112.65, 1611.25 1.49 M1465.16 190.66 C1513.56 135.46, 1559.28 82.59, 1633.67 2.19 M1464.52 191.98 C1516.52 131.7, 1569.91 71.2, 1632.64 0.91 M1487.68 194.68 C1536.7 135.87, 1594.95 69.31, 1656.24 1.66 M1487.27 192.87 C1544.04 127.5, 1598.3 62.78, 1652.58 0.72 M1509.62 191.06 C1547.9 143.06, 1588.83 100.4, 1673.2 -2.46 M1506.71 193.58 C1571.78 116.05, 1636.47 44.01, 1673.58 -1.27 M1527.37 192.55 C1573.68 144.94, 1615.14 94.09, 1697.95 -1.63 M1527.44 191.03 C1593.37 113.58, 1659.62 39, 1696.83 -0.63 M1550.96 189.25 C1593.29 146.07, 1630.33 98.58, 1716.1 2.42 M1548.71 192.81 C1617.91 115.07, 1685.5 40.1, 1717.88 0.24 M1570.68 191.71 C1627.06 124.3, 1689.07 55.87, 1736.19 1.89 M1573.01 190.77 C1638.38 115.75, 1702.02 38.66, 1738.43 -1.94 M1594.95 189.84 C1643.68 137.86, 1694.28 76.55, 1762.17 0.84 M1592.01 192.91 C1627.41 149.57, 1663.07 108.19, 1758.1 1.9 M1616.87 189.55 C1665.47 134.01, 1723.56 74.93, 1782.03 -2.94 M1614.57 190.45 C1649.8 154, 1684.9 114.02, 1779.23 0.51 M1632.69 191.08 C1679.92 137.65, 1723.14 93.6, 1801.74 -2.73 M1636.52 193.01 C1673.79 143.83, 1716.29 93.17, 1801.76 -1.3 M1653.08 194.03 C1716.44 118.78, 1778.98 48.78, 1820.92 -1.06 M1655.04 193.18 C1708.39 132.12, 1765.49 67.95, 1821.54 0.87 M1678.81 192.09 C1742.44 124.58, 1802.08 56.23, 1844.14 1.78 M1676.69 192.17 C1717.44 140.73, 1761.6 92.53, 1844.73 1.58 M1695.87 194.77 C1737.43 147.27, 1771.08 105.56, 1866.97 -0.96 M1699.36 190.85 C1750.47 129.03, 1801.15 70.86, 1864.08 1.17 M1722.29 189.81 C1761.23 142.64, 1802.46 93.09, 1887.9 1.16 M1720.3 192.75 C1778.28 129.27, 1834.17 65.8, 1886.87 -1.15 M1741.88 193.44 C1789.94 135.83, 1834.78 81.65, 1907.34 1.18 M1740.83 191.32 C1801.74 127.26, 1858.68 60.39, 1907.95 -1.42 M1761.36 190 C1824.55 119.15, 1885.57 44.81, 1926.6 -1.55 M1761.92 192.09 C1813.47 128.81, 1869.45 68.82, 1928.05 -1.04 M1783.51 194.32 C1838.38 136.53, 1887.94 73.78, 1953.36 2.8 M1783.18 192.75 C1831.01 137.33, 1880.7 78.32, 1949.4 -0.88 M1806.14 191.34 C1868.01 121.06, 1929.51 48.72, 1974.11 0.79 M1804.89 192.36 C1842.87 153.39, 1878.53 109.58, 1970.77 -1.03 M1827.58 192.07 C1872.27 134.75, 1920.76 82.98, 1994.58 2.2 M1826.96 190.82 C1865.6 145.69, 1904.65 99.93, 1992.19 -1.02 M1845.61 192.58 C1895.97 133.03, 1946.16 78.21, 2015.4 -3 M1847.76 191.64 C1909.81 124.49, 1968.88 54.24, 2013.12 0.89 M1869.48 191.16 C1924.46 121.34, 1987.83 53.25, 2033.71 1.98 M1869.52 191.68 C1923.38 127.69, 1978.11 65.29, 2034 0.97 M1892.27 193.33 C1931 145.57, 1968.67 102.88, 2054.43 0.9 M1890.07 191.14 C1927.25 145.24, 1970.14 100.05, 2057.7 0.02 M1911.96 193.67 C1970.5 120.4, 2039.79 48.3, 2076.29 0.64 M1910.84 193.27 C1964.36 124.84, 2020.26 63.29, 2078.69 -0.43 M1932.97 191.04 C1999.56 113.99, 2064.61 41.03, 2097.33 3 M1931.79 192.19 C1983.02 136.89, 2033.04 79.56, 2098.12 1.4 M1954.77 189.83 C1998.7 146.64, 2040.48 93.69, 2120.3 2.51 M1952.93 192.04 C1998.56 136.68, 2049.07 79.54, 2119.48 0.59 M1976.76 192 C2024.83 136.24, 2068.75 83.62, 2138.78 -2.85 M1972.58 191.04 C2023.15 129.93, 2072.6 73.89, 2141 1.13 M1997.2 194.87 C2033.61 145.93, 2070.55 103.09, 2161.99 -0.95 M1995.89 190.7 C2041.3 136.31, 2091.47 77.89, 2164.23 -0.71 M2018.71 195.36 C2073.43 135.56, 2123.67 70.29, 2181.47 -0.05 M2017.64 192.05 C2083.41 118.45, 2149.77 43.47, 2183.28 -0.72 M2040.74 194.25 C2076.22 144.76, 2120.82 99.27, 2201.72 2.03 M2037.26 191.94 C2083.73 144.95, 2125.87 95.42, 2205.63 0.52 M2058.6 193.93 C2090.77 152.59, 2127.03 114.79, 2228.95 -0.26 M2057.7 192.23 C2101.93 143.45, 2140.57 100.81, 2224.55 0.67 M2081.88 189.71 C2138.61 126.62, 2201.23 57.81, 2246.59 1.59 M2081.12 192.78 C2141.8 124.46, 2198.82 56.96, 2246.44 -0.46 M2101.01 193.52 C2136.57 151.9, 2169.43 115.66, 2268.82 -1.11 M2101.3 190.98 C2141.69 141.1, 2185.82 91.55, 2269.65 -1.09 M2124.51 193.56 C2168.83 132.15, 2222.95 79.84, 2283.07 7.78 M2121.24 191.69 C2154.23 153.1, 2187.81 112.82, 2285.23 4 M2141.47 194.51 C2200.58 127.18, 2257.5 66.66, 2281.84 28.2 M2145.2 194.18 C2174.97 153.63, 2209.14 117.98, 2286.27 29.82 M2162.5 193.47 C2201.56 142.09, 2247.75 101.02, 2285.23 52.12 M2166.76 192.14 C2201 153.06, 2234.14 115.19, 2285.61 51.89 M2182.14 195.03 C2205.96 162.69, 2232.56 135.65, 2286.92 74.37 M2186.04 190.89 C2213.29 160.9, 2241.4 132.43, 2287.29 75.81 M2203.37 195.51 C2224.37 173.48, 2244.52 150.97, 2286.12 102.36 M2207.09 190.75 C2232.28 163.99, 2254.24 137.24, 2286.39 103.74 M2230.34 194.92 C2239.9 180.05, 2256.26 162.11, 2282.08 128.67 M2227.12 192.96 C2242.28 177.64, 2254.68 165.22, 2284.85 127.08 M2250.82 194.55 C2260.21 175.62, 2277.72 163.03, 2283.81 149.42 M2251.31 191.35 C2255.37 181.9, 2263.44 175.1, 2285.59 151.18 M2274.92 194.18 C2276.2 187.1, 2280.69 184.21, 2282.06 179.46 M2271.51 191.66 C2274.67 188.29, 2279.25 183.31, 2284.39 176.67" stroke="#eeeeee" stroke-width="2" fill="none"></path><path d="M-0.49 0.58 C470.86 12.13, 942.97 9.35, 2278.61 -1.48 M0.39 -0.72 C868.08 10.98, 1736.69 9.56, 2279.72 -0.62 M2276.12 -2.23 C2279.95 67.08, 2279.24 136.82, 2283.22 192.89 M2278.95 0.86 C2283.04 68.97, 2282.77 135.52, 2278.05 188.68 M2279.27 190.95 C1434.16 186.33, 589.43 187.51, -0.92 189.83 M2279.84 189.98 C1775.41 203.54, 1271.64 204.96, 0.36 190.5 M2.95 187.64 C-4.96 116.55, -2.62 49.09, -1.71 0.32 M-1.48 190.17 C-2.25 117.91, -3.3 49.54, 1.61 -0.26" stroke="#000000" stroke-width="4" fill="none"></path></g><g transform="translate(50 430) rotate(0 64 21.5)"><text x="0" y="35" font-family="Cascadia, Segoe UI Emoji" font-size="36px" fill="#000000" text-anchor="start" style="white-space: pre;" direction="ltr">aenter</text></g><g transform="translate(1370 10) rotate(0 106 21.5)"><text x="106" y="35" font-family="Cascadia, Segoe UI Emoji" font-size="36px" fill="#000000" text-anchor="middle" style="white-space: pre;" direction="ltr">Lua script</text></g><g stroke-linecap="round" transform="translate(350 430) rotate(0 220 60)"><path d="M30 0 M30 0 C122.2 0, 214.4 0, 410 0 M30 0 C181.53 0, 333.05 0, 410 0 M410 0 C430 0, 440 10, 440 30 M410 0 C430 0, 440 10, 440 30 M440 30 C440 46.09, 440 62.18, 440 90 M440 30 C440 44.43, 440 58.86, 440 90 M440 90 C440 110, 430 120, 410 120 M440 90 C440 110, 430 120, 410 120 M410 120 C331.51 120, 253.03 120, 30 120 M410 120 C303.44 120, 196.88 120, 30 120 M30 120 C10 120, 0 110, 0 90 M30 120 C10 120, 0 110, 0 90 M0 90 C0 73.63, 0 57.25, 0 30 M0 90 C0 67.55, 0 45.1, 0 30 M0 30 C0 10, 10 0, 30 0 M0 30 C0 10, 10 0, 30 0" stroke="#343a40" stroke-width="4" fill="none"></path></g><g transform="translate(355 468.5) rotate(0 215 21.5)"><text x="215" y="35" font-family="Cascadia, Segoe UI Emoji" font-size="36px" fill="#343a40" text-anchor="middle" style="white-space: pre;" direction="ltr">Fetch slot</text></g><g stroke-linecap="round"><g transform="translate(830 490) rotate(0 90 0)"><path d="M0 0 C30 0, 150 0, 180 0 M0 0 C30 0, 150 0, 180 0" stroke="#000000" stroke-width="4" fill="none"></path></g><g transform="translate(830 490) rotate(0 90 0)"><path d="M151.81 10.26 C162.32 6.43, 172.83 2.61, 180 0 M151.81 10.26 C160.48 7.11, 169.15 3.95, 180 0" stroke="#000000" stroke-width="4" fill="none"></path></g><g transform="translate(830 490) rotate(0 90 0)"><path d="M151.81 -10.26 C162.32 -6.43, 172.83 -2.61, 180 0 M151.81 -10.26 C160.48 -7.11, 169.15 -3.95, 180 0" stroke="#000000" stroke-width="4" fill="none"></path></g></g><g stroke-linecap="round"><g transform="translate(1550 490) rotate(0 90 0)"><path d="M0 0 C30 0, 150 0, 180 0 M0 0 C30 0, 150 0, 180 0" stroke="#000000" stroke-width="4" fill="none"></path></g><g transform="translate(1550 490) rotate(0 90 0)"><path d="M151.81 10.26 C158.47 7.84, 165.12 5.41, 180 0 M151.81 10.26 C159.14 7.59, 166.48 4.92, 180 0" stroke="#000000" stroke-width="4" fill="none"></path></g><g transform="translate(1550 490) rotate(0 90 0)"><path d="M151.81 -10.26 C158.47 -7.84, 165.12 -5.41, 180 0 M151.81 -10.26 C159.14 -7.59, 166.48 -4.92, 180 0" stroke="#000000" stroke-width="4" fill="none"></path></g></g><g transform="translate(1790 470) rotate(0 42.5 21.5)"><text x="42.5" y="35" font-family="Cascadia, Segoe UI Emoji" font-size="36px" fill="#000000" text-anchor="middle" style="white-space: pre;" direction="ltr">exit</text></g><g transform="translate(970 630) rotate(0 116.5 21.5)"><text x="116.5" y="35" font-family="Cascadia, Segoe UI Emoji" font-size="36px" fill="#000000" text-anchor="middle" style="white-space: pre;" direction="ltr">Main thread</text></g><g stroke-linecap="round"><g transform="translate(10 510) rotate(0 110 0)"><path d="M0 0 C36.67 0, 183.33 0, 220 0 M0 0 C36.67 0, 183.33 0, 220 0" stroke="#343a40" stroke-width="4" fill="none"></path></g><g transform="translate(10 510) rotate(0 110 0)"><path d="M191.81 10.26 C200.66 7.04, 209.51 3.82, 220 0 M191.81 10.26 C201.46 6.75, 211.12 3.23, 220 0" stroke="#343a40" stroke-width="4" fill="none"></path></g><g transform="translate(10 510) rotate(0 110 0)"><path d="M191.81 -10.26 C200.66 -7.04, 209.51 -3.82, 220 0 M191.81 -10.26 C201.46 -6.75, 211.12 -3.23, 220 0" stroke="#343a40" stroke-width="4" fill="none"></path></g></g><g stroke-linecap="round" transform="translate(1050 430) rotate(0 220 60)"><path d="M30 0 M30 0 C116.89 0, 203.78 0, 410 0 M30 0 C131.76 0, 233.53 0, 410 0 M410 0 C430 0, 440 10, 440 30 M410 0 C430 0, 440 10, 440 30 M440 30 C440 44.18, 440 58.36, 440 90 M440 30 C440 52.45, 440 74.91, 440 90 M440 90 C440 110, 430 120, 410 120 M440 90 C440 110, 430 120, 410 120 M410 120 C266.99 120, 123.98 120, 30 120 M410 120 C310.33 120, 210.66 120, 30 120 M30 120 C10 120, 0 110, 0 90 M30 120 C10 120, 0 110, 0 90 M0 90 C0 68.52, 0 47.03, 0 30 M0 90 C0 66.92, 0 43.84, 0 30 M0 30 C0 10, 10 0, 30 0 M0 30 C0 10, 10 0, 30 0" stroke="#343a40" stroke-width="4" fill="none"></path></g><g transform="translate(1055 468.5) rotate(0 215 21.5)"><text x="215" y="35" font-family="Cascadia, Segoe UI Emoji" font-size="36px" fill="#343a40" text-anchor="middle" style="white-space: pre;" direction="ltr">Sleep until slot</text></g><g stroke-linecap="round" transform="translate(370 130) rotate(0 220 58)"><path d="M29 0 M29 0 C106.67 0, 184.34 0, 411 0 M29 0 C130.63 0, 232.27 0, 411 0 M411 0 C430.33 0, 440 9.67, 440 29 M411 0 C430.33 0, 440 9.67, 440 29 M440 29 C440 46.22, 440 63.45, 440 87 M440 29 C440 48.42, 440 67.85, 440 87 M440 87 C440 106.33, 430.33 116, 411 116 M440 87 C440 106.33, 430.33 116, 411 116 M411 116 C330.3 116, 249.59 116, 29 116 M411 116 C321.06 116, 231.12 116, 29 116 M29 116 C9.67 116, 0 106.33, 0 87 M29 116 C9.67 116, 0 106.33, 0 87 M0 87 C0 65.48, 0 43.97, 0 29 M0 87 C0 66.04, 0 45.07, 0 29 M0 29 C0 9.67, 9.67 0, 29 0 M0 29 C0 9.67, 9.67 0, 29 0" stroke="#343a40" stroke-width="4" fill="none"></path></g><g transform="translate(375 145) rotate(0 215 43)"><text x="215" y="35" font-family="Cascadia, Segoe UI Emoji" font-size="36px" fill="#343a40" text-anchor="middle" style="white-space: pre;" direction="ltr">Retrieve bucket </text><text x="215" y="78" font-family="Cascadia, Segoe UI Emoji" font-size="36px" fill="#343a40" text-anchor="middle" style="white-space: pre;" direction="ltr">state</text></g><g stroke-linecap="round" transform="translate(970 130) rotate(0 220 58)"><path d="M29 0 M29 0 C156.04 0, 283.07 0, 411 0 M29 0 C119.23 0, 209.47 0, 411 0 M411 0 C430.33 0, 440 9.67, 440 29 M411 0 C430.33 0, 440 9.67, 440 29 M440 29 C440 47.38, 440 65.75, 440 87 M440 29 C440 43.27, 440 57.54, 440 87 M440 87 C440 106.33, 430.33 116, 411 116 M440 87 C440 106.33, 430.33 116, 411 116 M411 116 C332.89 116, 254.79 116, 29 116 M411 116 C317.37 116, 223.74 116, 29 116 M29 116 C9.67 116, 0 106.33, 0 87 M29 116 C9.67 116, 0 106.33, 0 87 M0 87 C0 65.72, 0 44.44, 0 29 M0 87 C0 64.75, 0 42.49, 0 29 M0 29 C0 9.67, 9.67 0, 29 0 M0 29 C0 9.67, 9.67 0, 29 0" stroke="#343a40" stroke-width="4" fill="none"></path></g><g transform="translate(975 166.5) rotate(0 215 21.5)"><text x="215" y="35" font-family="Cascadia, Segoe UI Emoji" font-size="36px" fill="#343a40" text-anchor="middle" style="white-space: pre;" direction="ltr">Find next slot</text></g><g stroke-linecap="round" transform="translate(1570 130) rotate(0 220 58)"><path d="M29 0 M29 0 C175.55 0, 322.09 0, 411 0 M29 0 C131.92 0, 234.83 0, 411 0 M411 0 C430.33 0, 440 9.67, 440 29 M411 0 C430.33 0, 440 9.67, 440 29 M440 29 C440 47.03, 440 65.07, 440 87 M440 29 C440 44.65, 440 60.3, 440 87 M440 87 C440 106.33, 430.33 116, 411 116 M440 87 C440 106.33, 430.33 116, 411 116 M411 116 C325.51 116, 240.02 116, 29 116 M411 116 C298.93 116, 186.86 116, 29 116 M29 116 C9.67 116, 0 106.33, 0 87 M29 116 C9.67 116, 0 106.33, 0 87 M0 87 C0 67.65, 0 48.31, 0 29 M0 87 C0 74.65, 0 62.31, 0 29 M0 29 C0 9.67, 9.67 0, 29 0 M0 29 C0 9.67, 9.67 0, 29 0" stroke="#343a40" stroke-width="4" fill="none"></path></g><g transform="translate(1575 166.5) rotate(0 215 21.5)"><text x="215" y="35" font-family="Cascadia, Segoe UI Emoji" font-size="36px" fill="#343a40" text-anchor="middle" style="white-space: pre;" direction="ltr">Save bucket state</text></g><g stroke-linecap="round" transform="translate(2170 130) rotate(0 220 58)"><path d="M29 0 M29 0 C105.82 0, 182.64 0, 411 0 M29 0 C147.71 0, 266.42 0, 411 0 M411 0 C430.33 0, 440 9.67, 440 29 M411 0 C430.33 0, 440 9.67, 440 29 M440 29 C440 50.96, 440 72.93, 440 87 M440 29 C440 41.99, 440 54.97, 440 87 M440 87 C440 106.33, 430.33 116, 411 116 M440 87 C440 106.33, 430.33 116, 411 116 M411 116 C324.1 116, 237.19 116, 29 116 M411 116 C296.07 116, 181.14 116, 29 116 M29 116 C9.67 116, 0 106.33, 0 87 M29 116 C9.67 116, 0 106.33, 0 87 M0 87 C0 68.2, 0 49.39, 0 29 M0 87 C0 72.62, 0 58.24, 0 29 M0 29 C0 9.67, 9.67 0, 29 0 M0 29 C0 9.67, 9.67 0, 29 0" stroke="#343a40" stroke-width="4" fill="none"></path></g><g transform="translate(2175 166.5) rotate(0 215 21.5)"><text x="215" y="35" font-family="Cascadia, Segoe UI Emoji" font-size="36px" fill="#343a40" text-anchor="middle" style="white-space: pre;" direction="ltr">Return slot</text></g><g stroke-linecap="round"><g transform="translate(830 190) rotate(0 60 0)"><path d="M0 0 C20 0, 100 0, 120 0 M0 0 C20 0, 100 0, 120 0" stroke="#000000" stroke-width="4" fill="none"></path></g><g transform="translate(830 190) rotate(0 60 0)"><path d="M91.81 10.26 C99.21 7.57, 106.62 4.87, 120 0 M91.81 10.26 C99.01 7.64, 106.22 5.02, 120 0" stroke="#000000" stroke-width="4" fill="none"></path></g><g transform="translate(830 190) rotate(0 60 0)"><path d="M91.81 -10.26 C99.21 -7.57, 106.62 -4.87, 120 0 M91.81 -10.26 C99.01 -7.64, 106.22 -5.02, 120 0" stroke="#000000" stroke-width="4" fill="none"></path></g></g><g stroke-linecap="round"><g transform="translate(1430 190) rotate(0 60 0)"><path d="M0 0 C20 0, 100 0, 120 0 M0 0 C20 0, 100 0, 120 0" stroke="#000000" stroke-width="4" fill="none"></path></g><g transform="translate(1430 190) rotate(0 60 0)"><path d="M91.81 10.26 C98.5 7.82, 105.19 5.39, 120 0 M91.81 10.26 C101.3 6.81, 110.79 3.35, 120 0" stroke="#000000" stroke-width="4" fill="none"></path></g><g transform="translate(1430 190) rotate(0 60 0)"><path d="M91.81 -10.26 C98.5 -7.82, 105.19 -5.39, 120 0 M91.81 -10.26 C101.3 -6.81, 110.79 -3.35, 120 0" stroke="#000000" stroke-width="4" fill="none"></path></g></g><g stroke-linecap="round"><g transform="translate(2030 190) rotate(0 60 0)"><path d="M0 0 C20 0, 100 0, 120 0 M0 0 C20 0, 100 0, 120 0" stroke="#000000" stroke-width="4" fill="none"></path></g><g transform="translate(2030 190) rotate(0 60 0)"><path d="M91.81 10.26 C102.87 6.23, 113.94 2.21, 120 0 M91.81 10.26 C98.16 7.95, 104.52 5.63, 120 0" stroke="#000000" stroke-width="4" fill="none"></path></g><g transform="translate(2030 190) rotate(0 60 0)"><path d="M91.81 -10.26 C102.87 -6.23, 113.94 -2.21, 120 0 M91.81 -10.26 C98.16 -7.95, 104.52 -5.63, 120 0" stroke="#000000" stroke-width="4" fill="none"></path></g></g><g stroke-linecap="round"><g transform="translate(590 385.3229823426045) rotate(0 0 -47.66149117130226)"><path d="M0 0 C0 -15.89, 0 -79.44, 0 -95.32 M0 0 C0 -15.89, 0 -79.44, 0 -95.32" stroke="#000000" stroke-width="4" fill="none"></path></g><g transform="translate(590 385.3229823426045) rotate(0 0 -47.66149117130226)"><path d="M10.26 -67.13 C7.6 -74.43, 4.94 -81.74, 0 -95.32 M10.26 -67.13 C7.16 -75.66, 4.05 -84.2, 0 -95.32" stroke="#000000" stroke-width="4" fill="none"></path></g><g transform="translate(590 385.3229823426045) rotate(0 0 -47.66149117130226)"><path d="M-10.26 -67.13 C-7.6 -74.43, -4.94 -81.74, 0 -95.32 M-10.26 -67.13 C-7.16 -75.66, -4.05 -84.2, 0 -95.32" stroke="#000000" stroke-width="4" fill="none"></path></g></g></svg>
