<svg version="1.1" xmlns="http://www.w3.org/2000/svg" viewBox="0 0 2280 580" width="2280" height="580">
    <!-- svg-source:excalidraw -->

    <defs>
        <style>
            @font-face {
            font-family: "Virgil";
            src: url("https://excalidraw.com/Virgil.woff2");
            }
            @font-face {
            font-family: "Cascadia";
            src: url("https://excalidraw.com/Cascadia.woff2");
            }
        </style>
    </defs>
    <rect x="0" y="0" width="2280" height="580" fill="#ffffff"></rect><g transform="translate(50 430) rotate(0 64 21.5)"><text x="0" y="35" font-family="Cascadia, Segoe UI Emoji" font-size="36px" fill="#000000" text-anchor="start" style="white-space: pre;" direction="ltr">aenter</text></g><g transform="translate(1290 10) rotate(0 106 21.5)"><text x="106" y="35" font-family="Cascadia, Segoe UI Emoji" font-size="36px" fill="#000000" text-anchor="middle" style="white-space: pre;" direction="ltr">Lua script</text></g><g stroke-linecap="round" transform="translate(270 450) rotate(0 220 60)"><path d="M30 0 M30 0 C122.2 0, 214.4 0, 410 0 M30 0 C181.53 0, 333.05 0, 410 0 M410 0 C430 0, 440 10, 440 30 M410 0 C430 0, 440 10, 440 30 M440 30 C440 46.09, 440 62.18, 440 90 M440 30 C440 44.43, 440 58.86, 440 90 M440 90 C440 110, 430 120, 410 120 M440 90 C440 110, 430 120, 410 120 M410 120 C331.51 120, 253.03 120, 30 120 M410 120 C303.44 120, 196.88 120, 30 120 M30 120 C10 120, 0 110, 0 90 M30 120 C10 120, 0 110, 0 90 M0 90 C0 73.63, 0 57.25, 0 30 M0 90 C0 67.55, 0 45.1, 0 30 M0 30 C0 10, 10 0, 30 0 M0 30 C0 10, 10 0, 30 0" stroke="#343a40" stroke-width="4" fill="none"></path></g><g transform="translate(275 488.5) rotate(0 215 21.5)"><text x="215" y="35" font-family="Cascadia, Segoe UI Emoji" font-size="36px" fill="#343a40" text-anchor="middle" style="white-space: pre;" direction="ltr">Fetch slot</text></g><g stroke-linecap="round"><g transform="translate(750 510) rotate(0 90 0)"><path d="M0 0 C30 0, 150 0, 180 0 M0 0 C30 0, 150 0, 180 0" stroke="#000000" stroke-width="4" fill="none"></path></g><g transform="translate(750 510) rotate(0 90 0)"><path d="M151.81 10.26 C162.32 6.43, 172.83 2.61, 180 0 M151.81 10.26 C160.48 7.11, 169.15 3.95, 180 0" stroke="#000000" stroke-width="4" fill="none"></path></g><g transform="translate(750 510) rotate(0 90 0)"><path d="M151.81 -10.26 C162.32 -6.43, 172.83 -2.61, 180 0 M151.81 -10.26 C160.48 -7.11, 169.15 -3.95, 180 0" stroke="#000000" stroke-width="4" fill="none"></path></g></g><g stroke-linecap="round"><g transform="translate(1470 510) rotate(0 90 0)"><path d="M0 0 C30 0, 150 0, 180 0 M0 0 C30 0, 150 0, 180 0" stroke="#000000" stroke-width="4" fill="none"></path></g><g transform="translate(1470 510) rotate(0 90 0)"><path d="M151.81 10.26 C158.47 7.84, 165.12 5.41, 180 0 M151.81 10.26 C159.14 7.59, 166.48 4.92, 180 0" stroke="#000000" stroke-width="4" fill="none"></path></g><g transform="translate(1470 510) rotate(0 90 0)"><path d="M151.81 -10.26 C158.47 -7.84, 165.12 -5.41, 180 0 M151.81 -10.26 C159.14 -7.59, 166.48 -4.92, 180 0" stroke="#000000" stroke-width="4" fill="none"></path></g></g><g transform="translate(1688.5 490) rotate(0 64 21.5)"><text x="64" y="35" font-family="Cascadia, Segoe UI Emoji" font-size="36px" fill="#2b8a3e" text-anchor="middle" style="white-space: pre;" direction="ltr">return</text></g><g stroke-linecap="round"><g transform="translate(10 510) rotate(0 110 0)"><path d="M0 0 C36.67 0, 183.33 0, 220 0 M0 0 C36.67 0, 183.33 0, 220 0" stroke="#343a40" stroke-width="4" fill="none"></path></g><g transform="translate(10 510) rotate(0 110 0)"><path d="M191.81 10.26 C200.66 7.04, 209.51 3.82, 220 0 M191.81 10.26 C201.46 6.75, 211.12 3.23, 220 0" stroke="#343a40" stroke-width="4" fill="none"></path></g><g transform="translate(10 510) rotate(0 110 0)"><path d="M191.81 -10.26 C200.66 -7.04, 209.51 -3.82, 220 0 M191.81 -10.26 C201.46 -6.75, 211.12 -3.23, 220 0" stroke="#343a40" stroke-width="4" fill="none"></path></g></g><g stroke-linecap="round" transform="translate(970 450) rotate(0 220 60)"><path d="M30 0 M30 0 C116.89 0, 203.78 0, 410 0 M30 0 C131.76 0, 233.53 0, 410 0 M410 0 C430 0, 440 10, 440 30 M410 0 C430 0, 440 10, 440 30 M440 30 C440 44.18, 440 58.36, 440 90 M440 30 C440 52.45, 440 74.91, 440 90 M440 90 C440 110, 430 120, 410 120 M440 90 C440 110, 430 120, 410 120 M410 120 C266.99 120, 123.98 120, 30 120 M410 120 C310.33 120, 210.66 120, 30 120 M30 120 C10 120, 0 110, 0 90 M30 120 C10 120, 0 110, 0 90 M0 90 C0 68.52, 0 47.03, 0 30 M0 90 C0 66.92, 0 43.84, 0 30 M0 30 C0 10, 10 0, 30 0 M0 30 C0 10, 10 0, 30 0" stroke="#343a40" stroke-width="4" fill="none"></path></g><g transform="translate(975 488.5) rotate(0 215 21.5)"><text x="215" y="35" font-family="Cascadia, Segoe UI Emoji" font-size="36px" fill="#343a40" text-anchor="middle" style="white-space: pre;" direction="ltr">Sleep until slot</text></g><g stroke-linecap="round" transform="translate(290 130) rotate(0 220 58)"><path d="M29 0 M29 0 C106.67 0, 184.34 0, 411 0 M29 0 C130.63 0, 232.27 0, 411 0 M411 0 C430.33 0, 440 9.67, 440 29 M411 0 C430.33 0, 440 9.67, 440 29 M440 29 C440 46.22, 440 63.45, 440 87 M440 29 C440 48.42, 440 67.85, 440 87 M440 87 C440 106.33, 430.33 116, 411 116 M440 87 C440 106.33, 430.33 116, 411 116 M411 116 C330.3 116, 249.59 116, 29 116 M411 116 C321.06 116, 231.12 116, 29 116 M29 116 C9.67 116, 0 106.33, 0 87 M29 116 C9.67 116, 0 106.33, 0 87 M0 87 C0 65.48, 0 43.97, 0 29 M0 87 C0 66.04, 0 45.07, 0 29 M0 29 C0 9.67, 9.67 0, 29 0 M0 29 C0 9.67, 9.67 0, 29 0" stroke="#343a40" stroke-width="4" fill="none"></path></g><g transform="translate(295 145) rotate(0 215 43)"><text x="215" y="35" font-family="Cascadia, Segoe UI Emoji" font-size="36px" fill="#343a40" text-anchor="middle" style="white-space: pre;" direction="ltr">Retrieve bucket </text><text x="215" y="78" font-family="Cascadia, Segoe UI Emoji" font-size="36px" fill="#343a40" text-anchor="middle" style="white-space: pre;" direction="ltr">state</text></g><g stroke-linecap="round" transform="translate(890 130) rotate(0 220 58)"><path d="M29 0 M29 0 C156.04 0, 283.07 0, 411 0 M29 0 C119.23 0, 209.47 0, 411 0 M411 0 C430.33 0, 440 9.67, 440 29 M411 0 C430.33 0, 440 9.67, 440 29 M440 29 C440 47.38, 440 65.75, 440 87 M440 29 C440 43.27, 440 57.54, 440 87 M440 87 C440 106.33, 430.33 116, 411 116 M440 87 C440 106.33, 430.33 116, 411 116 M411 116 C332.89 116, 254.79 116, 29 116 M411 116 C317.37 116, 223.74 116, 29 116 M29 116 C9.67 116, 0 106.33, 0 87 M29 116 C9.67 116, 0 106.33, 0 87 M0 87 C0 65.72, 0 44.44, 0 29 M0 87 C0 64.75, 0 42.49, 0 29 M0 29 C0 9.67, 9.67 0, 29 0 M0 29 C0 9.67, 9.67 0, 29 0" stroke="#343a40" stroke-width="4" fill="none"></path></g><g transform="translate(895 166.5) rotate(0 215 21.5)"><text x="215" y="35" font-family="Cascadia, Segoe UI Emoji" font-size="36px" fill="#343a40" text-anchor="middle" style="white-space: pre;" direction="ltr">Find next slot</text></g><g stroke-linecap="round" transform="translate(1490 130) rotate(0 220 58)"><path d="M29 0 M29 0 C175.55 0, 322.09 0, 411 0 M29 0 C131.92 0, 234.83 0, 411 0 M411 0 C430.33 0, 440 9.67, 440 29 M411 0 C430.33 0, 440 9.67, 440 29 M440 29 C440 47.03, 440 65.07, 440 87 M440 29 C440 44.65, 440 60.3, 440 87 M440 87 C440 106.33, 430.33 116, 411 116 M440 87 C440 106.33, 430.33 116, 411 116 M411 116 C325.51 116, 240.02 116, 29 116 M411 116 C298.93 116, 186.86 116, 29 116 M29 116 C9.67 116, 0 106.33, 0 87 M29 116 C9.67 116, 0 106.33, 0 87 M0 87 C0 67.65, 0 48.31, 0 29 M0 87 C0 74.65, 0 62.31, 0 29 M0 29 C0 9.67, 9.67 0, 29 0 M0 29 C0 9.67, 9.67 0, 29 0" stroke="#343a40" stroke-width="4" fill="none"></path></g><g transform="translate(1495 166.5) rotate(0 215 21.5)"><text x="215" y="35" font-family="Cascadia, Segoe UI Emoji" font-size="36px" fill="#343a40" text-anchor="middle" style="white-space: pre;" direction="ltr">Save bucket state</text></g><g stroke-linecap="round"><g transform="translate(750 190) rotate(0 60 0)"><path d="M0 0 C20 0, 100 0, 120 0 M0 0 C20 0, 100 0, 120 0" stroke="#000000" stroke-width="4" fill="none"></path></g><g transform="translate(750 190) rotate(0 60 0)"><path d="M91.81 10.26 C99.21 7.57, 106.62 4.87, 120 0 M91.81 10.26 C99.01 7.64, 106.22 5.02, 120 0" stroke="#000000" stroke-width="4" fill="none"></path></g><g transform="translate(750 190) rotate(0 60 0)"><path d="M91.81 -10.26 C99.21 -7.57, 106.62 -4.87, 120 0 M91.81 -10.26 C99.01 -7.64, 106.22 -5.02, 120 0" stroke="#000000" stroke-width="4" fill="none"></path></g></g><g stroke-linecap="round"><g transform="translate(1350 190) rotate(0 60 0)"><path d="M0 0 C20 0, 100 0, 120 0 M0 0 C20 0, 100 0, 120 0" stroke="#000000" stroke-width="4" fill="none"></path></g><g transform="translate(1350 190) rotate(0 60 0)"><path d="M91.81 10.26 C98.5 7.82, 105.19 5.39, 120 0 M91.81 10.26 C101.3 6.81, 110.79 3.35, 120 0" stroke="#000000" stroke-width="4" fill="none"></path></g><g transform="translate(1350 190) rotate(0 60 0)"><path d="M91.81 -10.26 C98.5 -7.82, 105.19 -5.39, 120 0 M91.81 -10.26 C101.3 -6.81, 110.79 -3.35, 120 0" stroke="#000000" stroke-width="4" fill="none"></path></g></g><g stroke-linecap="round"><g transform="translate(1950 190) rotate(0 60 0)"><path d="M0 0 C20 0, 100 0, 120 0 M0 0 C20 0, 100 0, 120 0" stroke="#000000" stroke-width="4" fill="none"></path></g><g transform="translate(1950 190) rotate(0 60 0)"><path d="M91.81 10.26 C102.87 6.23, 113.94 2.21, 120 0 M91.81 10.26 C98.16 7.95, 104.52 5.63, 120 0" stroke="#000000" stroke-width="4" fill="none"></path></g><g transform="translate(1950 190) rotate(0 60 0)"><path d="M91.81 -10.26 C102.87 -6.23, 113.94 -2.21, 120 0 M91.81 -10.26 C98.16 -7.95, 104.52 -5.63, 120 0" stroke="#000000" stroke-width="4" fill="none"></path></g></g><g stroke-linecap="round"><g transform="translate(510 430) rotate(0 0 -60)"><path d="M0 0 C0 -20, 0 -100, 0 -120 M0 0 C0 -20, 0 -100, 0 -120" stroke="#000000" stroke-width="4" fill="none"></path></g><g transform="translate(510 430) rotate(0 0 -60)"><path d="M10.26 -91.81 C7.6 -99.11, 4.94 -106.41, 0 -120 M10.26 -91.81 C7.16 -100.34, 4.05 -108.87, 0 -120" stroke="#000000" stroke-width="4" fill="none"></path></g><g transform="translate(510 430) rotate(0 0 -60)"><path d="M-10.26 -91.81 C-7.6 -99.11, -4.94 -106.41, 0 -120 M-10.26 -91.81 C-7.16 -100.34, -4.05 -108.87, 0 -120" stroke="#000000" stroke-width="4" fill="none"></path></g></g><g stroke-linecap="round" transform="translate(250 90) rotate(0 1010 100)"><path d="M0 0 C794.41 0, 1588.82 0, 2020 0 M2020 0 C2020 79.27, 2020 158.53, 2020 200 M2020 200 C1264.21 200, 508.42 200, 0 200 M0 200 C0 142.54, 0 85.08, 0 0" stroke="#000000" stroke-width="4.5" fill="none" stroke-dasharray="1.5 10"></path></g><g transform="translate(2110 170) rotate(0 64 21.5)"><text x="64" y="35" font-family="Cascadia, Segoe UI Emoji" font-size="36px" fill="#2b8a3e" text-anchor="middle" style="white-space: pre;" direction="ltr">return</text></g></svg>