<svg version="1.1" xmlns="http://www.w3.org/2000/svg" viewBox="0 0 3760 1780" width="3760" height="1780">
  <!-- svg-source:excalidraw -->

  <defs>
    <style>
      @font-face {
      font-family: "Virgil";
      src: url("https://excalidraw.com/Virgil.woff2");
      }
      @font-face {
      font-family: "Cascadia";
      src: url("https://excalidraw.com/Cascadia.woff2");
      }
    </style>
  </defs>
  <rect x="0" y="0" width="3760" height="1780" fill="#ffffff"></rect><g stroke-linecap="round" transform="translate(230 1010) rotate(0 1150 380)"><path d="M0 0 C0 0, 0 0, 0 0 M0 0 C0 0, 0 0, 0 0 M3.49 22.37 C3.01 20.07, 10.23 15.54, 23.57 -2.01 M0.66 22.36 C4.74 19.06, 12.99 10.09, 22.18 1.28 M2.02 47.28 C14.44 30.13, 30.62 12.01, 42.77 -3.53 M1.8 48.13 C11.12 37.53, 17.64 27.92, 41.83 -0.47 M3 76.16 C18.28 48.88, 33.51 29.58, 60.09 2.76 M-0.74 72.37 C24.98 47.48, 46.99 20.57, 62.32 1 M-1.27 98 C16.32 69.51, 44.07 45.83, 88.69 -3.8 M-1.39 99.78 C22.35 71.43, 48.13 46.28, 86.34 0.42 M-3.28 122.54 C37.51 77.8, 80.38 27.95, 106.04 0.14 M0.85 122.12 C42.78 77.55, 84.44 28.31, 107.51 -1.58 M0.87 147.85 C45.13 89.56, 90.59 36.81, 127.04 -3 M-1.11 144.29 C43.98 96.45, 88.35 46.39, 126.77 -0.82 M-0.76 168.63 C29.76 130.42, 65.42 95.02, 144.94 -0.44 M0.55 171 C41.64 122.1, 79.47 74.29, 148.21 0.28 M-0.55 197.71 C67.07 123.1, 130.26 46.03, 167.05 1.02 M0.2 193.73 C42.72 146.01, 86.8 95.72, 168.46 1.76 M1.47 217.46 C76.46 131.13, 151.41 47.27, 189.82 0.3 M-1.39 219.34 C44.81 171.39, 86.64 120.54, 191.08 1.38 M0.11 242.27 C70.51 160.53, 145.43 75.19, 214.08 1.51 M0.29 243.53 C69.25 160.68, 141.74 78.78, 210.68 -0.94 M-0.3 267.38 C71.34 185.17, 142.94 103.53, 234.46 -1.64 M1.41 267.12 C65.84 190.3, 132.52 114.67, 232.15 -0.57 M-1 293.9 C97.33 179.81, 193.64 71.42, 252.32 -1.86 M-0.64 293.39 C67.57 211.59, 136.82 132.63, 253.54 1.05 M0.27 317.22 C53.43 253.13, 106 187.81, 274.32 0.55 M-0.49 316.64 C89.17 216.92, 176.51 115.14, 275.53 -0.98 M0.95 342.66 C107.98 217.78, 213.96 94.12, 295.21 1.42 M0.73 342.34 C78.84 248.9, 160.19 158.17, 297.1 0.72 M0.72 366.98 C87.29 268.19, 176.28 169.89, 317.49 -0.79 M0.89 365.84 C77.76 280.43, 155.34 191.72, 318.54 -0.12 M1.01 390.08 C75.43 306.69, 147.38 225.44, 339.42 1.17 M0.79 390.45 C96.03 282.06, 190.46 174.45, 339.78 0.15 M0.18 416.08 C78.57 327.27, 153.78 239.15, 359.72 1.02 M0.02 414.42 C138.76 253.64, 276.97 93.92, 360.22 0.5 M-0.07 439.08 C107.4 317.96, 208.95 198.85, 380.18 0.72 M-0.14 439.22 C144.58 271.78, 288.71 105.64, 381.8 -0.09 M1.41 462.44 C99.79 353.04, 197.26 239.5, 402.52 -0.49 M-0.77 463.85 C130.4 313.04, 260.5 162.2, 402.37 0.47 M1.54 487.06 C120.27 350.75, 236.73 214.23, 425.34 1.35 M0.33 487.15 C165.69 299.02, 331.46 108.25, 423.53 -0.06 M1.22 512.03 C130.3 363.84, 259.63 215.6, 444.18 0.65 M-0.96 512.62 C122.22 369.98, 244.63 230.07, 445.64 0.86 M-1.45 535.8 C93.17 429.71, 187.25 319.5, 465.02 -0.89 M0.22 536.28 C126.57 394.94, 250.01 252.76, 466.69 -0.33 M0.85 559.22 C99.79 439.15, 202.65 322.97, 488.96 0.27 M0.79 560.35 C131.18 406.86, 264.68 254.92, 487.49 -0.12 M-1.38 584.13 C116.83 457.08, 234.02 325.55, 509.76 0.76 M0.1 584.9 C144.77 418.03, 288.86 252.95, 508.99 -0.38 M0.13 608.85 C188.04 396.2, 374.85 180.88, 530.48 0.83 M0.79 609.18 C208.57 366.8, 417.09 125.77, 529.49 0 M-1.22 634.31 C187.34 420.67, 373.65 205.81, 551.45 -1.12 M-0.17 634 C144.16 468.59, 291.32 298.45, 551.48 -0.97 M1.4 658.97 C113.86 526.42, 232.91 390.28, 574.1 -1.32 M0.63 659.29 C202.44 425.63, 407.16 191.44, 572.54 -0.01 M-1.18 681.73 C201.68 446.59, 407.2 207.56, 594.66 1.49 M0.88 683.28 C221.77 428.17, 442.15 176.26, 593.06 -0.27 M0.49 707.03 C217.7 454, 438.18 202.34, 613.87 0.73 M-0.23 707.06 C186.91 489.19, 372.35 275.84, 614.61 0.42 M-1.24 730.66 C187.81 516.34, 371.66 302.81, 636.91 0.18 M0.45 730.98 C180.37 529.35, 359.05 324.85, 636.34 0 M0.2 755.54 C211.77 513.92, 423.52 271.3, 657.56 -0.89 M-0.59 755.56 C144.45 597.63, 285.44 437.21, 656.56 0.71 M9.35 768.86 C140.14 608.83, 277.38 452.39, 677.46 0.26 M10.09 769.23 C160.56 599.86, 309.26 429.69, 678.86 0.62 M32.14 769.42 C246.56 519.97, 462.08 273.39, 700.34 1.23 M30.73 768.72 C233.76 534.1, 435.62 302.71, 699.81 0.37 M52.77 769.99 C277.31 506.87, 507.11 243.41, 720.01 -1.48 M53.14 768.9 C283.22 498.96, 517.67 230.02, 720.57 0.32 M73.47 768.66 C278 546.74, 473.47 318.17, 743.37 1.24 M73.25 768.74 C215.68 605.75, 361.53 437.02, 742.57 -0.73 M94.38 768.91 C352.12 469.87, 610.12 170.61, 762.38 0.02 M94.89 769.28 C336.64 498.99, 575 223.54, 763.13 -0.32 M117.47 767.74 C319.1 539.11, 521.15 303.91, 783.55 -0.09 M115.78 769.15 C282.33 575.89, 447.98 383.27, 783.95 -0.06 M137.68 769.39 C283.05 590.51, 431.17 418.31, 806.18 -1.14 M137.58 768.19 C318.33 561.62, 496.39 356.36, 805.12 -0.42 M159.53 770.18 C374.18 529.86, 582.08 287.58, 825.69 -0.99 M158.4 769.32 C359.06 526.48, 565.26 288.19, 826.55 0.34 M178.73 769.06 C410.67 493.53, 650.06 221.74, 846.47 1.34 M179.56 769.35 C337.68 582.32, 499.28 394.8, 847.81 0.32 M201.99 768.51 C345.14 597.13, 492.7 430.82, 869.11 1.51 M201.32 768.89 C439.44 495.54, 674.6 226.66, 869.47 0.44 M222.16 769 C423 538.45, 625.49 305.48, 890.46 0.55 M221.69 767.93 C472.03 474, 723.19 184.67, 889.75 0.2 M243.87 770.69 C387.13 606.09, 529.01 441.97, 910.13 0.1 M242.62 768.53 C478.87 489.68, 720.95 210.46, 912.34 0.35 M264.46 768.09 C407.23 612.75, 543.89 457.32, 934.33 0.1 M263.52 768.95 C464.61 537.81, 663.08 307.64, 932.43 0.07 M286.73 768.27 C441.81 587.57, 593.79 412.1, 954.25 -0.26 M285.69 768.53 C526.33 487.2, 769.28 207.69, 954.78 0.5 M306.27 769.59 C448.84 602.68, 588.93 440.91, 975.47 -1.7 M307.49 768.22 C557.36 488.6, 805.14 202.5, 974.95 0.3 M327.5 769.7 C520.93 542.48, 713.57 321.1, 996.33 -0.73 M328.86 768.51 C474.16 610.55, 613.88 449.91, 997.36 -0.8 M348.38 769.68 C538.06 548.58, 731.18 329.54, 1018.21 -1.52 M348.6 768.12 C548.48 543.73, 742.03 320.72, 1018.13 -0.06 M370.7 768.53 C601.54 499.09, 834.82 230, 1039.79 0.96 M371.23 769.21 C631.41 469.46, 892.02 169.23, 1038.34 -0.97 M391.2 767.25 C534.23 603.28, 678.7 436.75, 1060.37 0.21 M391.41 768.11 C589.58 543.1, 785.44 318.6, 1059.04 0.65 M411.84 769.76 C594.76 565.14, 776.73 355.62, 1079.94 1.69 M413.64 768.46 C569.16 588.29, 724.42 411.3, 1081.07 -0.41 M434.1 767.8 C694.68 462.88, 960.61 156.78, 1102.32 -0.57 M435.04 768.76 C659.2 504.11, 886.57 242.42, 1101.65 0.52 M456.54 767.44 C611.29 586.23, 771.19 401.3, 1122.58 -0.47 M455.46 769.14 C642.64 540.28, 837.56 316.95, 1123.79 -0.68 M474.74 768.29 C644.44 579.9, 811.03 389.1, 1146.19 -0.6 M475.65 769.24 C696.15 515.49, 919.96 256.58, 1144.91 0.18 M497.53 767.83 C731.39 494.93, 967.62 227.49, 1167.34 1.46 M497.12 768.78 C735.82 489.78, 977.07 212.65, 1165.29 -0.03 M518.09 770.02 C786.44 464.43, 1052.07 158.61, 1185.7 1.25 M518.69 769.17 C734.48 525.8, 943.81 283.37, 1186.92 -0.24 M539.67 770.37 C683.03 604.42, 827.91 440.07, 1207.02 1.14 M539.54 769.31 C723.14 563.78, 902.3 357.69, 1209.15 0.42 M559.7 770.42 C757.45 551.42, 944.01 332.87, 1231.14 -1.6 M560.6 768.26 C722.09 579.91, 886.26 391.91, 1229.12 -0.31 M583.19 769.01 C819.58 492.78, 1063.09 213.11, 1252.59 -1.08 M581.81 768.81 C765.03 562.93, 947.21 352.7, 1251.86 -0.98 M604.33 769.61 C849.68 486.73, 1102.05 198.4, 1270.96 -1.1 M604.17 768.18 C761.08 591.13, 915.21 414.25, 1273.08 -0.94 M626.32 768.41 C785.6 586.05, 945.37 401.37, 1294.1 -0.68 M625.39 768.06 C814.45 550.33, 999.03 338.35, 1293.4 0.77 M646.1 767.99 C872.96 498.3, 1104.04 235.27, 1312.68 0.6 M646.73 768.47 C856.19 526.7, 1062.74 287.85, 1313.42 -0.41 M667.85 768.66 C801.13 614.57, 933.44 460.74, 1335.32 1.65 M667.07 768.15 C806.39 609.35, 945.08 450.84, 1335.02 -0.14 M687.02 770.12 C879.48 549.67, 1072.91 330.49, 1356.75 0.94 M687.47 768.87 C858.53 574.57, 1031.35 376.67, 1356.47 -0.59 M709.66 769.28 C928.54 518.4, 1145.78 271.24, 1377.01 1.35 M709.49 769.56 C865.29 590.79, 1017.37 416.62, 1378.56 0.23 M730 768.96 C939.98 527.47, 1148.09 288.5, 1399 1.48 M730.08 769.56 C977.96 477.23, 1232.71 185.62, 1398.71 -0.79 M752.95 769.35 C1023.97 463.24, 1286.78 158.99, 1419.54 -0.25 M752.63 769.2 C980.2 510.54, 1205.8 252.29, 1421 -0.28 M771.75 769.62 C993.46 514.78, 1219.66 258.92, 1442.87 -1.53 M774 769.25 C991.27 530.02, 1202.02 287.44, 1442.21 -0.84 M794.3 768.87 C1018.55 517.54, 1240.68 265.13, 1462.2 -1.59 M794.57 768.13 C1038.81 483, 1287.67 197.52, 1463.48 0.48 M814.99 770.24 C1021.91 530.75, 1222.93 301.31, 1482.75 -0.39 M815.46 768.58 C976.48 586.34, 1138.37 398.2, 1484.36 -0.25 M837.89 768.96 C1064.8 501.5, 1293.61 238.38, 1506.48 -0.84 M837.41 768.5 C1099.59 467.72, 1365.27 161.03, 1504.84 -0.69 M858.17 769.28 C1106.36 482.43, 1350.55 202.38, 1525.72 -0.79 M858.01 769.24 C1045.35 554.61, 1226.57 346.84, 1526.8 0.86 M878.87 769.36 C1124.22 479.45, 1371.07 195.32, 1548.91 1.64 M880.16 767.97 C1093.22 519.54, 1304.52 276.86, 1547.41 -0.37 M901.92 768.59 C1101.09 535.17, 1301.05 306.64, 1568.56 0.75 M901.32 769.23 C1070.29 582.2, 1232.58 394.52, 1568.5 0.42 M921.86 769.22 C1105.65 553.91, 1285.72 343.34, 1590.18 0.26 M921.3 768.41 C1097.83 565.02, 1277.14 359.16, 1589.99 0.51 M941.92 767.86 C1138.56 546.84, 1326.71 330.67, 1609.88 -0.96 M942.14 768.34 C1166.7 500.74, 1395.74 237.2, 1611.35 0.45 M964.41 770.49 C1101.47 601.75, 1244.87 437.51, 1631.13 1.55 M964.61 769.7 C1113.88 603.6, 1261.2 434.15, 1631.96 -0.47 M984.41 767.95 C1203.03 517.19, 1416.15 266.94, 1652.64 -0.41 M984.91 768.4 C1167.39 553.09, 1354.01 339.64, 1653.24 -0.65 M1005.85 769.62 C1192.92 551.34, 1381.27 336.97, 1675.44 -1.26 M1007.22 769.47 C1263.38 480.11, 1516.22 188.28, 1674.26 -0.62 M1026.19 769.06 C1183.55 582.93, 1341.65 403.66, 1697.2 0.13 M1028.22 768.18 C1232.28 537.63, 1432.61 306.62, 1697 0.53 M1049.93 767.36 C1228.53 562.62, 1406.22 356.21, 1716.12 -1.9 M1048.65 768.05 C1309.07 469.39, 1566.54 174.01, 1717.18 -0.94 M1070.08 767.64 C1236.81 576.57, 1406.4 384.66, 1738.03 0.29 M1070.64 768.35 C1334.27 473.07, 1594.37 174.92, 1739.15 -0.26 M1091.32 769.52 C1282.45 541.72, 1481.8 315, 1760.46 0.52 M1091.72 769.26 C1299.3 526.13, 1508.27 285.82, 1759.65 0.97 M1111.44 770.03 C1254.42 594.28, 1402.6 424.36, 1779.12 -0.95 M1113.28 769.06 C1290.67 564.46, 1463.19 364.93, 1780.5 0.11 M1134.86 767.74 C1395.09 469.19, 1662.91 163.8, 1800.7 1.65 M1134.61 769.21 C1318.05 556.21, 1497.56 351.04, 1801.91 -0.07 M1153.51 767.56 C1298.3 609.21, 1435.89 446.07, 1823.76 1.42 M1154.31 769.11 C1393.44 490.03, 1638.07 208.68, 1822.35 -0.4 M1175.69 769.08 C1384.76 527.49, 1596.91 285.08, 1845.23 -0.32 M1176.54 769.81 C1443.51 460.53, 1709.68 154.18, 1844.76 0.51 M1197.28 768.75 C1393.85 544.85, 1592.98 320.45, 1864.24 0.49 M1196.38 769.29 C1385.35 548.32, 1578.67 324.58, 1865.77 0.31 M1217.85 767.39 C1434.19 531.56, 1641.05 293.3, 1886.08 -1.31 M1218.85 769.4 C1406.59 551.4, 1591.79 338.4, 1887.37 -0.41 M1240.71 768.62 C1493.17 480.82, 1740.57 197.79, 1906.84 0.07 M1239.52 768.94 C1470.19 494.4, 1707.74 222.81, 1907.78 -0.94 M1260.78 770.21 C1509.99 488, 1758.47 204.31, 1930.19 -0.19 M1261 768.84 C1474.43 525.51, 1688.02 281.8, 1929.85 -0.09 M1281.34 768.1 C1517.14 491.58, 1751.65 219.38, 1952.01 -0.59 M1282.13 769.3 C1421.92 603.8, 1562.61 442.12, 1950.35 -0.66 M1301.9 770.19 C1550.67 481.38, 1803.24 188.64, 1970.04 1.95 M1303.27 768.54 C1542.41 488.36, 1786.57 207.57, 1970.96 -0.32 M1325.3 768.37 C1572.29 489.23, 1817.6 209.8, 1993.66 0.36 M1325.13 767.92 C1485.75 575.22, 1651.46 385.44, 1993.32 0.88 M1345.61 768.25 C1575.23 496.35, 1812 228.65, 2014.99 -1.16 M1346.04 769.16 C1544.86 540.91, 1747.14 309.45, 2013.96 0.67 M1368.05 767.66 C1604.16 493.59, 1838.25 224.72, 2034.65 1.17 M1367.18 768.2 C1626.16 472.52, 1886.86 172.89, 2035.4 -0.19 M1386.59 767.88 C1523.95 606.7, 1661.71 447.03, 2055.39 -0.49 M1387.58 769.19 C1543.89 586.98, 1704.44 403.74, 2056.28 0.04 M1409.74 768.38 C1587.4 570.45, 1763.66 365.52, 2076.41 0.98 M1408.79 768.97 C1600.83 543.19, 1796.22 318.06, 2078.28 -0.4 M1431.64 768.98 C1689.1 459.54, 1952.8 154.87, 2100.42 -0.31 M1429.82 768.36 C1650.67 509.72, 1872.2 255.89, 2098.51 0.03 M1451.44 767.76 C1640.78 553.78, 1830.18 338.07, 2121.57 0.06 M1451.77 769.49 C1683.2 506.72, 1913.62 240.35, 2119.62 0.05 M1473.33 769.15 C1649.28 568.88, 1827.02 364.91, 2142.17 -1.45 M1472.88 768.9 C1716.83 494.69, 1955.11 219.89, 2140.59 -0.83 M1494.42 768.74 C1760.17 465.7, 2023.83 159.76, 2163.73 0.5 M1493.7 769.13 C1676.8 553.02, 1861.48 341.34, 2162.01 -0.38 M1515.05 770.28 C1704.53 543.71, 1901.1 319.2, 2184.52 -1.29 M1516.04 769.39 C1738.53 511.66, 1962.94 251.56, 2183.35 0.28 M1536.32 767.33 C1676.8 609.64, 1810.3 452.52, 2205.97 0.61 M1536.93 769.2 C1761.56 503.67, 1991.35 238.23, 2204.31 1.01 M1557.55 769.75 C1728 564.93, 1902.44 366.2, 2226.42 0.61 M1557.12 768.66 C1768.66 523.78, 1984.09 276.29, 2226.32 -0.02 M1580.18 769.41 C1799.62 513.95, 2020.29 261, 2247.47 1.48 M1579.92 768.88 C1812.33 500.69, 2043.14 234.8, 2247.47 0.14 M1598.9 769.93 C1779.51 551.36, 1964.58 337.76, 2267.73 -0.54 M1600.46 769.05 C1863.56 465.82, 2129.99 159.96, 2268.72 0.13 M1620.88 769.07 C1762.35 606.72, 1906.32 445.1, 2289.23 -1.29 M1621.43 769.19 C1762.49 603.87, 1900.66 444.16, 2288.98 0.24 M1643.49 769.44 C1884.75 490.23, 2120.59 215.7, 2307.14 4.69 M1641.85 769.08 C1837.42 546.91, 2029.58 325.04, 2305.72 4.79 M1663.86 767.96 C1863.02 542.5, 2054.16 321.48, 2307.84 28.05 M1663.1 768.34 C1917.77 472.16, 2172.38 180.54, 2306.37 28.73 M1685.42 769.68 C1832.87 599.9, 1979.71 426.38, 2307.63 55.19 M1684.01 768.53 C1897.3 522.3, 2114.4 273.06, 2306.8 54.76 M1705.12 770.27 C1858.85 592.5, 2015.72 412.49, 2304.97 78.22 M1705.51 769.49 C1891.93 558.93, 2073.95 349.49, 2306.56 78.83 M1726.96 769.73 C1938.11 517.19, 2152.59 272.43, 2305.87 104.68 M1727.79 768.09 C1942.23 519.82, 2154.91 274.69, 2305.9 103.24 M1749.87 770.08 C1954.25 531.67, 2163.85 288.73, 2307.37 126.81 M1749.24 768.14 C1892.26 596.1, 2040.52 425.94, 2306.75 127.83 M1768.41 769.82 C1935.44 575.64, 2107.64 378.09, 2306.48 150.12 M1770.03 767.98 C1969.54 540.29, 2166.89 312.48, 2306.88 150.74 M1792.68 768.1 C1971.27 562.1, 2150.61 355.41, 2306.06 176.06 M1790.99 768.82 C1968.2 558.85, 2146.8 353.93, 2305.6 176.14 M1813.8 768.78 C1988.95 560.99, 2167.38 356.34, 2307.86 200.61 M1812.48 768.69 C1913.33 646.99, 2017.09 527.16, 2306.15 199.5 M1833.45 768.53 C1967.41 610.91, 2103.28 456.18, 2305.44 223.68 M1833.19 769.18 C2003.34 579.78, 2168.84 388.23, 2306.71 224.43 M1854.26 768.08 C1986.26 611, 2123.44 456.91, 2306.13 250.41 M1854.79 768.55 C2026.8 570.65, 2201.95 369.39, 2306.2 248.97 M1876.79 770.12 C2009.38 608.15, 2147.41 447.23, 2307.25 272.43 M1875.34 768.67 C1969.61 665.42, 2060.54 560.67, 2305.79 273.62 M1896.24 768.74 C1996.8 654.73, 2094.43 538.36, 2305.29 297.99 M1897.07 768.69 C1991.64 660.48, 2084.04 553.59, 2306.63 298.82 M1918.62 769.67 C1996.11 678.02, 2074.05 587.38, 2304.82 322.94 M1918.21 768.77 C2071.35 593.04, 2225.27 417.58, 2305.72 322.6 M1938.37 769.54 C2020.68 673.85, 2101.04 579.94, 2305.12 348.5 M1939.21 769.58 C2041.61 649.36, 2146.54 528.71, 2306.33 346.63 M1961.46 769.63 C2060.09 656.52, 2155.9 544.7, 2306.08 370.37 M1959.96 769.48 C2068.76 645.5, 2176.67 522.21, 2305.97 371.15 M1980.46 770.36 C2103.94 624.95, 2224.69 484.06, 2304.28 394.45 M1981.87 768 C2100.13 631.88, 2220.63 495.67, 2305.1 395.8 M2004.39 768.82 C2108.65 649.54, 2213.25 526.22, 2305.37 418.93 M2003.58 767.82 C2089.61 669.17, 2178.68 567.22, 2306.52 420.35 M2022.6 769.87 C2131.94 644.2, 2236.83 526.11, 2307.95 444.03 M2024.22 769.21 C2105.46 673.39, 2189.75 577.13, 2305.89 443.6 M2044.37 769.76 C2144.21 655.35, 2245.02 537.99, 2307.34 469.91 M2046.62 768.84 C2098.85 703.69, 2155.64 638.84, 2306.9 468.88 M2066.77 767.23 C2160.26 663.3, 2246.75 558.98, 2307.52 491.04 M2067.47 768.5 C2147.2 670.79, 2229.61 578.25, 2306.1 492.43 M2089.72 767.61 C2134.45 713.75, 2181.39 660.57, 2305 518.05 M2087.84 768.47 C2147.91 698.52, 2210.12 627.19, 2306.09 517.5 M2110.24 766.29 C2166.52 703.24, 2219.86 636.68, 2304.69 543.83 M2107.49 769.73 C2183.67 677.06, 2262.53 586.02, 2305.22 542.21 M2130.51 770.48 C2170.74 718.04, 2207.3 672.7, 2306.45 562.93 M2129.7 767.77 C2175.65 718.71, 2218.35 669.29, 2306.58 567.53 M2151.55 768.15 C2197.37 716.19, 2241.78 657.13, 2307.12 591.76 M2150.16 767.58 C2184.26 731.14, 2215.72 695.75, 2306.73 589.43 M2173.1 767.11 C2217.49 719.77, 2258.51 674.56, 2303.03 611.61 M2172.14 767.44 C2222.54 710.04, 2272.91 654.17, 2306.96 613.52 M2194.98 766.18 C2233.27 721.12, 2273.09 677.9, 2309.46 640.63 M2195.14 768.77 C2228.01 727.02, 2264.75 684.06, 2307.1 638.65 M2218.48 770.98 C2237.96 742.18, 2265.28 713.24, 2309.11 660.65 M2214.32 769.92 C2240.48 743.4, 2264.93 714.42, 2307.89 664.67 M2232.73 771.2 C2254 743.39, 2278.11 721.62, 2308.23 691.06 M2238.13 770.42 C2260.52 738.05, 2285.62 711, 2307.68 686.72 M2256.12 767.82 C2271.13 755.06, 2274.55 747.75, 2302.59 710.9 M2257.48 768.34 C2270.45 754.6, 2285.38 739.79, 2305.26 714.42 M2282.1 767.07 C2281.43 757.57, 2293.52 752.56, 2304.73 738.54 M2278.78 769.07 C2288.3 757.48, 2299.8 744.82, 2307.03 738.28" stroke="#eeeeee" stroke-width="2" fill="none"></path><path d="M-0.25 0.39 C632.59 7.75, 1262.88 7.08, 2299.88 -1.01 M0.78 -0.66 C525.13 0.04, 1052.28 0.4, 2299.87 -0.42 M2299.84 0.96 C2297.04 256.09, 2294.35 510.52, 2299.53 759.58 M2300.24 0.42 C2297.89 181.69, 2298.98 364.86, 2299.96 760.02 M2300.42 758.91 C1839.96 752.82, 1377.05 753.19, -0.73 758.97 M2300.23 759.58 C1478.52 776.72, 655.46 776.64, -0.2 760.37 M0.28 759.95 C4.72 522.91, 3.72 283.94, -0.22 0.73 M0.7 759.27 C-1.23 518.54, -1.13 276.28, -0.18 -0.06" stroke="#000000" stroke-width="4" fill="none"></path></g><g stroke-linecap="round" transform="translate(190 90) rotate(0 1780 340)"><path d="M0 0 C0 0, 0 0, 0 0 M0 0 C0 0, 0 0, 0 0 M-3.53 27.49 C6.82 19.75, 18.73 11.54, 18.69 1.44 M-1.67 25.62 C5.5 19.32, 14.37 12.14, 20.06 1.76 M2.97 49.31 C15.24 25.83, 35.18 13.46, 42.18 0.86 M0.26 47.59 C9.65 37.14, 23.46 25.35, 43.39 -1.87 M0.81 71.58 C17.24 55.55, 29.73 37.1, 62.46 -1.17 M-1.4 72.22 C19.47 52.33, 39.39 26.57, 64.79 -1.22 M2.04 99.53 C20.25 78.1, 38.48 53.99, 88.4 -1.09 M-0.91 98.1 C17.62 75.29, 35.1 56.4, 83.08 0.34 M1.95 119.16 C34.14 92.12, 61.03 53.87, 109.25 0.73 M-1.18 122.85 C39.19 70.68, 83.34 25.15, 108.01 1.29 M0.14 144.78 C31.82 103.56, 66.31 65.74, 127.64 2.94 M-1.16 145.26 C44.59 98.37, 83.85 50.89, 128.66 -0.3 M-3.14 170.96 C35.39 134.19, 67.89 93.43, 148.06 2.16 M-0.69 171.78 C36.54 124.9, 76.1 80.81, 149.06 -0.78 M1.73 196.3 C65.45 117.24, 131.59 41.88, 167.11 1.09 M1.71 195.67 C65.02 126.11, 127.25 52.43, 170.04 1.31 M-1.64 217.26 C63.07 149.22, 126.63 74.36, 191.07 -1.67 M0.16 218.88 C47.78 159.69, 99.97 101.67, 191.78 -1.28 M-2.68 241.89 C71.31 166.24, 138.94 85.08, 211.41 -1.87 M-0.22 244.69 C48.84 192.54, 94.9 138.75, 212.08 -1.18 M-0.92 265.87 C58.19 203.77, 118.38 134.67, 231.44 -0.61 M-0.16 269.15 C95.26 165.44, 187.61 58.79, 233.01 -1.26 M-0.57 290.72 C54.79 228.43, 108.17 163.73, 253.97 -1.23 M0.01 292.05 C80.26 202.81, 158.9 113.49, 255.31 -1.21 M-1.42 316.41 C76.06 231.1, 149.33 143.68, 277.79 1.49 M0.57 316.22 C72.4 231.13, 145.57 146.62, 275.09 -0.34 M0.51 343.42 C61.49 267.06, 123.13 196.05, 296.21 -0.53 M-1 341.17 C60.17 269.98, 121.43 200.62, 296.13 0.7 M-1.31 365.37 C76.91 280.35, 152.76 189.4, 318.04 -0.86 M-0.64 365.24 C108.42 244.44, 214.84 121.27, 318.33 -0.85 M-0.19 389.5 C89.31 284.68, 181.07 180.64, 339.39 0.25 M0.04 390.52 C134.5 235.74, 269.86 79.54, 339.73 -0.63 M0.25 413.21 C113.01 286.02, 222.12 157.03, 360.41 0.13 M0.71 414.52 C102.82 292.58, 208.78 170.6, 359.92 0.97 M0.14 437.23 C147.7 273.64, 291.37 107.77, 381.14 0.87 M-0.42 439.47 C128.85 293.39, 253.86 149.4, 380.89 0.49 M-1.08 464.99 C135.94 308.28, 268.87 153.66, 401.6 1.77 M0.43 463.53 C110.61 343.2, 216.98 220.39, 402.15 0.8 M1.4 487.91 C142.98 322.83, 287.05 158.23, 425.11 0.53 M0.71 487.9 C148.71 313.32, 301.68 139.15, 423.74 0.4 M0.4 511.57 C131.95 358.01, 265.47 203.34, 445.5 1.23 M-0.46 512 C91.23 409.73, 182.58 304.37, 444.49 -0.62 M-1.31 537.71 C165.76 345.7, 333.21 152.88, 467.04 -0.72 M0.25 535.83 C183.68 325.34, 364.75 116.89, 467.21 -0.28 M-1.27 560.89 C151.35 386.05, 299.99 213.63, 489.15 1.52 M-0.22 560.75 C152.63 390.4, 303.8 215.14, 487.98 -0.7 M-1.11 586.26 C137.69 423.05, 274.97 261.25, 510.28 -1.72 M-0.85 585.99 C127.98 436.83, 256.19 288.26, 509.4 0.19 M-0.65 609.03 C190.66 384.16, 383.78 160.02, 531.78 -0.48 M-0.56 609.93 C107.64 478.81, 217.87 353.03, 529.81 -0.55 M-1.79 633.43 C183.19 426.1, 365.35 217.68, 552.29 0.52 M-0.72 634.14 C179.9 430.68, 359.15 225.24, 551.76 -0.97 M0.6 658.02 C112.49 528.12, 231.4 392.39, 571.55 -1.24 M0.52 659.29 C203.29 419.82, 407.79 184.58, 572.86 -0.22 M0.16 680.29 C233.16 414.86, 461.78 153.13, 593.68 -1.19 M2.22 681.28 C185.42 474.29, 365.41 267.03, 593.59 0.89 M23.67 679.7 C184.13 496.33, 342.01 315.39, 614.5 0.58 M22.65 681.63 C168.08 506.39, 319.04 333.05, 613.92 0.47 M43.98 679.48 C228.02 466.32, 415.2 251.19, 634.33 1.55 M44 680.81 C181.64 518.99, 318.75 362.22, 636.29 0.42 M64.07 681.14 C249.34 469.11, 435.54 256.55, 658.02 1.07 M65.74 680.17 C204.04 526.21, 341.62 368.13, 657.45 0.54 M84.6 682.37 C215.51 530.55, 343.32 385.36, 679.12 -1.17 M86.33 680.88 C246.91 492.98, 412.36 303.4, 677.83 -0.37 M107.2 681.3 C234.86 540.9, 362.05 391.48, 699.66 -1.11 M107.95 681.27 C253.16 505.42, 402.82 332.51, 698.85 0.7 M128.12 681.93 C361.41 417.73, 594.36 150.01, 721.34 1.06 M128.11 681.67 C340.06 440.17, 548.52 199.17, 720.13 0.04 M151.07 682.45 C363.12 431.27, 579.4 182.78, 742.98 -1.45 M149.23 681.82 C341.37 461.43, 530.96 242.72, 741.54 0.42 M171.28 680.05 C382.7 429.47, 602.03 179.23, 764.44 1.29 M170.38 681.89 C346.04 478.04, 521.12 276.78, 763.66 0.23 M192.24 681.42 C349.24 495.26, 513.28 306.5, 784.1 -1.58 M192.51 681.28 C345.91 501.91, 500.83 323.53, 785.04 0.23 M213.56 681.29 C381.99 484.77, 548.58 290.78, 805.99 0.82 M214.16 680.57 C383.57 492.68, 550.19 301.95, 805.81 -0.92 M234.9 682.5 C444.52 434.53, 656.32 192.19, 827.01 1.1 M235.06 681.82 C438.32 443.98, 644.03 207.93, 825.94 0.88 M256.64 680.89 C430.53 479, 605.17 279.59, 846.68 0.35 M256.6 681 C386.55 534.25, 517.41 383.29, 848.24 -0.32 M277.4 682.23 C488.45 435, 699.02 192.08, 870.25 0.74 M277.49 681.08 C448.76 487.3, 615.65 296.9, 868.53 0.35 M297.93 680.71 C513.26 432.13, 727.12 185.4, 889.7 0.18 M298.98 681.19 C509.97 437.43, 723.2 191.25, 889.89 -0.06 M317.96 682.98 C507.59 461.81, 697.47 240.64, 912.51 0.42 M319.89 680.93 C554.76 407.95, 790.93 137.05, 911.26 -0.04 M339.53 680.45 C509.49 483.92, 678.73 288.85, 933.63 1.51 M339.65 680.92 C502.29 493.07, 667.98 303.59, 932.68 0.32 M360.54 680.29 C497.96 526, 631.57 371.49, 955.32 -0.47 M361.23 681.26 C518.66 498.05, 680.16 312.22, 954.15 -0.28 M384.47 680.96 C532.55 504.73, 689.49 326.68, 975.07 0.25 M383.04 682.04 C550.65 487.25, 719.48 292.98, 976.08 -0.83 M404.46 680.21 C606.61 446.55, 811.92 208.67, 995.93 0.88 M403.45 681.28 C579.4 474.26, 759.4 267.18, 996.54 -0.85 M426.35 682.43 C602.62 475.65, 785.63 266.31, 1017.55 0.54 M426.14 681.68 C558.02 521.79, 695.01 365.03, 1018.12 -0.05 M447.05 680.3 C618.52 482.58, 792.58 281.47, 1040.15 1.16 M446.06 681.35 C645.19 451.87, 844.36 223.79, 1038.73 0.43 M467.99 681.33 C618.68 512.04, 767.38 340.4, 1061.3 -0.46 M467.53 680.55 C639.08 481.69, 815.67 278.76, 1059.47 0.72 M489.42 679.94 C707.67 424.3, 929.14 170.8, 1082.49 1.24 M488.69 680.48 C637.48 519.19, 781.78 352.94, 1081.24 -0.44 M511.14 680.78 C721.83 442.03, 928.55 205.79, 1102.67 0.39 M509.92 680.39 C741.63 407.27, 978 136.13, 1102.91 0.77 M533.18 680.41 C664.6 526.87, 797.11 373.58, 1124.77 -0.02 M531.11 681.16 C731.71 456.37, 927.72 231.2, 1122.73 -0.63 M552.66 681.73 C704.94 501.63, 860.42 327.14, 1146.18 0.74 M553.06 681.59 C780.79 416.34, 1012.48 151.07, 1144.57 0.32 M573.49 682.34 C801.45 419.49, 1030.37 155.42, 1165.81 -1.22 M574.15 682.12 C779.1 448.32, 984.48 210.3, 1165.57 -0.38 M593.53 679.88 C753.7 502.35, 909.52 324.32, 1187.98 -0.65 M594.83 681.74 C742.44 508.68, 891.98 337.59, 1187.77 -0.88 M617.57 682.78 C809.84 458.07, 1004.78 236.29, 1207.2 -1.49 M615.94 681.69 C768.83 495.97, 924.88 315.82, 1208.95 0.4 M638.1 679.87 C788.95 509.04, 941.75 333.19, 1231.16 0.02 M636.84 681.79 C818 468.79, 999.42 259.98, 1229.54 0.38 M658.47 679.69 C788.97 524.85, 923.26 372.81, 1249.51 0.28 M659.15 680.75 C839.34 480.99, 1014.54 278.33, 1251.38 -0.35 M680.74 682.61 C886.59 441.74, 1097.58 199.73, 1272.94 -1.2 M680.7 681.38 C805.84 537.68, 927.71 396.96, 1271.84 -0.4 M700.01 681.72 C918.9 431.94, 1139.32 177.94, 1291.61 -0.16 M700.85 681.28 C876.18 485.91, 1048.42 287.73, 1293.2 0.36 M721.14 679.7 C888.79 494.79, 1051.08 307.97, 1313.67 0.74 M722.52 681.25 C925.93 451.7, 1128.56 218.35, 1314.51 -0.3 M743.4 680.17 C963.43 421.74, 1187.07 165.25, 1336.45 0.5 M743.03 680.76 C940.97 462.36, 1132.92 241.83, 1336.1 -0.47 M764.39 682.15 C985.59 429.43, 1203.75 177.56, 1356.18 0.89 M764.16 681.6 C897.94 519.04, 1035.75 360.52, 1356.28 0.01 M786.5 681.74 C1004.11 427.12, 1218.56 179.95, 1377.61 -1.51 M785.55 680.89 C969.05 464.33, 1155.38 250.04, 1377.49 0.69 M807.42 682.79 C1028.34 421.13, 1257.69 158.34, 1398.71 -1.6 M806.14 681.27 C1002.27 450.85, 1200.57 221.24, 1398.81 -0.78 M826.52 679.92 C1054.7 420.55, 1278.8 163.36, 1421.03 -0.87 M828.75 681.36 C952.62 540.67, 1077.4 397.76, 1421.17 -0.29 M848.12 682.04 C1031.96 474.52, 1210.41 268.82, 1440.7 -0.08 M848.67 681.11 C995.24 509.92, 1141.4 340.67, 1441.39 0.3 M872.03 681.93 C1094.37 429.71, 1317.74 176.63, 1462.03 -1.6 M871.14 681.24 C1105.03 410.37, 1337.36 141.36, 1462.26 -0.1 M890.95 679.62 C1076.97 463.97, 1264.72 247.78, 1485.33 1.15 M892.52 680.49 C1059.79 490.54, 1229.92 295.15, 1484.99 0.13 M913.63 680.06 C1047.54 529.35, 1178.74 377.77, 1504.48 -1.07 M913.61 680.69 C1076.43 490.49, 1245.36 297.62, 1504.82 -0.72 M933.55 681.18 C1063.86 537.5, 1194.53 387.65, 1526.09 0.4 M933.64 680.74 C1119.62 467.9, 1307.89 252.46, 1526.87 -0.19 M955.25 681.26 C1135.53 464.61, 1318.54 255.19, 1547.32 1.14 M955.57 681.75 C1152.36 453.41, 1349.06 226.72, 1546.76 0.88 M975.76 679.78 C1117.92 524.24, 1259.55 363.85, 1568.57 -1.25 M976.91 681.02 C1170.21 453.61, 1368.34 226.92, 1567.98 0.05 M998.17 681.53 C1195.93 449.15, 1397.28 217.19, 1590.43 0.26 M998.16 680.34 C1133.55 528.13, 1268.86 373.65, 1590.5 0.16 M1018.86 682.3 C1137.72 537.93, 1260.08 397.03, 1610.55 1.43 M1019.46 680.75 C1172.47 500.61, 1329.66 320.12, 1610.63 -0.71 M1040.39 682.69 C1239.45 453.65, 1436.52 225.54, 1633.88 0.41 M1040.39 681.42 C1211.59 480.79, 1383.93 284.99, 1632.61 0.68 M1061.89 680.8 C1286.94 422.52, 1508.93 163.2, 1654.22 -1.29 M1061.34 681.35 C1281.73 430.92, 1503.05 176.22, 1653.11 0.3 M1082.38 682.91 C1216.71 532.55, 1351.97 379.09, 1674.11 -1.17 M1081.76 681.53 C1239.55 493.38, 1400.59 307.9, 1674.44 -0.03 M1104.04 682.68 C1236.77 529.23, 1370.26 378.08, 1695.92 -1.23 M1103.15 681.18 C1261.41 510.84, 1413.35 335.7, 1695.42 -0.27 M1126.45 681.31 C1283.83 500.97, 1438.13 323.05, 1716.15 -0.63 M1124.72 681.37 C1339.48 434.11, 1555.87 183.28, 1718.25 -0.21 M1147.34 682 C1279.74 528.72, 1407.09 383.2, 1738.93 -1.21 M1147.05 680.52 C1291.12 512.19, 1437.23 345.18, 1739.32 -0.71 M1166.47 681.28 C1295.51 541.17, 1418.38 398.73, 1760.09 0.54 M1167.71 681.17 C1400.78 406.93, 1636.33 136.62, 1758.61 0.57 M1189.54 679.49 C1347.89 505.51, 1505.97 327.66, 1780.03 1.78 M1188.15 680.73 C1317.35 537.25, 1441.46 393.55, 1781.19 0.14 M1209.68 681.68 C1421.17 438.89, 1628.59 197.5, 1800.56 -1.22 M1210.9 681.42 C1341.23 533.4, 1472.59 382.56, 1802.54 -0.08 M1229.9 680.08 C1390.85 494.87, 1553.79 307.84, 1821.73 0.74 M1231.41 681.79 C1438.67 443.25, 1645.94 205, 1822.75 -0.18 M1250.42 680.77 C1426.75 481.21, 1597.41 286.43, 1845.17 -0.51 M1252.31 682.04 C1453.54 458.26, 1650.59 230.13, 1844.83 0.41 M1271.8 680.29 C1504.18 424.71, 1727.67 165.4, 1865.1 -0.83 M1273.51 680.9 C1503.18 413.21, 1736.2 145.36, 1865.46 0.05 M1295.12 682.78 C1487.21 456.28, 1677.63 235.64, 1888.32 1.14 M1295.28 680.97 C1444.2 503.4, 1599.02 325.78, 1886.67 0.11 M1315.58 682.35 C1510.83 460.6, 1703.51 239.23, 1909.23 -1.53 M1316.45 681.8 C1451.89 532.54, 1582.87 383.42, 1908.34 0.44 M1336.02 680.06 C1507.28 486.28, 1680.05 286.54, 1929.79 -0.75 M1336.48 681.87 C1552.2 429.74, 1768.03 180.4, 1930.16 -0.23 M1358.02 681.58 C1524.64 496.43, 1686.15 308.66, 1950.56 -1.32 M1359.05 680.53 C1492.44 525.19, 1629.21 369.75, 1950.56 -0.73 M1379.37 682.08 C1583.34 455.52, 1779.23 226.47, 1970.82 -0.05 M1379.77 681.55 C1521.99 518.98, 1665.03 356.58, 1971.26 0.4 M1401.21 679.96 C1517.35 545.03, 1633.76 409.02, 1991.82 -0.72 M1401.01 680.64 C1611.78 432.99, 1822.55 189.54, 1992.35 0.68 M1422.33 680.93 C1611.86 472.38, 1796.47 258.27, 2013.59 0.97 M1422.75 680.26 C1609.23 464.26, 1797.68 247.22, 2013.63 0.18 M1443.03 679.72 C1623.38 484.19, 1800.07 282.01, 2035.05 -0.71 M1443.01 680.32 C1609.73 486.02, 1775.25 295.58, 2034.44 0.4 M1465.2 680.92 C1582.93 542.03, 1703.42 404.92, 2057.26 -0.67 M1464.07 680.91 C1619.11 505.95, 1776.76 324.8, 2056.7 0.64 M1486.03 680.88 C1703.83 425.3, 1923.37 172.93, 2077.69 -1.33 M1485.94 681.22 C1610.21 539.26, 1729.3 401.43, 2077.32 -0.1 M1507.58 682.73 C1674.51 480.63, 1844.7 284.14, 2097.38 1.15 M1506.08 681.21 C1728.63 429.56, 1951.21 172.87, 2098.27 0.45 M1527.28 681.46 C1669.44 511.43, 1817.81 344.05, 2121.57 -1.52 M1527.24 682.18 C1689.76 500.13, 1849.04 318.7, 2120.63 0.17 M1547.63 681.58 C1775.61 419.77, 2003.98 156.85, 2141.27 0.02 M1549.29 681.41 C1780.74 419.58, 2011.93 153.1, 2141.86 -0.67 M1570.44 682 C1785.36 432.4, 1999.69 185.66, 2162.69 -1.58 M1569.65 680.58 C1774.96 446.26, 1981.6 208.94, 2162.58 -0.71 M1591.16 680.16 C1716.01 534.74, 1841.14 393.42, 2182.39 -0.64 M1591.78 681.26 C1753.9 491.76, 1913.55 306.11, 2183.92 -0.31 M1612.38 682.51 C1836.81 424.44, 2057.87 167.96, 2203.31 0.78 M1612.75 680.53 C1765.27 507.81, 1918.18 332.12, 2204.02 1.15 M1634.9 679.82 C1867 411.57, 2101.32 143.28, 2225.3 0.39 M1633.37 680.83 C1769.19 528.68, 1900.84 375.78, 2225.97 0.97 M1655.29 680.08 C1859.19 445.37, 2067.16 206.62, 2248.25 1.07 M1655.4 680.81 C1851.79 448.9, 2053.02 218.27, 2246.29 -0.34 M1676.13 680.58 C1857.74 472.13, 2038.7 264.41, 2269.06 -0.86 M1677.2 680.42 C1843.01 485.15, 2010.57 293.07, 2267.62 -0.19 M1696.49 682.38 C1921.51 421.34, 2146.29 164.4, 2288.07 -1.12 M1696.74 682.03 C1856.04 494.65, 2017.13 309.83, 2288.91 0.86 M1718.44 681.82 C1833.34 543.84, 1950.67 405.23, 2309.74 0.54 M1717.87 681.38 C1909.26 465.61, 2097.94 247.58, 2310.65 -0.6 M1740.61 682.29 C1953.71 433.38, 2166.9 186.69, 2330.58 1.32 M1740.42 682.02 C1898.13 496.92, 2058.44 314.89, 2332.16 0.73 M1761.52 682.54 C1924.05 499.6, 2087.24 315.72, 2352.6 -0.59 M1761.69 681.48 C1905.76 521.99, 2049.13 357.56, 2353.6 0.04 M1782.84 681.57 C1912.86 536.97, 2039.27 393.05, 2374.49 1.34 M1782.63 681.93 C1949.71 493.32, 2114.18 305.13, 2374.85 0.32 M1803.66 682.66 C1932.59 537.26, 2057.23 392.29, 2395.45 0.43 M1803.5 681 C2031.84 415.9, 2259.33 153.48, 2395.95 -0.08 M1824.4 681.51 C1990.45 494.03, 2149.33 308.96, 2415.91 0.14 M1824.33 681.65 C2049.27 421.75, 2273.38 163.61, 2417.53 -0.67 M1847.54 679.96 C1993.04 518.21, 2136.37 351.9, 2437.59 -0.32 M1845.35 681.37 C2037.42 459.9, 2229.17 238.15, 2437.44 0.64 M1868.66 680.44 C2034.79 489.64, 2198.22 299.09, 2460.41 1.52 M1867.45 680.53 C2098.73 417.45, 2330.11 151.21, 2458.6 0.11 M1889.99 680.5 C2061.8 483.95, 2233.88 286.54, 2479.25 0.82 M1887.81 681.09 C2051.23 491.82, 2213.77 305.74, 2480.71 1.03 M1908.31 680.12 C2027.61 544.94, 2147.24 405.33, 2500.09 -0.72 M1909.99 680.6 C2070.47 501.17, 2226.92 321, 2501.76 -0.17 M1930.96 680.14 C2051.46 534.11, 2176.17 392.8, 2524.04 0.44 M1930.89 681.27 C2089.6 494.79, 2251.59 310.07, 2522.56 0.04 M1950.38 680.15 C2087.99 531.9, 2223.84 378.9, 2544.83 0.92 M1951.85 680.92 C2120.2 486.74, 2287.8 294.6, 2544.06 -0.21 M1972.88 680.71 C2182.77 443.04, 2391.58 202.41, 2565.56 1 M1973.54 681.05 C2205.78 410.12, 2438.91 140.78, 2564.56 0.17 M1993.17 681.27 C2195.61 451.78, 2395.55 221.25, 2586.52 -0.95 M1994.23 680.96 C2149.23 503.28, 2307.22 320.67, 2586.55 -0.8 M2016.79 681.78 C2133.19 544.69, 2256.27 403.9, 2609.17 -1.15 M2016.02 682.1 C2224.78 440.46, 2436.52 198.2, 2607.61 0.16 M2035.21 680.39 C2237.85 445.52, 2443.14 206.75, 2630.39 0.91 M2037.26 681.94 C2257.91 427.11, 2478.04 175.48, 2628.79 -0.85 M2058.53 680.79 C2267.84 436.91, 2480.34 194.43, 2649.6 0.15 M2057.81 680.81 C2238.16 470.83, 2416.86 265.24, 2650.33 -0.16 M2077.79 680.27 C2253.86 480.9, 2424.95 282.05, 2671.98 0.35 M2079.47 680.59 C2246.89 492.88, 2413.23 302.59, 2671.41 0.17 M2100.87 680.24 C2291.21 462.72, 2481.87 244.37, 2692.64 -0.73 M2100.08 680.26 C2230.61 538.18, 2357.68 393.76, 2691.63 0.88 M2121.19 680.73 C2236.84 539.15, 2358.48 400.66, 2712.53 0.43 M2121.92 681.1 C2255.1 531.12, 2386.76 380.55, 2713.93 0.79 M2143.97 681.28 C2333.62 460.35, 2524.56 242.04, 2735.42 1.4 M2142.56 680.59 C2322.28 472.91, 2500.99 268.15, 2734.88 0.54 M2163.95 682.61 C2362.84 449.2, 2566.38 215.94, 2755.08 -1.31 M2164.31 681.52 C2368.14 442.31, 2575.94 204.02, 2755.64 0.48 M2184.65 681.28 C2366.06 484.7, 2539.07 281.98, 2778.44 1.41 M2184.43 681.37 C2310.74 537, 2439.89 387.48, 2777.64 -0.56 M2205.55 681.53 C2434.13 416.59, 2662.52 151.38, 2797.46 0.19 M2206.07 681.9 C2420.31 442.39, 2631.53 198.18, 2798.2 -0.15 M2228.65 680.37 C2407.09 478.01, 2586.12 269.3, 2818.62 0.08 M2226.95 681.78 C2374.66 510.56, 2521.34 339.77, 2819.02 0.11 M2248.85 682.01 C2377.77 523.28, 2508.8 370.74, 2841.25 -0.97 M2248.76 680.81 C2408.98 497.75, 2566.68 315.9, 2840.2 -0.25 M2270.71 682.8 C2461.09 469.48, 2645.29 254.47, 2861.41 -1.58 M2269.57 681.94 C2447.57 466.49, 2630.45 255.02, 2862.28 -0.24 M2289.91 681.69 C2495.62 437.06, 2708.14 196.19, 2882.2 0.75 M2290.73 681.97 C2431.11 516.05, 2574.4 349.59, 2883.54 -0.27 M2313.17 681.13 C2439.76 529.23, 2570.76 381.99, 2904.18 1.68 M2312.49 681.51 C2523.46 439.21, 2731.89 201.07, 2904.54 0.61 M2333.34 681.62 C2511.27 477.28, 2690.6 270.96, 2925.54 0.72 M2332.86 680.55 C2554.72 420.1, 2777.23 163.72, 2924.82 0.37 M2355.71 682.56 C2482.57 536.5, 2607.85 391.48, 2945.2 0.27 M2354.46 680.4 C2563.58 433.66, 2777.87 186.41, 2947.41 0.52 M2376.3 679.96 C2502.72 542.44, 2623.65 405.11, 2969.41 0.27 M2375.35 680.82 C2553.44 476.27, 2729.05 272.4, 2967.5 0.24 M2397.91 680.89 C2535.18 520.79, 2669.75 365.35, 2989.32 -0.09 M2396.87 681.15 C2610.06 431.97, 2825.38 184.23, 2989.86 0.67 M2417.44 682.21 C2543.75 534.14, 2667.88 390.73, 3010.54 -1.53 M2418.67 680.85 C2640 433.21, 2859.6 179.53, 3010.03 0.47 M2438.67 682.32 C2610.15 480.78, 2780.76 284.75, 3031.41 -0.56 M2440.03 681.13 C2568.72 541.13, 2692.51 398.82, 3032.43 -0.63 M2459.55 682.3 C2627.69 486.3, 2799.06 292.28, 3053.28 -1.35 M2459.77 680.74 C2637.02 481.93, 2808.42 284.39, 3053.2 0.11 M2481.88 681.15 C2686.48 442.48, 2893.23 203.9, 3074.87 1.13 M2482.4 681.83 C2712.96 416.2, 2943.84 150.17, 3073.41 -0.8 M2502.38 679.87 C2629.31 534.6, 2757.48 386.82, 3096.1 -0.37 M2502.59 680.73 C2678.36 481.14, 2852.18 282, 3094.77 0.07 M2523.01 682.38 C2685.28 500.83, 2846.76 314.89, 3115.66 1.11 M2524.82 681.08 C2662.7 521.25, 2800.5 364.35, 3116.8 -0.99 M2545.28 680.43 C2776.15 410.17, 3011.71 139.02, 3137.4 -0.4 M2546.22 681.38 C2744.82 446.84, 2946.31 214.94, 3136.73 0.69 M2567.71 680.06 C2704.85 519.63, 2846.48 355.71, 3157.66 -0.3 M2566.64 681.76 C2732.44 478.87, 2905.29 280.93, 3158.86 -0.51 M2586.57 680.16 C2737.11 513.59, 2884.59 344.78, 3181.26 -0.44 M2587.48 681.11 C2782.78 456.55, 2980.81 227.29, 3179.98 0.35 M2609.36 679.7 C2816.29 438.2, 3025.61 201.71, 3202.42 1.62 M2608.95 680.64 C2820.26 433.79, 3033.92 188.39, 3200.36 0.14 M2629.26 682.64 C2866.97 411.81, 3102.52 140.6, 3220.77 1.42 M2629.87 681.79 C2821.17 466.13, 3006.61 251.19, 3221.99 -0.07 M2650.85 682.99 C2778.03 535.68, 2906.47 390.23, 3242.1 1.31 M2650.72 681.93 C2813.39 499.81, 2972.23 317.1, 3244.22 0.59 M2670.87 683.04 C2846.47 488.86, 3011.45 295.13, 3266.21 -1.43 M2671.78 680.88 C2814.95 514.12, 2960.53 347.52, 3264.19 -0.14 M2694.37 681.63 C2903.66 436.94, 3119.46 189.16, 3287.66 -0.91 M2692.99 681.43 C2855.5 498.99, 3016.81 312.77, 3286.93 -0.81 M2715.51 682.24 C2932.74 431.59, 3156.59 176.06, 3306.03 -0.93 M2715.35 680.81 C2854.38 523.92, 2990.96 367.23, 3308.15 -0.77 M2737.5 681.03 C2878.5 519.29, 3020.22 355.38, 3329.83 -1.27 M2736.57 680.68 C2904.31 487.56, 3067.98 299.64, 3329.13 0.19 M2757.28 680.61 C2958.38 441.34, 3163.4 208.29, 3348.41 0.02 M2757.91 681.09 C2943.73 466.57, 3126.8 254.73, 3349.15 -1 M2779.03 681.29 C2897.21 544.8, 3014.26 408.52, 3370.39 1.82 M2778.24 680.77 C2901.67 540.11, 3024.63 399.68, 3370.1 0.03 M2798.85 681.98 C2969.31 486.58, 3140.66 292.81, 3391.82 1.11 M2799.3 680.74 C2950.81 508.73, 3103.79 333.66, 3391.54 -0.42 M2821.49 681.15 C3015.11 458.9, 3207.56 240.24, 3412.09 1.52 M2821.33 681.42 C2959.22 523.06, 3093.88 368.92, 3413.63 0.4 M2841.83 680.83 C3027.65 467.07, 3211.98 255.45, 3434.07 1.65 M2841.91 681.43 C3061.32 422.62, 3286.92 164.55, 3433.79 -0.62 M2864.12 681.97 C3104.32 410.6, 3336.9 141.12, 3454.61 -0.08 M2863.8 681.82 C3065.31 452.49, 3265.23 223.78, 3456.08 -0.11 M2882.93 682.24 C3079.47 456.18, 3280.18 229.63, 3477.95 -1.36 M2885.17 681.88 C3077.71 469.81, 3264.4 254.91, 3477.29 -0.67 M2905.47 681.5 C3104.08 458.65, 3301.12 235.1, 3497.28 -1.42 M2905.74 680.75 C3122.14 428.08, 3342.72 175.13, 3498.56 0.65 M2926.17 682.87 C3109.79 470.29, 3287.81 267.3, 3517.82 -0.22 M2926.63 681.2 C3069.44 519.78, 3212.82 352.93, 3519.43 -0.08 M2949.06 681.58 C3150.17 444.54, 3352.93 211.37, 3541.55 -0.67 M2948.58 681.13 C3180.84 414.66, 3416.27 142.76, 3539.92 -0.52 M2969.35 681.9 C3189.35 427.5, 3405.67 179.51, 3560.79 -0.62 M2969.18 681.87 C3135.24 491.58, 3295.8 307.57, 3561.87 1.03 M2990.04 681.98 C3199.67 434.22, 3410.1 191.98, 3562.33 26.72 M2991.33 680.6 C3173.14 468.57, 3353.43 261.56, 3560.83 24.71 M3013.09 681.21 C3176.43 489.26, 3341.03 301.41, 3560.99 49.97 M3012.5 681.85 C3151.46 527.92, 3284.64 373.73, 3560.92 49.64 M3033.69 681.09 C3178.89 510.98, 3320.36 344.81, 3560.96 74.39 M3033.13 680.28 C3172.43 519.96, 3313.98 357.53, 3560.77 74.64 M3053.75 679.73 C3203.17 512.37, 3345.52 348.88, 3559.66 97.32 M3053.97 680.21 C3224.3 477.5, 3397.72 277.95, 3561.13 98.74 M3076.24 682.35 C3175.65 559.53, 3279.81 440.44, 3559.93 123.98 M3076.45 681.57 C3184.72 560.89, 3291.81 437.72, 3560.75 121.96 M3095.59 680.58 C3248.05 506.93, 3395.41 332.32, 3559.79 146.92 M3096.08 681.03 C3223.11 531.46, 3352.83 383.47, 3560.38 146.68 M3117.03 682.24 C3240.88 537.37, 3366.41 395.28, 3561.59 170.23 M3118.4 682.09 C3288.09 489.9, 3455.65 296.17, 3560.41 170.87 M3137.37 681.68 C3236.87 563.79, 3337.22 450.96, 3561.7 196.53 M3139.39 680.8 C3267.86 535.83, 3394.26 389.86, 3561.49 196.93 M3161.1 679.98 C3268.38 557.78, 3374.31 433.92, 3559.62 218.65 M3159.82 680.67 C3315.8 501.7, 3470.2 324.88, 3560.68 219.6 M3181.26 680.26 C3275.62 571.64, 3372.78 463.05, 3560.54 244.98 M3181.82 680.97 C3331.29 513.4, 3479.49 343.98, 3561.66 244.43 M3202.49 682.14 C3304.43 559.46, 3411.88 438.46, 3561.98 269.36 M3202.9 681.89 C3314.25 551.33, 3426.55 422.22, 3561.16 269.82 M3222.61 682.66 C3295.01 593.65, 3370.07 507.85, 3559.64 292.05 M3224.46 681.68 C3314.13 578.21, 3400.96 477.26, 3561.02 293.1 M3246.11 680.31 C3367.61 540.58, 3495.97 395.85, 3559.48 319.67 M3245.83 681.89 C3332.35 580.19, 3417.13 484.1, 3560.79 317.82 M3265.11 679.09 C3331.04 611.67, 3390.02 537.94, 3561.78 343.75 M3266.08 680.97 C3371.28 558.36, 3479.58 433.84, 3560.07 341.54 M3287.46 680.95 C3372.27 581.75, 3460.78 482.15, 3561.75 366.52 M3288.61 681.93 C3396.95 554.22, 3505.65 428.95, 3561.12 367.64 M3309.19 680.49 C3381.8 595.52, 3459.54 513.01, 3558.8 391.85 M3307.85 681.29 C3378.78 598.28, 3451 513.2, 3561.06 391.59 M3328.7 679.05 C3406.5 598.8, 3475.45 519.01, 3559.81 413.22 M3330.31 682.29 C3394.98 605.34, 3459.08 531.67, 3561.9 414.66 M3352.68 681.05 C3431.89 588.69, 3507.65 504.28, 3558.44 440.42 M3350.61 681.6 C3420.83 594.53, 3496.72 510.17, 3560.08 438.65 M3371.84 684.06 C3440.85 601.37, 3513.22 522.19, 3562.47 464.16 M3372.26 681.49 C3432.03 612.69, 3494.43 544.65, 3561.82 464.37 M3391.68 680.08 C3452.34 609.85, 3507.68 541.28, 3563.3 488.34 M3393.27 682.5 C3428.63 638.54, 3463.59 598.66, 3559.96 488.21 M3411.32 684.58 C3467.22 621.71, 3521.15 554.95, 3558.2 516.38 M3414.27 681.01 C3465.6 620.36, 3519.05 559.05, 3560.18 511.49 M3437.4 680.65 C3482.98 626.9, 3531.87 577.57, 3563.93 537.2 M3436.98 679.53 C3463.87 643.66, 3494.75 610.27, 3563.08 538.52 M3456.29 680.45 C3489.4 636.95, 3532.02 599.63, 3563.71 558.42 M3457.37 682.72 C3486.29 647.62, 3519.72 612.25, 3561.15 563 M3480.49 679.07 C3508.65 643.43, 3538.74 609.84, 3559.98 588.49 M3478.32 680.43 C3508.87 644.62, 3542.63 606.46, 3561.86 585.1 M3496.6 677.85 C3513.3 663.1, 3520.68 651.63, 3558.3 609.36 M3499.06 681.13 C3514.32 662.98, 3528.78 649.96, 3560.53 610.67 M3522.57 679.2 C3532.04 670.17, 3541.18 654.25, 3557.96 637.29 M3520.2 680.68 C3530.69 669.04, 3544.37 652.41, 3562.63 633.84 M3545.43 680.8 C3549.45 670.02, 3555.27 660.03, 3565.1 658.31 M3540.88 679.25 C3548.36 672.54, 3555.47 666.85, 3560.34 659.16" stroke="#eeeeee" stroke-width="2" fill="none"></path><path d="M-0.49 -0.02 C1309.58 -20.29, 2620.84 -20.27, 3559.12 0.13 M0.42 -0.79 C1140.54 -16.46, 2282 -15.81, 3560.56 -0.25 M3559.48 1.46 C3562.66 149.97, 3561.71 301.49, 3560.09 678.74 M3560.72 0.02 C3559.86 225.18, 3561.02 451.15, 3560.39 680.54 M3560.82 678.41 C2418.26 662.14, 1278.39 662.63, -0.49 681.55 M3559.73 680.04 C2748.01 661.12, 1934.39 660.25, 0.22 679.51 M0.58 679.84 C5.02 464.43, 4.22 246.21, -0.43 -0.58 M0.68 679.27 C-3.08 517.08, -1.58 352.98, 0.52 -0.07" stroke="#000000" stroke-width="4" fill="none"></path></g><g transform="translate(50 830) rotate(0 64 21.5)"><text x="0" y="35" font-family="Cascadia, Segoe UI Emoji" font-size="36px" fill="#000000" text-anchor="start" style="white-space: pre;" direction="ltr">aenter</text></g><g stroke-linecap="round" transform="translate(270 830) rotate(0 220 50)"><path d="M25 0 M25 0 C165.23 0, 305.45 0, 415 0 M25 0 C177.2 0, 329.4 0, 415 0 M415 0 C431.67 0, 440 8.33, 440 25 M415 0 C431.67 0, 440 8.33, 440 25 M440 25 C440 43.17, 440 61.35, 440 75 M440 25 C440 35.94, 440 46.87, 440 75 M440 75 C440 91.67, 431.67 100, 415 100 M440 75 C440 91.67, 431.67 100, 415 100 M415 100 C319.07 100, 223.13 100, 25 100 M415 100 C317.22 100, 219.43 100, 25 100 M25 100 C8.33 100, 0 91.67, 0 75 M25 100 C8.33 100, 0 91.67, 0 75 M0 75 C0 58.62, 0 42.23, 0 25 M0 75 C0 59.6, 0 44.19, 0 25 M0 25 C0 8.33, 8.33 0, 25 0 M0 25 C0 8.33, 8.33 0, 25 0" stroke="#343a40" stroke-width="4" fill="none"></path></g><g transform="translate(275 837) rotate(0 215 43)"><text x="215" y="35" font-family="Cascadia, Segoe UI Emoji" font-size="36px" fill="#343a40" text-anchor="middle" style="white-space: pre;" direction="ltr">Spawn scheduler </text><text x="215" y="78" font-family="Cascadia, Segoe UI Emoji" font-size="36px" fill="#343a40" text-anchor="middle" style="white-space: pre;" direction="ltr">thread</text></g><g stroke-linecap="round" transform="translate(270 490) rotate(0 220 58)"><path d="M29 0 M29 0 C174.5 0, 320 0, 411 0 M29 0 C111.73 0, 194.46 0, 411 0 M411 0 C430.33 0, 440 9.67, 440 29 M411 0 C430.33 0, 440 9.67, 440 29 M440 29 C440 48.74, 440 68.48, 440 87 M440 29 C440 50.16, 440 71.32, 440 87 M440 87 C440 106.33, 430.33 116, 411 116 M440 87 C440 106.33, 430.33 116, 411 116 M411 116 C328.71 116, 246.41 116, 29 116 M411 116 C307.23 116, 203.45 116, 29 116 M29 116 C9.67 116, 0 106.33, 0 87 M29 116 C9.67 116, 0 106.33, 0 87 M0 87 C0 69.21, 0 51.42, 0 29 M0 87 C0 63.95, 0 40.9, 0 29 M0 29 C0 9.67, 9.67 0, 29 0 M0 29 C0 9.67, 9.67 0, 29 0" stroke="#343a40" stroke-width="4" fill="none"></path></g><g transform="translate(275 526.5) rotate(0 215 21.5)"><text x="215" y="35" font-family="Cascadia, Segoe UI Emoji" font-size="36px" fill="#343a40" text-anchor="middle" style="white-space: pre;" direction="ltr">Try to acquire lock</text></g><g stroke-linecap="round"><g transform="translate(490 809.1666666666661) rotate(0 0 -89.08333333333303)"><path d="M0 0 C0 -29.69, 0 -148.47, 0 -178.17 M0 0 C0 -29.69, 0 -148.47, 0 -178.17" stroke="#000000" stroke-width="4" fill="none"></path></g><g transform="translate(490 809.1666666666661) rotate(0 0 -89.08333333333303)"><path d="M10.26 -149.98 C7.76 -156.85, 5.25 -163.73, 0 -178.17 M10.26 -149.98 C8.17 -155.72, 6.08 -161.46, 0 -178.17" stroke="#000000" stroke-width="4" fill="none"></path></g><g transform="translate(490 809.1666666666661) rotate(0 0 -89.08333333333303)"><path d="M-10.26 -149.98 C-7.76 -156.85, -5.25 -163.73, 0 -178.17 M-10.26 -149.98 C-8.17 -155.72, -6.08 -161.46, 0 -178.17" stroke="#000000" stroke-width="4" fill="none"></path></g></g><g stroke-linecap="round"><g transform="translate(490 470) rotate(0 0 -90)"><path d="M0 0 C0 -30, 0 -150, 0 -180 M0 0 C0 -30, 0 -150, 0 -180" stroke="#000000" stroke-width="4" fill="none"></path></g><g transform="translate(490 470) rotate(0 0 -90)"><path d="M10.26 -151.81 C6.27 -162.76, 2.29 -173.71, 0 -180 M10.26 -151.81 C7.03 -160.67, 3.81 -169.54, 0 -180" stroke="#000000" stroke-width="4" fill="none"></path></g><g transform="translate(490 470) rotate(0 0 -90)"><path d="M-10.26 -151.81 C-6.27 -162.76, -2.29 -173.71, 0 -180 M-10.26 -151.81 C-7.03 -160.67, -3.81 -169.54, 0 -180" stroke="#000000" stroke-width="4" fill="none"></path></g></g><g transform="translate(370 350) rotate(0 42.5 21.5)"><text x="0" y="35" font-family="Cascadia, Segoe UI Emoji" font-size="36px" fill="#a61e4d" text-anchor="start" style="white-space: pre;" direction="ltr">fail</text></g><g transform="translate(450 210) rotate(0 42.5 21.5)"><text x="0" y="35" font-family="Cascadia, Segoe UI Emoji" font-size="36px" fill="#000000" text-anchor="start" style="white-space: pre;" direction="ltr">exit</text></g><g stroke-linecap="round"><g transform="translate(750 550) rotate(0 130 0)"><path d="M0 0 C43.33 0, 216.67 0, 260 0 M0 0 C43.33 0, 216.67 0, 260 0" stroke="#000000" stroke-width="4" fill="none"></path></g><g transform="translate(750 550) rotate(0 130 0)"><path d="M231.81 10.26 C239.97 7.29, 248.13 4.32, 260 0 M231.81 10.26 C239.43 7.49, 247.04 4.72, 260 0" stroke="#000000" stroke-width="4" fill="none"></path></g><g transform="translate(750 550) rotate(0 130 0)"><path d="M231.81 -10.26 C239.97 -7.29, 248.13 -4.32, 260 0 M231.81 -10.26 C239.43 -7.49, 247.04 -4.72, 260 0" stroke="#000000" stroke-width="4" fill="none"></path></g></g><g transform="translate(810 490) rotate(0 74.5 21.5)"><text x="0" y="35" font-family="Cascadia, Segoe UI Emoji" font-size="36px" fill="#087f5b" text-anchor="start" style="white-space: pre;" direction="ltr">succeed</text></g><g stroke-linecap="round" transform="translate(1070 490) rotate(0 220 70)"><path d="M35 0 M35 0 C151.02 0, 267.04 0, 405 0 M35 0 C111.72 0, 188.44 0, 405 0 M405 0 C428.33 0, 440 11.67, 440 35 M405 0 C428.33 0, 440 11.67, 440 35 M440 35 C440 54.64, 440 74.29, 440 105 M440 35 C440 60.86, 440 86.72, 440 105 M440 105 C440 128.33, 428.33 140, 405 140 M440 105 C440 128.33, 428.33 140, 405 140 M405 140 C318.42 140, 231.84 140, 35 140 M405 140 C320.33 140, 235.66 140, 35 140 M35 140 C11.67 140, 0 128.33, 0 105 M35 140 C11.67 140, 0 128.33, 0 105 M0 105 C0 85.5, 0 65.99, 0 35 M0 105 C0 85.89, 0 66.77, 0 35 M0 35 C0 11.67, 11.67 0, 35 0 M0 35 C0 11.67, 11.67 0, 35 0" stroke="#343a40" stroke-width="4" fill="none"></path></g><g transform="translate(1075 517) rotate(0 215 43)"><text x="215" y="35" font-family="Cascadia, Segoe UI Emoji" font-size="36px" fill="#343a40" text-anchor="middle" style="white-space: pre;" direction="ltr">Retrieve bucket </text><text x="215" y="78" font-family="Cascadia, Segoe UI Emoji" font-size="36px" fill="#343a40" text-anchor="middle" style="white-space: pre;" direction="ltr">state </text></g><g stroke-linecap="round" transform="translate(1790 490) rotate(0 220 58)"><path d="M29 0 M29 0 C177.5 0, 326 0, 411 0 M29 0 C116.28 0, 203.55 0, 411 0 M411 0 C430.33 0, 440 9.67, 440 29 M411 0 C430.33 0, 440 9.67, 440 29 M440 29 C440 52.08, 440 75.15, 440 87 M440 29 C440 50.83, 440 72.66, 440 87 M440 87 C440 106.33, 430.33 116, 411 116 M440 87 C440 106.33, 430.33 116, 411 116 M411 116 C323.58 116, 236.15 116, 29 116 M411 116 C301.59 116, 192.17 116, 29 116 M29 116 C9.67 116, 0 106.33, 0 87 M29 116 C9.67 116, 0 106.33, 0 87 M0 87 C0 73.97, 0 60.95, 0 29 M0 87 C0 67.61, 0 48.21, 0 29 M0 29 C0 9.67, 9.67 0, 29 0 M0 29 C0 9.67, 9.67 0, 29 0" stroke="#343a40" stroke-width="4" fill="none"></path></g><g transform="translate(1795 505) rotate(0 215 43)"><text x="215" y="35" font-family="Cascadia, Segoe UI Emoji" font-size="36px" fill="#343a40" text-anchor="middle" style="white-space: pre;" direction="ltr">Assign a slot to </text><text x="215" y="78" font-family="Cascadia, Segoe UI Emoji" font-size="36px" fill="#343a40" text-anchor="middle" style="white-space: pre;" direction="ltr">each node</text></g><g transform="translate(2250 150) rotate(0 116.5 21.5)"><text x="116.5" y="35" font-family="Cascadia, Segoe UI Emoji" font-size="36px" fill="#087f5b" text-anchor="middle" style="white-space: pre;" direction="ltr">queue empty</text></g><g stroke-linecap="round" transform="translate(2530 470) rotate(0 220 58)"><path d="M29 0 M29 0 C137.53 0, 246.07 0, 411 0 M29 0 C136.69 0, 244.38 0, 411 0 M411 0 C430.33 0, 440 9.67, 440 29 M411 0 C430.33 0, 440 9.67, 440 29 M440 29 C440 49.38, 440 69.77, 440 87 M440 29 C440 43.78, 440 58.57, 440 87 M440 87 C440 106.33, 430.33 116, 411 116 M440 87 C440 106.33, 430.33 116, 411 116 M411 116 C291.05 116, 171.09 116, 29 116 M411 116 C263.33 116, 115.66 116, 29 116 M29 116 C9.67 116, 0 106.33, 0 87 M29 116 C9.67 116, 0 106.33, 0 87 M0 87 C0 74.5, 0 62, 0 29 M0 87 C0 67.31, 0 47.63, 0 29 M0 29 C0 9.67, 9.67 0, 29 0 M0 29 C0 9.67, 9.67 0, 29 0" stroke="#343a40" stroke-width="4" fill="none"></path></g><g transform="translate(2535 506.5) rotate(0 215 21.5)"><text x="215" y="35" font-family="Cascadia, Segoe UI Emoji" font-size="36px" fill="#343a40" text-anchor="middle" style="white-space: pre;" direction="ltr">Save bucket state</text></g><g stroke-linecap="round" transform="translate(3230 470) rotate(0 220 58)"><path d="M29 0 M29 0 C178.02 0, 327.03 0, 411 0 M29 0 C155.25 0, 281.5 0, 411 0 M411 0 C430.33 0, 440 9.67, 440 29 M411 0 C430.33 0, 440 9.67, 440 29 M440 29 C440 49.28, 440 69.55, 440 87 M440 29 C440 51.89, 440 74.79, 440 87 M440 87 C440 106.33, 430.33 116, 411 116 M440 87 C440 106.33, 430.33 116, 411 116 M411 116 C334.47 116, 257.94 116, 29 116 M411 116 C270.52 116, 130.05 116, 29 116 M29 116 C9.67 116, 0 106.33, 0 87 M29 116 C9.67 116, 0 106.33, 0 87 M0 87 C0 71.1, 0 55.2, 0 29 M0 87 C0 71.65, 0 56.3, 0 29 M0 29 C0 9.67, 9.67 0, 29 0 M0 29 C0 9.67, 9.67 0, 29 0" stroke="#343a40" stroke-width="4" fill="none"></path></g><g transform="translate(3235 506.5) rotate(0 215 21.5)"><text x="215" y="35" font-family="Cascadia, Segoe UI Emoji" font-size="36px" fill="#343a40" text-anchor="middle" style="white-space: pre;" direction="ltr">Release lock</text></g><g stroke-linecap="round" transform="translate(1770 170) rotate(0 220 58)"><path d="M29 0 M29 0 C163.69 0, 298.38 0, 411 0 M29 0 C118.67 0, 208.34 0, 411 0 M411 0 C430.33 0, 440 9.67, 440 29 M411 0 C430.33 0, 440 9.67, 440 29 M440 29 C440 51.89, 440 74.78, 440 87 M440 29 C440 47.54, 440 66.09, 440 87 M440 87 C440 106.33, 430.33 116, 411 116 M440 87 C440 106.33, 430.33 116, 411 116 M411 116 C298.85 116, 186.7 116, 29 116 M411 116 C314.19 116, 217.38 116, 29 116 M29 116 C9.67 116, 0 106.33, 0 87 M29 116 C9.67 116, 0 106.33, 0 87 M0 87 C0 67.54, 0 48.08, 0 29 M0 87 C0 72.96, 0 58.92, 0 29 M0 29 C0 9.67, 9.67 0, 29 0 M0 29 C0 9.67, 9.67 0, 29 0" stroke="#343a40" stroke-width="4" fill="none"></path></g><g transform="translate(1775 206.5) rotate(0 215 21.5)"><text x="215" y="35" font-family="Cascadia, Segoe UI Emoji" font-size="36px" fill="#343a40" text-anchor="middle" style="white-space: pre;" direction="ltr">Get n queued nodes</text></g><g transform="translate(1650 330) rotate(0 127 43)"><text x="127" y="35" font-family="Cascadia, Segoe UI Emoji" font-size="36px" fill="#1864ab" text-anchor="middle" style="white-space: pre;" direction="ltr">nodes left</text><text x="127" y="78" font-family="Cascadia, Segoe UI Emoji" font-size="36px" fill="#1864ab" text-anchor="middle" style="white-space: pre;" direction="ltr">in the queue</text></g><g stroke-linecap="round"><g transform="translate(2010 470) rotate(0 0 -70)"><path d="M0 0 C0 -23.33, 0 -116.67, 0 -140 M0 0 C0 -23.33, 0 -116.67, 0 -140" stroke="#000000" stroke-width="4" fill="none"></path></g><g transform="translate(2010 470) rotate(0 0 -70)"><path d="M10.26 -111.81 C8.13 -117.67, 5.99 -123.53, 0 -140 M10.26 -111.81 C7.74 -118.73, 5.22 -125.66, 0 -140" stroke="#000000" stroke-width="4" fill="none"></path></g><g transform="translate(2010 470) rotate(0 0 -70)"><path d="M-10.26 -111.81 C-8.13 -117.67, -5.99 -123.53, 0 -140 M-10.26 -111.81 C-7.74 -118.73, -5.22 -125.66, 0 -140" stroke="#000000" stroke-width="4" fill="none"></path></g></g><g stroke-linecap="round"><g transform="translate(1950 330) rotate(0 0 70)"><path d="M0 0 C0 23.33, 0 116.67, 0 140 M0 0 C0 23.33, 0 116.67, 0 140" stroke="#000000" stroke-width="4" fill="none"></path></g><g transform="translate(1950 330) rotate(0 0 70)"><path d="M-10.26 111.81 C-7.97 118.11, -5.67 124.42, 0 140 M-10.26 111.81 C-6.51 122.12, -2.76 132.42, 0 140" stroke="#000000" stroke-width="4" fill="none"></path></g><g transform="translate(1950 330) rotate(0 0 70)"><path d="M10.26 111.81 C7.97 118.11, 5.67 124.42, 0 140 M10.26 111.81 C6.51 122.12, 2.76 132.42, 0 140" stroke="#000000" stroke-width="4" fill="none"></path></g></g><g stroke-linecap="round"><g transform="translate(2990 530.0000238513312) rotate(0 110 -0.000005611042979580816)"><path d="M0 0 C36.67 0, 183.33 0, 220 0 M0 0 C36.67 0, 183.33 0, 220 0" stroke="#000000" stroke-width="4" fill="none"></path></g><g transform="translate(2990 530.0000238513312) rotate(0 110 -0.000005611042979580816)"><path d="M191.81 10.26 C202.03 6.54, 212.25 2.82, 220 0 M191.81 10.26 C200.48 7.1, 209.16 3.95, 220 0" stroke="#000000" stroke-width="4" fill="none"></path></g><g transform="translate(2990 530.0000238513312) rotate(0 110 -0.000005611042979580816)"><path d="M191.81 -10.26 C202.03 -6.54, 212.25 -2.82, 220 0 M191.81 -10.26 C200.48 -7.1, 209.16 -3.95, 220 0" stroke="#000000" stroke-width="4" fill="none"></path></g></g><g transform="translate(3410 190) rotate(0 42.499999999999545 21.499999999999773)"><text x="42.499999999999645" y="34.999999999999645" font-family="Cascadia, Segoe UI Emoji" font-size="35.9999999999997px" fill="#000000" text-anchor="middle" style="white-space: pre;" direction="ltr">exit</text></g><g transform="translate(1850 10) rotate(0 169.5 21.5)"><text x="169.5" y="35" font-family="Cascadia, Segoe UI Emoji" font-size="36px" fill="#000000" text-anchor="middle" style="white-space: pre;" direction="ltr">Scheduler thread</text></g><g stroke-linecap="round"><g transform="translate(490 950) rotate(0 0 70)"><path d="M0 0 C0 23.33, 0 116.67, 0 140 M0 0 C0 23.33, 0 116.67, 0 140" stroke="#000000" stroke-width="4" fill="none"></path></g><g transform="translate(490 950) rotate(0 0 70)"><path d="M-10.26 111.81 C-7.92 118.25, -5.57 124.69, 0 140 M-10.26 111.81 C-7.5 119.38, -4.75 126.95, 0 140" stroke="#000000" stroke-width="4" fill="none"></path></g><g transform="translate(490 950) rotate(0 0 70)"><path d="M10.26 111.81 C7.92 118.25, 5.57 124.69, 0 140 M10.26 111.81 C7.5 119.38, 4.75 126.95, 0 140" stroke="#000000" stroke-width="4" fill="none"></path></g></g><g stroke-linecap="round" transform="translate(270 1130) rotate(0 220 48)"><path d="M24 0 M24 0 C158.49 0, 292.97 0, 416 0 M24 0 C129.28 0, 234.56 0, 416 0 M416 0 C432 0, 440 8, 440 24 M416 0 C432 0, 440 8, 440 24 M440 24 C440 36.44, 440 48.87, 440 72 M440 24 C440 41.41, 440 58.81, 440 72 M440 72 C440 88, 432 96, 416 96 M440 72 C440 88, 432 96, 416 96 M416 96 C329.28 96, 242.55 96, 24 96 M416 96 C273.24 96, 130.48 96, 24 96 M24 96 C8 96, 0 88, 0 72 M24 96 C8 96, 0 88, 0 72 M0 72 C0 61.15, 0 50.29, 0 24 M0 72 C0 53.48, 0 34.95, 0 24 M0 24 C0 8, 8 0, 24 0 M0 24 C0 8, 8 0, 24 0" stroke="#343a40" stroke-width="4" fill="none"></path></g><g transform="translate(275 1135) rotate(0 215 43)"><text x="215" y="35" font-family="Cascadia, Segoe UI Emoji" font-size="36px" fill="#343a40" text-anchor="middle" style="white-space: pre;" direction="ltr">Enter queue and </text><text x="215" y="78" font-family="Cascadia, Segoe UI Emoji" font-size="36px" fill="#343a40" text-anchor="middle" style="white-space: pre;" direction="ltr">sleep a little</text></g><g stroke-linecap="round"><g transform="translate(730 1170) rotate(0 90 0)"><path d="M0 0 C30 0, 150 0, 180 0 M0 0 C30 0, 150 0, 180 0" stroke="#000000" stroke-width="4" fill="none"></path></g><g transform="translate(730 1170) rotate(0 90 0)"><path d="M151.81 10.26 C163.08 6.16, 174.36 2.05, 180 0 M151.81 10.26 C159.83 7.34, 167.85 4.42, 180 0" stroke="#000000" stroke-width="4" fill="none"></path></g><g transform="translate(730 1170) rotate(0 90 0)"><path d="M151.81 -10.26 C163.08 -6.16, 174.36 -2.05, 180 0 M151.81 -10.26 C159.83 -7.34, 167.85 -4.42, 180 0" stroke="#000000" stroke-width="4" fill="none"></path></g></g><g stroke-linecap="round" transform="translate(950 1130) rotate(0 220 40)"><path d="M20 0 M20 0 C172.36 0, 324.72 0, 420 0 M20 0 C132.56 0, 245.12 0, 420 0 M420 0 C433.33 0, 440 6.67, 440 20 M420 0 C433.33 0, 440 6.67, 440 20 M440 20 C440 31.61, 440 43.22, 440 60 M440 20 C440 34.45, 440 48.9, 440 60 M440 60 C440 73.33, 433.33 80, 420 80 M440 60 C440 73.33, 433.33 80, 420 80 M420 80 C264.28 80, 108.55 80, 20 80 M420 80 C260.45 80, 100.9 80, 20 80 M20 80 C6.67 80, 0 73.33, 0 60 M20 80 C6.67 80, 0 73.33, 0 60 M0 60 C0 50.59, 0 41.19, 0 20 M0 60 C0 48.89, 0 37.77, 0 20 M0 20 C0 6.67, 6.67 0, 20 0 M0 20 C0 6.67, 6.67 0, 20 0" stroke="#343a40" stroke-width="4" fill="none"></path></g><g transform="translate(955 1148.5) rotate(0 215 21.5)"><text x="215" y="35" font-family="Cascadia, Segoe UI Emoji" font-size="36px" fill="#343a40" text-anchor="middle" style="white-space: pre;" direction="ltr">Check for slot</text></g><g stroke-linecap="round"><g transform="translate(1430 1170) rotate(0 90 0)"><path d="M0 0 C30 0, 150 0, 180 0 M0 0 C30 0, 150 0, 180 0" stroke="#000000" stroke-width="4" fill="none"></path></g><g transform="translate(1430 1170) rotate(0 90 0)"><path d="M151.81 10.26 C157.67 8.13, 163.53 6, 180 0 M151.81 10.26 C159.18 7.58, 166.56 4.89, 180 0" stroke="#000000" stroke-width="4" fill="none"></path></g><g transform="translate(1430 1170) rotate(0 90 0)"><path d="M151.81 -10.26 C157.67 -8.13, 163.53 -6, 180 0 M151.81 -10.26 C159.18 -7.58, 166.56 -4.89, 180 0" stroke="#000000" stroke-width="4" fill="none"></path></g></g><g transform="translate(1450 1110) rotate(0 53 21.5)"><text x="53" y="35" font-family="Cascadia, Segoe UI Emoji" font-size="36px" fill="#087f5b" text-anchor="middle" style="white-space: pre;" direction="ltr">found</text></g><g stroke-linecap="round" transform="translate(1670 1130) rotate(0 220 40)"><path d="M20 0 M20 0 C166.5 0, 312.99 0, 420 0 M20 0 C153.36 0, 286.72 0, 420 0 M420 0 C433.33 0, 440 6.67, 440 20 M420 0 C433.33 0, 440 6.67, 440 20 M440 20 C440 34.47, 440 48.95, 440 60 M440 20 C440 32.42, 440 44.85, 440 60 M440 60 C440 73.33, 433.33 80, 420 80 M440 60 C440 73.33, 433.33 80, 420 80 M420 80 C297.85 80, 175.69 80, 20 80 M420 80 C339.45 80, 258.9 80, 20 80 M20 80 C6.67 80, 0 73.33, 0 60 M20 80 C6.67 80, 0 73.33, 0 60 M0 60 C0 49.06, 0 38.12, 0 20 M0 60 C0 51.02, 0 42.03, 0 20 M0 20 C0 6.67, 6.67 0, 20 0 M0 20 C0 6.67, 6.67 0, 20 0" stroke="#343a40" stroke-width="4" fill="none"></path></g><g transform="translate(1675 1148.5) rotate(0 215 21.5)"><text x="215" y="35" font-family="Cascadia, Segoe UI Emoji" font-size="36px" fill="#343a40" text-anchor="middle" style="white-space: pre;" direction="ltr">Sleep until slot</text></g><g stroke-linecap="round"><g transform="translate(2150 1170) rotate(0 90 0)"><path d="M0 0 C30 0, 150 0, 180 0 M0 0 C30 0, 150 0, 180 0" stroke="#000000" stroke-width="4" fill="none"></path></g><g transform="translate(2150 1170) rotate(0 90 0)"><path d="M151.81 10.26 C161.11 6.88, 170.4 3.49, 180 0 M151.81 10.26 C158.35 7.88, 164.9 5.5, 180 0" stroke="#000000" stroke-width="4" fill="none"></path></g><g transform="translate(2150 1170) rotate(0 90 0)"><path d="M151.81 -10.26 C161.11 -6.88, 170.4 -3.49, 180 0 M151.81 -10.26 C158.35 -7.88, 164.9 -5.5, 180 0" stroke="#000000" stroke-width="4" fill="none"></path></g></g><g transform="translate(2370 1150) rotate(0 42.5 21.5)"><text x="42.5" y="35" font-family="Cascadia, Segoe UI Emoji" font-size="36px" fill="#000000" text-anchor="middle" style="white-space: pre;" direction="ltr">exit</text></g><g transform="translate(810 1290) rotate(0 95.5 21.5)"><text x="95.5" y="35" font-family="Cascadia, Segoe UI Emoji" font-size="36px" fill="#a61e4d" text-anchor="middle" style="white-space: pre;" direction="ltr">not found</text></g><g stroke-linecap="round" transform="translate(590 1490) rotate(0 240 90)"><path d="M45 0 M45 0 C193.2 0, 341.39 0, 435 0 M45 0 C170.85 0, 296.7 0, 435 0 M435 0 C465 0, 480 15, 480 45 M435 0 C465 0, 480 15, 480 45 M480 45 C480 72.47, 480 99.94, 480 135 M480 45 C480 66.31, 480 87.63, 480 135 M480 135 C480 165, 465 180, 435 180 M480 135 C480 165, 465 180, 435 180 M435 180 C288.94 180, 142.88 180, 45 180 M435 180 C287.78 180, 140.57 180, 45 180 M45 180 C15 180, 0 165, 0 135 M45 180 C15 180, 0 165, 0 135 M0 135 C0 106.69, 0 78.38, 0 45 M0 135 C0 103.86, 0 72.72, 0 45 M0 45 C0 15, 15 0, 45 0 M0 45 C0 15, 15 0, 45 0" stroke="#343a40" stroke-width="4" fill="none"></path></g><g transform="translate(595 1515.5) rotate(0 235 64.5)"><text x="235" y="35" font-family="Cascadia, Segoe UI Emoji" font-size="36px" fill="#343a40" text-anchor="middle" style="white-space: pre;" direction="ltr">Estimate how long we </text><text x="235" y="78" font-family="Cascadia, Segoe UI Emoji" font-size="36px" fill="#343a40" text-anchor="middle" style="white-space: pre;" direction="ltr">can sleep for, at </text><text x="235" y="121" font-family="Cascadia, Segoe UI Emoji" font-size="36px" fill="#343a40" text-anchor="middle" style="white-space: pre;" direction="ltr">minimum</text></g><g stroke-linecap="round" transform="translate(1330 1530) rotate(0 220 40)"><path d="M20 0 M20 0 C102.52 0, 185.04 0, 420 0 M20 0 C104.14 0, 188.29 0, 420 0 M420 0 C433.33 0, 440 6.67, 440 20 M420 0 C433.33 0, 440 6.67, 440 20 M440 20 C440 33.9, 440 47.81, 440 60 M440 20 C440 28.87, 440 37.73, 440 60 M440 60 C440 73.33, 433.33 80, 420 80 M440 60 C440 73.33, 433.33 80, 420 80 M420 80 C338.09 80, 256.18 80, 20 80 M420 80 C280.79 80, 141.57 80, 20 80 M20 80 C6.67 80, 0 73.33, 0 60 M20 80 C6.67 80, 0 73.33, 0 60 M0 60 C0 49.93, 0 39.85, 0 20 M0 60 C0 46.64, 0 33.28, 0 20 M0 20 C0 6.67, 6.67 0, 20 0 M0 20 C0 6.67, 6.67 0, 20 0" stroke="#343a40" stroke-width="4" fill="none"></path></g><g transform="translate(1335 1548.5) rotate(0 215 21.5)"><text x="215" y="35" font-family="Cascadia, Segoe UI Emoji" font-size="36px" fill="#343a40" text-anchor="middle" style="white-space: pre;" direction="ltr">Sleep</text></g><g stroke-linecap="round"><g transform="translate(1430 1490) rotate(0 -80 -110)"><path d="M0 0 C-26.67 -36.67, -133.33 -183.33, -160 -220 M0 0 C-26.67 -36.67, -133.33 -183.33, -160 -220" stroke="#343a40" stroke-width="4" fill="none"></path></g><g transform="translate(1430 1490) rotate(0 -80 -110)"><path d="M-135.12 -203.24 C-140.42 -206.8, -145.71 -210.37, -160 -220 M-135.12 -203.24 C-141.43 -207.48, -147.73 -211.73, -160 -220" stroke="#343a40" stroke-width="4" fill="none"></path></g><g transform="translate(1430 1490) rotate(0 -80 -110)"><path d="M-151.72 -191.17 C-153.48 -197.3, -155.24 -203.44, -160 -220 M-151.72 -191.17 C-153.82 -198.47, -155.92 -205.78, -160 -220" stroke="#343a40" stroke-width="4" fill="none"></path></g></g><g transform="translate(1210 950) rotate(0 116.5 21.5)"><text x="116.5" y="35" font-family="Cascadia, Segoe UI Emoji" font-size="36px" fill="#000000" text-anchor="middle" style="white-space: pre;" direction="ltr">Main thread</text></g><g stroke-linecap="round"><g transform="translate(10 890) rotate(0 110 0)"><path d="M0 0 C36.67 0, 183.33 0, 220 0 M0 0 C36.67 0, 183.33 0, 220 0" stroke="#343a40" stroke-width="4" fill="none"></path></g><g transform="translate(10 890) rotate(0 110 0)"><path d="M191.81 10.26 C201.55 6.71, 211.3 3.17, 220 0 M191.81 10.26 C201.56 6.71, 211.32 3.16, 220 0" stroke="#343a40" stroke-width="4" fill="none"></path></g><g transform="translate(10 890) rotate(0 110 0)"><path d="M191.81 -10.26 C201.55 -6.71, 211.3 -3.17, 220 0 M191.81 -10.26 C201.56 -6.71, 211.32 -3.16, 220 0" stroke="#343a40" stroke-width="4" fill="none"></path></g></g><g stroke-linecap="round" transform="translate(2530 170) rotate(0 220 58)"><path d="M29 0 M29 0 C166.15 0, 303.3 0, 411 0 M29 0 C137.85 0, 246.7 0, 411 0 M411 0 C430.33 0, 440 9.67, 440 29 M411 0 C430.33 0, 440 9.67, 440 29 M440 29 C440 49.66, 440 70.31, 440 87 M440 29 C440 50.31, 440 71.62, 440 87 M440 87 C440 106.33, 430.33 116, 411 116 M440 87 C440 106.33, 430.33 116, 411 116 M411 116 C275.05 116, 139.09 116, 29 116 M411 116 C303.12 116, 195.24 116, 29 116 M29 116 C9.67 116, 0 106.33, 0 87 M29 116 C9.67 116, 0 106.33, 0 87 M0 87 C0 64.41, 0 41.82, 0 29 M0 87 C0 69.32, 0 51.63, 0 29 M0 29 C0 9.67, 9.67 0, 29 0 M0 29 C0 9.67, 9.67 0, 29 0" stroke="#343a40" stroke-width="4" fill="none"></path></g><g transform="translate(2535 185) rotate(0 215 43)"><text x="215" y="35" font-family="Cascadia, Segoe UI Emoji" font-size="36px" fill="#343a40" text-anchor="middle" style="white-space: pre;" direction="ltr">Check our id has </text><text x="215" y="78" font-family="Cascadia, Segoe UI Emoji" font-size="36px" fill="#343a40" text-anchor="middle" style="white-space: pre;" direction="ltr">been scheduled</text></g><g transform="translate(2777.5 350) rotate(0 116.5 21.5)"><text x="116.5" y="35" font-family="Cascadia, Segoe UI Emoji" font-size="36px" fill="#087f5b" text-anchor="middle" style="white-space: pre;" direction="ltr">it has been</text></g><g transform="translate(2210 390) rotate(0 148 21.5)"><text x="148" y="35" font-family="Cascadia, Segoe UI Emoji" font-size="36px" fill="#a61e4d" text-anchor="middle" style="white-space: pre;" direction="ltr">it hasn't been</text></g><g stroke-linecap="round"><g transform="translate(1090 1570) rotate(0 110 0)"><path d="M0 0 C36.67 0, 183.33 0, 220 0 M0 0 C36.67 0, 183.33 0, 220 0" stroke="#000000" stroke-width="2" fill="none"></path></g><g transform="translate(1090 1570) rotate(0 110 0)"><path d="M191.81 10.26 C197.45 8.21, 203.1 6.15, 220 0 M191.81 10.26 C197.95 8.03, 204.08 5.79, 220 0" stroke="#000000" stroke-width="2" fill="none"></path></g><g transform="translate(1090 1570) rotate(0 110 0)"><path d="M191.81 -10.26 C197.45 -8.21, 203.1 -6.15, 220 0 M191.81 -10.26 C197.95 -8.03, 204.08 -5.79, 220 0" stroke="#000000" stroke-width="2" fill="none"></path></g></g><g stroke-linecap="round"><g transform="translate(1110 1250) rotate(0 -100 100)"><path d="M0 0 C-16.67 16.67, -66.67 66.67, -100 100 C-133.33 133.33, -183.33 183.33, -200 200 M0 0 C-16.67 16.67, -66.67 66.67, -100 100 C-133.33 133.33, -183.33 183.33, -200 200" stroke="#000000" stroke-width="2" fill="none"></path></g><g transform="translate(1110 1250) rotate(0 -100 100)"><path d="M-187.32 172.81 C-190.23 179.05, -193.14 185.3, -200 200 M-187.32 172.81 C-190.93 180.54, -194.53 188.27, -200 200" stroke="#000000" stroke-width="2" fill="none"></path></g><g transform="translate(1110 1250) rotate(0 -100 100)"><path d="M-172.81 187.32 C-179.05 190.23, -185.3 193.14, -200 200 M-172.81 187.32 C-180.54 190.93, -188.27 194.53, -200 200" stroke="#000000" stroke-width="2" fill="none"></path></g></g><g stroke-linecap="round" transform="translate(1070 170) rotate(0 220 58)"><path d="M29 0 M29 0 C108.6 0, 188.21 0, 411 0 M29 0 C163.27 0, 297.55 0, 411 0 M411 0 C430.33 0, 440 9.67, 440 29 M411 0 C430.33 0, 440 9.67, 440 29 M440 29 C440 41.17, 440 53.33, 440 87 M440 29 C440 49.4, 440 69.8, 440 87 M440 87 C440 106.33, 430.33 116, 411 116 M440 87 C440 106.33, 430.33 116, 411 116 M411 116 C318.21 116, 225.41 116, 29 116 M411 116 C284.51 116, 158.02 116, 29 116 M29 116 C9.67 116, 0 106.33, 0 87 M29 116 C9.67 116, 0 106.33, 0 87 M0 87 C0 68.48, 0 49.95, 0 29 M0 87 C0 71.92, 0 56.84, 0 29 M0 29 C0 9.67, 9.67 0, 29 0 M0 29 C0 9.67, 9.67 0, 29 0" stroke="#343a40" stroke-width="4" fill="none"></path></g><g transform="translate(1075 185) rotate(0 215 43)"><text x="215" y="35" font-family="Cascadia, Segoe UI Emoji" font-size="36px" fill="#343a40" text-anchor="middle" style="white-space: pre;" direction="ltr">Check if lock is </text><text x="215" y="78" font-family="Cascadia, Segoe UI Emoji" font-size="36px" fill="#343a40" text-anchor="middle" style="white-space: pre;" direction="ltr">still valid</text></g><g stroke-linecap="round"><g transform="translate(1290 450) rotate(0 0 -60)"><path d="M0 0 C0 -20, 0 -100, 0 -120 M0 0 C0 -20, 0 -100, 0 -120" stroke="#000000" stroke-width="4" fill="none"></path></g><g transform="translate(1290 450) rotate(0 0 -60)"><path d="M10.26 -91.81 C7.03 -100.69, 3.79 -109.57, 0 -120 M10.26 -91.81 C7.13 -100.42, 3.99 -109.03, 0 -120" stroke="#000000" stroke-width="4" fill="none"></path></g><g transform="translate(1290 450) rotate(0 0 -60)"><path d="M-10.26 -91.81 C-7.03 -100.69, -3.79 -109.57, 0 -120 M-10.26 -91.81 C-7.13 -100.42, -3.99 -109.03, 0 -120" stroke="#000000" stroke-width="4" fill="none"></path></g></g><g stroke-linecap="round"><g transform="translate(1550 230) rotate(0 90 0)"><path d="M0 0 C30 0, 150 0, 180 0 M0 0 C30 0, 150 0, 180 0" stroke="#000000" stroke-width="4" fill="none"></path></g><g transform="translate(1550 230) rotate(0 90 0)"><path d="M151.81 10.26 C161.34 6.79, 170.86 3.33, 180 0 M151.81 10.26 C159.69 7.39, 167.58 4.52, 180 0" stroke="#000000" stroke-width="4" fill="none"></path></g><g transform="translate(1550 230) rotate(0 90 0)"><path d="M151.81 -10.26 C161.34 -6.79, 170.86 -3.33, 180 0 M151.81 -10.26 C159.69 -7.39, 167.58 -4.52, 180 0" stroke="#000000" stroke-width="4" fill="none"></path></g></g><g stroke-linecap="round"><g transform="translate(1030 230) rotate(0 -230 0)"><path d="M0 0 C-76.67 0, -383.33 0, -460 0 M0 0 C-76.67 0, -383.33 0, -460 0" stroke="#000000" stroke-width="4" fill="none"></path></g><g transform="translate(1030 230) rotate(0 -230 0)"><path d="M-431.81 -10.26 C-441.3 -6.81, -450.79 -3.35, -460 0 M-431.81 -10.26 C-442.14 -6.5, -452.47 -2.74, -460 0" stroke="#000000" stroke-width="4" fill="none"></path></g><g transform="translate(1030 230) rotate(0 -230 0)"><path d="M-431.81 10.26 C-441.3 6.81, -450.79 3.35, -460 0 M-431.81 10.26 C-442.14 6.5, -452.47 2.74, -460 0" stroke="#000000" stroke-width="4" fill="none"></path></g></g><g transform="translate(750 170) rotate(0 85 21.5)"><text x="0" y="35" font-family="Cascadia, Segoe UI Emoji" font-size="36px" fill="#a61e4d" text-anchor="start" style="white-space: pre;" direction="ltr">it's not</text></g><g transform="translate(1570 170) rotate(0 53 21.5)"><text x="0" y="35" font-family="Cascadia, Segoe UI Emoji" font-size="36px" fill="#087f5b" text-anchor="start" style="white-space: pre;" direction="ltr">it is</text></g><g stroke-linecap="round"><g transform="translate(2250 230) rotate(0 120 0)"><path d="M0 0 C40 0, 200 0, 240 0 M0 0 C40 0, 200 0, 240 0" stroke="#000000" stroke-width="4" fill="none"></path></g><g transform="translate(2250 230) rotate(0 120 0)"><path d="M211.81 10.26 C217.75 8.1, 223.7 5.93, 240 0 M211.81 10.26 C220.57 7.07, 229.33 3.88, 240 0" stroke="#000000" stroke-width="4" fill="none"></path></g><g transform="translate(2250 230) rotate(0 120 0)"><path d="M211.81 -10.26 C217.75 -8.1, 223.7 -5.93, 240 0 M211.81 -10.26 C220.57 -7.07, 229.33 -3.88, 240 0" stroke="#000000" stroke-width="4" fill="none"></path></g></g><g stroke-linecap="round"><g transform="translate(2530 310) rotate(0 -150 20)"><path d="M0 0 C-26.67 6.67, -110 40, -160 40 C-210 40, -276.67 6.67, -300 0 M0 0 C-26.67 6.67, -110 40, -160 40 C-210 40, -276.67 6.67, -300 0" stroke="#000000" stroke-width="4" fill="none"></path></g><g transform="translate(2530 310) rotate(0 -150 20)"><path d="M-270 0.23 C-281.27 0.14, -292.54 0.06, -300 0 M-270 0.23 C-279.22 0.16, -288.43 0.09, -300 0" stroke="#000000" stroke-width="4" fill="none"></path></g><g transform="translate(2530 310) rotate(0 -150 20)"><path d="M-277.17 19.46 C-285.74 12.15, -294.32 4.84, -300 0 M-277.17 19.46 C-284.18 13.48, -291.19 7.5, -300 0" stroke="#000000" stroke-width="4" fill="none"></path></g></g><g stroke-linecap="round"><g transform="translate(2750 310) rotate(0 0 70)"><path d="M0 0 C0 23.33, 0 116.67, 0 140 M0 0 C0 23.33, 0 116.67, 0 140" stroke="#000000" stroke-width="4" fill="none"></path></g><g transform="translate(2750 310) rotate(0 0 70)"><path d="M-10.26 111.81 C-6.5 122.13, -2.75 132.46, 0 140 M-10.26 111.81 C-7.9 118.29, -5.55 124.76, 0 140" stroke="#000000" stroke-width="4" fill="none"></path></g><g transform="translate(2750 310) rotate(0 0 70)"><path d="M10.26 111.81 C6.5 122.13, 2.75 132.46, 0 140 M10.26 111.81 C7.9 118.29, 5.55 124.76, 0 140" stroke="#000000" stroke-width="4" fill="none"></path></g></g><g stroke-linecap="round"><g transform="translate(3450 430) rotate(0 0 -70)"><path d="M0 0 C0 -23.33, 0 -116.67, 0 -140 M0 0 C0 -23.33, 0 -116.67, 0 -140" stroke="#000000" stroke-width="4" fill="none"></path></g><g transform="translate(3450 430) rotate(0 0 -70)"><path d="M10.26 -111.81 C7.78 -118.62, 5.3 -125.44, 0 -140 M10.26 -111.81 C6.95 -120.89, 3.65 -129.98, 0 -140" stroke="#000000" stroke-width="4" fill="none"></path></g><g transform="translate(3450 430) rotate(0 0 -70)"><path d="M-10.26 -111.81 C-7.78 -118.62, -5.3 -125.44, 0 -140 M-10.26 -111.81 C-6.95 -120.89, -3.65 -129.98, 0 -140" stroke="#000000" stroke-width="4" fill="none"></path></g></g><g transform="translate(290 1070) rotate(0 11 21.5)"><text x="0" y="35" font-family="Cascadia, Segoe UI Emoji" font-size="36px" fill="#2b8a3e" text-anchor="start" style="white-space: pre;" direction="ltr">1</text></g><g transform="translate(630 1430) rotate(0 11 21.5)"><text x="0" y="35" font-family="Cascadia, Segoe UI Emoji" font-size="36px" fill="#2b8a3e" text-anchor="start" style="white-space: pre;" direction="ltr">2</text></g><g transform="translate(310 350) rotate(0 11 21.5)"><text x="0" y="35" font-family="Cascadia, Segoe UI Emoji" font-size="36px" fill="#2b8a3e" text-anchor="start" style="white-space: pre;" direction="ltr">3</text></g><g transform="translate(1110 110) rotate(0 11 21.5)"><text x="0" y="35" font-family="Cascadia, Segoe UI Emoji" font-size="36px" fill="#2b8a3e" text-anchor="start" style="white-space: pre;" direction="ltr">4</text></g><g transform="translate(1810 110) rotate(0 11 21.5)"><text x="0" y="35" font-family="Cascadia, Segoe UI Emoji" font-size="36px" fill="#2b8a3e" text-anchor="start" style="white-space: pre;" direction="ltr">5</text></g><g transform="translate(2590 110) rotate(0 11 21.5)"><text x="0" y="35" font-family="Cascadia, Segoe UI Emoji" font-size="36px" fill="#2b8a3e" text-anchor="start" style="white-space: pre;" direction="ltr">6</text></g></svg>
